<?xml version="1.0" encoding="utf-8"?>
<!-- Generator: Adobe Illustrator 24.1.1, SVG Export Plug-In . SVG Version: 6.00 Build 0)  -->
<svg version="1.1" id="Layer_1" xmlns="http://www.w3.org/2000/svg" xmlns:xlink="http://www.w3.org/1999/xlink" x="0px" y="0px"
	 viewBox="0 0 323.87 229" style="enable-background:new 0 0 323.87 229;" xml:space="preserve">
<style type="text/css">
	.st0{clip-path:url(#SVGID_2_);}
	.st1{clip-path:url(#SVGID_4_);fill:#19447A;}
	.st2{clip-path:url(#SVGID_4_);fill:#231F20;}
</style>
<g>
	<g>
		<defs>
			<rect id="SVGID_1_" width="323.87" height="229"/>
		</defs>
		<clipPath id="SVGID_2_">
			<use xlink:href="#SVGID_1_"  style="overflow:visible;"/>
		</clipPath>
		<g class="st0">
			<defs>
				<rect id="SVGID_3_" width="323.87" height="229"/>
			</defs>
			<clipPath id="SVGID_4_">
				<use xlink:href="#SVGID_3_"  style="overflow:visible;"/>
			</clipPath>
			<path class="st1" d="M7.36,124.7c0.18-0.74,0.1-1.51,0.2-2.26c0.48-3.84,1.83-7.28,4.48-10.1c2.96-3.16,6.61-4.66,10.9-4.51
				c2.89,0.1,5.49,1.05,7.83,2.79c0.11,0.08,0.22,0.15,0.35,0.25c0.12-0.19,0.07-0.38,0.07-0.56c0-3.52,0-7.04,0.01-10.56
				c0.01-2.99,2.71-4.82,5.4-3.65c1.42,0.62,2.11,1.79,2.24,3.33c0.01,0.12,0.01,0.24,0.01,0.36c0,12.61,0,25.22,0,37.83
				c0,2.82-2.42,4.65-5.05,3.85c-1.11-0.34-1.89-1.08-2.3-2.19c-0.15-0.42-0.24-0.45-0.58-0.17c-1.93,1.59-4.09,2.7-6.58,2.98
				c-5.69,0.65-10.25-1.42-13.63-6.1c-2.15-2.98-3.13-6.39-3.25-10.07c-0.01-0.16,0.07-0.35-0.08-0.49V124.7z M31.43,125.04
				c0.01-1.79-0.3-3.52-1.09-5.13c-1.39-2.84-3.57-4.55-6.75-4.71c-3.02-0.15-5.47,1.05-7.02,3.69c-2.31,3.92-2.37,8.03-0.18,12.01
				c2.81,5.1,9.66,5.23,12.91,0.99C30.83,129.87,31.43,127.55,31.43,125.04"/>
			<path class="st1" d="M140.14,124.39c-0.19,0.42-0.28,0.88-0.53,1.28c-0.78,1.2-1.88,1.84-3.3,1.85c-6.22,0.01-12.43,0-18.65,0
				c-0.58,0-0.58,0-0.44,0.59c0.95,3.87,4,6.43,8.04,6.74c2.85,0.22,5.37-0.54,7.5-2.57c1.33-1.28,3.64-1.18,4.88,0.13
				c1.35,1.42,1.3,3.6-0.14,5.1c-2.28,2.36-5.06,3.83-8.23,4.4c-4.95,0.89-9.6,0.04-13.7-3.07c-2.99-2.27-4.81-5.35-5.61-9.03
				c-0.94-4.33-0.67-8.6,1.16-12.66c2.11-4.68,5.57-7.9,10.59-8.95c6.32-1.32,11.45,0.92,15.34,6.09c1.79,2.38,2.73,5.13,3,8.11
				c0.01,0.11-0.04,0.25,0.09,0.33V124.39z M117.45,120.64h7.89c2.08,0,4.16-0.01,6.23,0.01c0.43,0.01,0.47-0.13,0.36-0.49
				c-0.26-0.88-0.66-1.68-1.27-2.35c-2.14-2.34-4.79-3.08-7.81-2.41C120.07,116.03,118.3,117.8,117.45,120.64"/>
			<path class="st1" d="M66.93,110.94c0.04-0.11,0.09-0.22,0.13-0.33c0.61-1.64,2.08-2.62,3.73-2.49c1.9,0.15,3.21,1.26,3.57,3.06
				c0.07,0.37,0.09,0.76,0.09,1.14c0,8.39,0.01,16.79,0,25.18c0,2.06-1.1,3.6-2.87,4.04c-2.01,0.5-3.83-0.47-4.56-2.43
				c-0.03-0.08-0.07-0.15-0.12-0.27c-0.67,0.54-1.34,1.03-2.05,1.48c-4.75,3.01-11.34,2.38-15.74-1.24
				c-3.16-2.6-4.97-6.02-5.72-10.03c-0.77-4.17-0.48-8.26,1.27-12.16c2.06-4.59,5.42-7.7,10.34-8.76c4.16-0.9,8.01-0.02,11.47,2.52
				c0.11,0.08,0.22,0.17,0.33,0.25C66.85,110.92,66.88,110.92,66.93,110.94 M59.27,115.18c-2.97,0.01-5,0.97-6.56,2.92
				c-2.71,3.4-2.98,9.12-0.63,12.97c3.13,5.14,10.4,5.15,13.41-0.06c2.17-3.76,2.19-7.71,0.2-11.56
				C64.25,116.67,61.9,115.21,59.27,115.18"/>
			<path class="st1" d="M92.83,129.07c1.21-2.87,2.37-5.62,3.54-8.37c1.4-3.32,2.8-6.65,4.21-9.97c0.8-1.89,2.43-2.81,4.25-2.44
				c2.24,0.45,3.48,2.66,2.64,4.83c-0.65,1.69-1.4,3.34-2.12,5.01c-2.99,6.93-5.98,13.85-8.97,20.78c-0.61,1.41-1.53,2.41-3.07,2.68
				c-1.89,0.34-3.51-0.53-4.28-2.31c-1.58-3.64-3.15-7.29-4.72-10.93c-2.07-4.79-4.14-9.57-6.2-14.36
				c-0.55-1.28-0.81-2.59-0.03-3.89c0.84-1.4,2.11-1.97,3.68-1.84c1.57,0.13,2.67,0.98,3.29,2.43c2.32,5.45,4.62,10.91,6.92,16.36
				C92.24,127.68,92.51,128.31,92.83,129.07"/>
			<path class="st1" d="M202.97,113.31c1.64,2.19,2.47,5.07,2.47,8.66v16.72c0,0.51-0.17,0.94-0.49,1.27
				c-0.33,0.34-0.75,0.5-1.25,0.5c-0.5,0-0.92-0.17-1.25-0.5c-0.33-0.33-0.49-0.76-0.49-1.27v-16.54c0-2.6-0.61-4.72-1.83-6.35
				c-1.22-1.63-3.1-2.45-5.66-2.45c-1.62,0-3.16,0.39-4.61,1.18c-1.45,0.79-2.62,1.86-3.51,3.22c-0.89,1.36-1.33,2.83-1.33,4.4
				v16.54c0,0.51-0.17,0.94-0.49,1.27c-0.33,0.34-0.75,0.5-1.25,0.5c-0.5,0-0.92-0.17-1.25-0.5c-0.33-0.33-0.49-0.76-0.49-1.27
				v-16.72c0-2.56-0.58-4.64-1.74-6.23c-1.16-1.59-2.98-2.39-5.45-2.39c-1.59,0-3.08,0.39-4.5,1.18c-1.41,0.79-2.55,1.84-3.42,3.16
				c-0.87,1.32-1.31,2.75-1.31,4.28v16.72c0,0.51-0.16,0.94-0.49,1.27c-0.33,0.34-0.75,0.5-1.25,0.5c-0.5,0-0.92-0.17-1.25-0.5
				c-0.33-0.33-0.49-0.76-0.49-1.27v-26.47c0-0.51,0.16-0.94,0.49-1.27c0.33-0.33,0.74-0.5,1.25-0.5c0.5,0,0.92,0.17,1.25,0.5
				c0.33,0.34,0.49,0.76,0.49,1.27v3.43c1.04-1.61,2.46-2.95,4.23-4.02c1.78-1.06,3.65-1.6,5.63-1.6c2.24,0,4.18,0.55,5.8,1.65
				c1.62,1.1,2.78,2.72,3.48,4.85c0.81-1.73,2.3-3.25,4.47-4.55c2.17-1.3,4.35-1.95,6.56-1.95
				C198.76,110.03,201.33,111.12,202.97,113.31"/>
			<path class="st1" d="M239.08,124.83c-0.35,0.34-0.75,0.5-1.22,0.5h-21.93c0,2.36,0.47,4.48,1.42,6.35
				c0.95,1.87,2.3,3.35,4.06,4.43c1.76,1.08,3.84,1.62,6.24,1.62c1.86,0,3.52-0.39,4.99-1.18c1.47-0.79,2.65-1.79,3.54-3.01
				c0.43-0.35,0.83-0.53,1.22-0.53c0.39,0,0.73,0.16,1.04,0.47c0.31,0.32,0.46,0.67,0.46,1.06c0,0.43-0.19,0.85-0.58,1.24
				c-1.24,1.54-2.79,2.8-4.67,3.78c-1.88,0.98-3.86,1.48-5.95,1.48c-2.98,0-5.61-0.65-7.89-1.95c-2.28-1.3-4.06-3.12-5.34-5.47
				c-1.28-2.34-1.91-5.05-1.91-8.12c0-3.23,0.63-6.06,1.89-8.48c1.26-2.42,2.93-4.27,5.02-5.55c2.09-1.28,4.31-1.92,6.67-1.92
				c2.32,0,4.5,0.55,6.53,1.65c2.03,1.1,3.68,2.72,4.96,4.84c1.28,2.13,1.93,4.65,1.97,7.56
				C239.6,124.09,239.43,124.5,239.08,124.83 M219.91,115.35c-1.91,1.58-3.14,3.84-3.68,6.79h19.78v-0.47
				c-0.19-1.77-0.77-3.32-1.74-4.64c-0.97-1.32-2.18-2.32-3.63-3.01c-1.45-0.69-2.95-1.03-4.5-1.03
				C223.9,112.98,221.82,113.77,219.91,115.35"/>
			<path class="st1" d="M272.12,97.24c0.33,0.34,0.49,0.76,0.49,1.27v40.17c0,0.51-0.17,0.94-0.49,1.27
				c-0.33,0.34-0.75,0.5-1.25,0.5c-0.5,0-0.92-0.17-1.25-0.5c-0.33-0.33-0.49-0.76-0.49-1.27v-4.14c-0.97,1.81-2.41,3.35-4.32,4.61
				c-1.91,1.26-4.03,1.89-6.35,1.89c-2.55,0-4.86-0.68-6.93-2.04c-2.07-1.36-3.7-3.24-4.9-5.64c-1.2-2.4-1.8-5.1-1.8-8.09
				c0-2.95,0.6-5.63,1.8-8.03c1.2-2.4,2.83-4.28,4.9-5.64c2.07-1.36,4.36-2.04,6.87-2.04c2.28,0,4.39,0.58,6.32,1.74
				c1.93,1.16,3.4,2.67,4.41,4.52V98.51c0-0.51,0.16-0.93,0.49-1.27c0.33-0.33,0.74-0.5,1.25-0.5
				C271.37,96.74,271.79,96.91,272.12,97.24 M264.23,136.14c1.6-1.06,2.86-2.55,3.77-4.46c0.91-1.91,1.36-4.05,1.36-6.41
				c0-2.32-0.45-4.43-1.36-6.32c-0.91-1.89-2.17-3.38-3.77-4.46c-1.61-1.08-3.41-1.62-5.42-1.62c-2.01,0-3.82,0.54-5.42,1.62
				c-1.61,1.08-2.86,2.57-3.77,4.46c-0.91,1.89-1.36,4-1.36,6.32c0,2.36,0.45,4.49,1.36,6.38c0.91,1.89,2.17,3.38,3.77,4.46
				c1.6,1.08,3.41,1.62,5.42,1.62C260.81,137.74,262.62,137.21,264.23,136.14"/>
			<path class="st1" d="M281.54,105.22c-0.43-0.37-0.64-0.92-0.64-1.62V103c0-0.71,0.22-1.25,0.67-1.62
				c0.44-0.37,1.05-0.56,1.83-0.56c1.55,0,2.32,0.73,2.32,2.19v0.59c0,0.71-0.2,1.25-0.61,1.62c-0.41,0.37-1,0.56-1.77,0.56
				C282.57,105.78,281.97,105.59,281.54,105.22 M284.59,139.95c-0.33,0.34-0.75,0.5-1.25,0.5c-0.5,0-0.92-0.17-1.25-0.5
				c-0.33-0.33-0.49-0.76-0.49-1.27v-27.18c0-0.51,0.16-0.94,0.49-1.27c0.33-0.33,0.74-0.5,1.25-0.5c0.5,0,0.92,0.17,1.25,0.5
				c0.33,0.34,0.49,0.76,0.49,1.27v27.18C285.08,139.2,284.92,139.62,284.59,139.95"/>
			<path class="st1" d="M319.45,110.8c0.33,0.35,0.49,0.79,0.49,1.3v26.59c0,0.51-0.16,0.94-0.49,1.27c-0.33,0.34-0.75,0.5-1.25,0.5
				c-0.5,0-0.92-0.17-1.25-0.5c-0.33-0.33-0.49-0.76-0.49-1.27v-3.96c-0.97,1.77-2.42,3.27-4.35,4.49
				c-1.94,1.22-4.04,1.83-6.32,1.83c-2.59,0-4.92-0.69-6.99-2.07c-2.07-1.38-3.69-3.27-4.87-5.67c-1.18-2.4-1.77-5.1-1.77-8.09
				c0-2.99,0.6-5.68,1.8-8.06c1.2-2.38,2.83-4.24,4.9-5.58c2.07-1.34,4.36-2.01,6.87-2.01c2.32,0,4.45,0.57,6.38,1.71
				c1.93,1.14,3.38,2.64,4.35,4.49v-3.66c0-0.51,0.16-0.95,0.49-1.3c0.33-0.35,0.74-0.53,1.25-0.53
				C318.7,110.27,319.12,110.44,319.45,110.8 M311.56,136.11c1.6-1.08,2.86-2.58,3.77-4.49c0.91-1.91,1.36-4.05,1.36-6.41
				c0-2.28-0.46-4.37-1.36-6.26c-0.91-1.89-2.17-3.38-3.77-4.46c-1.61-1.08-3.41-1.62-5.42-1.62c-2.01,0-3.82,0.53-5.42,1.6
				c-1.61,1.06-2.86,2.53-3.77,4.4c-0.91,1.87-1.36,3.99-1.36,6.35c0,2.36,0.44,4.5,1.33,6.41c0.89,1.91,2.14,3.41,3.74,4.49
				c1.6,1.08,3.43,1.62,5.48,1.62C308.15,137.74,309.96,137.2,311.56,136.11"/>
			<path class="st1" d="M110.55,53.18c0.56,0.35,1.16,0.65,1.68,1.06c10.36,8.21,19.55,17.65,28.26,27.62
				c5.18,5.92,10.54,11.66,17.7,15.23c0.24,0.12,0.42,0.36,1.06,0.91c-5.84-0.93-10.56-3.03-14.28-6.97
				c-5.22-5.54-10.21-11.31-15.34-16.94c-3.86-4.24-7.79-8.41-11.7-12.6c-0.44-0.47-1-0.82-1.76-0.99
				c10.26,10.46,16.06,24.62,28.22,34.25c-4.89-0.75-8.18-3.05-10.8-6.39c-2.54-3.23-4.93-6.57-7.39-9.86
				c-0.18,0.06-0.36,0.13-0.55,0.19c0.22,0.96,0.66,1.94,0.59,2.88c-0.09,1.28-0.2,3.04-0.99,3.66c-0.91,0.71-2.76,0.86-3.89,0.43
				c-4.28-1.63-5.53-5.55-5.95-9.68c-0.18-1.74-0.84-2.2-2.31-2.67c-11.54-3.66-23.05-7.42-34.57-11.17
				c-0.7-0.23-1.35-0.58-2.02-0.88l0.09-0.78c1.4,0.19,2.85,0.21,4.19,0.6c10.4,3.03,20.78,6.14,31.18,9.18
				c1.5,0.44,3.06,0.71,4.6,0.98c2,0.35,3.11-0.82,2.14-2.59c-1.48-2.69-3.08-5.47-5.22-7.61c-3.45-3.45-7.43-6.34-11.06-9.61
				c-0.9-0.81-1.97-2.31-1.76-3.22c0.19-0.86,1.89-1.79,3.03-1.94c7.67-1.01,15.03,0.56,22.16,3.34
				c8.91,3.47,17.12,8.32,25.07,13.62c1.52,1.02,2.72,1.06,4.3,0.36c11.92-5.32,20.38-14.39,26.97-25.53
				c2.87-4.86,4.98-10.02,6.28-15.56c0.31-1.31,1.4-3.08,2.45-3.36c1.06-0.28,3.05,0.69,3.73,1.72c2.58,3.97,5.16,8.03,7.09,12.35
				c5.08,11.35,7.56,23.38,8.02,35.82c0.07,1.79,0.65,2.67,2.19,3.44c5.89,2.95,11.16,6.78,15.34,12.02
				c0.93,1.17,1.76,2.48,2.32,3.87c0.31,0.76-0.04,1.8-0.1,2.71c-0.83-0.1-1.75-0.01-2.48-0.35c-1.69-0.79-3.22-1.95-4.93-2.66
				c-2.74-1.13-5.47-0.46-6.22,1.29c-0.79,1.84,0.39,4.3,2.87,5.81c1.35,0.81,2.9,1.32,4.11,2.29c0.84,0.67,1.81,1.98,1.68,2.85
				c-0.12,0.86-1.51,2.1-2.41,2.17c-5.11,0.4-10.28,0.98-15.37,0.61c-10.21-0.76-19.18-5.21-27.23-11.37
				c-9.25-7.09-18.25-14.51-27.29-21.88c-8.21-6.7-17.1-12.25-26.65-16.72c-0.68-0.32-1.39-0.56-2.1-0.8
				c-0.19-0.06-0.43,0.01-0.9,0.04c0.33,0.38,0.49,0.69,0.74,0.84c12.62,7.43,23.74,16.89,34.78,26.47
				c5,4.34,10.14,8.53,15.26,12.72c4.93,4.04,10.38,7.15,16.37,9.29c-0.02,0.2-0.04,0.4-0.07,0.61c-1.58-0.17-3.19-0.2-4.74-0.53
				c-6.12-1.28-11.14-4.75-15.83-8.69c-9.73-8.18-19.15-16.77-29.07-24.71c-6.8-5.44-14.21-10.07-21.37-15.03
				c-0.76-0.53-1.69-0.81-2.79-0.83c0.19,0.25,0.32,0.58,0.57,0.75c10.99,7.73,20.61,17.07,30.35,26.31
				c5.62,5.33,11.63,10.26,17.64,15.15c2.48,2.01,5.42,3.42,8.66,5.43c-3.81-0.16-7.09-0.94-9.77-2.79
				c-4.25-2.93-8.38-6.13-12.14-9.68c-7.29-6.87-14.09-14.28-21.46-21.06c-5.09-4.67-10.79-8.65-16.23-12.92
				c-0.68-0.53-1.48-0.9-2.22-1.35L110.55,53.18"/>
			<polygon class="st1" points="222.61,30.77 222.61,31.47 220.67,31.47 220.67,36.9 219.85,36.9 219.85,31.47 217.9,31.47 
				217.9,30.77 			"/>
			<path class="st1" d="M226.52,34.9c0.03,0.08,0.06,0.15,0.09,0.23c0.03-0.08,0.06-0.16,0.09-0.23c0.03-0.07,0.07-0.15,0.11-0.22
				l2.04-3.76c0.04-0.07,0.07-0.11,0.11-0.12c0.04-0.01,0.1-0.02,0.17-0.02h0.6v6.12h-0.71v-4.5c0-0.06,0-0.12,0-0.19
				c0-0.07,0.01-0.14,0.01-0.21l-2.06,3.83c-0.07,0.13-0.17,0.19-0.29,0.19h-0.12c-0.13,0-0.22-0.06-0.29-0.19l-2.11-3.84
				c0.01,0.07,0.02,0.15,0.02,0.22c0,0.07,0.01,0.14,0.01,0.2v4.5h-0.71v-6.12h0.6c0.07,0,0.13,0.01,0.17,0.02
				c0.04,0.01,0.08,0.05,0.11,0.12l2.08,3.77C226.46,34.75,226.5,34.82,226.52,34.9"/>
			<path class="st2" d="M70.88,157.18c1.24,0,2.31,0.15,3.2,0.44c0.89,0.29,1.63,0.7,2.2,1.22c0.58,0.52,1,1.13,1.28,1.83
				c0.27,0.7,0.41,1.46,0.41,2.28c0,0.88-0.14,1.69-0.42,2.42c-0.28,0.74-0.71,1.36-1.3,1.89c-0.58,0.52-1.32,0.93-2.21,1.23
				c-0.89,0.29-1.95,0.44-3.17,0.44h-2.13v5.9h-4.09v-17.64H70.88z M70.88,165.84c1.07,0,1.83-0.25,2.3-0.76
				c0.47-0.51,0.7-1.22,0.7-2.13c0-0.4-0.06-0.77-0.18-1.1c-0.12-0.33-0.3-0.62-0.55-0.85c-0.25-0.24-0.56-0.42-0.93-0.55
				c-0.38-0.13-0.82-0.19-1.34-0.19h-2.13v5.6H70.88z"/>
			<path class="st2" d="M82.98,164.2c0.39-0.68,0.83-1.21,1.34-1.6c0.5-0.39,1.08-0.58,1.74-0.58c0.57,0,1.03,0.13,1.38,0.4
				l-0.24,2.76c-0.04,0.18-0.11,0.3-0.2,0.36c-0.09,0.06-0.22,0.1-0.38,0.1c-0.06,0-0.15,0-0.25-0.01
				c-0.11-0.01-0.21-0.02-0.33-0.03c-0.11-0.01-0.23-0.02-0.35-0.04c-0.12-0.01-0.22-0.02-0.32-0.02c-0.55,0-0.99,0.15-1.31,0.44
				c-0.33,0.29-0.6,0.69-0.83,1.21v7.63h-3.75v-12.56h2.23c0.19,0,0.34,0.02,0.47,0.05c0.13,0.03,0.23,0.08,0.32,0.15
				c0.08,0.07,0.15,0.16,0.19,0.27c0.04,0.11,0.08,0.25,0.12,0.41L82.98,164.2z"/>
			<path class="st2" d="M92.94,158.83c0,0.3-0.06,0.58-0.18,0.84c-0.12,0.26-0.29,0.49-0.5,0.69c-0.21,0.2-0.45,0.36-0.73,0.47
				c-0.28,0.12-0.58,0.18-0.89,0.18c-0.31,0-0.59-0.06-0.86-0.18c-0.27-0.12-0.5-0.27-0.71-0.47c-0.21-0.2-0.37-0.43-0.48-0.69
				c-0.12-0.26-0.18-0.54-0.18-0.84c0-0.31,0.06-0.59,0.18-0.86c0.12-0.27,0.28-0.5,0.48-0.7c0.21-0.2,0.44-0.36,0.71-0.47
				c0.27-0.11,0.55-0.17,0.86-0.17c0.31,0,0.61,0.06,0.89,0.17c0.28,0.11,0.52,0.27,0.73,0.47c0.21,0.2,0.38,0.44,0.5,0.7
				C92.87,158.23,92.94,158.52,92.94,158.83 M92.55,174.83h-3.75v-12.56h3.75V174.83z"/>
			<path class="st2" d="M98.64,163.62c0.24-0.23,0.49-0.44,0.75-0.63c0.26-0.19,0.53-0.36,0.83-0.49c0.29-0.13,0.61-0.24,0.96-0.31
				c0.34-0.08,0.72-0.12,1.12-0.12c0.69,0,1.29,0.12,1.82,0.36c0.53,0.24,0.97,0.57,1.34,0.99c0.36,0.42,0.64,0.93,0.82,1.51
				c0.19,0.59,0.28,1.22,0.28,1.91v7.98h-3.75v-7.98c0-0.61-0.14-1.09-0.42-1.43c-0.28-0.34-0.7-0.51-1.25-0.51
				c-0.41,0-0.8,0.09-1.16,0.26c-0.36,0.17-0.71,0.41-1.05,0.71v8.96h-3.75v-12.56h2.33c0.47,0,0.78,0.21,0.92,0.63L98.64,163.62z"
				/>
			<path class="st2" d="M113.3,175.02c-0.6,0-1.12-0.09-1.58-0.26c-0.46-0.17-0.84-0.42-1.15-0.74c-0.31-0.32-0.55-0.7-0.71-1.16
				c-0.16-0.45-0.24-0.96-0.24-1.51v-6.49h-1.07c-0.19,0-0.36-0.06-0.5-0.19c-0.14-0.13-0.21-0.31-0.21-0.55v-1.47l2-0.39l0.74-3.06
				c0.1-0.39,0.37-0.58,0.82-0.58h1.96v3.67h3.11v2.57h-3.11v6.24c0,0.29,0.07,0.53,0.21,0.72c0.14,0.19,0.35,0.28,0.61,0.28
				c0.14,0,0.25-0.01,0.35-0.04c0.09-0.03,0.17-0.06,0.24-0.1c0.07-0.04,0.13-0.07,0.19-0.1c0.06-0.03,0.13-0.04,0.21-0.04
				c0.11,0,0.2,0.03,0.27,0.08c0.07,0.05,0.14,0.14,0.21,0.25l1.14,1.78c-0.48,0.36-1.03,0.64-1.63,0.82
				C114.58,174.93,113.95,175.02,113.3,175.02"/>
			<rect x="129.85" y="155.97" class="st2" width="2.91" height="22.97"/>
			<path class="st2" d="M148.36,157.18c1.22,0,2.26,0.11,3.11,0.34c0.86,0.23,1.55,0.55,2.1,0.96c0.54,0.41,0.93,0.91,1.18,1.5
				c0.25,0.59,0.37,1.25,0.37,1.97c0,0.4-0.06,0.78-0.17,1.14s-0.29,0.71-0.53,1.03c-0.24,0.32-0.55,0.61-0.93,0.88
				c-0.38,0.27-0.84,0.5-1.37,0.69c1.16,0.28,2.02,0.74,2.58,1.37c0.56,0.63,0.84,1.44,0.84,2.45c0,0.75-0.15,1.45-0.44,2.09
				c-0.29,0.65-0.72,1.21-1.28,1.69c-0.56,0.48-1.25,0.86-2.08,1.13c-0.82,0.27-1.76,0.41-2.82,0.41h-7.05v-17.64H148.36z
				 M145.96,160.24v4.36h2.13c0.45,0,0.86-0.03,1.22-0.1c0.36-0.06,0.67-0.18,0.93-0.34s0.45-0.38,0.58-0.67
				c0.13-0.28,0.2-0.64,0.2-1.07c0-0.42-0.05-0.77-0.16-1.05c-0.11-0.28-0.27-0.5-0.48-0.67c-0.22-0.17-0.49-0.29-0.83-0.36
				c-0.34-0.07-0.73-0.11-1.19-0.11H145.96z M148.85,171.74c0.54,0,0.98-0.07,1.33-0.21c0.34-0.14,0.61-0.32,0.81-0.53
				c0.19-0.22,0.33-0.46,0.4-0.74c0.07-0.27,0.11-0.55,0.11-0.84c0-0.32-0.04-0.61-0.13-0.87c-0.08-0.26-0.23-0.48-0.44-0.65
				s-0.48-0.32-0.82-0.41c-0.34-0.1-0.77-0.15-1.28-0.15h-2.86v4.4H148.85z"/>
			<path class="st2" d="M160.96,164.2c0.39-0.68,0.83-1.21,1.34-1.6c0.5-0.39,1.08-0.58,1.74-0.58c0.56,0,1.03,0.13,1.38,0.4
				l-0.24,2.76c-0.04,0.18-0.11,0.3-0.2,0.36c-0.09,0.06-0.22,0.1-0.38,0.1c-0.07,0-0.15,0-0.25-0.01
				c-0.11-0.01-0.21-0.02-0.33-0.03c-0.11-0.01-0.23-0.02-0.34-0.04c-0.12-0.01-0.22-0.02-0.32-0.02c-0.55,0-0.99,0.15-1.31,0.44
				c-0.33,0.29-0.6,0.69-0.83,1.21v7.63h-3.75v-12.56h2.23c0.19,0,0.34,0.02,0.47,0.05c0.13,0.03,0.23,0.08,0.31,0.15
				c0.09,0.07,0.15,0.16,0.19,0.27c0.04,0.11,0.08,0.25,0.12,0.41L160.96,164.2z"/>
			<path class="st2" d="M166.28,164.01c0.76-0.67,1.6-1.17,2.52-1.5c0.92-0.33,1.92-0.49,2.97-0.49c0.76,0,1.44,0.12,2.05,0.37
				c0.61,0.25,1.13,0.59,1.55,1.03c0.42,0.44,0.75,0.96,0.97,1.57c0.23,0.61,0.34,1.27,0.34,1.99v7.85h-1.72
				c-0.36,0-0.62-0.05-0.81-0.15c-0.18-0.1-0.33-0.3-0.45-0.61l-0.27-0.69c-0.31,0.27-0.62,0.5-0.91,0.7
				c-0.29,0.2-0.59,0.37-0.9,0.51c-0.31,0.14-0.64,0.25-0.99,0.32c-0.35,0.07-0.74,0.1-1.17,0.1c-0.57,0-1.09-0.07-1.56-0.22
				c-0.47-0.15-0.87-0.37-1.19-0.66c-0.33-0.29-0.58-0.65-0.76-1.08c-0.18-0.43-0.27-0.93-0.27-1.5c0-0.45,0.11-0.91,0.34-1.37
				c0.23-0.46,0.62-0.89,1.17-1.27c0.56-0.38,1.31-0.7,2.25-0.96c0.94-0.26,2.14-0.4,3.57-0.44v-0.53c0-0.73-0.15-1.27-0.45-1.59
				c-0.3-0.33-0.73-0.49-1.29-0.49c-0.44,0-0.81,0.05-1.09,0.15c-0.28,0.1-0.54,0.21-0.76,0.33c-0.22,0.12-0.44,0.23-0.65,0.33
				c-0.21,0.1-0.46,0.15-0.75,0.15c-0.26,0-0.48-0.06-0.65-0.19c-0.18-0.13-0.32-0.28-0.44-0.46L166.28,164.01z M173.04,169.72
				c-0.75,0.03-1.37,0.1-1.85,0.19c-0.48,0.1-0.87,0.22-1.15,0.36c-0.28,0.15-0.48,0.31-0.59,0.5c-0.11,0.19-0.16,0.39-0.16,0.61
				c0,0.43,0.12,0.73,0.35,0.9c0.23,0.17,0.58,0.26,1.03,0.26c0.48,0,0.91-0.08,1.27-0.25c0.36-0.17,0.73-0.44,1.1-0.82V169.72z"/>
			<path class="st2" d="M182.56,163.62c0.24-0.23,0.49-0.44,0.75-0.63c0.26-0.19,0.53-0.36,0.83-0.49c0.29-0.13,0.61-0.24,0.96-0.31
				c0.34-0.08,0.72-0.12,1.12-0.12c0.69,0,1.29,0.12,1.82,0.36c0.53,0.24,0.97,0.57,1.34,0.99c0.36,0.42,0.64,0.93,0.82,1.51
				c0.19,0.59,0.28,1.22,0.28,1.91v7.98h-3.75v-7.98c0-0.61-0.14-1.09-0.42-1.43c-0.28-0.34-0.7-0.51-1.25-0.51
				c-0.41,0-0.8,0.09-1.16,0.26c-0.36,0.17-0.71,0.41-1.05,0.71v8.96h-3.75v-12.56h2.33c0.47,0,0.78,0.21,0.92,0.63L182.56,163.62z"
				/>
			<path class="st2" d="M204.27,156.7v18.13h-2.33c-0.47,0-0.78-0.21-0.92-0.63l-0.29-0.96c-0.25,0.27-0.51,0.51-0.79,0.73
				c-0.27,0.22-0.57,0.41-0.89,0.56c-0.32,0.16-0.66,0.28-1.03,0.36c-0.37,0.09-0.76,0.13-1.19,0.13c-0.65,0-1.26-0.15-1.82-0.44
				c-0.56-0.29-1.04-0.71-1.44-1.26c-0.4-0.55-0.72-1.22-0.95-2.02c-0.23-0.8-0.34-1.7-0.34-2.72c0-0.94,0.13-1.81,0.39-2.61
				c0.26-0.8,0.62-1.5,1.1-2.08c0.47-0.58,1.04-1.04,1.7-1.37c0.66-0.33,1.39-0.5,2.19-0.5c0.65,0,1.2,0.09,1.65,0.28
				c0.44,0.19,0.85,0.44,1.21,0.75v-6.36H204.27z M200.52,165.63c-0.28-0.31-0.59-0.53-0.92-0.66c-0.33-0.13-0.68-0.19-1.04-0.19
				c-0.35,0-0.67,0.07-0.96,0.21c-0.29,0.14-0.54,0.36-0.76,0.66c-0.21,0.3-0.38,0.7-0.5,1.18c-0.12,0.48-0.18,1.07-0.18,1.76
				c0,0.66,0.05,1.22,0.15,1.67c0.1,0.45,0.23,0.82,0.41,1.1c0.17,0.28,0.38,0.48,0.62,0.6c0.24,0.12,0.51,0.18,0.81,0.18
				c0.27,0,0.52-0.03,0.74-0.08c0.22-0.05,0.43-0.13,0.61-0.22c0.19-0.1,0.36-0.22,0.53-0.37c0.17-0.15,0.33-0.32,0.49-0.51V165.63z
				"/>
			<rect x="212.96" y="155.97" class="st2" width="2.91" height="22.97"/>
			<path class="st2" d="M240.99,166c0,1.28-0.22,2.45-0.66,3.53c-0.44,1.08-1.06,2.01-1.86,2.8c-0.8,0.79-1.76,1.4-2.89,1.84
				c-1.13,0.44-2.38,0.66-3.75,0.66h-6.85v-17.64h6.85c1.37,0,2.62,0.22,3.75,0.67c1.13,0.44,2.09,1.06,2.89,1.84
				c0.8,0.78,1.42,1.71,1.86,2.79C240.77,163.56,240.99,164.73,240.99,166 M236.8,166c0-0.87-0.11-1.66-0.34-2.36
				c-0.23-0.7-0.55-1.3-0.97-1.79c-0.42-0.49-0.94-0.86-1.56-1.13c-0.61-0.26-1.31-0.39-2.09-0.39h-2.74v11.35h2.74
				c0.78,0,1.48-0.13,2.09-0.39c0.61-0.26,1.13-0.64,1.56-1.13c0.42-0.49,0.75-1.08,0.97-1.79C236.69,167.67,236.8,166.88,236.8,166
				"/>
			<path class="st2" d="M245.92,169.22c0.12,1.05,0.44,1.81,0.96,2.28c0.52,0.47,1.18,0.71,2,0.71c0.44,0,0.81-0.05,1.13-0.16
				c0.31-0.1,0.6-0.22,0.84-0.35c0.25-0.13,0.47-0.25,0.68-0.35c0.21-0.1,0.42-0.16,0.65-0.16c0.3,0,0.52,0.11,0.68,0.33l1.09,1.34
				c-0.39,0.44-0.81,0.81-1.25,1.08c-0.45,0.28-0.91,0.5-1.38,0.65c-0.47,0.16-0.94,0.27-1.42,0.33c-0.47,0.06-0.92,0.09-1.35,0.09
				c-0.88,0-1.71-0.14-2.48-0.43c-0.77-0.29-1.45-0.71-2.02-1.28c-0.58-0.57-1.03-1.27-1.37-2.11c-0.34-0.84-0.5-1.82-0.5-2.93
				c0-0.84,0.14-1.63,0.43-2.39c0.29-0.75,0.7-1.41,1.24-1.97c0.54-0.57,1.19-1.01,1.95-1.34c0.76-0.33,1.62-0.5,2.59-0.5
				c0.83,0,1.59,0.13,2.28,0.39c0.69,0.26,1.28,0.63,1.78,1.13c0.5,0.49,0.88,1.1,1.16,1.81c0.28,0.71,0.42,1.52,0.42,2.43
				c0,0.28-0.01,0.51-0.04,0.69c-0.02,0.18-0.07,0.32-0.13,0.42c-0.06,0.11-0.15,0.18-0.26,0.22c-0.11,0.04-0.25,0.06-0.42,0.06
				H245.92z M250.64,167.04c0-0.3-0.04-0.59-0.12-0.87c-0.08-0.28-0.2-0.53-0.38-0.76c-0.17-0.22-0.4-0.4-0.68-0.54
				c-0.28-0.14-0.63-0.21-1.03-0.21c-0.71,0-1.27,0.2-1.67,0.61c-0.4,0.41-0.67,1-0.8,1.76H250.64z"/>
			<path class="st2" d="M263.87,165.02c-0.1,0.15-0.2,0.26-0.31,0.33c-0.11,0.06-0.25,0.1-0.42,0.1c-0.18,0-0.36-0.04-0.53-0.12
				c-0.18-0.08-0.37-0.16-0.58-0.25c-0.21-0.09-0.44-0.17-0.7-0.25c-0.26-0.08-0.55-0.12-0.88-0.12c-0.48,0-0.84,0.09-1.1,0.27
				c-0.25,0.18-0.38,0.43-0.38,0.76c0,0.23,0.08,0.43,0.25,0.58c0.17,0.15,0.39,0.29,0.66,0.41c0.27,0.12,0.59,0.23,0.93,0.33
				c0.35,0.11,0.7,0.22,1.07,0.35c0.36,0.13,0.72,0.28,1.07,0.45c0.35,0.17,0.66,0.39,0.93,0.64s0.49,0.56,0.66,0.93
				c0.17,0.36,0.25,0.8,0.25,1.31c0,0.62-0.11,1.19-0.34,1.72c-0.23,0.53-0.56,0.98-1.01,1.36c-0.45,0.38-1,0.67-1.66,0.88
				c-0.66,0.21-1.41,0.31-2.27,0.31c-0.43,0-0.86-0.04-1.28-0.12c-0.43-0.08-0.84-0.19-1.24-0.33c-0.4-0.14-0.77-0.3-1.11-0.49
				c-0.34-0.19-0.63-0.39-0.87-0.61l0.87-1.38c0.1-0.16,0.22-0.29,0.37-0.38c0.15-0.09,0.34-0.14,0.58-0.14
				c0.22,0,0.41,0.05,0.59,0.15c0.17,0.1,0.36,0.2,0.56,0.32c0.2,0.11,0.44,0.22,0.71,0.31c0.27,0.1,0.61,0.15,1.02,0.15
				c0.29,0,0.54-0.03,0.74-0.09c0.2-0.06,0.36-0.14,0.48-0.25c0.12-0.1,0.21-0.22,0.27-0.35c0.06-0.13,0.09-0.26,0.09-0.4
				c0-0.25-0.09-0.46-0.25-0.62c-0.17-0.16-0.39-0.3-0.67-0.42c-0.27-0.12-0.59-0.23-0.94-0.33c-0.35-0.1-0.71-0.22-1.07-0.35
				c-0.36-0.13-0.72-0.28-1.07-0.47c-0.35-0.18-0.66-0.41-0.94-0.69c-0.27-0.28-0.5-0.62-0.67-1.02c-0.17-0.4-0.25-0.89-0.25-1.47
				c0-0.53,0.1-1.04,0.31-1.52c0.21-0.48,0.51-0.9,0.93-1.27c0.41-0.36,0.93-0.65,1.55-0.87c0.62-0.21,1.35-0.32,2.18-0.32
				c0.45,0,0.89,0.04,1.31,0.12c0.42,0.08,0.82,0.19,1.19,0.34c0.37,0.15,0.71,0.32,1.02,0.51c0.31,0.2,0.58,0.41,0.81,0.65
				L263.87,165.02z"/>
			<path class="st2" d="M270.9,158.83c0,0.3-0.06,0.58-0.18,0.84c-0.12,0.26-0.29,0.49-0.5,0.69c-0.21,0.2-0.45,0.36-0.73,0.47
				c-0.28,0.12-0.58,0.18-0.89,0.18c-0.31,0-0.59-0.06-0.86-0.18c-0.27-0.12-0.5-0.27-0.71-0.47c-0.21-0.2-0.37-0.43-0.48-0.69
				c-0.12-0.26-0.18-0.54-0.18-0.84c0-0.31,0.06-0.59,0.18-0.86c0.12-0.27,0.28-0.5,0.48-0.7c0.21-0.2,0.44-0.36,0.71-0.47
				c0.27-0.11,0.55-0.17,0.86-0.17c0.32,0,0.61,0.06,0.89,0.17c0.28,0.11,0.52,0.27,0.73,0.47c0.21,0.2,0.38,0.44,0.5,0.7
				C270.84,158.23,270.9,158.52,270.9,158.83 M270.52,174.83h-3.75v-12.56h3.75V174.83z"/>
			<path class="st2" d="M284.54,162.65v1.37c0,0.21-0.06,0.38-0.18,0.5c-0.12,0.12-0.32,0.21-0.6,0.28l-0.91,0.21
				c0.05,0.18,0.09,0.36,0.11,0.55c0.03,0.19,0.04,0.38,0.04,0.58c0,0.63-0.13,1.19-0.39,1.7c-0.26,0.5-0.62,0.93-1.08,1.28
				c-0.46,0.35-0.99,0.62-1.62,0.81c-0.62,0.19-1.29,0.29-2,0.29c-0.19,0-0.38-0.01-0.57-0.02c-0.19-0.01-0.37-0.03-0.55-0.07
				c-0.27,0.17-0.41,0.36-0.41,0.57c0,0.21,0.11,0.36,0.34,0.45c0.23,0.09,0.52,0.16,0.9,0.19c0.37,0.04,0.79,0.06,1.27,0.07
				c0.47,0.01,0.95,0.04,1.45,0.08c0.49,0.04,0.97,0.12,1.45,0.22c0.47,0.11,0.89,0.27,1.27,0.51c0.37,0.23,0.67,0.55,0.9,0.94
				c0.23,0.39,0.34,0.89,0.34,1.5c0,0.56-0.14,1.12-0.41,1.66c-0.27,0.54-0.68,1.02-1.21,1.44c-0.53,0.42-1.19,0.76-1.96,1.01
				c-0.77,0.25-1.66,0.38-2.66,0.38c-0.98,0-1.83-0.09-2.55-0.28c-0.71-0.19-1.31-0.43-1.78-0.73c-0.47-0.3-0.82-0.65-1.05-1.05
				c-0.23-0.4-0.34-0.81-0.34-1.24c0-0.56,0.16-1.02,0.48-1.39c0.32-0.37,0.77-0.67,1.36-0.9c-0.31-0.19-0.55-0.42-0.73-0.71
				c-0.18-0.29-0.27-0.67-0.27-1.13c0-0.19,0.03-0.38,0.1-0.59c0.06-0.21,0.17-0.41,0.31-0.61c0.14-0.2,0.32-0.39,0.53-0.56
				c0.21-0.18,0.46-0.34,0.75-0.47c-0.65-0.35-1.17-0.81-1.55-1.37c-0.38-0.57-0.57-1.23-0.57-1.99c0-0.63,0.13-1.2,0.4-1.7
				c0.27-0.5,0.63-0.93,1.1-1.28c0.46-0.35,1.01-0.62,1.64-0.81c0.63-0.19,1.31-0.28,2.05-0.28c1.07,0,2.01,0.2,2.83,0.61H284.54z
				 M280.83,175.29c0-0.3-0.13-0.51-0.4-0.65c-0.27-0.13-0.61-0.23-1.04-0.28c-0.43-0.06-0.91-0.09-1.44-0.1
				c-0.53-0.01-1.06-0.04-1.58-0.09c-0.23,0.16-0.43,0.34-0.58,0.54c-0.15,0.2-0.22,0.42-0.22,0.67c0,0.18,0.04,0.34,0.11,0.48
				c0.08,0.15,0.21,0.27,0.41,0.38c0.19,0.11,0.45,0.19,0.78,0.25c0.33,0.06,0.74,0.09,1.24,0.09c0.54,0,0.98-0.03,1.33-0.1
				c0.35-0.06,0.62-0.15,0.83-0.27c0.21-0.11,0.35-0.25,0.43-0.41S280.83,175.47,280.83,175.29 M277.93,167.89
				c0.62,0,1.07-0.16,1.35-0.47c0.28-0.31,0.42-0.71,0.42-1.2c0-0.51-0.14-0.91-0.42-1.2c-0.28-0.29-0.73-0.44-1.35-0.44
				c-0.62,0-1.07,0.15-1.35,0.44c-0.28,0.29-0.42,0.69-0.42,1.2c0,0.24,0.03,0.46,0.1,0.67c0.07,0.2,0.18,0.38,0.32,0.53
				c0.15,0.15,0.33,0.27,0.55,0.35C277.36,167.84,277.62,167.89,277.93,167.89"/>
			<path class="st2" d="M289.58,163.62c0.24-0.23,0.49-0.44,0.75-0.63c0.26-0.19,0.53-0.36,0.83-0.49c0.29-0.13,0.61-0.24,0.96-0.31
				c0.34-0.08,0.72-0.12,1.12-0.12c0.69,0,1.29,0.12,1.82,0.36c0.53,0.24,0.97,0.57,1.34,0.99c0.36,0.42,0.64,0.93,0.82,1.51
				c0.19,0.59,0.28,1.22,0.28,1.91v7.98h-3.75v-7.98c0-0.61-0.14-1.09-0.42-1.43c-0.28-0.34-0.7-0.51-1.25-0.51
				c-0.41,0-0.8,0.09-1.16,0.26c-0.36,0.17-0.71,0.41-1.05,0.71v8.96h-3.75v-12.56h2.33c0.47,0,0.78,0.21,0.92,0.63L289.58,163.62z"
				/>
		</g>
	</g>
</g>
</svg>
