<svg xmlns="http://www.w3.org/2000/svg" viewBox="0 0 448.45 461.64"><defs><style>.cls-1{fill:#f5f5f5;}.cls-2{fill:#e6e6e6;}.cls-3{fill:#37474f;}.cls-4{fill:#455a64;}.cls-22,.cls-34,.cls-5{fill:#27debf;}.cls-17,.cls-18,.cls-22,.cls-6{opacity:0.6;}.cls-14,.cls-15,.cls-7{opacity:0.5;}.cls-29,.cls-8{opacity:0.4;}.cls-9{opacity:0.15;}.cls-10,.cls-16{fill:#263238;}.cls-11{fill:#e0e0e0;}.cls-12{fill:#ebebeb;}.cls-13,.cls-14,.cls-17,.cls-19,.cls-33{fill:#fff;}.cls-16,.cls-21{opacity:0.9;}.cls-19,.cls-20{opacity:0.8;}.cls-23{opacity:0.7;}.cls-24,.cls-35{opacity:0.3;}.cls-25{opacity:0.25;}.cls-26,.cls-34{opacity:0.1;}.cls-27{fill:#ffa8a7;}.cls-28{fill:#fafafa;}.cls-30{fill:#f28f8f;}.cls-31,.cls-32{fill:none;stroke:#263238;stroke-miterlimit:10;}.cls-31{stroke-width:1.21px;}.cls-32{stroke-width:1.03px;}.cls-33{opacity:0.75;}.cls-36{opacity:0.2;}.cls-37{fill:#f0f0f0;}</style></defs><g id="Text_Boxes" data-name="Text Boxes"><ellipse id="Floor-2" data-name="Floor" class="cls-1" cx="224.23" cy="337.49" rx="224.23" ry="124.15"/><path id="Shadow" class="cls-2" d="M425.69,323.15l-125,72.2a3.69,3.69,0,0,1-3.36,0l-180.22-104a1,1,0,0,1,0-1.94l125-72.2a3.69,3.69,0,0,1,3.36,0l180.22,104A1,1,0,0,1,425.69,323.15Z" transform="translate(0.37 -4.87)"/><ellipse id="Shadow-2" data-name="Shadow" class="cls-2" cx="135.6" cy="387.52" rx="75.08" ry="43.35"/><ellipse id="Shadow-3" data-name="Shadow" class="cls-2" cx="227.02" cy="337.26" rx="59.1" ry="34.12"/><ellipse id="Shadow-4" data-name="Shadow" class="cls-2" cx="358.45" cy="382.99" rx="37.1" ry="21.42"/><g id="Desk-2" data-name="Desk"><g id="Table"><path class="cls-3" d="M303.42,266.36v111a2.48,2.48,0,0,1-1.12,1.94l-2.38,1.37a2.46,2.46,0,0,1-2.24,0l-2.38-1.37a2.48,2.48,0,0,1-1.12-1.94V266.36c0-.71.5-1,1.12-.64l2.38,1.37a2.46,2.46,0,0,0,2.24,0l2.38-1.37C302.92,265.36,303.42,265.65,303.42,266.36Z" transform="translate(0.37 -4.87)"/><path class="cls-4" d="M297.68,380.62l-2.38-1.37a2.48,2.48,0,0,1-1.12-1.94V266.36c0-.71.5-1,1.12-.64l2.38,1.37A2.48,2.48,0,0,1,298.8,269V380C298.8,380.69,298.3,381,297.68,380.62Z" transform="translate(0.37 -4.87)"/><path class="cls-3" d="M404.93,207.72V318.66a2.45,2.45,0,0,1-1.12,1.94L401.43,322a2.52,2.52,0,0,1-2.24,0l-2.38-1.38a2.48,2.48,0,0,1-1.12-1.94V207.72c0-.71.51-1,1.12-.65l2.38,1.38a2.46,2.46,0,0,0,2.24,0l2.38-1.38C404.43,206.72,404.93,207,404.93,207.72Z" transform="translate(0.37 -4.87)"/><path class="cls-4" d="M399.19,322l-2.38-1.38a2.48,2.48,0,0,1-1.12-1.94V207.72c0-.71.51-1,1.12-.65l2.38,1.38a2.47,2.47,0,0,1,1.12,1.94V321.33C400.31,322,399.81,322.33,399.19,322Z" transform="translate(0.37 -4.87)"/><path class="cls-3" d="M166.71,187.47v111a2.48,2.48,0,0,1-1.12,1.94l-2.38,1.37a2.46,2.46,0,0,1-2.24,0l-2.38-1.37a2.48,2.48,0,0,1-1.12-1.94v-111c0-.71.5-1,1.12-.64L161,188.2a2.46,2.46,0,0,0,2.24,0l2.38-1.37C166.21,186.47,166.71,186.76,166.71,187.47Z" transform="translate(0.37 -4.87)"/><path class="cls-4" d="M161,301.73l-2.38-1.37a2.48,2.48,0,0,1-1.12-1.94v-111c0-.71.5-1,1.12-.64L161,188.2a2.48,2.48,0,0,1,1.12,1.94V301.08C162.09,301.8,161.59,302.09,161,301.73Z" transform="translate(0.37 -4.87)"/><path class="cls-5" d="M427,215.61v-.81a4.49,4.49,0,0,0-2-3.53L246,108a4.51,4.51,0,0,0-4.08,0l-110.12,63.6a4.49,4.49,0,0,0-2,3.53V176a4.49,4.49,0,0,0,2,3.53l179,103.26a4.58,4.58,0,0,0,4.08,0L425,219.14A4.49,4.49,0,0,0,427,215.61Z" transform="translate(0.37 -4.87)"/><path class="cls-6" d="M427,215.61v-.81a4.49,4.49,0,0,0-2-3.53L246,108a4.51,4.51,0,0,0-4.08,0l-110.12,63.6a4.49,4.49,0,0,0-2,3.53V176a4.49,4.49,0,0,0,2,3.53l179,103.26a4.58,4.58,0,0,0,4.08,0L425,219.14A4.49,4.49,0,0,0,427,215.61Z" transform="translate(0.37 -4.87)"/><path class="cls-5" d="M312.82,277.72v5.52a4.24,4.24,0,0,0,2-.49L425,219.15a4.51,4.51,0,0,0,2-3.53v-.82a4.53,4.53,0,0,0-1.66-3.26c.73.63.61,1.5-.38,2.09l-110.12,63.6A4.13,4.13,0,0,1,312.82,277.72Z" transform="translate(0.37 -4.87)"/><path class="cls-7" d="M312.82,277.72v5.52a4.24,4.24,0,0,0,2-.49L425,219.15a4.51,4.51,0,0,0,2-3.53v-.82a4.53,4.53,0,0,0-1.66-3.26c.73.63.61,1.5-.38,2.09l-110.12,63.6A4.13,4.13,0,0,1,312.82,277.72Z" transform="translate(0.37 -4.87)"/><path class="cls-5" d="M425,213.62,314.86,277.23a4.51,4.51,0,0,1-4.08,0L131.77,174a1.24,1.24,0,0,1,0-2.35L241.89,108a4.51,4.51,0,0,1,4.08,0L425,211.27A1.24,1.24,0,0,1,425,213.62Z" transform="translate(0.37 -4.87)"/><path class="cls-8" d="M425,213.62,314.86,277.23a4.51,4.51,0,0,1-4.08,0L131.77,174a1.24,1.24,0,0,1,0-2.35L241.89,108a4.51,4.51,0,0,1,4.08,0L425,211.27A1.24,1.24,0,0,1,425,213.62Z" transform="translate(0.37 -4.87)"/></g><g id="Keyboard"><path id="Shadow-5" data-name="Shadow" class="cls-9" d="M299.29,212.24l-26.09,15.1a3.25,3.25,0,0,1-2.93,0L193.19,182.9a.89.89,0,0,1,0-1.69l26.09-15.11a3.26,3.26,0,0,1,2.92,0l77.09,44.45A.89.89,0,0,1,299.29,212.24Z" transform="translate(0.37 -4.87)"/><g id="Keyboard-2" data-name="Keyboard"><path class="cls-10" d="M194.77,178.53a1,1,0,0,1,.61-.84l24.51-14.15a3.2,3.2,0,0,1,2.92,0l74.8,43.25a1,1,0,0,1,.6.85v2.57a1,1,0,0,1-.6.84l-24.5,14.15a3.22,3.22,0,0,1-2.93,0L195.38,182a1,1,0,0,1-.61-.84Z" transform="translate(0.37 -4.87)"/><path class="cls-3" d="M273.11,222.57l24.5-14.09a.89.89,0,0,0,0-1.69l-74.8-43.25a3.2,3.2,0,0,0-2.92,0l-24.51,14.15a.89.89,0,0,0,0,1.69l74.8,43.18A3.25,3.25,0,0,0,273.11,222.57Z" transform="translate(0.37 -4.87)"/><path class="cls-10" d="M271.74,222.91v2.63a2.92,2.92,0,0,0,1.37-.34l24.49-14.14a1,1,0,0,0,.61-.85v-2.58a1,1,0,0,1-.61.85l-24.49,14.09A3,3,0,0,1,271.74,222.91Z" transform="translate(0.37 -4.87)"/><path class="cls-5" d="M199.31,178.72s0,0,0,0l2.42-1.4,3.29,1.9-2.44,1.45-3.29-1.9Zm3.8-2.19a0,0,0,0,1,0,0l2.43-1.4,2.59,1.49L205.69,178l-2.58-1.49Zm.8,4.85a0,0,0,0,1,0,0l2.43-1.4,2.58,1.49-2.44,1.45-2.58-1.49Zm3-7s0,0,0,0l2.43-1.4,4.17,2.42-2.44,1.44-4.17-2.41Zm.09,4.44s0,0,0,0l2.42-1.41,2.06,1.19L209.05,180,207,178.79Zm.8,4.84,0,0,2.42-1.4,2.59,1.49-2.45,1.45-2.58-1.49Zm2.56-2.9a.05.05,0,0,1,0,0l2.42-1.4,2,1.19-2.44,1.45-2-1.19Zm.34-8.58,0,0,2.43-1.4,3.29,1.9L214,174.06l-3.29-1.9Zm1,13.73s0,0,0,0l2.42-1.4,18.68,10.78-2.44,1.45-18.68-10.78Zm.7-8.37s0,0,0,0l2.42-1.4,2,1.19-2.44,1.44-2.05-1.18Zm1.33,5.16a.05.05,0,0,1,0,0l2.42-1.4,2.05,1.19-2.44,1.45-2.05-1.19ZM214.5,170s0,0,0,0l2.42-1.4,2.06,1.19-2.44,1.44L214.51,170Zm.8,4.85s0,0,0,0l2.42-1.4,2.06,1.18L217.36,176l-2.06-1.18Zm.45,4.64s0,0,0,0l2.42-1.4,2.05,1.19-2.44,1.44-2.05-1.18Zm1.33,5.16a.05.05,0,0,1,0,0l2.42-1.4,2,1.19-2.44,1.45-2-1.19Zm.78-12.71s0,0,0,0l2.42-1.4,2.06,1.19-2.44,1.44-2-1.18Zm.8,4.85s0,0,0,0l2.42-1.4,2.06,1.18-2.44,1.45-2.05-1.18Zm.45,4.64,0,0,2.42-1.4,2,1.19-2.44,1.44-2-1.18Zm0-14.09s0,0,0,0l2.42-1.4,2.59,1.49-2.45,1.45-2.58-1.49Zm1.33,19.25a.05.05,0,0,1,0,0l2.42-1.4,2.05,1.19-2.44,1.45-2.05-1.19Zm.78-12.71s0,0,0,0l2.42-1.4,2.06,1.19L223.28,175l-2.05-1.18Zm.8,4.85s0,0,0,0l2.42-1.4,2.06,1.18-2.44,1.45L222,178.7Zm.45,4.64s0,0,0,0l2.42-1.4,2.05,1.19-2.44,1.44-2.05-1.18Zm1.33,5.16a.05.05,0,0,1,0,0l2.42-1.4,2,1.19-2.44,1.45-2-1.19Zm.66-18.1s0,0,0,0l2.43-1.4,2.05,1.18-2.44,1.45-2.05-1.18Zm.12,5.39s0,0,0,0l2.42-1.4,2.06,1.19L226.63,177l-2-1.18Zm.8,4.85s0,0,0,0l2.42-1.4,2.06,1.18-2.44,1.45-2.05-1.18Zm.45,4.64s0,0,0,0l2.42-1.4,2,1.19-2.44,1.44-2-1.18Zm1.33,5.16s0,0,0,0L229.6,189l2.05,1.19-2.44,1.45-2.05-1.19Zm.66-18.1s0,0,0,0l2.42-1.4,2.06,1.18-2.44,1.45-2-1.18Zm.12,5.39s0,0,0,0l2.42-1.4,2.06,1.19L230,178.91l-2-1.18Zm.8,4.85s0,0,0,0l2.42-1.4,2.06,1.18-2.44,1.45-2.05-1.18Zm.45,4.64v0l2.43-1.4,2.05,1.19-2.44,1.44-2.05-1.18Zm1.33,5.16s0,0,0,0l2.42-1.41,2,1.19-2.44,1.45-2-1.19Zm.66-18.1s0,0,0,0l2.43-1.4,2.05,1.18-2.44,1.45-2.05-1.18Zm.12,5.39s0,0,0,0l2.43-1.4,2.05,1.19-2.45,1.44-2-1.18Zm.37,17.76a0,0,0,0,1,0,0l2.43-1.4,2.58,1.49-2.44,1.45-2.58-1.49Zm.43-12.91s0,0,0,0l2.42-1.4,2.06,1.18-2.44,1.45-2-1.18Zm.45,4.64v0l2.43-1.4,2,1.19-2.44,1.44-2-1.18Zm1.33,5.16a.05.05,0,0,1,0,0l2.42-1.4,2.06,1.19-2.45,1.45-2.05-1.19Zm.66-18.1s0,0,0,0l2.43-1.4,2,1.18-2.44,1.45-2-1.18Zm.12,5.39s0,0,0,0l2.43-1.4,2,1.19-2.44,1.44-2.05-1.18Zm.8,4.85s0,0,0,0l2.43-1.4,2.05,1.18-2.44,1.45-2.05-1.18Zm.1,13.21s0,0,0,0l2.43-1.4,2.58,1.49-2.44,1.45-2.58-1.49Zm.35-8.57s0,0,0,0l2.42-1.4,2.05,1.19L238,192.28l-2.05-1.18Zm1.33,5.16a.05.05,0,0,1,0,0l2.42-1.4,2.06,1.19-2.45,1.45-2-1.19Zm.78-12.71s0,0,0,0l2.43-1.4,2.05,1.19-2.44,1.44L238,183.55Zm.8,4.85s0,0,0,0l2.43-1.4,2,1.18-2.44,1.45-2-1.18Zm.45,4.64s0,0,0,0l2.42-1.4,2,1.19-2.44,1.44-2-1.18Zm.1-14s0,0,0,0l2.43-1.4,2.05,1.19-2.44,1.45-2-1.19Zm.08,22.91a0,0,0,0,1,0,0l2.43-1.4,2.58,1.49L242,203.41l-2.58-1.49Zm1.15-3.72s0,0,0,0l2.42-1.41,2.06,1.19-2.45,1.45-2.05-1.19Zm.78-12.71a0,0,0,0,1,0,0l2.42-1.4,2.06,1.19-2.44,1.44-2.05-1.18Zm.8,4.85s0,0,0,0l2.43-1.4,2.05,1.18-2.44,1.45-2.05-1.18Zm.45,4.64s0,0,0,0l2.42-1.4,2.06,1.19-2.45,1.44L242.63,195Zm.1-14s0,0,0,0l2.43-1.4,2.05,1.19-2.44,1.45-2.05-1.19Zm.62,23.22a0,0,0,0,1,0,0l2.43-1.41,3.29,1.9-2.44,1.45-3.29-1.9Zm.61-4s0,0,0,0l2.42-1.41,6.48,3.74-2.44,1.45L244,200.13Zm.78-12.71s0,0,0,0l2.43-1.4,2.05,1.19-2.44,1.44-2.05-1.18Zm.8,4.85s0,0,0,0l2.43-1.4,2,1.18-2.44,1.45-2-1.18Zm.45,4.64s0,0,0,0l2.42-1.4,2.06,1.19L248,198.1l-2-1.18Zm.1-14s0,0,0,0l2.43-1.4,2.05,1.19-2.44,1.45-2-1.19Zm2,6.48s0,0,0,0l2.43-1.4,2,1.19-2.44,1.44-2-1.18Zm.55,17.86s0,0,0,0l2.42-1.4,2.06,1.18-2.45,1.45-2-1.18Zm.25-13s0,0,0,0l2.43-1.4L253.4,194,251,195.4l-2.05-1.18Zm.45,4.64,0,0,2.42-1.4,1.88,1.08a1.2,1.2,0,0,0,.59.13,1.33,1.33,0,0,0,.62-.13l3.19-1.84,2.4,1.39-6.23,3.64-4.89-2.82Zm.1-14s0,0,0,0l2.43-1.4,2.05,1.19L251.5,186l-2.05-1.19Zm2,6.48s0,0,0,0l2.42-1.4,2.06,1.19-2.44,1.44-2.05-1.18Zm.55,17.86s0,0,0,0l2.42-1.4,2.06,1.18-2.45,1.45-2-1.18Zm.25-13s0,0,0,0l2.43-1.4,2,1.18-2.44,1.45-2-1.18Zm2-8.55s0,0,0,0l2.42-1.4,2.06,1.18-2.45,1.45-2-1.18Zm.55,5.64s0,0,0,0l2.42-1.4,2.06,1.19-2.44,1.44-2-1.18Zm.55,17.86s0,0,0,0l2.43-1.4,2.05,1.18-2.45,1.45-2-1.18Zm.44-4.13a.05.05,0,0,1,0,0l2.42-1.4,2.06,1.19-2.45,1.45L255.81,207Zm1.82-17.43s0,0,0,0l2.42-1.4,2.05,1.18-2.44,1.45-2.05-1.18Zm.55,5.64s0,0,0,0l2.43-1.4,3.64,2.1-2.44,1.45-3.64-2.1Zm1.26,18.27s0,0,0,0l2.42-1.4,5.42,3.12-2.45,1.45-5.41-3.12Zm.6-12.81,0,0,2.43-1.4,2.05,1.19-2.44,1.44-2.05-1.18Zm.95-9.16s0,0,0,0l2.42-1.4,2.05,1.18L263,192.67,261,191.49Zm2.25,19.78s0,0,0,0l2.43-1.4,2.05,1.19-2.44,1.45-2.05-1.19Zm.16-8.68,0,0,2.43-1.4,2,1.19-2.44,1.44-2-1.18Zm.44-4.13s0,0,0,0l2.43-1.4,2,1.18-2.44,1.45-2-1.18Zm.51-5s0,0,0,0l2.42-1.4,2,1.18-2.44,1.45-2-1.18Zm1.81,23.91s0,0,0,0l2.42-1.4,2.06,1.18-2.45,1.45-2-1.18Zm.44-4.13s0,0,0,0l2.43-1.4,2,1.19-2.44,1.45-2-1.19Zm.16-8.68,0,0,2.43-1.4,2.05,1.19-2.44,1.44-2.05-1.18Zm.28,4.54a.1.1,0,0,1,0,0l2.43-1.4,2,1.19-2.44,1.44-2-1.18Zm.16-8.67s0,0,0,0l2.43-1.4,2.05,1.18-2.44,1.45-2.05-1.18Zm1.25-4.6s0,0,0,0l2.42-1.4,2.06,1.18L270.51,197l-2.05-1.18Zm1.07,23.48s0,0,0,0l6.22-3.6,2.05,1.19-6.23,3.64-2.06-1.18Zm.44-4.13s0,0,0,0l2.43-1.4,2.05,1.19L272,216.33,270,215.14Zm.44-4.14a.1.1,0,0,1,0,0l2.43-1.4,2.05,1.19-2.44,1.44L270.4,211Zm.16-8.67s0,0,0,0l2.43-1.4,2.05,1.18-2.44,1.45-2.05-1.18Zm.27,4.54s0,0,0,0l2.43-1.4,2.05,1.18-2.44,1.45-2.05-1.18Zm1-9.14s0,0,0,0l2.42-1.4,2.06,1.18-2.44,1.45-2.05-1.18Zm1.95,15.21a.1.1,0,0,1,0,0l2.43-1.4,2.05,1.19-2.44,1.45L273.76,213Zm.43-4.13s0,0,0,0l2.43-1.4,2.05,1.18L276.25,210l-2.05-1.18Zm.44-4.13s0,0,0,0l2.42-1.4,2.06,1.18-2.45,1.45-2-1.18Zm.54-5s0,0,0,0l2.42-1.4,2.06,1.18-2.44,1.45-2.05-1.18Zm1.95,15.21v0l6.23-3.59,2.05,1.18-6.24,3.65-2.05-1.19Zm.43-4.13s0,0,0,0l2.43-1.4,2.05,1.18-2.44,1.45-2.05-1.18Zm.44-4.13s0,0,0,0l2.42-1.4,2.06,1.18L280,207.81l-2-1.18Zm2.23-5.17v0l1-.61,2.06,1.19-1.06.65-2-1.18Zm1.13,7.11s0,0,0,0l2.42-1.4,2.06,1.18-2.45,1.45-2-1.18Zm2.23-5.17s0,0,0,0l1-.61,2.06,1.19-1.06.65-2-1.18Zm1.13,7.11s0,0,0,0l2.42-1.4,2.06,1.18-2.45,1.45-2-1.18Zm2.23-5.17s0,0,0,0l1-.61,2.06,1.19-1.06.65-2-1.18Zm3.35,1.94s0,0,0,0l1-.61,2.06,1.19-1.06.65-2-1.18Z" transform="translate(0.37 -4.87)"/></g></g><g id="Device"><polygon id="Shadow-6" data-name="Shadow" class="cls-9" points="359.95 210.29 382.9 197.04 268.14 130.78 245.18 144.03 359.95 210.29"/><g id="Monitor"><path class="cls-2" d="M294.59,193.6l-16.38-9.48c-1.69-1-2.54-2.25-2.54-3.53v-2.28l15.42-8.75a3.62,3.62,0,0,0,1.63-2.83v-20.2l28.62,16.54v20.2a3.62,3.62,0,0,1-1.63,2.83l-12.88,7.5A13.54,13.54,0,0,1,294.59,193.6Z" transform="translate(0.37 -4.87)"/><path class="cls-11" d="M314.47,186.85v2.27l5.24-3a3.6,3.6,0,0,0,1.63-2.83v-20.2l-5.45-3.15c-.11,1.39-.24,2.82-.35,4.21l3.82,2.22v15.78a3.57,3.57,0,0,1-1.63,2.83Z" transform="translate(0.37 -4.87)"/><path class="cls-1" d="M319.36,182.13a3.6,3.6,0,0,1-1.63,2.83l-10.9,6.36a13.54,13.54,0,0,1-12.24,0l-16.39-9.48c-3.38-1.94-3.38-5.11,0-7.06l10.91-6.36a3.6,3.6,0,0,0,1.63-2.82V149.81l28.62,16.54Z" transform="translate(0.37 -4.87)"/><path class="cls-12" d="M285.79,170.34h0l3.32-1.92a3.6,3.6,0,0,0,1.63-2.82V149.81l28.62,16.54v15.78a3.6,3.6,0,0,1-1.63,2.83l-3.26,1.89Z" transform="translate(0.37 -4.87)"/><path class="cls-12" d="M275.67,178.31v2.28c0,1.28.85,2.55,2.53,3.53l16.39,9.47a12.32,12.32,0,0,0,5.84,1.45v-2.27a12.32,12.32,0,0,1-5.84-1.45l-16.39-9.48C276.52,180.87,275.67,179.59,275.67,178.31Z" transform="translate(0.37 -4.87)"/><path class="cls-4" d="M365.32,203.93a4.37,4.37,0,0,1-3.95-.07L250.68,140a4.49,4.49,0,0,1-2-3.53V39.54a3.83,3.83,0,0,1,5.87-3.39l110.68,63.91a4.49,4.49,0,0,1,2,3.53v96.88A4.36,4.36,0,0,1,365.32,203.93Z" transform="translate(0.37 -4.87)"/><path class="cls-3" d="M361.37,203.85,250.68,140a4.49,4.49,0,0,1-2-3.53V39.53c0-1.3.91-1.82,2-1.17l110.69,63.9a4.52,4.52,0,0,1,2,3.53v96.89C363.41,204,362.49,204.5,361.37,203.85Z" transform="translate(0.37 -4.87)"/><path class="cls-11" d="M361.67,204.26a3.81,3.81,0,0,0,5.56-3.54v-10.9L363.41,192v10.9C363.41,204.12,362.66,204.65,361.67,204.26Z" transform="translate(0.37 -4.87)"/><path class="cls-13" d="M363.41,192v10.9c0,1.3-.92,1.83-2,1.18L250.68,140.2a4.49,4.49,0,0,1-2-3.53v-10.9Z" transform="translate(0.37 -4.87)"/><path class="cls-5" d="M359.58,183.74V107.06a2.72,2.72,0,0,0-1.22-2.12L253.69,44.52c-.67-.39-1.22-.08-1.22.7V121.9a2.69,2.69,0,0,0,1.22,2.12l104.67,60.43C359,184.84,359.58,184.52,359.58,183.74Z" transform="translate(0.37 -4.87)"/><path class="cls-14" d="M359.58,183.74V107.06a2.72,2.72,0,0,0-1.22-2.12L253.69,44.52c-.67-.39-1.22-.08-1.22.7V121.9a2.69,2.69,0,0,0,1.22,2.12l104.67,60.43C359,184.84,359.58,184.52,359.58,183.74Z" transform="translate(0.37 -4.87)"/><path class="cls-4" d="M306,163.07a4.24,4.24,0,0,1,1.91,3.31c0,1.22-.86,1.72-1.91,1.11a4.24,4.24,0,0,1-1.92-3.32C304.11,163,305,162.46,306,163.07Z" transform="translate(0.37 -4.87)"/><path class="cls-10" d="M362.81,103.78a4.4,4.4,0,0,1,.6,2V192l3.82-2.21V103.59a4.2,4.2,0,0,0-.6-2Z" transform="translate(0.37 -4.87)"/></g></g><g id="Window"><g id="Window-2" data-name="Window"><path class="cls-4" d="M266.75,19.53a1.13,1.13,0,0,1,0-.18.08.08,0,0,1,0,0,.84.84,0,0,1,0-.17.8.8,0,0,1,.11-.25.33.33,0,0,1,.06-.1l.06-.07a.8.8,0,0,1,.13-.13h0a1,1,0,0,1,.17-.1,1.43,1.43,0,0,1,1.31.17L397.87,93.19a4.35,4.35,0,0,1,1.95,3.39v93.49h0v.43a1.33,1.33,0,0,1-.7,1.17l-.09.06-.1.06-.17,0a1,1,0,0,1-.25,0,1.29,1.29,0,0,1-.64-.19l-.05,0h0L396,190.6,268.69,117.12a4.32,4.32,0,0,1-1.95-3.38v-94C266.74,19.69,266.75,19.61,266.75,19.53Z" transform="translate(0.37 -4.87)"/><path class="cls-5" d="M267.38,18.48a1.43,1.43,0,0,1,1.31.17L397.87,93.19a4.35,4.35,0,0,1,1.95,3.39V103l2.49-1.46V95.16a4.32,4.32,0,0,0-1.95-3.38L271.18,17.24a1.36,1.36,0,0,0-1.41-.12C269.42,17.34,267.8,18.26,267.38,18.48Z" transform="translate(0.37 -4.87)"/><path class="cls-5" d="M266.74,19.76c0-1.23.88-1.73,1.95-1.11L397.87,93.2a4.29,4.29,0,0,1,1.95,3.38V103L266.74,26.17Z" transform="translate(0.37 -4.87)"/><g class="cls-15"><path class="cls-13" d="M268.69,18.65,397.87,93.2a4,4,0,0,1,1.37,1.44l2.48-1.43a3.91,3.91,0,0,0-1.36-1.43L271.19,17.24a1.38,1.38,0,0,0-1.42-.12c-.35.22-2,1.14-2.38,1.36A1.38,1.38,0,0,1,268.69,18.65Z" transform="translate(0.37 -4.87)"/></g><path class="cls-9" d="M402.32,101.5V95.16a4,4,0,0,0-.59-2l-2.49,1.43a3.84,3.84,0,0,1,.59,1.94V103Z" transform="translate(0.37 -4.87)"/><path class="cls-4" d="M395.42,94.54a2.91,2.91,0,0,1,1.1,2.34c0,.93-.49,1.41-1.1,1.06a2.91,2.91,0,0,1-1.1-2.34C394.32,94.67,394.81,94.19,395.42,94.54Z" transform="translate(0.37 -4.87)"/><path class="cls-4" d="M391.45,92.25a2.89,2.89,0,0,1,1.1,2.33c0,.94-.49,1.41-1.1,1.06a2.89,2.89,0,0,1-1.1-2.33C390.35,92.37,390.84,91.9,391.45,92.25Z" transform="translate(0.37 -4.87)"/><path class="cls-4" d="M387.48,90a2.91,2.91,0,0,1,1.1,2.34c0,.93-.49,1.41-1.1,1.06a2.92,2.92,0,0,1-1.1-2.34C386.38,90.07,386.87,89.6,387.48,90Z" transform="translate(0.37 -4.87)"/><path class="cls-16" d="M399.12,191.69l.1-.06,2.06-1.19a2.06,2.06,0,0,0,1-1.51,2.64,2.64,0,0,0,0-.28V101.49l-2.5,1.47v87.55a1.29,1.29,0,0,1-.61,1.11l-.06,0h0Z" transform="translate(0.37 -4.87)"/></g><g id="Code"><path class="cls-5" d="M306.31,59.44l27.23,15.69a1.48,1.48,0,0,1,.7,1.15c0,.42-.31.58-.7.35L306.31,60.94a1.49,1.49,0,0,1-.69-1.15C305.62,59.37,305.93,59.22,306.31,59.44Z" transform="translate(0.37 -4.87)"/><path class="cls-2" d="M316.72,89.48,327,95.42a1.48,1.48,0,0,1,.69,1.15c0,.41-.31.57-.69.35L316.72,91a1.46,1.46,0,0,1-.7-1.15C316,89.42,316.33,89.26,316.72,89.48Z" transform="translate(0.37 -4.87)"/><path class="cls-2" d="M316.72,95.49,327,101.42a1.51,1.51,0,0,1,.69,1.16c0,.41-.31.57-.69.35L316.72,97a1.48,1.48,0,0,1-.7-1.15C316,95.42,316.33,95.27,316.72,95.49Z" transform="translate(0.37 -4.87)"/><path class="cls-5" d="M336.23,76.68l54.53,31.4a1.51,1.51,0,0,1,.69,1.16c0,.41-.31.57-.69.35l-54.53-31.4a1.51,1.51,0,0,1-.69-1.16C335.54,76.62,335.85,76.46,336.23,76.68Z" transform="translate(0.37 -4.87)"/><path class="cls-5" d="M316.94,131.61l16.6,9.61a1.46,1.46,0,0,1,.7,1.15c0,.41-.31.57-.7.35l-16.6-9.61a1.48,1.48,0,0,1-.69-1.15C316.25,131.55,316.56,131.39,316.94,131.61Z" transform="translate(0.37 -4.87)"/><path class="cls-5" d="M336.23,142.77l54.53,31.44a1.49,1.49,0,0,1,.69,1.15c0,.42-.31.57-.69.35l-54.53-31.44a1.49,1.49,0,0,1-.69-1.15C335.54,142.7,335.85,142.55,336.23,142.77Z" transform="translate(0.37 -4.87)"/><path class="cls-5" d="M306.31,65.46,320,73.34a1.49,1.49,0,0,1,.69,1.15c0,.42-.31.58-.69.35L306.31,67a1.48,1.48,0,0,1-.69-1.15C305.62,65.4,305.93,65.24,306.31,65.46Z" transform="translate(0.37 -4.87)"/><path class="cls-17" d="M306.31,65.46,320,73.34a1.49,1.49,0,0,1,.69,1.15c0,.42-.31.58-.69.35L306.31,67a1.48,1.48,0,0,1-.69-1.15C305.62,65.4,305.93,65.24,306.31,65.46Z" transform="translate(0.37 -4.87)"/><path class="cls-5" d="M306.31,71.46l6.42,3.7a1.49,1.49,0,0,1,.69,1.15c0,.41-.31.57-.69.35L306.31,73a1.49,1.49,0,0,1-.69-1.15C305.62,71.39,305.93,71.24,306.31,71.46Z" transform="translate(0.37 -4.87)"/><path class="cls-17" d="M306.31,71.46l6.42,3.7a1.49,1.49,0,0,1,.69,1.15c0,.41-.31.57-.69.35L306.31,73a1.49,1.49,0,0,1-.69-1.15C305.62,71.39,305.93,71.24,306.31,71.46Z" transform="translate(0.37 -4.87)"/><path class="cls-5" d="M306.31,83.47l6.42,3.7a1.51,1.51,0,0,1,.69,1.16c0,.41-.31.57-.69.35L306.31,85a1.51,1.51,0,0,1-.69-1.16C305.62,83.41,305.93,83.25,306.31,83.47Z" transform="translate(0.37 -4.87)"/><path class="cls-17" d="M306.31,83.47l6.42,3.7a1.51,1.51,0,0,1,.69,1.16c0,.41-.31.57-.69.35L306.31,85a1.51,1.51,0,0,1-.69-1.16C305.62,83.41,305.93,83.25,306.31,83.47Z" transform="translate(0.37 -4.87)"/><path class="cls-5" d="M306.31,89.48l6.42,3.7a1.49,1.49,0,0,1,.69,1.15c0,.42-.31.58-.69.35L306.31,91a1.48,1.48,0,0,1-.69-1.15C305.62,89.42,305.93,89.26,306.31,89.48Z" transform="translate(0.37 -4.87)"/><path class="cls-17" d="M306.31,89.48l6.42,3.7a1.49,1.49,0,0,1,.69,1.15c0,.42-.31.58-.69.35L306.31,91a1.48,1.48,0,0,1-.69-1.15C305.62,89.42,305.93,89.26,306.31,89.48Z" transform="translate(0.37 -4.87)"/><path class="cls-5" d="M322.72,74.89l8.22,4.77a1.48,1.48,0,0,1,.7,1.15c0,.42-.31.57-.7.35l-8.22-4.76a1.5,1.5,0,0,1-.7-1.16C322,74.83,322.33,74.67,322.72,74.89Z" transform="translate(0.37 -4.87)"/><path class="cls-17" d="M322.72,74.89l8.22,4.77a1.48,1.48,0,0,1,.7,1.15c0,.42-.31.57-.7.35l-8.22-4.76a1.5,1.5,0,0,1-.7-1.16C322,74.83,322.33,74.67,322.72,74.89Z" transform="translate(0.37 -4.87)"/><path class="cls-13" d="M335.44,118.33l55.32,31.85a1.48,1.48,0,0,1,.69,1.15c0,.41-.31.57-.69.35l-55.32-31.85a1.48,1.48,0,0,1-.7-1.15C334.74,118.26,335.05,118.11,335.44,118.33Z" transform="translate(0.37 -4.87)"/><path class="cls-13" d="M382.53,139.4l8.23,4.76a1.49,1.49,0,0,1,.69,1.15c0,.42-.31.57-.69.35l-8.23-4.76a1.49,1.49,0,0,1-.69-1.15C381.84,139.33,382.15,139.17,382.53,139.4Z" transform="translate(0.37 -4.87)"/><path class="cls-13" d="M324.52,106l55.32,31.85a1.51,1.51,0,0,1,.69,1.16c0,.41-.31.57-.69.35L324.52,107.5a1.5,1.5,0,0,1-.69-1.16C323.83,105.93,324.14,105.77,324.52,106Z" transform="translate(0.37 -4.87)"/><path class="cls-5" d="M316.72,77.47l13.71,7.88a1.46,1.46,0,0,1,.7,1.15c0,.41-.31.57-.7.35L316.72,79a1.48,1.48,0,0,1-.7-1.15C316,77.4,316.33,77.24,316.72,77.47Z" transform="translate(0.37 -4.87)"/><path class="cls-17" d="M316.72,77.47l13.71,7.88a1.46,1.46,0,0,1,.7,1.15c0,.41-.31.57-.7.35L316.72,79a1.48,1.48,0,0,1-.7-1.15C316,77.4,316.33,77.24,316.72,77.47Z" transform="translate(0.37 -4.87)"/><path class="cls-5" d="M333.12,86.9,390.35,120a1.51,1.51,0,0,1,.69,1.16c0,.41-.31.57-.69.35L333.12,88.4a1.49,1.49,0,0,1-.69-1.15C332.43,86.83,332.74,86.68,333.12,86.9Z" transform="translate(0.37 -4.87)"/><path class="cls-17" d="M333.12,86.9,390.35,120a1.51,1.51,0,0,1,.69,1.16c0,.41-.31.57-.69.35L333.12,88.4a1.49,1.49,0,0,1-.69-1.15C332.43,86.83,332.74,86.68,333.12,86.9Z" transform="translate(0.37 -4.87)"/><path class="cls-2" d="M316.72,113.64l74,42.69a1.49,1.49,0,0,1,.69,1.15c0,.42-.31.58-.69.36l-74-42.7A1.48,1.48,0,0,1,316,114C316,113.57,316.33,113.42,316.72,113.64Z" transform="translate(0.37 -4.87)"/><path class="cls-5" d="M306.31,107.63l6.42,3.7a1.49,1.49,0,0,1,.69,1.15c0,.42-.31.57-.69.35l-6.42-3.7a1.48,1.48,0,0,1-.69-1.15C305.62,107.57,305.93,107.41,306.31,107.63Z" transform="translate(0.37 -4.87)"/><path class="cls-17" d="M306.31,107.63l6.42,3.7a1.49,1.49,0,0,1,.69,1.15c0,.42-.31.57-.69.35l-6.42-3.7a1.48,1.48,0,0,1-.69-1.15C305.62,107.57,305.93,107.41,306.31,107.63Z" transform="translate(0.37 -4.87)"/><path class="cls-2" d="M316.72,119.64l74,42.7a1.49,1.49,0,0,1,.69,1.15c0,.42-.31.57-.69.35l-74-42.7A1.46,1.46,0,0,1,316,120C316,119.58,316.33,119.42,316.72,119.64Z" transform="translate(0.37 -4.87)"/><path class="cls-5" d="M306.31,113.64l6.42,3.7a1.48,1.48,0,0,1,.69,1.15c0,.41-.31.57-.69.35l-6.42-3.7a1.49,1.49,0,0,1-.69-1.15C305.62,113.57,305.93,113.42,306.31,113.64Z" transform="translate(0.37 -4.87)"/><path class="cls-17" d="M306.31,113.64l6.42,3.7a1.48,1.48,0,0,1,.69,1.15c0,.41-.31.57-.69.35l-6.42-3.7a1.49,1.49,0,0,1-.69-1.15C305.62,113.57,305.93,113.42,306.31,113.64Z" transform="translate(0.37 -4.87)"/><path class="cls-2" d="M316.72,125.65l74,42.7a1.48,1.48,0,0,1,.69,1.15c0,.41-.31.57-.69.35l-74-42.7A1.48,1.48,0,0,1,316,126C316,125.58,316.33,125.43,316.72,125.65Z" transform="translate(0.37 -4.87)"/><path class="cls-5" d="M306.31,119.64l6.42,3.7a1.49,1.49,0,0,1,.69,1.15c0,.42-.31.58-.69.36l-6.42-3.71a1.48,1.48,0,0,1-.69-1.15C305.62,119.58,305.93,119.42,306.31,119.64Z" transform="translate(0.37 -4.87)"/><path class="cls-17" d="M306.31,119.64l6.42,3.7a1.49,1.49,0,0,1,.69,1.15c0,.42-.31.58-.69.36l-6.42-3.71a1.48,1.48,0,0,1-.69-1.15C305.62,119.58,305.93,119.42,306.31,119.64Z" transform="translate(0.37 -4.87)"/><g class="cls-18"><path class="cls-13" d="M296.31,53.41l3.77,2.18a1.51,1.51,0,0,1,.68,1.19v1.39c0,.43-.3.61-.68.39l-3.77-2.18a1.5,1.5,0,0,1-.69-1.18V53.81C295.62,53.37,295.93,53.2,296.31,53.41Z" transform="translate(0.37 -4.87)"/><path class="cls-13" d="M296.31,59.48l3.77,2.18a1.51,1.51,0,0,1,.68,1.18v1.39c0,.44-.3.61-.68.4l-3.77-2.18a1.52,1.52,0,0,1-.69-1.19V59.87C295.62,59.44,295.93,59.26,296.31,59.48Z" transform="translate(0.37 -4.87)"/><path class="cls-13" d="M296.31,65.54l3.77,2.18a1.51,1.51,0,0,1,.68,1.19V70.3c0,.43-.3.61-.68.39l-3.77-2.18a1.52,1.52,0,0,1-.69-1.18V65.94C295.62,65.5,295.93,65.33,296.31,65.54Z" transform="translate(0.37 -4.87)"/><path class="cls-13" d="M296.31,71.61l3.77,2.18a1.51,1.51,0,0,1,.68,1.18v1.39c0,.44-.3.61-.68.4l-3.77-2.18a1.52,1.52,0,0,1-.69-1.19V72C295.62,71.57,295.93,71.39,296.31,71.61Z" transform="translate(0.37 -4.87)"/><path class="cls-13" d="M296.31,77.67l3.77,2.18a1.51,1.51,0,0,1,.68,1.19v1.38c0,.44-.3.62-.68.4l-3.77-2.18a1.52,1.52,0,0,1-.69-1.18V78.07C295.62,77.63,295.93,77.45,296.31,77.67Z" transform="translate(0.37 -4.87)"/><path class="cls-13" d="M296.31,83.74l3.77,2.18a1.49,1.49,0,0,1,.68,1.18v1.39c0,.44-.3.61-.68.4l-3.77-2.18a1.52,1.52,0,0,1-.69-1.19V84.13C295.62,83.7,295.93,83.52,296.31,83.74Z" transform="translate(0.37 -4.87)"/><path class="cls-13" d="M296.31,89.8,300.08,92a1.51,1.51,0,0,1,.68,1.19v1.38c0,.44-.3.62-.68.4l-3.77-2.18a1.52,1.52,0,0,1-.69-1.18V90.2C295.62,89.76,295.93,89.58,296.31,89.8Z" transform="translate(0.37 -4.87)"/><path class="cls-13" d="M296.31,95.87l3.77,2.18a1.49,1.49,0,0,1,.68,1.18v1.39c0,.44-.3.61-.68.39l-3.77-2.17a1.52,1.52,0,0,1-.69-1.19V96.26C295.62,95.83,295.93,95.65,296.31,95.87Z" transform="translate(0.37 -4.87)"/><path class="cls-13" d="M296.31,101.93l3.77,2.18a1.51,1.51,0,0,1,.68,1.19v1.38c0,.44-.3.62-.68.4l-3.77-2.18a1.52,1.52,0,0,1-.69-1.19v-1.38C295.62,101.89,295.93,101.71,296.31,101.93Z" transform="translate(0.37 -4.87)"/><path class="cls-13" d="M296.31,108l3.77,2.18a1.48,1.48,0,0,1,.68,1.18v1.39c0,.44-.3.61-.68.39L296.31,111a1.52,1.52,0,0,1-.69-1.19v-1.39C295.62,108,295.93,107.78,296.31,108Z" transform="translate(0.37 -4.87)"/><path class="cls-13" d="M296.31,114.06l3.77,2.18a1.51,1.51,0,0,1,.68,1.19v1.38c0,.44-.3.62-.68.4L296.31,117a1.52,1.52,0,0,1-.69-1.19v-1.38C295.62,114,295.93,113.84,296.31,114.06Z" transform="translate(0.37 -4.87)"/><path class="cls-13" d="M296.31,120.13l3.77,2.17a1.51,1.51,0,0,1,.68,1.19v1.39c0,.44-.3.61-.68.39l-3.77-2.17a1.52,1.52,0,0,1-.69-1.19v-1.39C295.62,120.09,295.93,119.91,296.31,120.13Z" transform="translate(0.37 -4.87)"/></g><path class="cls-3" d="M271.28,33.71l20.4,11.78a3,3,0,0,1,1.37,2.37V71.42c0,.87-.61,1.23-1.37.79l-20.4-11.78a3,3,0,0,1-1.37-2.37V34.51C269.91,33.63,270.52,33.28,271.28,33.71Z" transform="translate(0.37 -4.87)"/><path class="cls-5" d="M273.17,57.06l1.88,1.09a1.51,1.51,0,0,1,.7,1.15c0,.42-.32.57-.7.35l-1.88-1.09a1.48,1.48,0,0,1-.69-1.15C272.48,57,272.79,56.84,273.17,57.06Z" transform="translate(0.37 -4.87)"/><path class="cls-17" d="M273.17,57.06l1.88,1.09a1.51,1.51,0,0,1,.7,1.15c0,.42-.32.57-.7.35l-1.88-1.09a1.48,1.48,0,0,1-.69-1.15C272.48,57,272.79,56.84,273.17,57.06Z" transform="translate(0.37 -4.87)"/><path class="cls-5" d="M273.17,37.77l1.88,1.09a1.51,1.51,0,0,1,.7,1.15c0,.42-.32.57-.7.35l-1.88-1.08a1.51,1.51,0,0,1-.69-1.16C272.48,37.71,272.79,37.55,273.17,37.77Z" transform="translate(0.37 -4.87)"/><path class="cls-17" d="M273.17,37.77l1.88,1.09a1.51,1.51,0,0,1,.7,1.15c0,.42-.32.57-.7.35l-1.88-1.08a1.51,1.51,0,0,1-.69-1.16C272.48,37.71,272.79,37.55,273.17,37.77Z" transform="translate(0.37 -4.87)"/><path class="cls-5" d="M275.81,43.15l1.88,1.08a1.49,1.49,0,0,1,.69,1.15c0,.42-.31.58-.69.35l-1.88-1.08a1.49,1.49,0,0,1-.69-1.15C275.12,43.08,275.43,42.93,275.81,43.15Z" transform="translate(0.37 -4.87)"/><path class="cls-17" d="M275.81,43.15l1.88,1.08a1.49,1.49,0,0,1,.69,1.15c0,.42-.31.58-.69.35l-1.88-1.08a1.49,1.49,0,0,1-.69-1.15C275.12,43.08,275.43,42.93,275.81,43.15Z" transform="translate(0.37 -4.87)"/><path class="cls-5" d="M275.81,47l1.88,1.09a1.49,1.49,0,0,1,.69,1.15c0,.42-.31.57-.69.35l-1.88-1.08a1.49,1.49,0,0,1-.69-1.15C275.12,46.93,275.43,46.77,275.81,47Z" transform="translate(0.37 -4.87)"/><path class="cls-17" d="M275.81,47l1.88,1.09a1.49,1.49,0,0,1,.69,1.15c0,.42-.31.57-.69.35l-1.88-1.08a1.49,1.49,0,0,1-.69-1.15C275.12,46.93,275.43,46.77,275.81,47Z" transform="translate(0.37 -4.87)"/><path class="cls-5" d="M273.17,49.34l1.88,1.09a1.51,1.51,0,0,1,.7,1.15c0,.42-.32.57-.7.35l-1.88-1.08a1.5,1.5,0,0,1-.69-1.16C272.48,49.28,272.79,49.12,273.17,49.34Z" transform="translate(0.37 -4.87)"/><path class="cls-17" d="M273.17,49.34l1.88,1.09a1.51,1.51,0,0,1,.7,1.15c0,.42-.32.57-.7.35l-1.88-1.08a1.5,1.5,0,0,1-.69-1.16C272.48,49.28,272.79,49.12,273.17,49.34Z" transform="translate(0.37 -4.87)"/><path class="cls-5" d="M275.81,54.72l1.88,1.09a1.48,1.48,0,0,1,.69,1.15c0,.41-.31.57-.69.35l-1.88-1.09a1.48,1.48,0,0,1-.69-1.15C275.12,54.66,275.43,54.5,275.81,54.72Z" transform="translate(0.37 -4.87)"/><path class="cls-17" d="M275.81,54.72l1.88,1.09a1.48,1.48,0,0,1,.69,1.15c0,.41-.31.57-.69.35l-1.88-1.09a1.48,1.48,0,0,1-.69-1.15C275.12,54.66,275.43,54.5,275.81,54.72Z" transform="translate(0.37 -4.87)"/><path class="cls-5" d="M278.32,40.74l11.46,6.63a1.46,1.46,0,0,1,.7,1.15c0,.41-.31.57-.7.35l-11.46-6.62a1.48,1.48,0,0,1-.7-1.16C277.62,40.68,277.93,40.52,278.32,40.74Z" transform="translate(0.37 -4.87)"/><path class="cls-19" d="M278.32,40.74l11.46,6.63a1.46,1.46,0,0,1,.7,1.15c0,.41-.31.57-.7.35l-11.46-6.62a1.48,1.48,0,0,1-.7-1.16C277.62,40.68,277.93,40.52,278.32,40.74Z" transform="translate(0.37 -4.87)"/><path class="cls-5" d="M278.32,60l11.46,6.63a1.46,1.46,0,0,1,.7,1.15c0,.41-.31.57-.7.35l-11.46-6.62a1.5,1.5,0,0,1-.7-1.16C277.62,60,277.93,59.81,278.32,60Z" transform="translate(0.37 -4.87)"/><path class="cls-19" d="M278.32,60l11.46,6.63a1.46,1.46,0,0,1,.7,1.15c0,.41-.31.57-.7.35l-11.46-6.62a1.5,1.5,0,0,1-.7-1.16C277.62,60,277.93,59.81,278.32,60Z" transform="translate(0.37 -4.87)"/><path class="cls-5" d="M281,46.12l8.82,5.1a1.48,1.48,0,0,1,.7,1.16c0,.41-.31.57-.7.35L281,47.62a1.48,1.48,0,0,1-.7-1.15C280.26,46.05,280.57,45.9,281,46.12Z" transform="translate(0.37 -4.87)"/><path class="cls-19" d="M281,46.12l8.82,5.1a1.48,1.48,0,0,1,.7,1.16c0,.41-.31.57-.7.35L281,47.62a1.48,1.48,0,0,1-.7-1.15C280.26,46.05,280.57,45.9,281,46.12Z" transform="translate(0.37 -4.87)"/><path class="cls-5" d="M281,50l8.82,5.11a1.48,1.48,0,0,1,.7,1.15c0,.42-.31.57-.7.35L281,51.48a1.48,1.48,0,0,1-.7-1.15C280.26,49.91,280.57,49.75,281,50Z" transform="translate(0.37 -4.87)"/><path class="cls-19" d="M281,50l8.82,5.11a1.48,1.48,0,0,1,.7,1.15c0,.42-.31.57-.7.35L281,51.48a1.48,1.48,0,0,1-.7-1.15C280.26,49.91,280.57,49.75,281,50Z" transform="translate(0.37 -4.87)"/><path class="cls-5" d="M278.32,52.32l11.46,6.62a1.48,1.48,0,0,1,.7,1.15c0,.42-.31.57-.7.35l-11.46-6.62a1.48,1.48,0,0,1-.7-1.15C277.62,52.25,277.93,52.1,278.32,52.32Z" transform="translate(0.37 -4.87)"/><path class="cls-19" d="M278.32,52.32l11.46,6.62a1.48,1.48,0,0,1,.7,1.15c0,.42-.31.57-.7.35l-11.46-6.62a1.48,1.48,0,0,1-.7-1.15C277.62,52.25,277.93,52.1,278.32,52.32Z" transform="translate(0.37 -4.87)"/><path class="cls-5" d="M281,57.69l8.82,5.11a1.46,1.46,0,0,1,.7,1.15c0,.41-.31.57-.7.35L281,59.19a1.46,1.46,0,0,1-.7-1.15C280.26,57.63,280.57,57.47,281,57.69Z" transform="translate(0.37 -4.87)"/><path class="cls-19" d="M281,57.69l8.82,5.11a1.46,1.46,0,0,1,.7,1.15c0,.41-.31.57-.7.35L281,59.19a1.46,1.46,0,0,1-.7-1.15C280.26,57.63,280.57,57.47,281,57.69Z" transform="translate(0.37 -4.87)"/><path class="cls-3" d="M271.28,64.87l20.4,11.77A3,3,0,0,1,293.05,79v46.54c0,.88-.61,1.23-1.37.79l-20.4-11.78a3,3,0,0,1-1.37-2.37V65.66C269.91,64.78,270.52,64.43,271.28,64.87Z" transform="translate(0.37 -4.87)"/><path class="cls-5" d="M273.17,68.92,275.05,70a1.51,1.51,0,0,1,.7,1.15c0,.42-.32.57-.7.35l-1.88-1.08a1.49,1.49,0,0,1-.69-1.15C272.48,68.86,272.79,68.7,273.17,68.92Z" transform="translate(0.37 -4.87)"/><path class="cls-17" d="M273.17,68.92,275.05,70a1.51,1.51,0,0,1,.7,1.15c0,.42-.32.57-.7.35l-1.88-1.08a1.49,1.49,0,0,1-.69-1.15C272.48,68.86,272.79,68.7,273.17,68.92Z" transform="translate(0.37 -4.87)"/><path class="cls-5" d="M275.81,74.3l1.88,1.08a1.5,1.5,0,0,1,.69,1.16c0,.41-.31.57-.69.35l-1.88-1.09a1.49,1.49,0,0,1-.69-1.15C275.12,74.23,275.43,74.08,275.81,74.3Z" transform="translate(0.37 -4.87)"/><path class="cls-17" d="M275.81,74.3l1.88,1.08a1.5,1.5,0,0,1,.69,1.16c0,.41-.31.57-.69.35l-1.88-1.09a1.49,1.49,0,0,1-.69-1.15C275.12,74.23,275.43,74.08,275.81,74.3Z" transform="translate(0.37 -4.87)"/><path class="cls-5" d="M275.81,78.15l1.88,1.08a1.49,1.49,0,0,1,.69,1.15c0,.42-.31.57-.69.35l-1.88-1.08a1.49,1.49,0,0,1-.69-1.15C275.12,78.08,275.43,77.92,275.81,78.15Z" transform="translate(0.37 -4.87)"/><path class="cls-17" d="M275.81,78.15l1.88,1.08a1.49,1.49,0,0,1,.69,1.15c0,.42-.31.57-.69.35l-1.88-1.08a1.49,1.49,0,0,1-.69-1.15C275.12,78.08,275.43,77.92,275.81,78.15Z" transform="translate(0.37 -4.87)"/><path class="cls-5" d="M273.17,80.5l1.88,1.08a1.51,1.51,0,0,1,.7,1.15c0,.42-.32.57-.7.35L273.17,82a1.49,1.49,0,0,1-.69-1.15C272.48,80.43,272.79,80.27,273.17,80.5Z" transform="translate(0.37 -4.87)"/><path class="cls-17" d="M273.17,80.5l1.88,1.08a1.51,1.51,0,0,1,.7,1.15c0,.42-.32.57-.7.35L273.17,82a1.49,1.49,0,0,1-.69-1.15C272.48,80.43,272.79,80.27,273.17,80.5Z" transform="translate(0.37 -4.87)"/><path class="cls-5" d="M278.32,71.9l11.46,6.62a1.46,1.46,0,0,1,.7,1.15c0,.41-.31.57-.7.35L278.32,73.4a1.48,1.48,0,0,1-.7-1.15C277.62,71.83,277.93,71.67,278.32,71.9Z" transform="translate(0.37 -4.87)"/><path class="cls-19" d="M278.32,71.9l11.46,6.62a1.46,1.46,0,0,1,.7,1.15c0,.41-.31.57-.7.35L278.32,73.4a1.48,1.48,0,0,1-.7-1.15C277.62,71.83,277.93,71.67,278.32,71.9Z" transform="translate(0.37 -4.87)"/><path class="cls-5" d="M281,77.27l8.82,5.11a1.46,1.46,0,0,1,.7,1.15c0,.41-.31.57-.7.35L281,78.77a1.48,1.48,0,0,1-.7-1.15C280.26,77.2,280.57,77.05,281,77.27Z" transform="translate(0.37 -4.87)"/><path class="cls-19" d="M281,77.27l8.82,5.11a1.46,1.46,0,0,1,.7,1.15c0,.41-.31.57-.7.35L281,78.77a1.48,1.48,0,0,1-.7-1.15C280.26,77.2,280.57,77.05,281,77.27Z" transform="translate(0.37 -4.87)"/><path class="cls-5" d="M281,81.13l8.82,5.1a1.48,1.48,0,0,1,.7,1.15c0,.42-.31.58-.7.36L281,82.63a1.48,1.48,0,0,1-.7-1.15C280.26,81.06,280.57,80.9,281,81.13Z" transform="translate(0.37 -4.87)"/><path class="cls-19" d="M281,81.13l8.82,5.1a1.48,1.48,0,0,1,.7,1.15c0,.42-.31.58-.7.36L281,82.63a1.48,1.48,0,0,1-.7-1.15C280.26,81.06,280.57,80.9,281,81.13Z" transform="translate(0.37 -4.87)"/><path class="cls-5" d="M278.32,83.47l11.46,6.62a1.48,1.48,0,0,1,.7,1.15c0,.42-.31.57-.7.35L278.32,85a1.48,1.48,0,0,1-.7-1.15C277.62,83.4,277.93,83.25,278.32,83.47Z" transform="translate(0.37 -4.87)"/><path class="cls-19" d="M278.32,83.47l11.46,6.62a1.48,1.48,0,0,1,.7,1.15c0,.42-.31.57-.7.35L278.32,85a1.48,1.48,0,0,1-.7-1.15C277.62,83.4,277.93,83.25,278.32,83.47Z" transform="translate(0.37 -4.87)"/><path class="cls-5" d="M275.81,85.89,277.69,87a1.49,1.49,0,0,1,.69,1.15c0,.42-.31.57-.69.35l-1.88-1.08a1.49,1.49,0,0,1-.69-1.15C275.12,85.83,275.43,85.67,275.81,85.89Z" transform="translate(0.37 -4.87)"/><path class="cls-17" d="M275.81,85.89,277.69,87a1.49,1.49,0,0,1,.69,1.15c0,.42-.31.57-.69.35l-1.88-1.08a1.49,1.49,0,0,1-.69-1.15C275.12,85.83,275.43,85.67,275.81,85.89Z" transform="translate(0.37 -4.87)"/><path class="cls-5" d="M275.81,89.74l1.88,1.09a1.49,1.49,0,0,1,.69,1.15c0,.41-.31.57-.69.35l-1.88-1.09a1.48,1.48,0,0,1-.69-1.15C275.12,89.68,275.43,89.52,275.81,89.74Z" transform="translate(0.37 -4.87)"/><path class="cls-17" d="M275.81,89.74l1.88,1.09a1.49,1.49,0,0,1,.69,1.15c0,.41-.31.57-.69.35l-1.88-1.09a1.48,1.48,0,0,1-.69-1.15C275.12,89.68,275.43,89.52,275.81,89.74Z" transform="translate(0.37 -4.87)"/><path class="cls-5" d="M281,88.86,289.78,94a1.48,1.48,0,0,1,.7,1.15c0,.42-.31.58-.7.35L281,90.37a1.48,1.48,0,0,1-.7-1.15C280.26,88.8,280.57,88.64,281,88.86Z" transform="translate(0.37 -4.87)"/><path class="cls-19" d="M281,88.86,289.78,94a1.48,1.48,0,0,1,.7,1.15c0,.42-.31.58-.7.35L281,90.37a1.48,1.48,0,0,1-.7-1.15C280.26,88.8,280.57,88.64,281,88.86Z" transform="translate(0.37 -4.87)"/><path class="cls-5" d="M281,92.72l8.82,5.11a1.48,1.48,0,0,1,.7,1.15c0,.42-.31.57-.7.35L281,94.22a1.46,1.46,0,0,1-.7-1.15C280.26,92.66,280.57,92.5,281,92.72Z" transform="translate(0.37 -4.87)"/><path class="cls-19" d="M281,92.72l8.82,5.11a1.48,1.48,0,0,1,.7,1.15c0,.42-.31.57-.7.35L281,94.22a1.46,1.46,0,0,1-.7-1.15C280.26,92.66,280.57,92.5,281,92.72Z" transform="translate(0.37 -4.87)"/><path class="cls-5" d="M273.17,99.83l1.88,1.09a1.49,1.49,0,0,1,.7,1.15c0,.41-.32.57-.7.35l-1.88-1.09a1.48,1.48,0,0,1-.69-1.15C272.48,99.77,272.79,99.61,273.17,99.83Z" transform="translate(0.37 -4.87)"/><path class="cls-17" d="M273.17,99.83l1.88,1.09a1.49,1.49,0,0,1,.7,1.15c0,.41-.32.57-.7.35l-1.88-1.09a1.48,1.48,0,0,1-.69-1.15C272.48,99.77,272.79,99.61,273.17,99.83Z" transform="translate(0.37 -4.87)"/><path class="cls-5" d="M278.32,102.8l11.46,6.63a1.46,1.46,0,0,1,.7,1.15c0,.41-.31.57-.7.35l-11.46-6.62a1.48,1.48,0,0,1-.7-1.15C277.62,102.74,277.93,102.58,278.32,102.8Z" transform="translate(0.37 -4.87)"/><path class="cls-19" d="M278.32,102.8l11.46,6.63a1.46,1.46,0,0,1,.7,1.15c0,.41-.31.57-.7.35l-11.46-6.62a1.48,1.48,0,0,1-.7-1.15C277.62,102.74,277.93,102.58,278.32,102.8Z" transform="translate(0.37 -4.87)"/><path class="cls-5" d="M275.81,105.23l1.88,1.09a1.48,1.48,0,0,1,.69,1.15c0,.41-.31.57-.69.35l-1.88-1.09a1.48,1.48,0,0,1-.69-1.15C275.12,105.17,275.43,105,275.81,105.23Z" transform="translate(0.37 -4.87)"/><path class="cls-17" d="M275.81,105.23l1.88,1.09a1.48,1.48,0,0,1,.69,1.15c0,.41-.31.57-.69.35l-1.88-1.09a1.48,1.48,0,0,1-.69-1.15C275.12,105.17,275.43,105,275.81,105.23Z" transform="translate(0.37 -4.87)"/><path class="cls-5" d="M275.81,109.08l1.88,1.08a1.51,1.51,0,0,1,.69,1.16c0,.41-.31.57-.69.35l-1.88-1.09a1.49,1.49,0,0,1-.69-1.15C275.12,109,275.43,108.86,275.81,109.08Z" transform="translate(0.37 -4.87)"/><path class="cls-17" d="M275.81,109.08l1.88,1.08a1.51,1.51,0,0,1,.69,1.16c0,.41-.31.57-.69.35l-1.88-1.09a1.49,1.49,0,0,1-.69-1.15C275.12,109,275.43,108.86,275.81,109.08Z" transform="translate(0.37 -4.87)"/><path class="cls-5" d="M281,108.2l8.82,5.11a1.46,1.46,0,0,1,.7,1.15c0,.41-.31.57-.7.35L281,109.7a1.46,1.46,0,0,1-.7-1.15C280.26,108.14,280.57,108,281,108.2Z" transform="translate(0.37 -4.87)"/><path class="cls-19" d="M281,108.2l8.82,5.11a1.46,1.46,0,0,1,.7,1.15c0,.41-.31.57-.7.35L281,109.7a1.46,1.46,0,0,1-.7-1.15C280.26,108.14,280.57,108,281,108.2Z" transform="translate(0.37 -4.87)"/><path class="cls-5" d="M281,112.06l8.82,5.11a1.46,1.46,0,0,1,.7,1.15c0,.41-.31.57-.7.35L281,113.56a1.48,1.48,0,0,1-.7-1.15C280.26,112,280.57,111.84,281,112.06Z" transform="translate(0.37 -4.87)"/><path class="cls-19" d="M281,112.06l8.82,5.11a1.46,1.46,0,0,1,.7,1.15c0,.41-.31.57-.7.35L281,113.56a1.48,1.48,0,0,1-.7-1.15C280.26,112,280.57,111.84,281,112.06Z" transform="translate(0.37 -4.87)"/><path class="cls-5" d="M275.81,93.57l1.88,1.09a1.48,1.48,0,0,1,.69,1.15c0,.41-.31.57-.69.35l-1.88-1.09a1.48,1.48,0,0,1-.69-1.15C275.12,93.51,275.43,93.35,275.81,93.57Z" transform="translate(0.37 -4.87)"/><path class="cls-17" d="M275.81,93.57l1.88,1.09a1.48,1.48,0,0,1,.69,1.15c0,.41-.31.57-.69.35l-1.88-1.09a1.48,1.48,0,0,1-.69-1.15C275.12,93.51,275.43,93.35,275.81,93.57Z" transform="translate(0.37 -4.87)"/><path class="cls-5" d="M273.17,95.92,275.05,97a1.49,1.49,0,0,1,.7,1.15c0,.41-.32.57-.7.35l-1.88-1.09a1.48,1.48,0,0,1-.69-1.15C272.48,95.86,272.79,95.7,273.17,95.92Z" transform="translate(0.37 -4.87)"/><path class="cls-17" d="M273.17,95.92,275.05,97a1.49,1.49,0,0,1,.7,1.15c0,.41-.32.57-.7.35l-1.88-1.09a1.48,1.48,0,0,1-.69-1.15C272.48,95.86,272.79,95.7,273.17,95.92Z" transform="translate(0.37 -4.87)"/><path class="cls-5" d="M281,96.55l8.82,5.11a1.46,1.46,0,0,1,.7,1.15c0,.41-.31.57-.7.35L281,98.05a1.46,1.46,0,0,1-.7-1.15C280.26,96.49,280.57,96.33,281,96.55Z" transform="translate(0.37 -4.87)"/><path class="cls-19" d="M281,96.55l8.82,5.11a1.46,1.46,0,0,1,.7,1.15c0,.41-.31.57-.7.35L281,98.05a1.46,1.46,0,0,1-.7-1.15C280.26,96.49,280.57,96.33,281,96.55Z" transform="translate(0.37 -4.87)"/><path class="cls-5" d="M278.32,98.89l11.46,6.63a1.46,1.46,0,0,1,.7,1.15c0,.41-.31.57-.7.35l-11.46-6.62a1.5,1.5,0,0,1-.7-1.16C277.62,98.83,277.93,98.67,278.32,98.89Z" transform="translate(0.37 -4.87)"/><path class="cls-19" d="M278.32,98.89l11.46,6.63a1.46,1.46,0,0,1,.7,1.15c0,.41-.31.57-.7.35l-11.46-6.62a1.5,1.5,0,0,1-.7-1.16C277.62,98.83,277.93,98.67,278.32,98.89Z" transform="translate(0.37 -4.87)"/><path class="cls-5" d="M273.17,111.48l1.88,1.09a1.49,1.49,0,0,1,.7,1.15c0,.41-.32.57-.7.35L273.17,113a1.48,1.48,0,0,1-.69-1.15C272.48,111.42,272.79,111.26,273.17,111.48Z" transform="translate(0.37 -4.87)"/><path class="cls-17" d="M273.17,111.48l1.88,1.09a1.49,1.49,0,0,1,.7,1.15c0,.41-.32.57-.7.35L273.17,113a1.48,1.48,0,0,1-.69-1.15C272.48,111.42,272.79,111.26,273.17,111.48Z" transform="translate(0.37 -4.87)"/><path class="cls-5" d="M278.32,114.46l11.46,6.62a1.46,1.46,0,0,1,.7,1.15c0,.41-.31.57-.7.35L278.32,116a1.48,1.48,0,0,1-.7-1.15C277.62,114.39,277.93,114.23,278.32,114.46Z" transform="translate(0.37 -4.87)"/><path class="cls-19" d="M278.32,114.46l11.46,6.62a1.46,1.46,0,0,1,.7,1.15c0,.41-.31.57-.7.35L278.32,116a1.48,1.48,0,0,1-.7-1.15C277.62,114.39,277.93,114.23,278.32,114.46Z" transform="translate(0.37 -4.87)"/></g></g><g id="Window-3" data-name="Window"><g class="cls-20"><path class="cls-4" d="M384.78,130.29v76.38a3.51,3.51,0,0,0,1.59,2.75l43.88,25.32a1.1,1.1,0,0,0,.53.15l.2,0,.13,0,.09,0,.09-.06.09-.08a1.22,1.22,0,0,0,.29-.42,1.88,1.88,0,0,0,.17-.8v-76a3.5,3.5,0,0,0-1.59-2.75l-43.88-25.29a1.16,1.16,0,0,0-1.07-.14l-.13.08h0l-.11.1a.21.21,0,0,0,0,.06.26.26,0,0,0-.05.09.54.54,0,0,0-.1.2.58.58,0,0,0,0,.14,0,0,0,0,0,0,0l0,.15C384.79,130.16,384.78,130.23,384.78,130.29Z" transform="translate(0.37 -4.87)"/></g><path class="cls-5" d="M385.3,129.24a1.16,1.16,0,0,1,1.07.14l43.88,25.29a3.5,3.5,0,0,1,1.59,2.75v5.18l2.53-1.46V156a3.48,3.48,0,0,0-1.59-2.74L388.9,128a1.11,1.11,0,0,0-1.15-.1C387.46,128,385.64,129.07,385.3,129.24Z" transform="translate(0.37 -4.87)"/><path class="cls-5" d="M384.79,130.28c0-1,.71-1.4,1.58-.9l43.88,25.29a3.51,3.51,0,0,1,1.59,2.75v5.18l-47-27.11Z" transform="translate(0.37 -4.87)"/><g class="cls-15"><path class="cls-13" d="M386.37,129.38l43.88,25.29a3.27,3.27,0,0,1,1.12,1.18l2.52-1.45a3.23,3.23,0,0,0-1.11-1.15L388.9,128a1.11,1.11,0,0,0-1.15-.1c-.28.18-2.11,1.2-2.44,1.38A1.11,1.11,0,0,1,386.37,129.38Z" transform="translate(0.37 -4.87)"/></g><path class="cls-9" d="M434.37,161.15V156a3.36,3.36,0,0,0-.48-1.59l-2.53,1.44a3.16,3.16,0,0,1,.48,1.58v5.18Z" transform="translate(0.37 -4.87)"/><path class="cls-4" d="M429.53,156.8a2.37,2.37,0,0,1,.9,1.9c0,.76-.4,1.15-.9.86a2.36,2.36,0,0,1-.9-1.89C428.63,156.9,429,156.52,429.53,156.8Z" transform="translate(0.37 -4.87)"/><path class="cls-4" d="M426.3,154.94a2.33,2.33,0,0,1,.9,1.89c0,.77-.4,1.15-.9.87a2.39,2.39,0,0,1-.89-1.9C425.41,155,425.81,154.65,426.3,154.94Z" transform="translate(0.37 -4.87)"/><path class="cls-4" d="M423.08,153.07A2.39,2.39,0,0,1,424,155c0,.76-.4,1.15-.89.86a2.35,2.35,0,0,1-.9-1.9C422.18,153.17,422.58,152.79,423.08,153.07Z" transform="translate(0.37 -4.87)"/><g class="cls-21"><path class="cls-3" d="M431.26,234.74l.19-.11.49-.28h0a1.74,1.74,0,0,1,.26-.15h0l.42-.24.85-.48.2-.11a.9.9,0,0,0,.27-.21,1.1,1.1,0,0,0,.21-.33,1.89,1.89,0,0,0,.19-.84V161.14l-2.53,1.46v70.81a2.31,2.31,0,0,1-.17.8,1.22,1.22,0,0,1-.29.42.24.24,0,0,1-.09.08Z" transform="translate(0.37 -4.87)"/></g><path class="cls-5" d="M388.43,144.25a.25.25,0,0,1,.08-.2l1.14-1s0,0,.05,0h0a.17.17,0,0,1,.09.11.29.29,0,0,1,0,.16v.79a1.09,1.09,0,0,1,0,.22.83.83,0,0,1-.08.12l-.61.55.61,1.25c0,.08.06.15.08.22a1.44,1.44,0,0,1,0,.24v.79c0,.06,0,.1,0,.12a.07.07,0,0,1-.09,0l0,0-.05-.07-1.14-2.37a.67.67,0,0,1-.08-.29Z" transform="translate(0.37 -4.87)"/><path class="cls-5" d="M392.6,143.15a.3.3,0,0,1,.09-.13s.09,0,.17,0l.42.25a.17.17,0,0,1,.09.11.29.29,0,0,1,0,.16.2.2,0,0,1,0,.07l-2,6.08a.26.26,0,0,1-.08.13s-.09,0-.17,0l-.41-.24a.2.2,0,0,1-.09-.11.32.32,0,0,1,0-.16s0-.05,0-.07Z" transform="translate(0.37 -4.87)"/><path class="cls-5" d="M395.63,149a.26.26,0,0,1-.08.21l-1.14,1a.07.07,0,0,1-.06,0h0a.2.2,0,0,1-.09-.11.32.32,0,0,1,0-.16v-.79a1,1,0,0,1,0-.22.35.35,0,0,1,.08-.13l.6-.55-.6-1.24a2.11,2.11,0,0,1-.08-.22,1.44,1.44,0,0,1,0-.24v-.8a.12.12,0,0,1,0-.11s.05,0,.09,0l0,0a.22.22,0,0,1,.06.07l1.14,2.36a.67.67,0,0,1,.08.3Z" transform="translate(0.37 -4.87)"/><path class="cls-5" d="M398.8,152.11a.29.29,0,0,1,.11.13.48.48,0,0,1,0,.2v.87a.18.18,0,0,1,0,.14.08.08,0,0,1-.11,0l-.54-.31a.29.29,0,0,1-.11-.13.49.49,0,0,1,0-.2V152a.21.21,0,0,1,0-.15.08.08,0,0,1,.11,0Z" transform="translate(0.37 -4.87)"/><path class="cls-5" d="M400.6,153.15a.29.29,0,0,1,.11.13.48.48,0,0,1,0,.2v.87a.18.18,0,0,1,0,.14.09.09,0,0,1-.11,0l-.54-.31a.36.36,0,0,1-.11-.13.53.53,0,0,1-.05-.2V153a.21.21,0,0,1,.05-.15.08.08,0,0,1,.11,0Z" transform="translate(0.37 -4.87)"/><path class="cls-5" d="M402.4,154.19a.25.25,0,0,1,.11.13.48.48,0,0,1,0,.2v.87a.2.2,0,0,1,0,.14.09.09,0,0,1-.11,0l-.54-.31a.33.33,0,0,1-.11-.14.45.45,0,0,1-.05-.19V154a.2.2,0,0,1,.05-.14.09.09,0,0,1,.11,0Z" transform="translate(0.37 -4.87)"/><path class="cls-5" d="M388.91,151.17l26.36,15.22a1.2,1.2,0,0,1,.57.94c0,.34-.25.46-.57.28l-26.36-15.22a1.21,1.21,0,0,1-.56-.93C388.35,151.12,388.6,151,388.91,151.17Z" transform="translate(0.37 -4.87)"/><path class="cls-2" d="M397.37,170.71l26.36,15.22a1.19,1.19,0,0,1,.57.93c0,.34-.25.47-.57.29l-26.36-15.22a1.21,1.21,0,0,1-.56-.94C396.81,170.65,397.06,170.53,397.37,170.71Z" transform="translate(0.37 -4.87)"/><path class="cls-2" d="M397.37,180.47,410,187.76a1.21,1.21,0,0,1,.56.94c0,.34-.25.46-.56.28l-12.62-7.29a1.19,1.19,0,0,1-.56-.93C396.81,180.42,397.06,180.29,397.37,180.47Z" transform="translate(0.37 -4.87)"/><path class="cls-5" d="M417.46,167.65l10.5,6a1.19,1.19,0,0,1,.57.93c0,.34-.26.47-.57.29l-10.5-6a1.19,1.19,0,0,1-.56-.93C416.9,167.6,417.15,167.47,417.46,167.65Z" transform="translate(0.37 -4.87)"/><path class="cls-5" d="M388.91,204.89l26.36,15.22a1.19,1.19,0,0,1,.57.93c0,.34-.25.47-.57.29l-26.36-15.22a1.21,1.21,0,0,1-.56-.94C388.35,204.83,388.6,204.71,388.91,204.89Z" transform="translate(0.37 -4.87)"/><path class="cls-5" d="M417.46,221.37l10.5,6a1.22,1.22,0,0,1,.57.94c0,.33-.26.46-.57.28l-10.5-6a1.21,1.21,0,0,1-.56-.94C416.9,221.32,417.15,221.19,417.46,221.37Z" transform="translate(0.37 -4.87)"/><path class="cls-5" d="M417.46,206.74l10.5,6a1.2,1.2,0,0,1,.57.93c0,.34-.26.47-.57.29l-10.5-6a1.21,1.21,0,0,1-.56-.94C416.9,206.69,417.15,206.56,417.46,206.74Z" transform="translate(0.37 -4.87)"/><path class="cls-5" d="M417.46,211.63l10.5,6a1.22,1.22,0,0,1,.57.93c0,.34-.26.47-.57.29l-10.5-6a1.21,1.21,0,0,1-.56-.94C416.9,211.57,417.15,211.45,417.46,211.63Z" transform="translate(0.37 -4.87)"/><path class="cls-5" d="M408.5,201.56l5.9,3.41a1.18,1.18,0,0,1,.57.93c0,.34-.25.47-.57.29l-5.9-3.41a1.21,1.21,0,0,1-.56-.94C407.94,201.51,408.19,201.38,408.5,201.56Z" transform="translate(0.37 -4.87)"/><path class="cls-5" d="M388.91,156.07l15.38,8.87a1.21,1.21,0,0,1,.56.93c0,.34-.25.47-.56.29l-15.38-8.87a1.21,1.21,0,0,1-.56-.94C388.35,156,388.6,155.89,388.91,156.07Z" transform="translate(0.37 -4.87)"/><path class="cls-17" d="M388.91,156.07l15.38,8.87a1.21,1.21,0,0,1,.56.93c0,.34-.25.47-.56.29l-15.38-8.87a1.21,1.21,0,0,1-.56-.94C388.35,156,388.6,155.89,388.91,156.07Z" transform="translate(0.37 -4.87)"/><path class="cls-5" d="M388.91,160.94l5.22,3a1.21,1.21,0,0,1,.56.93c0,.34-.25.47-.56.29l-5.22-3a1.21,1.21,0,0,1-.56-.93C388.35,160.89,388.6,160.76,388.91,160.94Z" transform="translate(0.37 -4.87)"/><path class="cls-17" d="M388.91,160.94l5.22,3a1.21,1.21,0,0,1,.56.93c0,.34-.25.47-.56.29l-5.22-3a1.21,1.21,0,0,1-.56-.93C388.35,160.89,388.6,160.76,388.91,160.94Z" transform="translate(0.37 -4.87)"/><path class="cls-5" d="M388.91,165.82l5.22,3a1.21,1.21,0,0,1,.56.94c0,.33-.25.46-.56.28l-5.22-3a1.18,1.18,0,0,1-.56-.93C388.35,165.77,388.6,165.64,388.91,165.82Z" transform="translate(0.37 -4.87)"/><path class="cls-17" d="M388.91,165.82l5.22,3a1.21,1.21,0,0,1,.56.94c0,.33-.25.46-.56.28l-5.22-3a1.18,1.18,0,0,1-.56-.93C388.35,165.77,388.6,165.64,388.91,165.82Z" transform="translate(0.37 -4.87)"/><path class="cls-5" d="M388.91,170.71l5.22,3a1.19,1.19,0,0,1,.56.93c0,.34-.25.47-.56.29l-5.22-3a1.21,1.21,0,0,1-.56-.94C388.35,170.65,388.6,170.53,388.91,170.71Z" transform="translate(0.37 -4.87)"/><path class="cls-17" d="M388.91,170.71l5.22,3a1.21,1.21,0,0,1,.56.94c0,.34-.25.46-.56.28l-5.22-3a1.21,1.21,0,0,1-.56-.94C388.35,170.65,388.6,170.53,388.91,170.71Z" transform="translate(0.37 -4.87)"/><path class="cls-22" d="M397.37,175.59l15.38,8.87a1.21,1.21,0,0,1,.56.94c0,.33-.25.46-.56.28l-15.38-8.87a1.21,1.21,0,0,1-.56-.94C396.81,175.54,397.06,175.41,397.37,175.59Z" transform="translate(0.37 -4.87)"/><path class="cls-22" d="M414.93,185.72l6.69,3.88a1.18,1.18,0,0,1,.56.93c0,.34-.25.47-.56.29l-6.69-3.88a1.21,1.21,0,0,1-.56-.93C414.37,185.67,414.62,185.54,414.93,185.72Z" transform="translate(0.37 -4.87)"/><path class="cls-17" d="M397.37,175.59l15.38,8.87a1.21,1.21,0,0,1,.56.94c0,.33-.25.46-.56.28l-15.38-8.87a1.21,1.21,0,0,1-.56-.94C396.81,175.54,397.06,175.41,397.37,175.59Z" transform="translate(0.37 -4.87)"/><path class="cls-17" d="M414.93,185.72l6.69,3.88a1.18,1.18,0,0,1,.56.93c0,.34-.25.47-.56.29l-6.69-3.88a1.21,1.21,0,0,1-.56-.93C414.37,185.67,414.62,185.54,414.93,185.72Z" transform="translate(0.37 -4.87)"/><path class="cls-5" d="M388.91,175.59l5.22,3a1.21,1.21,0,0,1,.56.93c0,.34-.25.47-.56.29l-5.22-3a1.21,1.21,0,0,1-.56-.93C388.35,175.54,388.6,175.41,388.91,175.59Z" transform="translate(0.37 -4.87)"/><path class="cls-17" d="M388.91,175.59l5.22,3a1.21,1.21,0,0,1,.56.93c0,.34-.25.47-.56.29l-5.22-3a1.21,1.21,0,0,1-.56-.93C388.35,175.54,388.6,175.41,388.91,175.59Z" transform="translate(0.37 -4.87)"/><path class="cls-5" d="M406.47,166.2l6.69,3.87a1.21,1.21,0,0,1,.56.94c0,.33-.25.46-.56.28l-6.69-3.87a1.21,1.21,0,0,1-.56-.94C405.91,166.15,406.16,166,406.47,166.2Z" transform="translate(0.37 -4.87)"/><path class="cls-17" d="M406.47,166.2l6.69,3.87a1.21,1.21,0,0,1,.56.94c0,.33-.25.46-.56.28l-6.69-3.87a1.21,1.21,0,0,1-.56-.94C405.91,166.15,406.16,166,406.47,166.2Z" transform="translate(0.37 -4.87)"/><path class="cls-13" d="M403.71,189l15.38,8.87a1.22,1.22,0,0,1,.57.94c0,.34-.26.46-.57.29l-15.38-8.88a1.21,1.21,0,0,1-.56-.93C403.15,189,403.4,188.83,403.71,189Z" transform="translate(0.37 -4.87)"/><path class="cls-13" d="M412.59,199,428,207.91a1.22,1.22,0,0,1,.57.94c0,.33-.26.46-.57.28l-15.37-8.87a1.2,1.2,0,0,1-.57-.94C412,199,412.27,198.86,412.59,199Z" transform="translate(0.37 -4.87)"/><path class="cls-13" d="M421.28,199.15,428,203a1.22,1.22,0,0,1,.57.93c0,.34-.26.47-.57.29l-6.68-3.87a1.2,1.2,0,0,1-.57-.94C420.71,199.09,421,199,421.28,199.15Z" transform="translate(0.37 -4.87)"/><path class="cls-2" d="M421.28,218.49l6.68,3.87a1.22,1.22,0,0,1,.57.94c0,.33-.26.46-.57.28l-6.68-3.87a1.2,1.2,0,0,1-.57-.94C420.71,218.44,421,218.31,421.28,218.49Z" transform="translate(0.37 -4.87)"/><path class="cls-5" d="M397.37,165.82l15.38,8.88a1.19,1.19,0,0,1,.56.93c0,.34-.25.47-.56.29L397.37,167a1.18,1.18,0,0,1-.56-.93C396.81,165.77,397.06,165.64,397.37,165.82Z" transform="translate(0.37 -4.87)"/><path class="cls-17" d="M397.37,165.82l15.38,8.88a1.19,1.19,0,0,1,.56.93c0,.34-.25.47-.56.29L397.37,167a1.18,1.18,0,0,1-.56-.93C396.81,165.77,397.06,165.64,397.37,165.82Z" transform="translate(0.37 -4.87)"/><path class="cls-5" d="M414.93,176l6.69,3.87a1.21,1.21,0,0,1,.56.94c0,.33-.25.46-.56.28l-6.69-3.87a1.21,1.21,0,0,1-.56-.94C414.37,175.9,414.62,175.78,414.93,176Z" transform="translate(0.37 -4.87)"/><path class="cls-17" d="M414.93,176l6.69,3.87a1.21,1.21,0,0,1,.56.94c0,.33-.25.46-.56.28l-6.69-3.87a1.21,1.21,0,0,1-.56-.94C414.37,175.9,414.62,175.78,414.93,176Z" transform="translate(0.37 -4.87)"/></g><g id="Mouse"><path class="cls-9" d="M310.12,231.91l9.42,5.44a10.38,10.38,0,0,0,10.4-.55l15.55-11.35c2.77-2,2.61-5-.36-6.77l-4.72-2.74a12.83,12.83,0,0,0-10.93-.33L310.29,226C307.22,227.55,307.14,230.19,310.12,231.91Z" transform="translate(0.37 -4.87)"/><path class="cls-3" d="M345.74,220.51,335,228.92l-7.94,6.21a7,7,0,0,1-2.53.61,6.88,6.88,0,0,1-3.77-.79l-8.43-4.87a0,0,0,0,1,0,0l-.05,0a6,6,0,0,1-1.71-8.53l.25-.35a11.24,11.24,0,0,1,6.79-4.3l4.27-.85c6.92-1.41,12.59-2.09,13.25-1.64l10.57,6.12Z" transform="translate(0.37 -4.87)"/><path class="cls-5" d="M339.73,225.22l.61-.48-9.49-5.47,8.3-2.57-.84-.49-8.3,2.57-5.66-3.26-1.07.2Z" transform="translate(0.37 -4.87)"/><path class="cls-10" d="M328,234.62l0,0h0l7.56-5.46,10.19-7.36V220.6a.1.1,0,0,0-.05-.09l-.06,0c-.76-.26-5.18,1.07-10.52,3.19l-3.54,1.41a11.21,11.21,0,0,0-7.1,10.47v.18a7,7,0,0,0,2.53-.61Z" transform="translate(0.37 -4.87)"/></g></g><g id="Pot"><path class="cls-5" d="M346.7,385.51c-10.38-10.71-16.47-54.29-6.35-62.78h51.5c10.12,8.49,4,52.06-6.34,62.77l-.29.3c-.11.12-.23.24-.35.35-.3.29-.61.57-.94.84l-.25.2c-.25.2-.5.4-.78.6a15.26,15.26,0,0,1-1.34.87c-8.54,5-22.38,5-30.92,0h0c-.45-.26-.9-.56-1.35-.88-.26-.18-.49-.37-.73-.56l-.3-.24a12.15,12.15,0,0,1-.91-.81c-.14-.13-.28-.27-.41-.41A2.83,2.83,0,0,1,346.7,385.51Z" transform="translate(0.37 -4.87)"/><g class="cls-15"><path class="cls-13" d="M346.7,385.51c-10.38-10.71-16.47-54.29-6.35-62.78h51.5c10.12,8.49,4,52.06-6.34,62.77l-.29.3c-.11.12-.23.24-.35.35-.3.29-.61.57-.94.84l-.25.2c-.25.2-.5.4-.78.6a15.26,15.26,0,0,1-1.34.87c-8.54,5-22.38,5-30.92,0h0c-.45-.26-.9-.56-1.35-.88-.26-.18-.49-.37-.73-.56l-.3-.24a12.15,12.15,0,0,1-.91-.81c-.14-.13-.28-.27-.41-.41A2.83,2.83,0,0,1,346.7,385.51Z" transform="translate(0.37 -4.87)"/></g><path class="cls-5" d="M387.38,319.31c11.75,6.86,11.75,18,0,24.85s-30.81,6.86-42.56,0-11.75-18,0-24.85S375.63,312.45,387.38,319.31Z" transform="translate(0.37 -4.87)"/><g class="cls-23"><path class="cls-13" d="M387.38,319.31c11.75,6.86,11.75,18,0,24.85s-30.81,6.86-42.56,0-11.75-18,0-24.85S375.63,312.45,387.38,319.31Z" transform="translate(0.37 -4.87)"/></g><path class="cls-5" d="M381.73,322.61c8.63,5,8.63,13.21,0,18.25s-22.63,5-31.26,0-8.63-13.21,0-18.25S373.1,317.57,381.73,322.61Z" transform="translate(0.37 -4.87)"/><g class="cls-24"><path d="M381.73,322.61c8.63,5,8.63,13.21,0,18.25s-22.63,5-31.26,0-8.63-13.21,0-18.25S373.1,317.57,381.73,322.61Z" transform="translate(0.37 -4.87)"/></g><path class="cls-1" d="M350.47,331.27c8.63-5,22.63-5,31.26,0a14.36,14.36,0,0,1,5.16,4.79,14.38,14.38,0,0,1-5.16,4.8c-8.63,5-22.63,5-31.26,0a14.5,14.5,0,0,1-5.17-4.8A14.48,14.48,0,0,1,350.47,331.27Z" transform="translate(0.37 -4.87)"/><g id="Plants"><path class="cls-5" d="M361.88,309.28a14.43,14.43,0,0,1-1.31-3.76c-.58-3.14.2-6.73,2.74-8.67,1-.76,2.33-1.33,2.76-2.53a4.14,4.14,0,0,0,0-2.07c-.47-2.68-1.37-5.44-.63-8.05a9,9,0,0,1,5-5.36,27,27,0,0,1,7.27-1.9,11.77,11.77,0,0,0,3.85-1.1c1.44-.81,1.89-2.23,2.78-3.48a24.3,24.3,0,0,1,3.54-3.77c2.62-2.34,5.9-4.27,9.53-4.11,7.58.33,7.36,6.85,5.18,11.79s-2.76,6.55,2,11.7,4.74,11.5-.91,15-9.32,4-7.08,10.86c2,6.11,3.23,11.32-2.41,17.85-3.65,4.22-8.64,7.23-14.88,7A25.12,25.12,0,0,1,372,337c-1.72-.85-.56-2.18-1.14-3.88l-3.74-10.92a81.09,81.09,0,0,0-3-8.62C363.43,312.08,362.59,310.71,361.88,309.28Z" transform="translate(0.37 -4.87)"/><g class="cls-25"><path d="M361.88,309.28a14.43,14.43,0,0,1-1.31-3.76c-.58-3.14.2-6.73,2.74-8.67,1-.76,2.33-1.33,2.76-2.53a4.14,4.14,0,0,0,0-2.07c-.47-2.68-1.37-5.44-.63-8.05a9,9,0,0,1,5-5.36,27,27,0,0,1,7.27-1.9,11.77,11.77,0,0,0,3.85-1.1c1.44-.81,1.89-2.23,2.78-3.48a24.3,24.3,0,0,1,3.54-3.77c2.62-2.34,5.9-4.27,9.53-4.11,7.58.33,7.36,6.85,5.18,11.79s-2.76,6.55,2,11.7,4.74,11.5-.91,15-9.32,4-7.08,10.86c2,6.11,3.23,11.32-2.41,17.85-3.65,4.22-8.64,7.23-14.88,7A25.12,25.12,0,0,1,372,337c-1.72-.85-.56-2.18-1.14-3.88l-3.74-10.92a81.09,81.09,0,0,0-3-8.62C363.43,312.08,362.59,310.71,361.88,309.28Z" transform="translate(0.37 -4.87)"/></g><path class="cls-13" d="M372.18,337a.53.53,0,0,0,.37-.53c-.32-37.42,20.31-59.76,20.52-60a.58.58,0,0,0,0-.8.56.56,0,0,0-.79,0c-.21.22-21.14,22.87-20.82,60.76a.55.55,0,0,0,.56.56Z" transform="translate(0.37 -4.87)"/><path class="cls-13" d="M378.18,302.17l.12-.05c6.71-4.23,18.68-7.38,18.8-7.41a.57.57,0,0,0,.4-.69.55.55,0,0,0-.68-.4c-.5.13-12.26,3.22-19.11,7.54a.55.55,0,0,0-.18.77A.55.55,0,0,0,378.18,302.17Z" transform="translate(0.37 -4.87)"/><path class="cls-13" d="M380.26,297h0a.57.57,0,0,0,.31-.74,43.53,43.53,0,0,0-6.19-10.41.55.55,0,0,0-.79-.06.57.57,0,0,0-.06.79,42.89,42.89,0,0,1,6,10.11A.55.55,0,0,0,380.26,297Z" transform="translate(0.37 -4.87)"/><path class="cls-5" d="M366.92,341a31.45,31.45,0,0,1-16.43.6c-9.42-2-15.19-10.84-15.19-10.84s10.2-4.08,16.14-4.48a52.62,52.62,0,0,0-17.85.38s-5.46-2-4.43-11.24c0,0,5.14-3.79,17-2.3,0,0-5.92-4.23-16.31-5.48-.82,0,.29-12,1.28-17.35s3-4.52,7.2-4.06,16.81,3.32,18.4,6.4.05,10.94.05,10.94a18,18,0,0,0,3.46-10.28s4.73,1.73,7.26,4a16.82,16.82,0,0,1,4.52,5.66c-.59,4.21-2.57,10.64-5.35,14.23,0,0,6.26-4.05,7.69-11.49a26,26,0,0,1,5,14.65C379.22,329.75,375,336.74,366.92,341Z" transform="translate(0.37 -4.87)"/><path class="cls-26" d="M366.92,341a31.45,31.45,0,0,1-16.43.6c-9.42-2-15.19-10.84-15.19-10.84s10.2-4.08,16.14-4.48a52.62,52.62,0,0,0-17.85.38s-5.46-2-4.43-11.24c0,0,5.14-3.79,17-2.3,0,0-5.92-4.23-16.31-5.48-.82,0,.29-12,1.28-17.35s3-4.52,7.2-4.06,16.81,3.32,18.4,6.4.05,10.94.05,10.94a18,18,0,0,0,3.46-10.28s4.73,1.73,7.26,4a16.82,16.82,0,0,1,4.52,5.66c-.59,4.21-2.57,10.64-5.35,14.23,0,0,6.26-4.05,7.69-11.49a26,26,0,0,1,5,14.65C379.22,329.75,375,336.74,366.92,341Z" transform="translate(0.37 -4.87)"/><path class="cls-13" d="M368.17,340.19a.52.52,0,0,1-.34-.46c-1.43-17.86-21.41-45.75-30.24-51.35a.56.56,0,0,1-.17-.75.55.55,0,0,1,.74-.17c9,5.69,29.29,34,30.73,52.18a.53.53,0,0,1-.49.58A.45.45,0,0,1,368.17,340.19Z" transform="translate(0.37 -4.87)"/></g></g><g id="Character-2" data-name="Character"><path class="cls-27" d="M187.49,329c0-.2-3.21-11.8-3.21-11.8s1.05,1.07,7.75-.7a38,38,0,0,0,7.29-3.06l1.91,8.48c1.79,3.26,7.71,1.76,14.19,1,1.09-.13,2.21-.31,3.33-.5h.07c3.5-.19,7,1.91,3.38,4.9s-9.65,4.11-15.18,5.11C200.36,333.68,188.68,335.63,187.49,329Z" transform="translate(0.37 -4.87)"/><path class="cls-10" d="M234,328a6.79,6.79,0,0,1,.48,3.56c-.12,1.29-3.32,5.67-9,8.36s-12.62,2.86-15.88,3.8-6.26,2.81-10.11,3.75-7.66,1.44-11.52-1.11c-.71-1.09-1.49-3.62-1.27-3.87C187.4,341.83,234,328,234,328Z" transform="translate(0.37 -4.87)"/><path class="cls-5" d="M202.25,323.08c2.48,1.71,7.62.52,13.17-.11,5.24-.6,11.13-2.44,14.69-1.2s6.53,5.42,1.72,10.79c-1.39,1.55-4.33,4.28-6.69,5.13-6,2.14-11.34,2.31-15.18,3.26-5,1.23-7.74,3.45-12.36,4-6,.7-9.78-.84-10.82-2.44s-2-14.49.57-14.22c0,0,1.08,4.17,10.87.12C202.49,326.62,202.42,324,202.25,323.08Z" transform="translate(0.37 -4.87)"/><path class="cls-8" d="M202.25,323.08c2.48,1.71,7.62.52,13.17-.11,5.24-.6,11.13-2.44,14.69-1.2s6.53,5.42,1.72,10.79c-1.39,1.55-4.33,4.28-6.69,5.13-6,2.14-11.34,2.31-15.18,3.26-5,1.23-7.74,3.45-12.36,4-6,.7-9.78-.84-10.82-2.44s-2-14.49.57-14.22c0,0,1.08,4.17,10.87.12C202.49,326.62,202.42,324,202.25,323.08Z" transform="translate(0.37 -4.87)"/><path class="cls-28" d="M218.85,330s-.56-5.44-4.58-6.88a2.11,2.11,0,0,0-2.22.29s3.73.54,5,6.93c0,0,.19.42,1,.27C218.29,330.55,218.89,330.44,218.85,330Z" transform="translate(0.37 -4.87)"/><path class="cls-28" d="M208.62,323.82s0-.18.94-.35a1.68,1.68,0,0,1,1.11.12s3,1.3,3.56,7c0,0,0,.68-.93.87a.82.82,0,0,1-1.07-.56S211.61,324.91,208.62,323.82Z" transform="translate(0.37 -4.87)"/><path class="cls-28" d="M205.4,323.94s.17-.34.87-.34c.89,0,1.1.35,1.1.35s2.14,2.19,2.16,6.95c0,0,.09.8-1,.88s-1-.82-1-.82S207.15,324.9,205.4,323.94Z" transform="translate(0.37 -4.87)"/><path class="cls-3" d="M183.35,250.2c4.9,14.73,17.9,65.45,17.9,65.45s-8.46,7.6-17.64,4.14l-21.87-63.16Z" transform="translate(0.37 -4.87)"/><path class="cls-27" d="M221.14,345.4c-1-1.49-4.76-11.8-4.76-11.8s3.92,2.24,10.67.64c3.43-.82,6.64-4.54,6.64-4.54l2.88,9.91c1.7,3.31,7.21,2.22,13.71,1.64,1.09-.1,2.21-.26,3.34-.42h.07c3.5-.1,7,2.08,3.25,5s-9.74,3.88-15.3,4.74C235,351.58,224.89,351,221.14,345.4Z" transform="translate(0.37 -4.87)"/><path class="cls-10" d="M271.56,345.09a7.31,7.31,0,0,1,.43,3.84c-.17,1.38-3.72,6-9.84,8.73s-13.63,2.74-17.16,3.66-6.79,2.86-11,3.77-8.26,1.33-12.33-1.49c-.74-1.2-1.52-3.94-1.26-4.2C221.12,358.71,271.56,345.09,271.56,345.09Z" transform="translate(0.37 -4.87)"/><path class="cls-5" d="M237.63,338.87a10.44,10.44,0,0,0,1.23.76,3.67,3.67,0,0,0,1.36.28,18.9,18.9,0,0,0,3.28.08c2.74-.13,5.47-.55,8.21-.79,5.63-.5,12-2.32,15.79-.9s7.25,6,1.94,11.61a26,26,0,0,1-7.1,5.39c-6.29,2.63-12.82,2.14-17,3.06-5.4,1.19-8.4,3.5-13.38,3.95-6.45.59-10.47-1.16-11.54-2.91-.6-1,.06-6-.74-9.95-.7-3.38-.52-5.68.7-5.53a6,6,0,0,0,.94,1.2,4.51,4.51,0,0,0,1.43,1.13,11.29,11.29,0,0,0,2.42.81,14.29,14.29,0,0,0,4.49.62,2.18,2.18,0,0,0,1.22-.39,2.57,2.57,0,0,0,.71-1.52c.1-.5.21-1,.31-1.5a2.1,2.1,0,0,1,.28-.77,2,2,0,0,1,.76-.61,6.56,6.56,0,0,0,2.46-1.87,5.78,5.78,0,0,0,.72-2.32.57.57,0,0,1,.16-.38c.18-.14.45,0,.65.11Z" transform="translate(0.37 -4.87)"/><path class="cls-8" d="M237.63,338.87a10.44,10.44,0,0,0,1.23.76,3.67,3.67,0,0,0,1.36.28,18.9,18.9,0,0,0,3.28.08c2.74-.13,5.47-.55,8.21-.79,5.63-.5,12-2.32,15.79-.9s7.25,6,1.94,11.61a26,26,0,0,1-7.1,5.39c-6.29,2.63-12.82,2.14-17,3.06-5.4,1.19-8.4,3.5-13.38,3.95-6.45.59-10.47-1.16-11.54-2.91-.6-1,.06-6-.74-9.95-.7-3.38-.52-5.68.7-5.53a6,6,0,0,0,.94,1.2,4.51,4.51,0,0,0,1.43,1.13,11.29,11.29,0,0,0,2.42.81,14.29,14.29,0,0,0,4.49.62,2.18,2.18,0,0,0,1.22-.39,2.57,2.57,0,0,0,.71-1.52c.1-.5.21-1,.31-1.5a2.1,2.1,0,0,1,.28-.77,2,2,0,0,1,.76-.61,6.56,6.56,0,0,0,2.46-1.87,5.78,5.78,0,0,0,.72-2.32.57.57,0,0,1,.16-.38c.18-.14.45,0,.65.11Z" transform="translate(0.37 -4.87)"/><path class="cls-28" d="M255.2,346.83s-.46-5.86-4.74-7.51a2.28,2.28,0,0,0-2.39.25s4,.68,5.14,7.57c0,0,.2.46,1.08.32C254.58,347.42,255.23,347.32,255.2,346.83Z" transform="translate(0.37 -4.87)"/><path class="cls-28" d="M244.38,339.94s0-.2,1-.36a1.78,1.78,0,0,1,1.18.16s3.19,1.47,3.64,7.6c0,0,0,.73-1,.91a.89.89,0,0,1-1.14-.63S247.57,341.18,244.38,339.94Z" transform="translate(0.37 -4.87)"/><path class="cls-28" d="M240.92,340s.19-.36,1-.34c.95,0,1.16.4,1.16.4s2.24,2.41,2.14,7.51c0,0,.08.87-1.13.93s-1-.91-1-.91S242.78,341.05,240.92,340Z" transform="translate(0.37 -4.87)"/><path class="cls-4" d="M217.84,267.59c3.86,11.87,13.72,45.66,18.22,63,0,0-8.09,7.28-18.5,6.64l-25.09-65.06,10-6.18Z" transform="translate(0.37 -4.87)"/><path class="cls-4" d="M135.23,430a1.63,1.63,0,0,0,1.63-1.63V323.81a1.63,1.63,0,0,0-3.26,0V428.4A1.63,1.63,0,0,0,135.23,430Z" transform="translate(0.37 -4.87)"/><path class="cls-4" d="M70.52,392a1.62,1.62,0,0,0,1.51-1l32.07-81.18a1.62,1.62,0,1,0-3-1.19L69,389.73a1.63,1.63,0,0,0,.91,2.11A1.61,1.61,0,0,0,70.52,392Z" transform="translate(0.37 -4.87)"/><path class="cls-4" d="M74.37,382.21a1.61,1.61,0,0,0,1.18-.51l59.68-63.15,59.57,62.88a1.63,1.63,0,1,0,2.36-2.24l-60.75-64.13a1.64,1.64,0,0,0-1.18-.51h0a1.63,1.63,0,0,0-1.18.51l-60.86,64.4a1.63,1.63,0,0,0,1.18,2.75Z" transform="translate(0.37 -4.87)"/><path class="cls-4" d="M199.94,392a1.61,1.61,0,0,0,.6-.12,1.63,1.63,0,0,0,.91-2.11l-32.07-81.17a1.63,1.63,0,1,0-3,1.19l32.08,81.18A1.62,1.62,0,0,0,199.94,392Z" transform="translate(0.37 -4.87)"/><path class="cls-5" d="M200.72,287.94c1.17-6.56-4.17-11.68-14.23-18.47a238.45,238.45,0,0,0-29.13-16.37c-8.42-3.86-17-3.5-27.79,2-15,7.69-60,35-60,35s67.32,38,80.27,36.3,45.32-22.76,47.89-30.17S200.72,287.94,200.72,287.94Z" transform="translate(0.37 -4.87)"/><g class="cls-29"><path d="M200.72,287.94c1.17-6.56-4.17-11.68-14.23-18.47a238.45,238.45,0,0,0-29.13-16.37c-8.42-3.86-17-3.5-27.79,2-15,7.69-60,35-60,35s67.32,38,80.27,36.3,45.32-22.76,47.89-30.17S200.72,287.94,200.72,287.94Z" transform="translate(0.37 -4.87)"/></g><path class="cls-5" d="M143.35,318.43c9.66,8.75,19.76,1.22,35.74-9.15,18.09-11.73,21.63-21.34,21.63-21.34s0,7.2-1.35,10.57-4.27,7.2-17.31,16.19-22.49,13.49-31.26,15.16l-6.92-.95" transform="translate(0.37 -4.87)"/><path class="cls-7" d="M179.09,309.28c18.09-11.73,21.63-21.34,21.63-21.34s0,7.2-1.35,10.57-4.27,7.2-17.31,16.19-22.49,13.49-31.26,15.16l-6.92-.95-.53-10.48C153,327.18,163.11,319.65,179.09,309.28Z" transform="translate(0.37 -4.87)"/><path class="cls-5" d="M73,379.22l-5,11.42a1.59,1.59,0,0,0-.06.3,1.34,1.34,0,0,0,0,.21,1.41,1.41,0,0,0,.63.76,3,3,0,0,0,2.68.13,1.18,1.18,0,0,0,.55-.53v0l0-.15,4.6-10.71Z" transform="translate(0.37 -4.87)"/><path class="cls-5" d="M197.73,379.7,202,390.89a1.35,1.35,0,0,1,0,.29v.2a1.31,1.31,0,0,1-.64.7,2.8,2.8,0,0,1-2.58,0,1.15,1.15,0,0,1-.51-.52v0l0-.16-3.93-10.49Z" transform="translate(0.37 -4.87)"/><path class="cls-5" d="M133.35,420.3v9.26a1,1,0,0,0,.55.76,2.9,2.9,0,0,0,2.66,0,.93.93,0,0,0,.54-.76V420.3A4,4,0,0,0,133.35,420.3Z" transform="translate(0.37 -4.87)"/><path class="cls-3" d="M96.54,248.72c3.83,4.47,38.72-5.57,48-6.83,14.9-2,27-3.51,32.1-1.92s7.21,4.17,8.76,10.23c1.83,7.14,2.77,10.79,2.77,10.79s-24.76,9.5-44.3,11.79S96.54,248.72,96.54,248.72Z" transform="translate(0.37 -4.87)"/><path class="cls-4" d="M90,255.27c-3.87,14.74-7.34,31.88,1.61,41.26,6,6.32,36.31,22.74,55.85,16.27,19.24-6.37,59.1-36,63.1-38.93s7.63-5,7.25-6.28c-5.37-17.84-13.23-19.24-27.79-16-17.82,3.92-56.92,19.87-56.92,19.87Z" transform="translate(0.37 -4.87)"/><polygon class="cls-27" points="178.89 155.64 165.45 170.84 143.75 160.54 158.92 139.55 178.89 155.64"/><path class="cls-30" d="M195.19,131.66s5.5,7.94,4.91,8.75-4.48,1.61-4.48,1.61Z" transform="translate(0.37 -4.87)"/><circle class="cls-31" cx="195.51" cy="125.45" r="5.98"/><path class="cls-27" d="M179.92,109.68c10.81,2,14,6.68,15.43,23.75,1.46,17.83-.23,23.49-2.52,25.94-1.55,1.66-10.34,2.16-14.81,1-5.59-1.41-18.25-5.57-24.33-14.42-7.16-10.41-9.31-24.69-2-30.73C161.89,106.75,175.52,108.86,179.92,109.68Z" transform="translate(0.37 -4.87)"/><path class="cls-30" d="M178.52,160.52c4.65,1,11.73.41,13.83-.79a16,16,0,0,1-7.83-.29,25.61,25.61,0,0,1-7.17-3.16Z" transform="translate(0.37 -4.87)"/><path class="cls-10" d="M197.35,116.67l0,0c-3,2.08-6.7,2.94-10.32,3.51.28,2.89-.63,5.75-1.53,8.52-.62,1.91-2.87,7.92-5.32,4.62-1.77-2.38-3.37-4.55-6.76-4-5.58,1-6.17,8.11-2.54,12.37s6.88,2.52,6.88,2.52.51,7.69-3.55,13.13c0,0-6.05,3.72-14.55.92-5.36-1.77-13.1-8.53-15.95-13.81-7.85-14.52-7.89-28.44,1.63-32.72.88-7,6.27-10.2,12.46-11.77,8.59-2.18,17.51,3.21,25.81-.35,1.75-.75,3.36-1.81,5.15-2.46a3.56,3.56,0,0,1,3.09,0,3.76,3.76,0,0,1,1.32,2.36,6.62,6.62,0,0,1-.33,5,15,15,0,0,1,3.91-1.44,4.9,4.9,0,0,1,3.94.89,5.07,5.07,0,0,1,1.58,3.44C202.58,111.07,200.35,114.58,197.35,116.67Z" transform="translate(0.37 -4.87)"/><path class="cls-10" d="M145.19,114.12l-6.52-3.65a3.74,3.74,0,1,1,6.52,3.65Z" transform="translate(0.37 -4.87)"/><line class="cls-32" x1="180.52" y1="128.47" x2="201.42" y2="124.56"/><path class="cls-27" d="M223.86,169.4c-.56-.94-1.81-1.13-2.85-1.49-1.92-.67-3.42-2.2-5.27-3a10.4,10.4,0,0,0-6.66-.45,16.88,16.88,0,0,0-2.22.71,27.94,27.94,0,0,0-4,2c-5.3,3.13-9.28,10.22-14.49,13.47-1.94,1.21-3.75,2.31-5.54,3.41L195.3,195.1a74.46,74.46,0,0,1,6.14-4.67c3.06-1.82,6.15-1.86,9.59-2.36a47.58,47.58,0,0,0,7-1.75,3.09,3.09,0,0,0,2.07-1.35,2.08,2.08,0,0,0-1.34-2.56,18,18,0,0,0-3.63-.5c-.9-.14-3.3.39-3.83-.51-.28-.48.07-1.06.41-1.49,2.16-2.69,4.89-5.57,8.34-6.38a7.24,7.24,0,0,0,3-1.21A2.39,2.39,0,0,0,223.86,169.4Z" transform="translate(0.37 -4.87)"/><path class="cls-5" d="M149.47,157c-13.21-7.21-25.24-2.58-29.57,6.69-3.93,8.39-12.17,40.85-12.17,40.85C111.69,212,149.47,157,149.47,157Z" transform="translate(0.37 -4.87)"/><path class="cls-5" d="M147.49,159.6l2-2.61c-14.92-7.08-28.27,2.22-40,20.52-12.68,19.72-19.33,48-19.39,77.91,0,0,2.53,13.43,19.49,20.14,18,7.13,43.11,4.11,50.94-14.55,0,0,.16-18.63,5.82-27.81,3.67-5.94,12.22-19.13,18.58-28.6,5.54-8.24,9.85-27-1.72-33.85a98.25,98.25,0,0,0-9.41-4.8C163.22,169.43,146.13,163.78,147.49,159.6Z" transform="translate(0.37 -4.87)"/><path class="cls-33" d="M147.53,159.67l1.94-2.68c-14.92-7.08-28.27,2.22-40,20.52-12.68,19.72-19.33,48-19.39,77.91,0,0,2.53,13.43,19.49,20.14,18,7.13,43.11,4.11,50.94-14.55,0,0,.16-18.63,5.82-27.81,3.67-5.94,12.22-19.13,18.58-28.6,5.54-8.24,9.85-27-1.72-33.85a98.25,98.25,0,0,0-9.41-4.8C163.22,169.43,146.17,163.85,147.53,159.67Z" transform="translate(0.37 -4.87)"/><path class="cls-34" d="M189.7,192.65a30.2,30.2,0,0,0,.46-10.86h0A58,58,0,0,1,178.9,199c-6.07,6.39-13.56,11.37-19.19,18.15-6,7.18-10.25,15.87-15.25,23.71-2,3.15-4.74,9.22-8.46,9.47-4.54.29-8.88-5.24-11.35-9.06-4-6.08-7.34-13.69-12.25-19-4.29-4.67-10.93-10.65-16.77-7.94h0c-.44,1.55-.85,3.12-1.24,4.7s-.75,3.22-1.09,4.83c0,.06,0,.13,0,.19-.33,1.62-.64,3.25-.93,4.88a2,2,0,0,1,0,.26q-.42,2.43-.75,4.86a157.64,157.64,0,0,0-1.49,21.41s2.53,13.43,19.49,20.14c18,7.13,43.11,4.11,50.94-14.55,0,0,.16-18.63,5.82-27.81.57-.92,1.27-2,2-3.27h0l.13-.21c.65-1,1.35-2.13,2.11-3.31,0-.07.09-.14.14-.21a.41.41,0,0,1,0-.09c1.62-2.53,3.44-5.33,5.32-8.22l.85-1.31c1.82-2.78,3.67-5.59,5.43-8.24l0,0c.59-.89,1.17-1.76,1.75-2.61.24-.37.49-.73.72-1.09h0c.2-.29.4-.61.59-.93l.18-.3.42-.74.18-.34.45-.88a2.4,2.4,0,0,1,.11-.23c.19-.39.37-.79.55-1.2l0-.05,0-.07c.16-.38.32-.76.47-1.14,0-.1.07-.19.1-.28.14-.37.28-.74.41-1.11l0-.09,0-.13c.24-.69.46-1.41.66-2.13v0c.2-.73.38-1.47.54-2.21v-.09Z" transform="translate(0.37 -4.87)"/><path class="cls-27" d="M258.89,210.8a27.57,27.57,0,0,1-3.1,3.2c-4.56,4.13-9.89,6.12-16.09,10.14-5,3.25-12.73,8-19.24,12.05a97.27,97.27,0,0,1-21,9.68c-6,1.78-9.43,1.85-13-7.83-1.75-4.75-3.14-9.63-4.66-14.46q-3.37-10.79-6.64-21.61s-8-19.83,10-29.79c7.83,4.48,10.81,6.29,13.27,15.67,2.94,11.23,7.7,33.39,7.7,33.39a156.74,156.74,0,0,0,18.59-7.92c2.28-1.13,5.09-1.92,6.72-3.95a30.18,30.18,0,0,0,2.86-4.46c.77-1.38,1.32-2.88,2.17-4.2a37.21,37.21,0,0,1,5.91-6.51,2.43,2.43,0,0,1,1.43-.85,1.66,1.66,0,0,1,1.45.88c.66,1.16.05,2.29-.29,3.47-.39,1.35-.78,2.7-1.16,4A35.25,35.25,0,0,0,255.28,191a5.87,5.87,0,0,1,.9-1.14,1.74,1.74,0,0,1,1.34-.49c1.2.15,2.39,2.09,2.45,3.2a18.23,18.23,0,0,0,.09,3.39c.27,1,1,1.9,1.31,2.92a17,17,0,0,1,.68,3.24,11.1,11.1,0,0,1-1.82,6.79A16,16,0,0,1,258.89,210.8Z" transform="translate(0.37 -4.87)"/><path class="cls-5" d="M184.08,171.35c6.85,2.77,11.79,5.9,14.91,16.36S205.51,215,205.51,215s.06,3.51-8.26,8.42a20.48,20.48,0,0,1-16.11,2.17l-6.28-20.2S163.72,178.33,184.08,171.35Z" transform="translate(0.37 -4.87)"/><path class="cls-5" d="M143.88,328.91c-5.5-.28-9.81-4.32-22.89-9.77C96.83,309.07,78.71,301,71.8,288.36s-11.79-49.18-10.06-65a20.35,20.35,0,0,1,1.18-5.24l-1.7-.25,4.4-3.75h0c4.52-3.68,11.86-.4,17.4,2.62,15.82,8.6,28.19,17,38,47.17,7.35,22.71,12.2,43.43,22.36,54.51" transform="translate(0.37 -4.87)"/><path class="cls-35" d="M62.92,218.12l-1.7-.25,4.4-3.75h0c4.52-3.68,11.86-.4,17.4,2.62,15.82,8.6,28.19,17,38,47.17,7.35,22.71,12.2,43.43,22.36,54.51l.53,10.48c-5.5-.28-9.81-4.32-22.89-9.77C96.83,309.07,78.71,301,71.8,288.36s-11.79-49.18-10.06-65A20.78,20.78,0,0,1,62.92,218.12Z" transform="translate(0.37 -4.87)"/><path class="cls-5" d="M78.44,220.64c15.81,8.6,28.18,17,38,47.17s15.13,56.88,34.4,62.05c0,0-8.71,3.47-35.41-7.83-8.5-3.59-18.81-10.14-25.58-13.94-13.27-7.45-21.32-13.55-22.59-15.84-7-12.59-11.79-49.18-10.07-65S70.51,216.32,78.44,220.64Z" transform="translate(0.37 -4.87)"/></g><g id="Speech_Bubble-2" data-name="Speech Bubble"><path class="cls-5" d="M167.34,86.69,163,78.48l3.51-10.15V62.12l-10.75,6.21v6.21l4.62,8a.62.62,0,0,0,.32.28h0Z" transform="translate(0.37 -4.87)"/><path class="cls-36" d="M167.34,86.69,163,78.48l3.51-10.15V62.12l-10.75,6.21v6.21l4.62,8a.62.62,0,0,0,.32.28h0Z" transform="translate(0.37 -4.87)"/><path class="cls-5" d="M193,12.75a7.14,7.14,0,0,0-3.23-5.59l-2.62-1.51a7.12,7.12,0,0,0-6.45,0L140.45,28.94a7.13,7.13,0,0,0-3.22,5.59V78.84a7.13,7.13,0,0,0,3.22,5.58l2.63,1.52a7.12,7.12,0,0,0,6.45,0l12.95-7.48,4.62,8a.68.68,0,0,0,1.24-.12l4.88-14.08,16.58-9.6A7.14,7.14,0,0,0,193,57.06Z" transform="translate(0.37 -4.87)"/><path class="cls-36" d="M137.23,78.84a7.13,7.13,0,0,0,3.22,5.58l2.63,1.52a7.21,7.21,0,0,0,5.9.26c-1.52.57-2.68-.28-2.68-2.12V39.77a6.64,6.64,0,0,1,.95-3.18l-9.08-5.24a6.62,6.62,0,0,0-.94,3.18Z" transform="translate(0.37 -4.87)"/><path class="cls-14" d="M192.92,11.83c-.37-1.37-1.62-1.8-3.11-.95l-40.28,23.3a6.37,6.37,0,0,0-2.27,2.41l-9.08-5.24a6.58,6.58,0,0,1,2.27-2.4l40.27-23.3a7.12,7.12,0,0,1,6.45,0l2.64,1.52A7.08,7.08,0,0,1,192.92,11.83Z" transform="translate(0.37 -4.87)"/><g id="_" data-name="&lt;/&gt;"><path class="cls-13" d="M152.23,57.16a2.36,2.36,0,0,1,.16-.92,7,7,0,0,1,.47-.86l8.76-14.15a.66.66,0,0,1,.14-.17l.1-.07a.24.24,0,0,1,.32,0,.58.58,0,0,1,.14.43v5.46a2.34,2.34,0,0,1-.26,1.14,7.16,7.16,0,0,1-.44.75l-4.52,6.88,4.52,2.08a1.92,1.92,0,0,1,.44.21c.17.11.26.39.26.83v3.88a1.3,1.3,0,0,1-.14.58.83.83,0,0,1-.32.4l-.1,0a.23.23,0,0,1-.14,0l-8.76-4a1.18,1.18,0,0,1-.47-.32,1.17,1.17,0,0,1-.16-.73Z" transform="translate(0.37 -4.87)"/><path class="cls-13" d="M171.31,35.3a5.6,5.6,0,0,1,.33-.88,1.59,1.59,0,0,1,.64-.69L175.21,32a.26.26,0,0,1,.34,0,.61.61,0,0,1,.14.44,1.47,1.47,0,0,1,0,.33l-7.4,31.54a4.25,4.25,0,0,1-.31.85,1.59,1.59,0,0,1-.65.71l-2.87,1.66a.26.26,0,0,1-.34,0,.56.56,0,0,1-.14-.44,1.33,1.33,0,0,1,0-.32Z" transform="translate(0.37 -4.87)"/><path class="cls-13" d="M187.4,40.4a2.3,2.3,0,0,1-.16.92,7,7,0,0,1-.47.86L178,56.34a1.31,1.31,0,0,1-.14.16l-.1.08a.25.25,0,0,1-.33,0,.55.55,0,0,1-.13-.43V50.67a2.24,2.24,0,0,1,.25-1.12c.17-.3.32-.54.45-.73l3.83-5.92L178,41.44a1.6,1.6,0,0,1-.45-.23c-.17-.12-.25-.4-.25-.85V34.9a1.33,1.33,0,0,1,.13-.58.93.93,0,0,1,.33-.39l.1,0H178l8.76,4a.87.87,0,0,1,.63,1Z" transform="translate(0.37 -4.87)"/></g></g><g id="Text_Box" data-name="Text Box"><g id="_2" data-name="{}"><g id="Speech_Bubble-3" data-name="Speech Bubble"><g id="Speach_Bubble" data-name="Speach Bubble"><path class="cls-10" d="M70.5,7.2,16.61,38.25a2.94,2.94,0,0,0-1.34,2.31V70.65A2.92,2.92,0,0,0,16.61,73l5.32,3a3,3,0,0,0,2.68,0l53.89-31a3,3,0,0,0,1.34-2.32V12.52a2.9,2.9,0,0,0-1.34-2.3l-5.32-3A3,3,0,0,0,70.5,7.2Z" transform="translate(0.37 -4.87)"/><path class="cls-4" d="M79.82,12.28c-.1-.68-.65-.92-1.32-.54L24.62,42.79a2.77,2.77,0,0,0-.95,1l-8-4.59a2.63,2.63,0,0,1,.92-1L70.5,7.2a3,3,0,0,1,2.68,0l5.32,3A3,3,0,0,1,79.82,12.28Z" transform="translate(0.37 -4.87)"/><path class="cls-3" d="M78.5,11.75l-53.89,31a3,3,0,0,0-1.33,2.32V75.19c0,.85.6,1.2,1.33.77l53.89-31a3,3,0,0,0,1.34-2.32V12.52C79.84,11.67,79.24,11.32,78.5,11.75Z" transform="translate(0.37 -4.87)"/></g></g></g><path class="cls-37" d="M36.6,50.5c0,.24,0,.56,0,1s0,.83,0,1.26,0,.86,0,1.27,0,.73,0,1A5.86,5.86,0,0,0,36.75,56a1.7,1.7,0,0,0,.38.76,1,1,0,0,0,.65.3,1.86,1.86,0,0,0,1-.32,3.79,3.79,0,0,0,1-.77,4.52,4.52,0,0,0,1-1.76c.08-.3.15-.56.19-.8a3.45,3.45,0,0,1,.19-.71.9.9,0,0,1,.4-.4L43.75,51a.21.21,0,0,1,.27,0,.49.49,0,0,1,.11.35,10.35,10.35,0,0,1-.43,2.79,12.7,12.7,0,0,1-1.13,2.72,13.44,13.44,0,0,1-1.7,2.37A8.72,8.72,0,0,1,38.76,61a4.47,4.47,0,0,1-2.21.71,2.53,2.53,0,0,1-1.66-.59,3.72,3.72,0,0,1-1.06-1.68,9.48,9.48,0,0,1-.42-2.53q0-1.06,0-2.31t0-2.4a13.78,13.78,0,0,1,.41-3,14.74,14.74,0,0,1,1.06-2.9,12.28,12.28,0,0,1,1.66-2.51,8.62,8.62,0,0,1,2.22-1.85,4.69,4.69,0,0,1,2.11-.7,2.84,2.84,0,0,1,1.7.41,3,3,0,0,1,1.13,1.41,5.85,5.85,0,0,1,.43,2.29,1.2,1.2,0,0,1-.11.48.71.71,0,0,1-.27.33l-2.25,1.3c-.2.11-.33.13-.4,0a1.13,1.13,0,0,1-.19-.48,3.56,3.56,0,0,0-.19-.58,1.07,1.07,0,0,0-.37-.46,1.08,1.08,0,0,0-.62-.16,2.16,2.16,0,0,0-1,.35,3.54,3.54,0,0,0-1,.81,4.79,4.79,0,0,0-.65,1.06,5.41,5.41,0,0,0-.38,1.2A8.71,8.71,0,0,0,36.6,50.5Z" transform="translate(0.37 -4.87)"/><path class="cls-37" d="M51.24,34.73a4.57,4.57,0,0,1,2-.67,2.83,2.83,0,0,1,1.59.34,2.57,2.57,0,0,1,1,1.09A3.52,3.52,0,0,1,56.3,37a1.2,1.2,0,0,1-.11.48.69.69,0,0,1-.25.31l-2.26,1.31a.61.61,0,0,1-.39.11.67.67,0,0,1-.3-.14l-.16-.17a.77.77,0,0,0-.32-.2,1.2,1.2,0,0,0-.52,0,2.06,2.06,0,0,0-.75.29,5.39,5.39,0,0,0-.63.43,3.74,3.74,0,0,0-.53.52,2.52,2.52,0,0,0-.38.63,1.86,1.86,0,0,0-.15.75.83.83,0,0,0,.17.57.74.74,0,0,0,.55.17,4.33,4.33,0,0,0,1-.16l1.58-.41a5.17,5.17,0,0,1,1.65-.21,1.94,1.94,0,0,1,1.18.45,2.41,2.41,0,0,1,.71,1.18,7.43,7.43,0,0,1,.23,2,9,9,0,0,1-.39,2.64A11.32,11.32,0,0,1,55.14,50a10.86,10.86,0,0,1-1.69,2.12,10.39,10.39,0,0,1-2.13,1.63,5.16,5.16,0,0,1-2.13.75,2.79,2.79,0,0,1-1.66-.3,2.54,2.54,0,0,1-1.09-1.13A3.85,3.85,0,0,1,46,51.34a1.07,1.07,0,0,1,.12-.48.65.65,0,0,1,.25-.32l2.25-1.3a.7.7,0,0,1,.38-.12.54.54,0,0,1,.27.12,2.39,2.39,0,0,1,.21.22,1.2,1.2,0,0,0,.37.28,1.14,1.14,0,0,0,.58.1,2,2,0,0,0,.87-.32,6.46,6.46,0,0,0,1.53-1.18,2.14,2.14,0,0,0,.61-1.46.57.57,0,0,0-.23-.53,1.17,1.17,0,0,0-.67-.1,6.55,6.55,0,0,0-1.14.22c-.47.13-1,.27-1.64.42a2.48,2.48,0,0,1-2.59-.45,4.7,4.7,0,0,1-.82-3.17,9.14,9.14,0,0,1,.33-2.37,11.14,11.14,0,0,1,1-2.39,10.37,10.37,0,0,1,1.54-2.14A8.55,8.55,0,0,1,51.24,34.73Z" transform="translate(0.37 -4.87)"/><path class="cls-37" d="M63.7,27.54a4.56,4.56,0,0,1,2-.68,3,3,0,0,1,1.59.34,2.69,2.69,0,0,1,1,1.09,3.56,3.56,0,0,1,.4,1.55,1.07,1.07,0,0,1-.12.48.62.62,0,0,1-.25.31l-2.25,1.3a.63.63,0,0,1-.39.12.62.62,0,0,1-.3-.14l-.16-.17a.84.84,0,0,0-.32-.2,1.06,1.06,0,0,0-.52-.05,2,2,0,0,0-.75.29,5.39,5.39,0,0,0-.63.43,3.8,3.8,0,0,0-.54.52,2.48,2.48,0,0,0-.37.63,1.86,1.86,0,0,0-.15.75.78.78,0,0,0,.16.56.73.73,0,0,0,.55.18,4.32,4.32,0,0,0,1-.16l1.58-.41A5.17,5.17,0,0,1,67,34.07a2,2,0,0,1,1.18.44,2.45,2.45,0,0,1,.71,1.19,7.43,7.43,0,0,1,.23,2,8.76,8.76,0,0,1-.4,2.64,10.44,10.44,0,0,1-1.11,2.46,11,11,0,0,1-1.68,2.12,10.76,10.76,0,0,1-2.13,1.63,5.16,5.16,0,0,1-2.13.75A3,3,0,0,1,60,47a2.59,2.59,0,0,1-1.09-1.13,3.74,3.74,0,0,1-.42-1.75,1,1,0,0,1,.12-.47.65.65,0,0,1,.24-.32l2.26-1.3a.85.85,0,0,1,.38-.13.54.54,0,0,1,.27.12,2.88,2.88,0,0,1,.21.23,1.08,1.08,0,0,0,.37.27,1,1,0,0,0,.58.1,2,2,0,0,0,.87-.31,6.49,6.49,0,0,0,1.53-1.19,2.1,2.1,0,0,0,.61-1.45.57.57,0,0,0-.23-.53,1.09,1.09,0,0,0-.67-.1,5.72,5.72,0,0,0-1.14.22q-.71.19-1.65.42a2.51,2.51,0,0,1-2.59-.45,4.78,4.78,0,0,1-.81-3.17,9.14,9.14,0,0,1,.33-2.37,11.14,11.14,0,0,1,1-2.39,10.71,10.71,0,0,1,1.54-2.15A8.51,8.51,0,0,1,63.7,27.54Z" transform="translate(0.37 -4.87)"/></g><g id="Text_Box-2" data-name="Text Box"><g id="_3" data-name="{}"><g id="Speech_Bubble-4" data-name="Speech Bubble"><g id="Speach_Bubble-2" data-name="Speach Bubble"><path class="cls-10" d="M70.5,69.72l-53.89,31a3,3,0,0,0-1.34,2.32v30.08a2.92,2.92,0,0,0,1.34,2.3l5.32,3a3,3,0,0,0,2.68,0l53.89-31a3,3,0,0,0,1.34-2.32V75a2.92,2.92,0,0,0-1.34-2.3l-5.32-3A3,3,0,0,0,70.5,69.72Z" transform="translate(0.37 -4.87)"/><path class="cls-4" d="M79.82,74.79c-.1-.67-.65-.91-1.32-.53l-53.88,31a2.77,2.77,0,0,0-.95,1l-8-4.59a2.63,2.63,0,0,1,.92-.95l53.89-31a3,3,0,0,1,2.68,0l5.32,3A2.92,2.92,0,0,1,79.82,74.79Z" transform="translate(0.37 -4.87)"/><path class="cls-3" d="M78.5,74.26l-53.89,31a3,3,0,0,0-1.33,2.32V137.7c0,.85.6,1.2,1.33.77l53.89-31a3,3,0,0,0,1.34-2.32V75C79.84,74.18,79.24,73.83,78.5,74.26Z" transform="translate(0.37 -4.87)"/></g></g></g><path class="cls-37" d="M36.85,105.82a.25.25,0,0,1,.33,0,.58.58,0,0,1,.14.43v17.11a1.37,1.37,0,0,1-.14.58.8.8,0,0,1-.33.4l-2.25,1.3a.24.24,0,0,1-.33,0,.57.57,0,0,1-.14-.42v-6.49l-3.82,2.2v6.49a1.4,1.4,0,0,1-.13.59,1,1,0,0,1-.33.4l-2.25,1.3a.27.27,0,0,1-.33,0,.58.58,0,0,1-.14-.44V112.15a1.42,1.42,0,0,1,.14-.59.9.9,0,0,1,.33-.4l2.25-1.3a.26.26,0,0,1,.33,0,.56.56,0,0,1,.13.42v6.38l3.82-2.2V108.1a1.41,1.41,0,0,1,.14-.58.85.85,0,0,1,.33-.4Z" transform="translate(0.37 -4.87)"/><path class="cls-37" d="M49.43,98.56a.24.24,0,0,1,.33,0,.57.57,0,0,1,.14.42v2.81a1.34,1.34,0,0,1-.14.58.88.88,0,0,1-.33.41l-3,1.74v13.59a1.4,1.4,0,0,1-.13.59,1.05,1.05,0,0,1-.33.4l-2.25,1.3a.27.27,0,0,1-.33,0,.58.58,0,0,1-.14-.43V106.38l-3,1.75a.26.26,0,0,1-.33,0,.58.58,0,0,1-.13-.43v-2.8a1.4,1.4,0,0,1,.13-.59.91.91,0,0,1,.33-.4Z" transform="translate(0.37 -4.87)"/><path class="cls-37" d="M57.34,107.86a1.13,1.13,0,0,1-.24-.3l-1.61-3.44v8.77a1.37,1.37,0,0,1-.14.58.8.8,0,0,1-.33.4l-2.25,1.3a.24.24,0,0,1-.33,0,.57.57,0,0,1-.14-.42V97.61a1.37,1.37,0,0,1,.14-.58.85.85,0,0,1,.33-.4l2-1.15c.22-.14.4-.14.51,0a1.71,1.71,0,0,1,.23.3l2.78,5.72,2.79-8.94A5.88,5.88,0,0,1,61.3,92a1.3,1.3,0,0,1,.52-.59l2-1.15a.25.25,0,0,1,.32,0,.58.58,0,0,1,.14.43v17.11a1.42,1.42,0,0,1-.14.59,1,1,0,0,1-.32.4l-2.26,1.3a.26.26,0,0,1-.33,0,.54.54,0,0,1-.13-.42v-8.77l-1.62,5.31a5.67,5.67,0,0,1-.23.57,1,1,0,0,1-.41.46l-1.1.63C57.57,108,57.44,108,57.34,107.86Z" transform="translate(0.37 -4.87)"/><path class="cls-37" d="M76,97.53a.25.25,0,0,1,.33,0,.56.56,0,0,1,.14.42v2.81a1.37,1.37,0,0,1-.14.58.8.8,0,0,1-.33.4l-8,4.6a.25.25,0,0,1-.33,0,.57.57,0,0,1-.14-.42V88.81a1.37,1.37,0,0,1,.14-.58.8.8,0,0,1,.33-.4l2.25-1.3a.24.24,0,0,1,.33,0,.57.57,0,0,1,.13.42v13.59Z" transform="translate(0.37 -4.87)"/></g><g id="Text_Box-3" data-name="Text Box"><g id="_4" data-name="{}"><g id="Speech_Bubble-5" data-name="Speech Bubble"><g id="Speach_Bubble-3" data-name="Speach Bubble"><path class="cls-10" d="M70.5,132.23,16.61,163.28a2.94,2.94,0,0,0-1.34,2.31v30.08a2.89,2.89,0,0,0,1.34,2.3l5.32,3a3,3,0,0,0,2.68,0L78.5,169.94a2.94,2.94,0,0,0,1.34-2.31V137.55a2.92,2.92,0,0,0-1.34-2.31l-5.32-3A3,3,0,0,0,70.5,132.23Z" transform="translate(0.37 -4.87)"/><path class="cls-4" d="M79.82,137.3c-.1-.67-.65-.91-1.32-.53l-53.88,31a2.7,2.7,0,0,0-.95,1l-8-4.59a2.66,2.66,0,0,1,.92-1l53.89-31a3,3,0,0,1,2.68,0l5.32,3A2.94,2.94,0,0,1,79.82,137.3Z" transform="translate(0.37 -4.87)"/><path class="cls-3" d="M78.5,136.77l-53.89,31a3,3,0,0,0-1.33,2.31v30.08c0,.86.6,1.2,1.33.78L78.5,169.94a2.94,2.94,0,0,0,1.34-2.31V137.55C79.84,136.69,79.24,136.35,78.5,136.77Z" transform="translate(0.37 -4.87)"/></g></g></g><path class="cls-37" d="M37.64,174.92c0,.24,0,.56,0,1s0,.83,0,1.26,0,.86,0,1.27,0,.73,0,1a6.49,6.49,0,0,0,.16,1.08,1.7,1.7,0,0,0,.38.76,1,1,0,0,0,.65.3,1.86,1.86,0,0,0,1-.32,4,4,0,0,0,1-.76,5.44,5.44,0,0,0,.62-.88,4.53,4.53,0,0,0,.37-.89,8.22,8.22,0,0,0,.19-.8,3.45,3.45,0,0,1,.19-.71,1,1,0,0,1,.4-.4l2.25-1.3a.21.21,0,0,1,.27,0,.49.49,0,0,1,.11.35,10.35,10.35,0,0,1-.43,2.79,12.24,12.24,0,0,1-1.14,2.72,12.9,12.9,0,0,1-1.69,2.37,8.49,8.49,0,0,1-2.11,1.73,4.37,4.37,0,0,1-2.21.71,2.53,2.53,0,0,1-1.66-.59,3.72,3.72,0,0,1-1.06-1.68,9.41,9.41,0,0,1-.42-2.53q0-1.07,0-2.31t0-2.4a13.78,13.78,0,0,1,.41-3,14.74,14.74,0,0,1,1.06-2.9,12.28,12.28,0,0,1,1.66-2.51,8.82,8.82,0,0,1,2.22-1.85,4.69,4.69,0,0,1,2.11-.7,2.86,2.86,0,0,1,1.69.41,3,3,0,0,1,1.14,1.41,5.86,5.86,0,0,1,.43,2.3,1.19,1.19,0,0,1-.11.47.71.71,0,0,1-.27.33l-2.25,1.3c-.2.11-.33.13-.4.06a1.25,1.25,0,0,1-.19-.49,3.56,3.56,0,0,0-.19-.58,1.13,1.13,0,0,0-.37-.46,1.1,1.1,0,0,0-.62-.16,2.16,2.16,0,0,0-1,.35,3.54,3.54,0,0,0-1,.81,5,5,0,0,0-.65,1.06,5.41,5.41,0,0,0-.38,1.2A10.42,10.42,0,0,0,37.64,174.92Z" transform="translate(0.37 -4.87)"/><path class="cls-37" d="M53.44,171.39v4.37a1.42,1.42,0,0,1-.14.59,1,1,0,0,1-.32.4L50.81,178a.27.27,0,0,1-.33,0,.58.58,0,0,1-.14-.43v-4.37l-2.66,1.54a.25.25,0,0,1-.33,0,.58.58,0,0,1-.14-.43V171.6a1.34,1.34,0,0,1,.14-.58.88.88,0,0,1,.33-.41l2.66-1.54V164.7a1.37,1.37,0,0,1,.14-.58.85.85,0,0,1,.33-.4L53,162.47a.24.24,0,0,1,.32,0,.57.57,0,0,1,.14.42v4.38l2.65-1.53a.24.24,0,0,1,.33,0,.57.57,0,0,1,.14.42v2.68a1.37,1.37,0,0,1-.14.58.8.8,0,0,1-.33.4Z" transform="translate(0.37 -4.87)"/><path class="cls-37" d="M64.85,164.81v4.37a1.41,1.41,0,0,1-.14.58.85.85,0,0,1-.33.4l-2.16,1.25a.25.25,0,0,1-.33,0,.57.57,0,0,1-.14-.42v-4.38l-2.67,1.54a.23.23,0,0,1-.32,0,.57.57,0,0,1-.14-.42V165a1.37,1.37,0,0,1,.14-.58.84.84,0,0,1,.32-.4l2.67-1.54v-4.37a1.42,1.42,0,0,1,.14-.59.9.9,0,0,1,.33-.4l2.16-1.25a.27.27,0,0,1,.33,0,.58.58,0,0,1,.14.43v4.37l2.65-1.53a.26.26,0,0,1,.33,0,.58.58,0,0,1,.13.43v2.67a1.33,1.33,0,0,1-.13.58.86.86,0,0,1-.33.4Z" transform="translate(0.37 -4.87)"/></g></g></svg>