<svg xmlns="http://www.w3.org/2000/svg" viewBox="0 0 458.49 432.77"><defs><style>.cls-1{fill:#f5f5f5;}.cls-2{fill:#e6e6e6;}.cls-19,.cls-3{fill:#27debf;}.cls-12,.cls-4{opacity:0.1;}.cls-13,.cls-14,.cls-17,.cls-18,.cls-20,.cls-21,.cls-22,.cls-23,.cls-5{fill:#fff;}.cls-6{fill:none;stroke:#27debf;stroke-linecap:round;stroke-linejoin:round;}.cls-7{fill:#37474f;}.cls-8{fill:#263238;}.cls-9{fill:#455a64;}.cls-10{fill:#fafafa;}.cls-11{opacity:0.75;}.cls-13{opacity:0.65;}.cls-14{opacity:0.5;}.cls-15,.cls-20{opacity:0.2;}.cls-16{opacity:0.4;}.cls-17{opacity:0.15;}.cls-18{opacity:0.85;}.cls-19,.cls-22{opacity:0.8;}.cls-21{opacity:0.35;}.cls-23{opacity:0.7;}</style></defs><g id="Cloud"><ellipse id="Floor-2" data-name="Floor" class="cls-1" cx="229.25" cy="308.51" rx="229.25" ry="124.27"/><path id="Shadow" class="cls-2" d="M193,345.14,124,384.91a6.65,6.65,0,0,1-6,0L49.2,345.14c-1.65-1-1.65-2.51,0-3.46l68.93-39.77a6.65,6.65,0,0,1,6,0L193,341.68C194.61,342.63,194.61,344.18,193,345.14Z" transform="translate(-3.8 0.59)"/><path class="cls-2" d="M324.16,334.61a9.88,9.88,0,0,1-4.94-1.25l-70.34-40.61a6.34,6.34,0,0,1,0-11.31l96.25-55.56a10.29,10.29,0,0,1,9.87,0l70.34,40.61a6.33,6.33,0,0,1,0,11.3L329.1,333.36A9.88,9.88,0,0,1,324.16,334.61Z" transform="translate(-3.8 0.59)"/><g id="Plants-2" data-name="Plants"><path class="cls-3" d="M401.1,251.2c.07-7.67-1.34-21.81,5.26-35,4.78-9.56,13.27-18.82,21.09-17.83,7.28.93,7.84,12.13.81,19.74s-13.57,20.73-15.64,37.67l-7.54,10Z" transform="translate(-3.8 0.59)"/><g class="cls-4"><path d="M401.1,251.2c.07-7.67-1.34-21.81,5.26-35,4.78-9.56,13.27-18.82,21.09-17.83,7.28.93,7.84,12.13.81,19.74s-13.57,20.73-15.64,37.67l-7.54,10Z" transform="translate(-3.8 0.59)"/></g><path class="cls-5" d="M407.16,257.18a.53.53,0,0,0,.41-.57c-2-21.72,4.16-40.16,17.81-53.31a.53.53,0,0,0-.74-.77c-13.89,13.39-20.16,32.12-18.13,54.18a.53.53,0,0,0,.58.48Z" transform="translate(-3.8 0.59)"/><path class="cls-3" d="M412.34,262.31a27,27,0,0,0,13.57,3.42c8.2,0,11.12-4.4,11.12-4.4s-4.34-7-9.22-8.38a45.16,45.16,0,0,1,14.79,3.48s4.9-.7,5.66-8.47c0,0-3.61-4-13.71-4.91,0,0,5.67-2.43,14.54-1.61.67.15,1.86-9.93,2-14.51s-1.67-4.25-5.29-4.62-15.52.93-17.38,3.18-1.94,8.95-1.94,8.95-2.66-3.36-2.69-6.73a11,11,0,0,0-6.9,2.08c-2.24,1.6-3.44,3-3.55,5.9a53.48,53.48,0,0,0,.79,9.64,19.2,19.2,0,0,1-2-11.61s-6.6,4.54-6.93,9S404.2,256,412.34,262.31Z" transform="translate(-3.8 0.59)"/><path class="cls-5" d="M412.49,262.83a.56.56,0,0,0,.36-.36c4.31-14.43,25.81-33.82,34.13-36.86a.53.53,0,0,0,.32-.68.51.51,0,0,0-.68-.32c-8.49,3.09-30.4,22.85-34.79,37.55a.54.54,0,0,0,.35.67A.65.65,0,0,0,412.49,262.83Z" transform="translate(-3.8 0.59)"/></g><path class="cls-6" d="M178,333.31l30.33-17.51a4.79,4.79,0,0,1,4.33,0l32.23,18.66a4.79,4.79,0,0,0,4.33,0l42.51-24.55" transform="translate(-3.8 0.59)"/><path class="cls-6" d="M169.84,328.66l38.44-22.19a4.79,4.79,0,0,1,4.33,0l32.23,18.61a4.79,4.79,0,0,0,4.33,0l34.39-19.86" transform="translate(-3.8 0.59)"/><path class="cls-6" d="M275.77,300.34l-26.6,15.36a4.79,4.79,0,0,1-4.33,0l-32.23-18.61a4.79,4.79,0,0,0-4.33,0L161.7,324" transform="translate(-3.8 0.59)"/><path class="cls-6" d="M267.31,295.84l-18.14,10.47a4.73,4.73,0,0,1-4.33,0l-32.23-18.6a4.79,4.79,0,0,0-4.33,0L153.6,319.28" transform="translate(-3.8 0.59)"/><g id="Laptop"><g id="Laptop-2" data-name="Laptop"><path class="cls-7" d="M246.17,283a5.51,5.51,0,0,0,2.58,4.29l72.44,41.83a5.74,5.74,0,0,0,5.17,0l99.11-57.23a4.85,4.85,0,0,0,0-8.58L353,221.5a5.7,5.7,0,0,0-5.18,0l-99.11,57.22A5.53,5.53,0,0,0,246.17,283Z" transform="translate(-3.8 0.59)"/><path class="cls-8" d="M323.77,324.15v5.59a5.29,5.29,0,0,1-2.58-.61l-72.44-41.82a4.85,4.85,0,0,1-.26-8.42c-1.16.83-1.07,2,.26,2.81l72.44,41.83A5.29,5.29,0,0,0,323.77,324.15Z" transform="translate(-3.8 0.59)"/><path class="cls-9" d="M243.74,278.81a5.54,5.54,0,0,1-2.42-4.38V188a5.7,5.7,0,0,1,2.58-4.47L343,126.28a4.86,4.86,0,0,1,7.44,4.3V217a5.72,5.72,0,0,1-2.59,4.48l-99.11,57.22A5.57,5.57,0,0,1,243.74,278.81Z" transform="translate(-3.8 0.59)"/><path class="cls-8" d="M248.45,278.87a4.83,4.83,0,0,1-7.13-4.44V188a5.11,5.11,0,0,1,.76-2.54l4.84,2.79h0a5.34,5.34,0,0,0-.75,2.54v86.45C246.17,278.76,247.16,279.44,248.45,278.87Z" transform="translate(-3.8 0.59)"/><path class="cls-7" d="M246.17,190.78v86.45c0,1.65,1.15,2.31,2.58,1.49l99.11-57.22a5.72,5.72,0,0,0,2.59-4.48V130.58c0-1.65-1.16-2.32-2.59-1.5l-99.11,57.23A5.7,5.7,0,0,0,246.17,190.78Z" transform="translate(-3.8 0.59)"/><path class="cls-9" d="M248.75,281.7l72.44,41.82a5.68,5.68,0,0,0,5.17,0l99.11-57.22c1.43-.82,1.43-2.16,0-3L353,221.5a5.7,5.7,0,0,0-5.18,0l-99.11,57.22C247.32,279.54,247.32,280.88,248.75,281.7Z" transform="translate(-3.8 0.59)"/><path class="cls-10" d="M250.14,191.1,345.7,136c.86-.5,1.55-.1,1.55.89v74.83a3.43,3.43,0,0,1-1.55,2.69l-95.56,55.15c-.85.5-1.55.1-1.55-.89V193.79A3.46,3.46,0,0,1,250.14,191.1Z" transform="translate(-3.8 0.59)"/><path class="cls-3" d="M257.16,279.47l92-53.12a2.86,2.86,0,0,1,2.58,0l4.71,2.72a.79.79,0,0,1,0,1.49l-92,53.11a2.88,2.88,0,0,1-2.59,0L257.16,281A.79.79,0,0,1,257.16,279.47Z" transform="translate(-3.8 0.59)"/><path class="cls-8" d="M257.16,279.47l92-53.12a2.86,2.86,0,0,1,2.58,0l4.71,2.72a.79.79,0,0,1,0,1.49l-92,53.11a2.88,2.88,0,0,1-2.59,0L257.16,281A.79.79,0,0,1,257.16,279.47Z" transform="translate(-3.8 0.59)"/><path class="cls-8" d="M269.29,286.47l92-53.12a2.88,2.88,0,0,1,2.59,0l28.94,16.71a.78.78,0,0,1,0,1.49L300.92,304.6a2.88,2.88,0,0,1-2.59,0l-29-16.64A.78.78,0,0,1,269.29,286.47Z" transform="translate(-3.8 0.59)"/><path class="cls-3" d="M351.75,257.25l2.88-1.66c.13-.08.12-.19,0-.27l-3.33-1.92a.5.5,0,0,0-.46,0L348,255.05c-.13.07-.12.19,0,.27l3.33,1.92A.53.53,0,0,0,351.75,257.25Zm-5.68-6.61-2.88,1.66c-.12.07-.12.19,0,.27l3.33,1.92a.5.5,0,0,0,.46,0l2.88-1.66c.12-.07.11-.19,0-.27l-3.33-1.92A.5.5,0,0,0,346.07,250.64ZM336.76,256l-4.87,2.82c-.12.07-.12.19,0,.26l3.33,1.93a.53.53,0,0,0,.46,0l4.87-2.82c.12-.07.12-.19,0-.26L337.22,256A.53.53,0,0,0,336.76,256Zm5.1-2.94L339,254.73c-.12.07-.12.19,0,.27l3.33,1.92a.5.5,0,0,0,.46,0l2.88-1.66c.12-.07.11-.19,0-.27l-3.33-1.92A.5.5,0,0,0,341.86,253.07Zm-11.3,6.53-2.88,1.66c-.12.07-.12.19,0,.26l3.33,1.93a.53.53,0,0,0,.46,0l2.88-1.67c.12-.07.11-.19,0-.26L331,259.6A.5.5,0,0,0,330.56,259.6ZM326.35,262l-2.88,1.66c-.12.07-.12.19,0,.26l3.33,1.93a.53.53,0,0,0,.46,0l2.88-1.67c.12-.07.11-.19,0-.26L326.81,262A.5.5,0,0,0,326.35,262Zm13.1,7.82,2.88-1.67c.12-.07.12-.19,0-.26L339,266a.48.48,0,0,0-.45,0l-2.89,1.66c-.12.07-.11.19,0,.26l3.33,1.93A.53.53,0,0,0,339.45,269.85Zm-4.21,2.43,2.88-1.67c.12-.07.12-.19,0-.26l-3.34-1.92a.45.45,0,0,0-.45,0l-2.89,1.66c-.12.07-.11.19,0,.26l3.33,1.93A.53.53,0,0,0,335.24,272.28ZM331,274.71l2.88-1.67c.12-.07.12-.19,0-.26l-3.34-1.92a.48.48,0,0,0-.45,0l-2.89,1.66c-.12.07-.11.19,0,.26l3.33,1.93A.53.53,0,0,0,331,274.71Zm-4.21,2.43,2.88-1.67c.12-.07.12-.19,0-.26l-3.34-1.92a.48.48,0,0,0-.45,0L323,274.94c-.12.07-.11.19,0,.27l3.33,1.92A.53.53,0,0,0,326.82,277.14Zm20.72-17.46,2.88-1.66c.13-.07.12-.19,0-.27l-3.33-1.92a.5.5,0,0,0-.46,0l-2.88,1.66c-.12.07-.12.19,0,.27l3.33,1.92A.5.5,0,0,0,347.54,259.68Zm-3.88,7.74,6.43-3.71c.12-.08.11-.19,0-.27L342,258.77a.5.5,0,0,0-.46,0l-3.32,1.92c-.12.07-.12.19,0,.26l4.29,2.48c.13.07.14.19,0,.26l-2.66,1.54c-.12.07-.11.19,0,.26l3.33,1.93A.53.53,0,0,0,343.66,267.42Zm-21.52-3-2.88,1.66c-.12.07-.12.19,0,.26l3.33,1.93a.53.53,0,0,0,.46,0l2.88-1.67c.12-.07.11-.19,0-.26l-3.33-1.92A.5.5,0,0,0,322.14,264.46Zm-4.21,2.43-2.88,1.66c-.12.07-.12.19,0,.27l3.33,1.92a.53.53,0,0,0,.46,0l2.88-1.67c.12-.07.11-.18,0-.26l-3.33-1.92A.5.5,0,0,0,317.93,266.89Zm-21,27.25a.5.5,0,0,0,.46,0l2.88-1.66c.12-.07.12-.19,0-.27l-3.33-1.92a.5.5,0,0,0-.46,0L293.55,292c-.13.07-.12.19,0,.27Zm-12.64-7.81L281.37,288c-.12.08-.11.19,0,.27l3.33,1.92a.5.5,0,0,0,.46,0l2.88-1.66c.12-.07.11-.19,0-.27l-3.33-1.92A.53.53,0,0,0,284.25,286.33ZM291,292a.5.5,0,0,0,.46,0l2.88-1.66c.12-.07.11-.19,0-.26L291,288.19a.53.53,0,0,0-.46,0l-2.88,1.67c-.12.07-.12.19,0,.26Zm13.3,3.59,2.88-1.66c.12-.07.11-.19,0-.27l-3.33-1.92a.5.5,0,0,0-.46,0l-2.88,1.66c-.12.07-.12.19,0,.27l3.33,1.92A.5.5,0,0,0,304.33,295.62ZM299.66,298a.5.5,0,0,0,.46,0l2.88-1.66c.12-.07.11-.19,0-.27l-3.33-1.92a.5.5,0,0,0-.46,0l-2.88,1.66c-.12.07-.12.19,0,.27Zm-11.2-14.14-2.88,1.66c-.12.07-.11.19,0,.27l3.33,1.92a.5.5,0,0,0,.46,0l2.88-1.66c.12-.07.11-.19,0-.27l-3.33-1.92A.5.5,0,0,0,288.46,283.9Zm21.05-12.15-2.88,1.66c-.12.07-.12.19,0,.27L310,275.6a.5.5,0,0,0,.46,0l2.88-1.66c.12-.07.11-.19,0-.27L310,271.76A.5.5,0,0,0,309.51,271.75Zm-16.84,9.72-2.88,1.66c-.12.07-.11.19,0,.27l3.33,1.92a.5.5,0,0,0,.46,0l2.88-1.66c.12-.07.11-.19,0-.27l-3.33-1.92A.5.5,0,0,0,292.67,281.47Zm21.05-12.15L310.84,271c-.12.07-.12.19,0,.27l3.33,1.92a.53.53,0,0,0,.46,0l2.88-1.66c.12-.08.11-.19,0-.27l-3.33-1.92A.5.5,0,0,0,313.72,269.32Zm-8.42,4.86-2.88,1.66c-.12.07-.12.19,0,.27l3.33,1.92a.5.5,0,0,0,.46,0l2.88-1.66c.12-.07.11-.19,0-.27l-3.33-1.92A.5.5,0,0,0,305.3,274.18Zm-4.21,2.43-2.88,1.66c-.12.07-.12.19,0,.27l3.33,1.92a.5.5,0,0,0,.46,0l2.88-1.66c.12-.07.11-.19,0-.27l-3.33-1.92A.5.5,0,0,0,301.09,276.61ZM296.88,279,294,280.7c-.12.07-.11.19,0,.27l3.33,1.92a.5.5,0,0,0,.46,0l2.88-1.66c.12-.07.11-.19,0-.27l-3.33-1.92A.5.5,0,0,0,296.88,279Zm21.52,3,2.88-1.66c.12-.07.12-.19,0-.27l-3.33-1.92a.5.5,0,0,0-.46,0l-2.88,1.66c-.13.07-.12.19,0,.27l3.33,1.92A.5.5,0,0,0,318.4,282Zm37-36.73-2.88,1.66c-.13.07-.12.19,0,.27l3.33,1.92a.53.53,0,0,0,.46,0l2.88-1.66c.12-.08.12-.19,0-.27l-3.33-1.92A.5.5,0,0,0,355.38,245.27Zm-5.1,2.94-2.88,1.66c-.12.07-.12.19,0,.27l3.33,1.92a.5.5,0,0,0,.46,0l2.88-1.66c.12-.07.11-.19,0-.27l-3.33-1.92A.5.5,0,0,0,350.28,248.21Zm9.31-5.37-2.88,1.66c-.13.07-.12.19,0,.27l3.33,1.92a.53.53,0,0,0,.46,0l2.88-1.67c.12-.07.12-.18,0-.26l-3.33-1.92A.5.5,0,0,0,359.59,242.84ZM337.8,265.31l2.88-1.67c.12-.07.11-.18,0-.26l-3.33-1.92a.5.5,0,0,0-.46,0L334,263.11c-.12.07-.12.19,0,.27l3.34,1.92A.53.53,0,0,0,337.8,265.31Zm26.46-24.89a.5.5,0,0,0-.46,0l-2.88,1.66c-.13.07-.12.19,0,.26l3.33,1.93a.53.53,0,0,0,.46,0l2.88-1.67c.12-.07.12-.19,0-.26Zm-41.65,39.15,2.88-1.66c.12-.08.12-.19,0-.27l-3.33-1.92a.5.5,0,0,0-.46,0l-2.88,1.66c-.13.07-.12.19,0,.27l3.33,1.92A.53.53,0,0,0,322.61,279.57Zm51.63-29.81,2.88-1.66c.12-.07.11-.19,0-.27l-3.33-1.92a.5.5,0,0,0-.46,0l-2.88,1.66c-.12.07-.11.19,0,.27l3.33,1.92A.5.5,0,0,0,374.24,249.76Zm-9-.31,2.88-1.67c.12-.07.12-.19,0-.26l-3.33-1.93a.53.53,0,0,0-.46,0l-2.88,1.67c-.12.07-.11.19,0,.26l3.33,1.93A.53.53,0,0,0,365.27,249.45Zm3.74-6.29a.53.53,0,0,0-.46,0l-2.88,1.67c-.12.07-.11.19,0,.26L369,247a.5.5,0,0,0,.46,0l2.88-1.66c.12-.07.12-.19,0-.26Zm.89-.51,8.09,4.67a.5.5,0,0,0,.46,0l2.88-1.66c.12-.07.11-.19,0-.27l-8.09-4.67a.53.53,0,0,0-.46,0l-2.88,1.67C369.76,242.46,369.77,242.58,369.9,242.65ZM360.13,248l-2.88,1.66c-.12.07-.11.19,0,.26l3.33,1.93a.53.53,0,0,0,.46,0l2.88-1.67c.12-.07.12-.19,0-.26L360.59,248A.5.5,0,0,0,360.13,248Zm-31.68,18.29L325.57,268c-.12.07-.12.19,0,.27l3.33,1.92a.5.5,0,0,0,.46,0l2.88-1.66c.12-.07.11-.19,0-.27l-3.33-1.92A.5.5,0,0,0,328.45,266.31Zm41.12-14.13a.5.5,0,0,0,.46,0l2.88-1.66c.12-.07.11-.19,0-.27l-3.33-1.92a.5.5,0,0,0-.46,0L366.22,250c-.12.07-.11.19,0,.27Zm-36.91,11.7-2.88,1.66c-.12.07-.12.19,0,.27l3.33,1.92a.53.53,0,0,0,.46,0l2.88-1.66c.12-.08.11-.19,0-.27l-3.33-1.92A.5.5,0,0,0,332.66,263.88ZM301.1,291.71a.5.5,0,0,0,.46,0l2.88-1.66c.12-.07.12-.19,0-.27l-3.33-1.92a.5.5,0,0,0-.46,0l-2.88,1.66c-.13.07-.12.19,0,.27Zm-6.33-6-2.88,1.67c-.12.07-.12.19,0,.26l3.33,1.92a.5.5,0,0,0,.46,0l2.88-1.66c.12-.07.11-.19,0-.26l-3.33-1.93A.53.53,0,0,0,294.77,285.75Zm11,3.54,2.88-1.66c.12-.07.12-.19,0-.27l-3.33-1.92a.5.5,0,0,0-.46,0L302,287.09c-.13.07-.12.19,0,.27l3.33,1.92A.5.5,0,0,0,305.77,289.29Zm4.21-2.43,2.88-1.66c.12-.07.12-.19,0-.27L309.52,283a.5.5,0,0,0-.46,0l-2.88,1.66c-.13.07-.12.19,0,.27l3.33,1.92A.5.5,0,0,0,310,286.86Zm4.21-2.43,2.88-1.66c.12-.07.12-.19,0-.27l-3.33-1.92a.5.5,0,0,0-.46,0l-2.88,1.66c-.13.07-.12.19,0,.27l3.33,1.92A.5.5,0,0,0,314.19,284.43ZM299,283.32,296.1,285c-.12.07-.12.18,0,.26l3.33,1.92a.5.5,0,0,0,.46,0l2.88-1.66c.12-.07.11-.19,0-.27l-3.33-1.92A.53.53,0,0,0,299,283.32Zm4.21-2.43-2.88,1.66c-.12.08-.12.19,0,.27l3.33,1.92a.5.5,0,0,0,.46,0l2.88-1.66c.12-.07.11-.19,0-.27l-3.33-1.92A.53.53,0,0,0,303.19,280.89ZM320,271.17l-2.88,1.66c-.12.07-.12.19,0,.27L320.5,275a.5.5,0,0,0,.46,0l2.88-1.66c.12-.07.11-.19,0-.27l-3.33-1.92A.5.5,0,0,0,320,271.17Zm-4.21,2.43-2.88,1.66c-.12.07-.12.19,0,.27l3.33,1.92a.5.5,0,0,0,.46,0l2.88-1.66c.12-.07.11-.19,0-.27l-3.33-1.92A.5.5,0,0,0,315.82,273.6Zm8.42-4.86-2.88,1.66c-.12.07-.12.19,0,.27l3.33,1.92a.5.5,0,0,0,.46,0l2.88-1.66c.12-.07.11-.19,0-.27l-3.33-1.92A.5.5,0,0,0,324.24,268.74Zm-16.84,9.72-2.88,1.66c-.12.07-.12.19,0,.27l3.33,1.92a.5.5,0,0,0,.46,0l2.88-1.66c.12-.07.11-.19,0-.27l-3.33-1.92A.5.5,0,0,0,307.4,278.46Zm4.21-2.43-2.88,1.66c-.12.07-.12.19,0,.27l3.33,1.92a.5.5,0,0,0,.46,0l2.88-1.66c.12-.07.11-.19,0-.27L312.07,276A.5.5,0,0,0,311.61,276Zm-3.07,17.16,2.88-1.66c.12-.07.11-.19,0-.27l-3.33-1.92a.5.5,0,0,0-.46,0L304.73,291c-.12.07-.12.19,0,.27l3.33,1.92A.5.5,0,0,0,308.54,293.19Zm-24.71-2.5-3.33-1.92a.53.53,0,0,0-.46,0l-2.88,1.67c-.12.07-.11.18,0,.26l3.33,1.92a.5.5,0,0,0,.46,0l2.88-1.66C284,290.89,284,290.77,283.83,290.69Zm6.31,1.86-3.33-1.93a.53.53,0,0,0-.46,0l-4.43,2.56c-.12.07-.12.19,0,.27l3.33,1.92a.5.5,0,0,0,.46,0l4.43-2.56C290.28,292.74,290.27,292.62,290.14,292.55ZM278.72,287l-3.33-1.93a.53.53,0,0,0-.46,0l-3.54,2c-.13.07-.12.19,0,.27l3.33,1.92a.5.5,0,0,0,.46,0l3.55-2.05C278.86,287.17,278.85,287.05,278.72,287Zm2.72-1.57a.53.53,0,0,0,.46,0l2.88-1.67c.12-.07.11-.19,0-.26l-3.33-1.92a.5.5,0,0,0-.46,0l-2.88,1.66c-.12.07-.11.19,0,.26ZM296,294.65l-3.33-1.92a.5.5,0,0,0-.46,0l-5.54,3.2c-.13.07-.12.19,0,.26l3.33,1.93a.53.53,0,0,0,.46,0l5.54-3.2C296.15,294.85,296.14,294.73,296,294.65Zm2.76,3.9-3.33-1.92a.5.5,0,0,0-.46,0l-3.54,2.05c-.13.07-.12.19,0,.26l3.33,1.92a.5.5,0,0,0,.46,0l3.55-2C298.91,298.75,298.9,298.63,298.77,298.55Zm14-31.21a.53.53,0,0,0,.46,0l2.88-1.67c.12-.07.12-.19,0-.26l-3.33-1.93a.53.53,0,0,0-.46,0l-2.88,1.67c-.12.07-.11.19,0,.26Zm-8.42,4.86a.53.53,0,0,0,.46,0l2.88-1.67c.12-.07.12-.19,0-.26l-3.33-1.92a.5.5,0,0,0-.46,0L301,270c-.12.07-.11.19,0,.26ZM285.65,283a.53.53,0,0,0,.46,0l2.88-1.67c.12-.07.11-.19,0-.26l-3.33-1.92a.5.5,0,0,0-.46,0l-2.88,1.66c-.12.07-.11.19,0,.26Zm22.88-13.21a.53.53,0,0,0,.46,0l2.88-1.67c.12-.07.12-.19,0-.26l-3.33-1.93a.5.5,0,0,0-.46,0l-2.88,1.66c-.12.07-.11.19,0,.26Zm-8.42,4.86a.53.53,0,0,0,.46,0l2.88-1.67c.12-.07.12-.19,0-.26l-3.33-1.92a.5.5,0,0,0-.46,0l-2.88,1.66c-.12.07-.11.19,0,.26Zm1,24.23a.5.5,0,0,0-.46,0l-4.43,2.55c-.12.07-.11.19,0,.27l3.33,1.92a.5.5,0,0,0,.46,0l4.43-2.56c.12-.07.12-.19,0-.26Zm-7-20.74a.53.53,0,0,0,.46,0l2.88-1.67c.12-.07.11-.19,0-.26l-3.33-1.93a.53.53,0,0,0-.46,0l-2.88,1.67c-.12.07-.11.19,0,.26Zm-4.21,2.43a.53.53,0,0,0,.46,0l2.88-1.67c.12-.07.11-.19,0-.26l-3.33-1.93a.5.5,0,0,0-.46,0l-2.88,1.66c-.12.07-.11.19,0,.26Zm89.22-26.71a.47.47,0,0,0-.46,0l-7.09,4.09c-.12.07-.12.19,0,.26l3.34,1.93a.51.51,0,0,0,.45,0l7.09-4.1c.13-.07.12-.19,0-.26Zm-9.31,5.37a.5.5,0,0,0-.46,0l-2.88,1.66c-.12.07-.11.19,0,.27l3.33,1.92a.5.5,0,0,0,.46,0l2.88-1.66c.12-.07.11-.19,0-.27Zm-57,31.55,2.88-1.66c.12-.08.11-.19,0-.27l-3.33-1.92a.5.5,0,0,0-.46,0l-2.88,1.66c-.12.07-.12.19,0,.27l3.33,1.92A.53.53,0,0,0,312.75,290.76Zm48.6-26.69a.5.5,0,0,0-.46,0L358,265.72c-.12.07-.11.19,0,.27l3.33,1.92a.5.5,0,0,0,.46,0l2.88-1.66c.12-.07.11-.19,0-.27Zm21.94-12.67a.53.53,0,0,0-.46,0L380,253.06c-.12.07-.12.19,0,.26l3.33,1.93a.53.53,0,0,0,.46,0l2.88-1.67c.13-.07.12-.19,0-.26Zm7.54-.5-8.09-4.67a.5.5,0,0,0-.46,0l-2.88,1.66c-.12.07-.12.19,0,.27l8.08,4.67a.53.53,0,0,0,.46,0l2.88-1.67C391,251.09,391,251,390.83,250.9Zm-45.21,22.25a.53.53,0,0,0-.46,0l-3.54,2.05c-.13.07-.12.19,0,.26l3.33,1.93a.53.53,0,0,0,.46,0l3.55-2.05c.12-.07.11-.19,0-.27ZM356.26,267a.53.53,0,0,0-.46,0l-4.44,2.56c-.12.07-.11.19,0,.27l3.33,1.92a.53.53,0,0,0,.46,0l4.43-2.56c.13-.07.12-.19,0-.27Zm-20.39,11.77a.5.5,0,0,0-.46,0L311.7,292.46c-.12.07-.11.19,0,.26l3.33,1.93a.53.53,0,0,0,.46,0L339.22,281c.12-.07.11-.19,0-.27Zm-25,14.46a.5.5,0,0,0-.46,0l-3.54,2c-.12.07-.12.19,0,.27l3.33,1.92a.5.5,0,0,0,.46,0l3.54-2.05c.12-.07.12-.19,0-.26ZM340.75,276a.5.5,0,0,0-.46,0l-3.55,2c-.12.07-.11.19,0,.27l3.33,1.92a.5.5,0,0,0,.46,0l3.54-2.05c.13-.07.12-.18,0-.26ZM306,296.05a.5.5,0,0,0-.46,0l-3.55,2c-.12.07-.11.19,0,.26l3.33,1.93a.53.53,0,0,0,.46,0l3.55-2.05c.12-.07.11-.19,0-.27Zm44.54-25.71a.5.5,0,0,0-.46,0l-3.55,2c-.12.08-.11.19,0,.27l3.33,1.92a.5.5,0,0,0,.46,0l3.54-2c.12-.08.12-.19,0-.27Zm15.06-8.7a.5.5,0,0,0-.46,0l-2.88,1.66c-.12.07-.11.19,0,.27l3.33,1.92a.5.5,0,0,0,.46,0l2.88-1.66c.12-.07.11-.19,0-.27Zm9.23-6.7,2.88-1.66c.12-.07.11-.19,0-.27l-3.33-1.92a.5.5,0,0,0-.46,0L371,252.74c-.12.07-.12.19,0,.27l3.33,1.92A.5.5,0,0,0,374.79,254.94ZM356,254.82l2.88-1.67c.13-.07.12-.18,0-.26L355.5,251a.5.5,0,0,0-.46,0l-2.88,1.66c-.13.07-.12.19,0,.27l3.33,1.92A.53.53,0,0,0,356,254.82Zm-9.54,16.49,8.42-4.86c.13-.07.12-.19,0-.26l-3.33-1.93a.53.53,0,0,0-.46,0l-8.42,4.87c-.12.07-.12.19,0,.26L346,271.3A.48.48,0,0,0,346.42,271.31Zm23.7-13.95a.5.5,0,0,0,.46,0l2.88-1.66c.12-.07.11-.19,0-.27l-3.33-1.92a.5.5,0,0,0-.46,0l-2.88,1.66c-.12.07-.12.19,0,.27Zm-4.3-2.74L368.7,253c.12-.07.11-.19,0-.27l-3.33-1.92a.53.53,0,0,0-.46,0L362,252.42c-.12.08-.11.19,0,.27l3.33,1.92A.5.5,0,0,0,365.82,254.62Zm-23.6,19.12,2.88-1.66c.12-.07.11-.19,0-.26l-3.33-1.93a.53.53,0,0,0-.46,0l-2.88,1.67c-.12.07-.12.19,0,.26l3.34,1.92A.5.5,0,0,0,342.22,273.74Zm18.59-11a.5.5,0,0,0,.46,0l2.88-1.66c.12-.07.12-.19,0-.27l-3.33-1.92a.53.53,0,0,0-.46,0l-2.88,1.66c-.12.08-.11.19,0,.27ZM321.17,285.9l2.88-1.67c.12-.07.11-.19,0-.26l-3.33-1.92a.5.5,0,0,0-.46,0l-2.88,1.66c-.12.07-.12.19,0,.26l3.33,1.93A.53.53,0,0,0,321.17,285.9Zm4.21-2.43,2.88-1.67c.12-.07.11-.19,0-.26l-3.33-1.93a.5.5,0,0,0-.46,0l-2.88,1.66c-.12.07-.12.19,0,.26l3.33,1.93A.53.53,0,0,0,325.38,283.47ZM317,288.33l2.88-1.67c.12-.07.11-.18,0-.26l-3.33-1.92a.5.5,0,0,0-.46,0l-2.88,1.66c-.12.07-.12.19,0,.27l3.33,1.92A.53.53,0,0,0,317,288.33Zm16.84-9.72,2.88-1.67c.12-.07.11-.19,0-.26l-3.33-1.93a.53.53,0,0,0-.46,0L330,276.41c-.12.07-.12.19,0,.26l3.33,1.93A.53.53,0,0,0,333.8,278.61ZM329.59,281l2.88-1.67c.12-.07.11-.19,0-.26l-3.33-1.93a.5.5,0,0,0-.46,0l-2.88,1.66c-.12.07-.12.19,0,.26l3.33,1.93A.53.53,0,0,0,329.59,281Zm8.42-4.87,2.88-1.66c.12-.07.11-.19,0-.26l-3.33-1.93a.53.53,0,0,0-.46,0L334.2,274c-.12.07-.12.19,0,.26l3.33,1.93A.5.5,0,0,0,338,276.17Zm19.26-36a.51.51,0,0,0,.45,0l2.89-1.67c.12-.07.11-.18,0-.26l-.89-.51a.5.5,0,0,0-.46,0l-2.88,1.66c-.12.07-.11.19,0,.27Zm-20.72,13.37a.53.53,0,0,0,.46,0l2.88-1.67c.12-.07.12-.18,0-.26l-3.34-1.92a.48.48,0,0,0-.45,0l-2.89,1.66c-.12.07-.11.19,0,.27Zm8.42-4.86a.53.53,0,0,0,.46,0l2.88-1.67c.12-.07.12-.19,0-.26L345,244.89a.5.5,0,0,0-.46,0l-2.88,1.66c-.12.07-.11.19,0,.26Zm-13.56,7.83a.53.53,0,0,0,.46,0l2.88-1.67c.12-.07.12-.19,0-.26l-3.33-1.93a.53.53,0,0,0-.46,0l-2.88,1.67c-.12.07-.11.19,0,.26Zm9.35-5.4a.53.53,0,0,0,.46,0l2.88-1.67c.12-.07.12-.19,0-.26l-3.34-1.92a.48.48,0,0,0-.45,0L337.41,249c-.12.07-.11.19,0,.26ZM323,261.42a.53.53,0,0,0,.46,0l2.88-1.67c.12-.07.12-.19,0-.26L323,257.58a.5.5,0,0,0-.46,0l-2.88,1.66c-.12.07-.11.19,0,.26ZM327.2,259a.53.53,0,0,0,.46,0l2.88-1.67c.12-.07.12-.19,0-.26l-3.33-1.93a.5.5,0,0,0-.46,0l-2.88,1.66c-.12.07-.11.19,0,.26Zm21.65-13.91a.5.5,0,0,0,.46,0l2.88-1.66c.12-.07.11-.19,0-.27l-.89-.51a.5.5,0,0,0-.46,0l-2.88,1.66c-.12.07-.11.19,0,.27Zm12.63-7.29a.51.51,0,0,0,.45,0l2.89-1.67c.12-.07.11-.19,0-.26l-.89-.51a.5.5,0,0,0-.46,0L360.57,237c-.12.07-.11.19,0,.27Zm7,4a.53.53,0,0,0,.46,0l2.88-1.67c.12-.07.12-.19,0-.26L368.46,238a.48.48,0,0,0-.45,0l-2.88,1.66c-.13.07-.12.19,0,.26ZM379,252.51l2.88-1.66c.12-.08.11-.19,0-.27l-3.33-1.92a.5.5,0,0,0-.46,0l-2.88,1.66c-.12.07-.12.19,0,.27l3.33,1.92A.5.5,0,0,0,379,252.51Zm-25.94-9.86a.51.51,0,0,0,.45,0L356.4,241c.12-.08.11-.19,0-.27l-.89-.51a.5.5,0,0,0-.46,0l-2.88,1.66c-.12.07-.11.19,0,.27Zm-34.28,21.2a.53.53,0,0,0,.46,0l2.88-1.67c.12-.07.12-.19,0-.26L318.77,260a.5.5,0,0,0-.46,0l-2.88,1.66c-.12.07-.11.19,0,.26Z" transform="translate(-3.8 0.59)"/><path class="cls-9" d="M351.75,257.25l2.88-1.66c.13-.08.12-.19,0-.27l-3.33-1.92a.5.5,0,0,0-.46,0L348,255.05c-.13.07-.12.19,0,.27l3.33,1.92A.53.53,0,0,0,351.75,257.25Zm-5.68-6.61-2.88,1.66c-.12.07-.12.19,0,.27l3.33,1.92a.5.5,0,0,0,.46,0l2.88-1.66c.12-.07.11-.19,0-.27l-3.33-1.92A.5.5,0,0,0,346.07,250.64ZM336.76,256l-4.87,2.82c-.12.07-.12.19,0,.26l3.33,1.93a.53.53,0,0,0,.46,0l4.87-2.82c.12-.07.12-.19,0-.26L337.22,256A.53.53,0,0,0,336.76,256Zm5.1-2.94L339,254.73c-.12.07-.12.19,0,.27l3.33,1.92a.5.5,0,0,0,.46,0l2.88-1.66c.12-.07.11-.19,0-.27l-3.33-1.92A.5.5,0,0,0,341.86,253.07Zm-11.3,6.53-2.88,1.66c-.12.07-.12.19,0,.26l3.33,1.93a.53.53,0,0,0,.46,0l2.88-1.67c.12-.07.11-.19,0-.26L331,259.6A.5.5,0,0,0,330.56,259.6ZM326.35,262l-2.88,1.66c-.12.07-.12.19,0,.26l3.33,1.93a.53.53,0,0,0,.46,0l2.88-1.67c.12-.07.11-.19,0-.26L326.81,262A.5.5,0,0,0,326.35,262Zm13.1,7.82,2.88-1.67c.12-.07.12-.19,0-.26L339,266a.48.48,0,0,0-.45,0l-2.89,1.66c-.12.07-.11.19,0,.26l3.33,1.93A.53.53,0,0,0,339.45,269.85Zm-4.21,2.43,2.88-1.67c.12-.07.12-.19,0-.26l-3.34-1.92a.45.45,0,0,0-.45,0l-2.89,1.66c-.12.07-.11.19,0,.26l3.33,1.93A.53.53,0,0,0,335.24,272.28ZM331,274.71l2.88-1.67c.12-.07.12-.19,0-.26l-3.34-1.92a.48.48,0,0,0-.45,0l-2.89,1.66c-.12.07-.11.19,0,.26l3.33,1.93A.53.53,0,0,0,331,274.71Zm-4.21,2.43,2.88-1.67c.12-.07.12-.19,0-.26l-3.34-1.92a.48.48,0,0,0-.45,0L323,274.94c-.12.07-.11.19,0,.27l3.33,1.92A.53.53,0,0,0,326.82,277.14Zm20.72-17.46,2.88-1.66c.13-.07.12-.19,0-.27l-3.33-1.92a.5.5,0,0,0-.46,0l-2.88,1.66c-.12.07-.12.19,0,.27l3.33,1.92A.5.5,0,0,0,347.54,259.68Zm-3.88,7.74,6.43-3.71c.12-.08.11-.19,0-.27L342,258.77a.5.5,0,0,0-.46,0l-3.32,1.92c-.12.07-.12.19,0,.26l4.29,2.48c.13.07.14.19,0,.26l-2.66,1.54c-.12.07-.11.19,0,.26l3.33,1.93A.53.53,0,0,0,343.66,267.42Zm-21.52-3-2.88,1.66c-.12.07-.12.19,0,.26l3.33,1.93a.53.53,0,0,0,.46,0l2.88-1.67c.12-.07.11-.19,0-.26l-3.33-1.92A.5.5,0,0,0,322.14,264.46Zm-4.21,2.43-2.88,1.66c-.12.07-.12.19,0,.27l3.33,1.92a.53.53,0,0,0,.46,0l2.88-1.67c.12-.07.11-.18,0-.26l-3.33-1.92A.5.5,0,0,0,317.93,266.89Zm-21,27.25a.5.5,0,0,0,.46,0l2.88-1.66c.12-.07.12-.19,0-.27l-3.33-1.92a.5.5,0,0,0-.46,0L293.55,292c-.13.07-.12.19,0,.27Zm-12.64-7.81L281.37,288c-.12.08-.11.19,0,.27l3.33,1.92a.5.5,0,0,0,.46,0l2.88-1.66c.12-.07.11-.19,0-.27l-3.33-1.92A.53.53,0,0,0,284.25,286.33ZM291,292a.5.5,0,0,0,.46,0l2.88-1.66c.12-.07.11-.19,0-.26L291,288.19a.53.53,0,0,0-.46,0l-2.88,1.67c-.12.07-.12.19,0,.26Zm13.3,3.59,2.88-1.66c.12-.07.11-.19,0-.27l-3.33-1.92a.5.5,0,0,0-.46,0l-2.88,1.66c-.12.07-.12.19,0,.27l3.33,1.92A.5.5,0,0,0,304.33,295.62ZM299.66,298a.5.5,0,0,0,.46,0l2.88-1.66c.12-.07.11-.19,0-.27l-3.33-1.92a.5.5,0,0,0-.46,0l-2.88,1.66c-.12.07-.12.19,0,.27Zm-11.2-14.14-2.88,1.66c-.12.07-.11.19,0,.27l3.33,1.92a.5.5,0,0,0,.46,0l2.88-1.66c.12-.07.11-.19,0-.27l-3.33-1.92A.5.5,0,0,0,288.46,283.9Zm21.05-12.15-2.88,1.66c-.12.07-.12.19,0,.27L310,275.6a.5.5,0,0,0,.46,0l2.88-1.66c.12-.07.11-.19,0-.27L310,271.76A.5.5,0,0,0,309.51,271.75Zm-16.84,9.72-2.88,1.66c-.12.07-.11.19,0,.27l3.33,1.92a.5.5,0,0,0,.46,0l2.88-1.66c.12-.07.11-.19,0-.27l-3.33-1.92A.5.5,0,0,0,292.67,281.47Zm21.05-12.15L310.84,271c-.12.07-.12.19,0,.27l3.33,1.92a.53.53,0,0,0,.46,0l2.88-1.66c.12-.08.11-.19,0-.27l-3.33-1.92A.5.5,0,0,0,313.72,269.32Zm-8.42,4.86-2.88,1.66c-.12.07-.12.19,0,.27l3.33,1.92a.5.5,0,0,0,.46,0l2.88-1.66c.12-.07.11-.19,0-.27l-3.33-1.92A.5.5,0,0,0,305.3,274.18Zm-4.21,2.43-2.88,1.66c-.12.07-.12.19,0,.27l3.33,1.92a.5.5,0,0,0,.46,0l2.88-1.66c.12-.07.11-.19,0-.27l-3.33-1.92A.5.5,0,0,0,301.09,276.61ZM296.88,279,294,280.7c-.12.07-.11.19,0,.27l3.33,1.92a.5.5,0,0,0,.46,0l2.88-1.66c.12-.07.11-.19,0-.27l-3.33-1.92A.5.5,0,0,0,296.88,279Zm21.52,3,2.88-1.66c.12-.07.12-.19,0-.27l-3.33-1.92a.5.5,0,0,0-.46,0l-2.88,1.66c-.13.07-.12.19,0,.27l3.33,1.92A.5.5,0,0,0,318.4,282Zm37-36.73-2.88,1.66c-.13.07-.12.19,0,.27l3.33,1.92a.53.53,0,0,0,.46,0l2.88-1.66c.12-.08.12-.19,0-.27l-3.33-1.92A.5.5,0,0,0,355.38,245.27Zm-5.1,2.94-2.88,1.66c-.12.07-.12.19,0,.27l3.33,1.92a.5.5,0,0,0,.46,0l2.88-1.66c.12-.07.11-.19,0-.27l-3.33-1.92A.5.5,0,0,0,350.28,248.21Zm9.31-5.37-2.88,1.66c-.13.07-.12.19,0,.27l3.33,1.92a.53.53,0,0,0,.46,0l2.88-1.67c.12-.07.12-.18,0-.26l-3.33-1.92A.5.5,0,0,0,359.59,242.84ZM337.8,265.31l2.88-1.67c.12-.07.11-.18,0-.26l-3.33-1.92a.5.5,0,0,0-.46,0L334,263.11c-.12.07-.12.19,0,.27l3.34,1.92A.53.53,0,0,0,337.8,265.31Zm26.46-24.89a.5.5,0,0,0-.46,0l-2.88,1.66c-.13.07-.12.19,0,.26l3.33,1.93a.53.53,0,0,0,.46,0l2.88-1.67c.12-.07.12-.19,0-.26Zm-41.65,39.15,2.88-1.66c.12-.08.12-.19,0-.27l-3.33-1.92a.5.5,0,0,0-.46,0l-2.88,1.66c-.13.07-.12.19,0,.27l3.33,1.92A.53.53,0,0,0,322.61,279.57Zm51.63-29.81,2.88-1.66c.12-.07.11-.19,0-.27l-3.33-1.92a.5.5,0,0,0-.46,0l-2.88,1.66c-.12.07-.11.19,0,.27l3.33,1.92A.5.5,0,0,0,374.24,249.76Zm-9-.31,2.88-1.67c.12-.07.12-.19,0-.26l-3.33-1.93a.53.53,0,0,0-.46,0l-2.88,1.67c-.12.07-.11.19,0,.26l3.33,1.93A.53.53,0,0,0,365.27,249.45Zm3.74-6.29a.53.53,0,0,0-.46,0l-2.88,1.67c-.12.07-.11.19,0,.26L369,247a.5.5,0,0,0,.46,0l2.88-1.66c.12-.07.12-.19,0-.26Zm.89-.51,8.09,4.67a.5.5,0,0,0,.46,0l2.88-1.66c.12-.07.11-.19,0-.27l-8.09-4.67a.53.53,0,0,0-.46,0l-2.88,1.67C369.76,242.46,369.77,242.58,369.9,242.65ZM360.13,248l-2.88,1.66c-.12.07-.11.19,0,.26l3.33,1.93a.53.53,0,0,0,.46,0l2.88-1.67c.12-.07.12-.19,0-.26L360.59,248A.5.5,0,0,0,360.13,248Zm-31.68,18.29L325.57,268c-.12.07-.12.19,0,.27l3.33,1.92a.5.5,0,0,0,.46,0l2.88-1.66c.12-.07.11-.19,0-.27l-3.33-1.92A.5.5,0,0,0,328.45,266.31Zm41.12-14.13a.5.5,0,0,0,.46,0l2.88-1.66c.12-.07.11-.19,0-.27l-3.33-1.92a.5.5,0,0,0-.46,0L366.22,250c-.12.07-.11.19,0,.27Zm-36.91,11.7-2.88,1.66c-.12.07-.12.19,0,.27l3.33,1.92a.53.53,0,0,0,.46,0l2.88-1.66c.12-.08.11-.19,0-.27l-3.33-1.92A.5.5,0,0,0,332.66,263.88ZM301.1,291.71a.5.5,0,0,0,.46,0l2.88-1.66c.12-.07.12-.19,0-.27l-3.33-1.92a.5.5,0,0,0-.46,0l-2.88,1.66c-.13.07-.12.19,0,.27Zm-6.33-6-2.88,1.67c-.12.07-.12.19,0,.26l3.33,1.92a.5.5,0,0,0,.46,0l2.88-1.66c.12-.07.11-.19,0-.26l-3.33-1.93A.53.53,0,0,0,294.77,285.75Zm11,3.54,2.88-1.66c.12-.07.12-.19,0-.27l-3.33-1.92a.5.5,0,0,0-.46,0L302,287.09c-.13.07-.12.19,0,.27l3.33,1.92A.5.5,0,0,0,305.77,289.29Zm4.21-2.43,2.88-1.66c.12-.07.12-.19,0-.27L309.52,283a.5.5,0,0,0-.46,0l-2.88,1.66c-.13.07-.12.19,0,.27l3.33,1.92A.5.5,0,0,0,310,286.86Zm4.21-2.43,2.88-1.66c.12-.07.12-.19,0-.27l-3.33-1.92a.5.5,0,0,0-.46,0l-2.88,1.66c-.13.07-.12.19,0,.27l3.33,1.92A.5.5,0,0,0,314.19,284.43ZM299,283.32,296.1,285c-.12.07-.12.18,0,.26l3.33,1.92a.5.5,0,0,0,.46,0l2.88-1.66c.12-.07.11-.19,0-.27l-3.33-1.92A.53.53,0,0,0,299,283.32Zm4.21-2.43-2.88,1.66c-.12.08-.12.19,0,.27l3.33,1.92a.5.5,0,0,0,.46,0l2.88-1.66c.12-.07.11-.19,0-.27l-3.33-1.92A.53.53,0,0,0,303.19,280.89ZM320,271.17l-2.88,1.66c-.12.07-.12.19,0,.27L320.5,275a.5.5,0,0,0,.46,0l2.88-1.66c.12-.07.11-.19,0-.27l-3.33-1.92A.5.5,0,0,0,320,271.17Zm-4.21,2.43-2.88,1.66c-.12.07-.12.19,0,.27l3.33,1.92a.5.5,0,0,0,.46,0l2.88-1.66c.12-.07.11-.19,0-.27l-3.33-1.92A.5.5,0,0,0,315.82,273.6Zm8.42-4.86-2.88,1.66c-.12.07-.12.19,0,.27l3.33,1.92a.5.5,0,0,0,.46,0l2.88-1.66c.12-.07.11-.19,0-.27l-3.33-1.92A.5.5,0,0,0,324.24,268.74Zm-16.84,9.72-2.88,1.66c-.12.07-.12.19,0,.27l3.33,1.92a.5.5,0,0,0,.46,0l2.88-1.66c.12-.07.11-.19,0-.27l-3.33-1.92A.5.5,0,0,0,307.4,278.46Zm4.21-2.43-2.88,1.66c-.12.07-.12.19,0,.27l3.33,1.92a.5.5,0,0,0,.46,0l2.88-1.66c.12-.07.11-.19,0-.27L312.07,276A.5.5,0,0,0,311.61,276Zm-3.07,17.16,2.88-1.66c.12-.07.11-.19,0-.27l-3.33-1.92a.5.5,0,0,0-.46,0L304.73,291c-.12.07-.12.19,0,.27l3.33,1.92A.5.5,0,0,0,308.54,293.19Zm-24.71-2.5-3.33-1.92a.53.53,0,0,0-.46,0l-2.88,1.67c-.12.07-.11.18,0,.26l3.33,1.92a.5.5,0,0,0,.46,0l2.88-1.66C284,290.89,284,290.77,283.83,290.69Zm6.31,1.86-3.33-1.93a.53.53,0,0,0-.46,0l-4.43,2.56c-.12.07-.12.19,0,.27l3.33,1.92a.5.5,0,0,0,.46,0l4.43-2.56C290.28,292.74,290.27,292.62,290.14,292.55ZM278.72,287l-3.33-1.93a.53.53,0,0,0-.46,0l-3.54,2c-.13.07-.12.19,0,.27l3.33,1.92a.5.5,0,0,0,.46,0l3.55-2.05C278.86,287.17,278.85,287.05,278.72,287Zm2.72-1.57a.53.53,0,0,0,.46,0l2.88-1.67c.12-.07.11-.19,0-.26l-3.33-1.92a.5.5,0,0,0-.46,0l-2.88,1.66c-.12.07-.11.19,0,.26ZM296,294.65l-3.33-1.92a.5.5,0,0,0-.46,0l-5.54,3.2c-.13.07-.12.19,0,.26l3.33,1.93a.53.53,0,0,0,.46,0l5.54-3.2C296.15,294.85,296.14,294.73,296,294.65Zm2.76,3.9-3.33-1.92a.5.5,0,0,0-.46,0l-3.54,2.05c-.13.07-.12.19,0,.26l3.33,1.92a.5.5,0,0,0,.46,0l3.55-2C298.91,298.75,298.9,298.63,298.77,298.55Zm14-31.21a.53.53,0,0,0,.46,0l2.88-1.67c.12-.07.12-.19,0-.26l-3.33-1.93a.53.53,0,0,0-.46,0l-2.88,1.67c-.12.07-.11.19,0,.26Zm-8.42,4.86a.53.53,0,0,0,.46,0l2.88-1.67c.12-.07.12-.19,0-.26l-3.33-1.92a.5.5,0,0,0-.46,0L301,270c-.12.07-.11.19,0,.26ZM285.65,283a.53.53,0,0,0,.46,0l2.88-1.67c.12-.07.11-.19,0-.26l-3.33-1.92a.5.5,0,0,0-.46,0l-2.88,1.66c-.12.07-.11.19,0,.26Zm22.88-13.21a.53.53,0,0,0,.46,0l2.88-1.67c.12-.07.12-.19,0-.26l-3.33-1.93a.5.5,0,0,0-.46,0l-2.88,1.66c-.12.07-.11.19,0,.26Zm-8.42,4.86a.53.53,0,0,0,.46,0l2.88-1.67c.12-.07.12-.19,0-.26l-3.33-1.92a.5.5,0,0,0-.46,0l-2.88,1.66c-.12.07-.11.19,0,.26Zm1,24.23a.5.5,0,0,0-.46,0l-4.43,2.55c-.12.07-.11.19,0,.27l3.33,1.92a.5.5,0,0,0,.46,0l4.43-2.56c.12-.07.12-.19,0-.26Zm-7-20.74a.53.53,0,0,0,.46,0l2.88-1.67c.12-.07.11-.19,0-.26l-3.33-1.93a.53.53,0,0,0-.46,0l-2.88,1.67c-.12.07-.11.19,0,.26Zm-4.21,2.43a.53.53,0,0,0,.46,0l2.88-1.67c.12-.07.11-.19,0-.26l-3.33-1.93a.5.5,0,0,0-.46,0l-2.88,1.66c-.12.07-.11.19,0,.26Zm89.22-26.71a.47.47,0,0,0-.46,0l-7.09,4.09c-.12.07-.12.19,0,.26l3.34,1.93a.51.51,0,0,0,.45,0l7.09-4.1c.13-.07.12-.19,0-.26Zm-9.31,5.37a.5.5,0,0,0-.46,0l-2.88,1.66c-.12.07-.11.19,0,.27l3.33,1.92a.5.5,0,0,0,.46,0l2.88-1.66c.12-.07.11-.19,0-.27Zm-57,31.55,2.88-1.66c.12-.08.11-.19,0-.27l-3.33-1.92a.5.5,0,0,0-.46,0l-2.88,1.66c-.12.07-.12.19,0,.27l3.33,1.92A.53.53,0,0,0,312.75,290.76Zm48.6-26.69a.5.5,0,0,0-.46,0L358,265.72c-.12.07-.11.19,0,.27l3.33,1.92a.5.5,0,0,0,.46,0l2.88-1.66c.12-.07.11-.19,0-.27Zm21.94-12.67a.53.53,0,0,0-.46,0L380,253.06c-.12.07-.12.19,0,.26l3.33,1.93a.53.53,0,0,0,.46,0l2.88-1.67c.13-.07.12-.19,0-.26Zm7.54-.5-8.09-4.67a.5.5,0,0,0-.46,0l-2.88,1.66c-.12.07-.12.19,0,.27l8.08,4.67a.53.53,0,0,0,.46,0l2.88-1.67C391,251.09,391,251,390.83,250.9Zm-45.21,22.25a.53.53,0,0,0-.46,0l-3.54,2.05c-.13.07-.12.19,0,.26l3.33,1.93a.53.53,0,0,0,.46,0l3.55-2.05c.12-.07.11-.19,0-.27ZM356.26,267a.53.53,0,0,0-.46,0l-4.44,2.56c-.12.07-.11.19,0,.27l3.33,1.92a.53.53,0,0,0,.46,0l4.43-2.56c.13-.07.12-.19,0-.27Zm-20.39,11.77a.5.5,0,0,0-.46,0L311.7,292.46c-.12.07-.11.19,0,.26l3.33,1.93a.53.53,0,0,0,.46,0L339.22,281c.12-.07.11-.19,0-.27Zm-25,14.46a.5.5,0,0,0-.46,0l-3.54,2c-.12.07-.12.19,0,.27l3.33,1.92a.5.5,0,0,0,.46,0l3.54-2.05c.12-.07.12-.19,0-.26ZM340.75,276a.5.5,0,0,0-.46,0l-3.55,2c-.12.07-.11.19,0,.27l3.33,1.92a.5.5,0,0,0,.46,0l3.54-2.05c.13-.07.12-.18,0-.26ZM306,296.05a.5.5,0,0,0-.46,0l-3.55,2c-.12.07-.11.19,0,.26l3.33,1.93a.53.53,0,0,0,.46,0l3.55-2.05c.12-.07.11-.19,0-.27Zm44.54-25.71a.5.5,0,0,0-.46,0l-3.55,2c-.12.08-.11.19,0,.27l3.33,1.92a.5.5,0,0,0,.46,0l3.54-2c.12-.08.12-.19,0-.27Zm15.06-8.7a.5.5,0,0,0-.46,0l-2.88,1.66c-.12.07-.11.19,0,.27l3.33,1.92a.5.5,0,0,0,.46,0l2.88-1.66c.12-.07.11-.19,0-.27Zm9.23-6.7,2.88-1.66c.12-.07.11-.19,0-.27l-3.33-1.92a.5.5,0,0,0-.46,0L371,252.74c-.12.07-.12.19,0,.27l3.33,1.92A.5.5,0,0,0,374.79,254.94ZM356,254.82l2.88-1.67c.13-.07.12-.18,0-.26L355.5,251a.5.5,0,0,0-.46,0l-2.88,1.66c-.13.07-.12.19,0,.27l3.33,1.92A.53.53,0,0,0,356,254.82Zm-9.54,16.49,8.42-4.86c.13-.07.12-.19,0-.26l-3.33-1.93a.53.53,0,0,0-.46,0l-8.42,4.87c-.12.07-.12.19,0,.26L346,271.3A.48.48,0,0,0,346.42,271.31Zm23.7-13.95a.5.5,0,0,0,.46,0l2.88-1.66c.12-.07.11-.19,0-.27l-3.33-1.92a.5.5,0,0,0-.46,0l-2.88,1.66c-.12.07-.12.19,0,.27Zm-4.3-2.74L368.7,253c.12-.07.11-.19,0-.27l-3.33-1.92a.53.53,0,0,0-.46,0L362,252.42c-.12.08-.11.19,0,.27l3.33,1.92A.5.5,0,0,0,365.82,254.62Zm-23.6,19.12,2.88-1.66c.12-.07.11-.19,0-.26l-3.33-1.93a.53.53,0,0,0-.46,0l-2.88,1.67c-.12.07-.12.19,0,.26l3.34,1.92A.5.5,0,0,0,342.22,273.74Zm18.59-11a.5.5,0,0,0,.46,0l2.88-1.66c.12-.07.12-.19,0-.27l-3.33-1.92a.53.53,0,0,0-.46,0l-2.88,1.66c-.12.08-.11.19,0,.27ZM321.17,285.9l2.88-1.67c.12-.07.11-.19,0-.26l-3.33-1.92a.5.5,0,0,0-.46,0l-2.88,1.66c-.12.07-.12.19,0,.26l3.33,1.93A.53.53,0,0,0,321.17,285.9Zm4.21-2.43,2.88-1.67c.12-.07.11-.19,0-.26l-3.33-1.93a.5.5,0,0,0-.46,0l-2.88,1.66c-.12.07-.12.19,0,.26l3.33,1.93A.53.53,0,0,0,325.38,283.47ZM317,288.33l2.88-1.67c.12-.07.11-.18,0-.26l-3.33-1.92a.5.5,0,0,0-.46,0l-2.88,1.66c-.12.07-.12.19,0,.27l3.33,1.92A.53.53,0,0,0,317,288.33Zm16.84-9.72,2.88-1.67c.12-.07.11-.19,0-.26l-3.33-1.93a.53.53,0,0,0-.46,0L330,276.41c-.12.07-.12.19,0,.26l3.33,1.93A.53.53,0,0,0,333.8,278.61ZM329.59,281l2.88-1.67c.12-.07.11-.19,0-.26l-3.33-1.93a.5.5,0,0,0-.46,0l-2.88,1.66c-.12.07-.12.19,0,.26l3.33,1.93A.53.53,0,0,0,329.59,281Zm8.42-4.87,2.88-1.66c.12-.07.11-.19,0-.26l-3.33-1.93a.53.53,0,0,0-.46,0L334.2,274c-.12.07-.12.19,0,.26l3.33,1.93A.5.5,0,0,0,338,276.17Zm19.26-36a.51.51,0,0,0,.45,0l2.89-1.67c.12-.07.11-.18,0-.26l-.89-.51a.5.5,0,0,0-.46,0l-2.88,1.66c-.12.07-.11.19,0,.27Zm-20.72,13.37a.53.53,0,0,0,.46,0l2.88-1.67c.12-.07.12-.18,0-.26l-3.34-1.92a.48.48,0,0,0-.45,0l-2.89,1.66c-.12.07-.11.19,0,.27Zm8.42-4.86a.53.53,0,0,0,.46,0l2.88-1.67c.12-.07.12-.19,0-.26L345,244.89a.5.5,0,0,0-.46,0l-2.88,1.66c-.12.07-.11.19,0,.26Zm-13.56,7.83a.53.53,0,0,0,.46,0l2.88-1.67c.12-.07.12-.19,0-.26l-3.33-1.93a.53.53,0,0,0-.46,0l-2.88,1.67c-.12.07-.11.19,0,.26Zm9.35-5.4a.53.53,0,0,0,.46,0l2.88-1.67c.12-.07.12-.19,0-.26l-3.34-1.92a.48.48,0,0,0-.45,0L337.41,249c-.12.07-.11.19,0,.26ZM323,261.42a.53.53,0,0,0,.46,0l2.88-1.67c.12-.07.12-.19,0-.26L323,257.58a.5.5,0,0,0-.46,0l-2.88,1.66c-.12.07-.11.19,0,.26ZM327.2,259a.53.53,0,0,0,.46,0l2.88-1.67c.12-.07.12-.19,0-.26l-3.33-1.93a.5.5,0,0,0-.46,0l-2.88,1.66c-.12.07-.11.19,0,.26Zm21.65-13.91a.5.5,0,0,0,.46,0l2.88-1.66c.12-.07.11-.19,0-.27l-.89-.51a.5.5,0,0,0-.46,0l-2.88,1.66c-.12.07-.11.19,0,.27Zm12.63-7.29a.51.51,0,0,0,.45,0l2.89-1.67c.12-.07.11-.19,0-.26l-.89-.51a.5.5,0,0,0-.46,0L360.57,237c-.12.07-.11.19,0,.27Zm7,4a.53.53,0,0,0,.46,0l2.88-1.67c.12-.07.12-.19,0-.26L368.46,238a.48.48,0,0,0-.45,0l-2.88,1.66c-.13.07-.12.19,0,.26ZM379,252.51l2.88-1.66c.12-.08.11-.19,0-.27l-3.33-1.92a.5.5,0,0,0-.46,0l-2.88,1.66c-.12.07-.12.19,0,.27l3.33,1.92A.5.5,0,0,0,379,252.51Zm-25.94-9.86a.51.51,0,0,0,.45,0L356.4,241c.12-.08.11-.19,0-.27l-.89-.51a.5.5,0,0,0-.46,0l-2.88,1.66c-.12.07-.11.19,0,.27Zm-34.28,21.2a.53.53,0,0,0,.46,0l2.88-1.67c.12-.07.12-.19,0-.26L318.77,260a.5.5,0,0,0-.46,0l-2.88,1.66c-.12.07-.11.19,0,.26Z" transform="translate(-3.8 0.59)"/><path class="cls-3" d="M337.45,289.12l28.43-16.41a3.39,3.39,0,0,1,3.1,0l16.3,9.41a1,1,0,0,1,0,1.79l-28.43,16.41a3.45,3.45,0,0,1-3.1,0l-16.3-9.41C336.59,290.41,336.59,289.61,337.45,289.12Z" transform="translate(-3.8 0.59)"/><path class="cls-8" d="M337.45,289.12l28.43-16.41a3.39,3.39,0,0,1,3.1,0l16.3,9.41a1,1,0,0,1,0,1.79l-28.43,16.41a3.45,3.45,0,0,1-3.1,0l-16.3-9.41C336.59,290.41,336.59,289.61,337.45,289.12Z" transform="translate(-3.8 0.59)"/><path class="cls-3" d="M243.74,278.81a4.48,4.48,0,0,0,.8.34,3.85,3.85,0,0,1-.8-.34,1.25,1.25,0,0,1-.24-.16A2,2,0,0,0,243.74,278.81Z" transform="translate(-3.8 0.59)"/><path class="cls-3" d="M248.27,279.05s0,0,0,0,0,0,0,0Z" transform="translate(-3.8 0.59)"/></g><g id="Window"><path class="cls-3" d="M252.38,259.86c0,1.21.86,1.71,1.91,1.1L342,210.34a4.21,4.21,0,0,0,1.91-3.31V148l-91.5,52.82Z" transform="translate(-3.8 0.59)"/><g class="cls-11"><path class="cls-5" d="M252.38,259.86c0,1.21.86,1.71,1.91,1.1L342,210.34a4.21,4.21,0,0,0,1.91-3.31V148l-91.5,52.82Z" transform="translate(-3.8 0.59)"/></g><path class="cls-3" d="M252.38,196.83a4.25,4.25,0,0,1,1.91-3.32L342,142.89c1.06-.61,1.91-.11,1.91,1.11v4l-91.5,52.82Z" transform="translate(-3.8 0.59)"/><path class="cls-7" d="M333.12,150.07a2,2,0,0,0-.9,1.56c0,.57.4.8.9.51a2,2,0,0,0,.89-1.55C334,150,333.61,149.79,333.12,150.07Z" transform="translate(-3.8 0.59)"/><path class="cls-7" d="M336.26,148.26a2,2,0,0,0-.9,1.56c0,.57.4.8.9.52a2,2,0,0,0,.89-1.56C337.15,148.21,336.75,148,336.26,148.26Z" transform="translate(-3.8 0.59)"/><path class="cls-7" d="M339.4,146.46a2,2,0,0,0-.9,1.55c0,.57.4.8.9.52a2,2,0,0,0,.89-1.56C340.29,146.4,339.89,146.17,339.4,146.46Z" transform="translate(-3.8 0.59)"/></g><g id="www"><path class="cls-9" d="M282,207.39c.18-.11.33-.11.42,0a.81.81,0,0,1,.21.34l1.37,5.7,1.38-7.29a2.8,2.8,0,0,1,.2-.57,1.06,1.06,0,0,1,.43-.48l2.31-1.33a.23.23,0,0,1,.31,0,.53.53,0,0,1,.13.41,1.06,1.06,0,0,1,0,.24l-3,15a2.64,2.64,0,0,1-.2.6,1,1,0,0,1-.41.47L283,221.66c-.19.11-.33.11-.41,0a1.12,1.12,0,0,1-.21-.37l-1.32-5.25-1.32,6.77a4.82,4.82,0,0,1-.2.61.92.92,0,0,1-.41.46l-2.12,1.23c-.19.1-.32.11-.42,0a.8.8,0,0,1-.19-.38l-3-11.54a1.5,1.5,0,0,1,0-.22,1.39,1.39,0,0,1,.13-.56.82.82,0,0,1,.32-.38l2.3-1.33c.19-.11.33-.12.43,0a.75.75,0,0,1,.21.34l1.37,5.7,1.38-7.29a2.36,2.36,0,0,1,.2-.58,1,1,0,0,1,.43-.47Z" transform="translate(-3.8 0.59)"/><path class="cls-9" d="M299,197.56c.18-.11.32-.12.42,0a.75.75,0,0,1,.21.34l1.37,5.7,1.38-7.29a2.87,2.87,0,0,1,.2-.58,1,1,0,0,1,.43-.47l2.31-1.33a.24.24,0,0,1,.31,0,.55.55,0,0,1,.13.41,1.1,1.1,0,0,1,0,.25l-2.95,14.95a2.35,2.35,0,0,1-.2.6,1,1,0,0,1-.41.48l-2.12,1.22c-.19.11-.33.11-.41,0a1.23,1.23,0,0,1-.21-.37l-1.32-5.25L296.81,213a5.41,5.41,0,0,1-.2.61,1,1,0,0,1-.41.46l-2.12,1.23c-.19.1-.32.1-.42,0a.8.8,0,0,1-.19-.38l-3-11.54a1.64,1.64,0,0,1,0-.22,1.39,1.39,0,0,1,.13-.56.91.91,0,0,1,.32-.39l2.3-1.33c.19-.1.33-.11.43,0a.75.75,0,0,1,.21.34l1.37,5.7,1.38-7.29a2.23,2.23,0,0,1,.2-.58,1,1,0,0,1,.43-.47Z" transform="translate(-3.8 0.59)"/><path class="cls-9" d="M316,187.73c.19-.11.33-.12.43,0a.75.75,0,0,1,.21.34l1.37,5.7,1.38-7.29a2.36,2.36,0,0,1,.2-.58,1,1,0,0,1,.43-.47l2.3-1.33a.25.25,0,0,1,.32,0,.55.55,0,0,1,.13.41,1,1,0,0,1,0,.24l-2.95,15a2.82,2.82,0,0,1-.2.6.92.92,0,0,1-.42.47L317.09,202c-.18.1-.32.11-.41,0a1.25,1.25,0,0,1-.2-.36l-1.32-5.25-1.32,6.77a4.69,4.69,0,0,1-.2.6,1,1,0,0,1-.41.47l-2.12,1.22c-.19.11-.33.11-.42,0a.92.92,0,0,1-.2-.38l-2.95-11.54a1.64,1.64,0,0,1,0-.22,1.31,1.31,0,0,1,.13-.57.82.82,0,0,1,.32-.38l2.3-1.33c.19-.1.33-.11.43,0a.7.7,0,0,1,.2.34l1.38,5.71,1.38-7.29a2.23,2.23,0,0,1,.2-.58,1.06,1.06,0,0,1,.43-.48Z" transform="translate(-3.8 0.59)"/></g></g><g id="Server-2" data-name="Server"><polygon class="cls-3" points="182.27 324.56 117.28 362.08 52.29 324.56 117.28 287.04 182.27 324.56"/><polygon class="cls-12" points="182.27 324.56 117.28 362.08 52.29 324.56 117.28 287.04 182.27 324.56"/><polygon class="cls-12" points="117.29 362.08 117.28 357.39 56.35 322.21 52.29 324.56 117.29 362.08"/><path class="cls-3" d="M121.09,361.49v17.3a8.88,8.88,0,0,0,4.33-1h0l28.16-16.26,29.9-17.27a5.73,5.73,0,0,0,2.6-4.5V324Z" transform="translate(-3.8 0.59)"/><path class="cls-13" d="M121.09,361.49v17.3a8.88,8.88,0,0,0,4.33-1h0l28.16-16.26,29.9-17.27a5.73,5.73,0,0,0,2.6-4.5V324Z" transform="translate(-3.8 0.59)"/><path class="cls-3" d="M179.85,332.27l-32.23,18.6a4.78,4.78,0,0,0-2.17,3.75V359c0,1.39,1,1.94,2.17,1.25l32.23-18.6A4.8,4.8,0,0,0,182,337.9v-4.38C182,332.14,181,331.58,179.85,332.27Z" transform="translate(-3.8 0.59)"/><path class="cls-10" d="M179.73,336v2.12a1,1,0,0,1-.43.75l-.49.28c-.24.14-.43,0-.43-.25v-2.12a1,1,0,0,1,.43-.75l.49-.28C179.53,335.59,179.73,335.7,179.73,336Z" transform="translate(-3.8 0.59)"/><path class="cls-10" d="M177.54,337.24v2.12a.93.93,0,0,1-.43.75l-.49.28c-.24.14-.43,0-.43-.25V338a1,1,0,0,1,.43-.75l.49-.28C177.35,336.85,177.54,337,177.54,337.24Z" transform="translate(-3.8 0.59)"/><path class="cls-10" d="M175.35,338.5v2.12a.93.93,0,0,1-.43.75l-.49.29c-.24.13-.43,0-.43-.25v-2.13a1,1,0,0,1,.43-.75l.49-.28C175.16,338.11,175.35,338.22,175.35,338.5Z" transform="translate(-3.8 0.59)"/><path class="cls-9" d="M173.16,339.76v2.13a1,1,0,0,1-.43.75l-.49.28c-.24.14-.43,0-.43-.25v-2.13a1,1,0,0,1,.43-.75l.49-.28C173,339.37,173.16,339.48,173.16,339.76Z" transform="translate(-3.8 0.59)"/><path class="cls-9" d="M171,341v2.13a1,1,0,0,1-.44.75l-.48.28c-.24.14-.44,0-.44-.25V341.8a1,1,0,0,1,.44-.75l.48-.28A.27.27,0,0,1,171,341Z" transform="translate(-3.8 0.59)"/><path class="cls-10" d="M168.79,342.28v2.13a1,1,0,0,1-.44.75l-.48.28c-.24.14-.44,0-.44-.25v-2.12a.94.94,0,0,1,.44-.75l.48-.29C168.59,341.9,168.79,342,168.79,342.28Z" transform="translate(-3.8 0.59)"/><path class="cls-10" d="M166.6,343.55v2.12a1,1,0,0,1-.43.75l-.49.28c-.24.14-.43,0-.43-.25v-2.12a1,1,0,0,1,.43-.75l.49-.28C166.4,343.16,166.6,343.27,166.6,343.55Z" transform="translate(-3.8 0.59)"/><path class="cls-10" d="M164.41,344.81v2.12a1,1,0,0,1-.43.75l-.49.28c-.24.14-.43,0-.43-.25v-2.12a1,1,0,0,1,.43-.75l.49-.28C164.22,344.42,164.41,344.53,164.41,344.81Z" transform="translate(-3.8 0.59)"/><path class="cls-10" d="M162.22,346.07v2.12a.93.93,0,0,1-.43.75l-.49.29c-.24.13-.43,0-.43-.25v-2.13a1,1,0,0,1,.43-.75l.49-.28C162,345.68,162.22,345.79,162.22,346.07Z" transform="translate(-3.8 0.59)"/><path class="cls-10" d="M160,347.33v2.13a1,1,0,0,1-.43.75l-.49.28c-.24.13-.43,0-.43-.25v-2.13a1,1,0,0,1,.43-.75l.49-.28C159.84,346.94,160,347.05,160,347.33Z" transform="translate(-3.8 0.59)"/><path class="cls-10" d="M157.85,348.59v2.13a1,1,0,0,1-.44.75l-.49.28c-.23.14-.43,0-.43-.25v-2.13a1,1,0,0,1,.43-.75l.49-.28A.27.27,0,0,1,157.85,348.59Z" transform="translate(-3.8 0.59)"/><path class="cls-10" d="M155.66,349.85V352a1,1,0,0,1-.44.75l-.48.28c-.24.14-.44,0-.44-.25v-2.13a1,1,0,0,1,.44-.75l.48-.28C155.46,349.47,155.66,349.58,155.66,349.85Z" transform="translate(-3.8 0.59)"/><path class="cls-9" d="M153.47,351.11v2.13a1,1,0,0,1-.43.75l-.49.28c-.24.14-.43,0-.43-.25V351.9a.93.93,0,0,1,.43-.75l.49-.29A.27.27,0,0,1,153.47,351.11Z" transform="translate(-3.8 0.59)"/><path class="cls-10" d="M151.28,352.38v2.12a1,1,0,0,1-.43.75l-.49.28c-.24.14-.43,0-.43-.25v-2.12a1,1,0,0,1,.43-.75l.49-.28C151.09,352,151.28,352.1,151.28,352.38Z" transform="translate(-3.8 0.59)"/><path class="cls-10" d="M149.09,353.64v2.12a.93.93,0,0,1-.43.75l-.49.28c-.24.14-.43,0-.43-.25v-2.12a1,1,0,0,1,.43-.75l.49-.28C148.9,353.25,149.09,353.36,149.09,353.64Z" transform="translate(-3.8 0.59)"/><path class="cls-3" d="M56.09,324v15.76a5.76,5.76,0,0,0,2.6,4.5l25.84,14.92,32.23,18.61a8.86,8.86,0,0,0,4.33,1v-17.3Z" transform="translate(-3.8 0.59)"/><path class="cls-14" d="M56.09,324v15.76a5.76,5.76,0,0,0,2.6,4.5l25.84,14.92,32.23,18.61a8.86,8.86,0,0,0,4.33,1v-17.3Z" transform="translate(-3.8 0.59)"/><g class="cls-11"><path class="cls-5" d="M66.37,334.63l16,9.23a4.78,4.78,0,0,1,2.17,3.75V352c0,1.38-1,1.94-2.17,1.25l-16-9.23a4.8,4.8,0,0,1-2.16-3.75v-4.38C64.21,334.5,65.18,333.94,66.37,334.63Z" transform="translate(-3.8 0.59)"/></g><path class="cls-3" d="M68.43,339.57l1-.57h0a1.34,1.34,0,0,1,1.33.14,4.18,4.18,0,0,1,1.88,3.26,1.3,1.3,0,0,1-.55,1.21h0l-.93.52-.16-.27a1.82,1.82,0,0,1-.54-.21,4.17,4.17,0,0,1-1.89-3.26,2.25,2.25,0,0,1,.06-.48Z" transform="translate(-3.8 0.59)"/><path class="cls-15" d="M68.43,339.57l1-.57h0a1.34,1.34,0,0,1,1.33.14,4.18,4.18,0,0,1,1.88,3.26,1.3,1.3,0,0,1-.55,1.21h0l-.93.52-.16-.27a1.82,1.82,0,0,1-.54-.21,4.17,4.17,0,0,1-1.89-3.26,2.25,2.25,0,0,1,.06-.48Z" transform="translate(-3.8 0.59)"/><path class="cls-3" d="M69.8,339.68a4.16,4.16,0,0,1,1.88,3.26c0,1.2-.84,1.68-1.88,1.08a4.16,4.16,0,0,1-1.88-3.26C67.92,339.56,68.76,339.08,69.8,339.68Z" transform="translate(-3.8 0.59)"/><path class="cls-3" d="M76.6,344.28l1-.57h0a1.32,1.32,0,0,1,1.32.13,4.17,4.17,0,0,1,1.89,3.26,1.33,1.33,0,0,1-.55,1.22h0l-.93.53-.17-.28a1.77,1.77,0,0,1-.53-.21,4.17,4.17,0,0,1-1.89-3.26,2.33,2.33,0,0,1,.06-.48Z" transform="translate(-3.8 0.59)"/><path class="cls-15" d="M76.6,344.28l1-.57h0a1.32,1.32,0,0,1,1.32.13,4.17,4.17,0,0,1,1.89,3.26,1.33,1.33,0,0,1-.55,1.22h0l-.93.53-.17-.28a1.77,1.77,0,0,1-.53-.21,4.17,4.17,0,0,1-1.89-3.26,2.33,2.33,0,0,1,.06-.48Z" transform="translate(-3.8 0.59)"/><path class="cls-3" d="M78,344.39a4.16,4.16,0,0,1,1.88,3.26c0,1.2-.84,1.69-1.88,1.09a4.16,4.16,0,0,1-1.88-3.26C76.09,344.28,76.93,343.79,78,344.39Z" transform="translate(-3.8 0.59)"/><g class="cls-11"><path class="cls-5" d="M66.37,334.63l16,9.23a4.78,4.78,0,0,1,2.17,3.75V352c0,1.38-1,1.94-2.17,1.25l-16-9.23a4.8,4.8,0,0,1-2.16-3.75v-4.38C64.21,334.5,65.18,333.94,66.37,334.63Z" transform="translate(-3.8 0.59)"/></g><path class="cls-3" d="M68.43,339.57l1-.57h0a1.34,1.34,0,0,1,1.33.14,4.18,4.18,0,0,1,1.88,3.26,1.3,1.3,0,0,1-.55,1.21h0l-.93.52-.16-.27a1.82,1.82,0,0,1-.54-.21,4.17,4.17,0,0,1-1.89-3.26,2.25,2.25,0,0,1,.06-.48Z" transform="translate(-3.8 0.59)"/><path class="cls-15" d="M68.43,339.57l1-.57h0a1.34,1.34,0,0,1,1.33.14,4.18,4.18,0,0,1,1.88,3.26,1.3,1.3,0,0,1-.55,1.21h0l-.93.52-.16-.27a1.82,1.82,0,0,1-.54-.21,4.17,4.17,0,0,1-1.89-3.26,2.25,2.25,0,0,1,.06-.48Z" transform="translate(-3.8 0.59)"/><path class="cls-3" d="M69.8,339.68a4.16,4.16,0,0,1,1.88,3.26c0,1.2-.84,1.68-1.88,1.08a4.16,4.16,0,0,1-1.88-3.26C67.92,339.56,68.76,339.08,69.8,339.68Z" transform="translate(-3.8 0.59)"/><path class="cls-3" d="M76.6,344.28l1-.57h0a1.32,1.32,0,0,1,1.32.13,4.17,4.17,0,0,1,1.89,3.26,1.33,1.33,0,0,1-.55,1.22h0l-.93.53-.17-.28a1.77,1.77,0,0,1-.53-.21,4.17,4.17,0,0,1-1.89-3.26,2.33,2.33,0,0,1,.06-.48Z" transform="translate(-3.8 0.59)"/><path class="cls-15" d="M76.6,344.28l1-.57h0a1.32,1.32,0,0,1,1.32.13,4.17,4.17,0,0,1,1.89,3.26,1.33,1.33,0,0,1-.55,1.22h0l-.93.53-.17-.28a1.77,1.77,0,0,1-.53-.21,4.17,4.17,0,0,1-1.89-3.26,2.33,2.33,0,0,1,.06-.48Z" transform="translate(-3.8 0.59)"/><path class="cls-3" d="M78,344.39a4.16,4.16,0,0,1,1.88,3.26c0,1.2-.84,1.69-1.88,1.09a4.16,4.16,0,0,1-1.88-3.26C76.09,344.28,76.93,343.79,78,344.39Z" transform="translate(-3.8 0.59)"/><path class="cls-3" d="M139.69,358.89l-1-.57h0a1.32,1.32,0,0,0-1.32.14,4.16,4.16,0,0,0-1.88,3.26,1.35,1.35,0,0,0,.54,1.22h0l.92.53.17-.28a1.93,1.93,0,0,0,.54-.21,4.16,4.16,0,0,0,1.88-3.26,2.25,2.25,0,0,0-.06-.48Z" transform="translate(-3.8 0.59)"/><path class="cls-16" d="M139.69,358.89l-1-.57h0a1.32,1.32,0,0,0-1.32.14,4.16,4.16,0,0,0-1.88,3.26,1.35,1.35,0,0,0,.54,1.22h0l.92.53.17-.28a1.93,1.93,0,0,0,.54-.21,4.16,4.16,0,0,0,1.88-3.26,2.25,2.25,0,0,0-.06-.48Z" transform="translate(-3.8 0.59)"/><path class="cls-3" d="M138.32,359a4.16,4.16,0,0,0-1.88,3.26c0,1.2.84,1.68,1.88,1.08a4.16,4.16,0,0,0,1.88-3.26C140.2,358.88,139.36,358.4,138.32,359Z" transform="translate(-3.8 0.59)"/><path class="cls-15" d="M138.32,359a4.16,4.16,0,0,0-1.88,3.26c0,1.2.84,1.68,1.88,1.08a4.16,4.16,0,0,0,1.88-3.26C140.2,358.88,139.36,358.4,138.32,359Z" transform="translate(-3.8 0.59)"/><path class="cls-3" d="M131.52,363.6l-1-.57h0a1.34,1.34,0,0,0-1.32.13,4.16,4.16,0,0,0-1.88,3.26,1.33,1.33,0,0,0,.55,1.22h0l.92.53.17-.28a1.93,1.93,0,0,0,.54-.21,4.16,4.16,0,0,0,1.88-3.26,1.8,1.8,0,0,0-.06-.48Z" transform="translate(-3.8 0.59)"/><path class="cls-16" d="M131.52,363.6l-1-.57h0a1.34,1.34,0,0,0-1.32.13,4.16,4.16,0,0,0-1.88,3.26,1.33,1.33,0,0,0,.55,1.22h0l.92.53.17-.28a1.93,1.93,0,0,0,.54-.21,4.16,4.16,0,0,0,1.88-3.26,1.8,1.8,0,0,0-.06-.48Z" transform="translate(-3.8 0.59)"/><path class="cls-3" d="M130.15,363.71a4.16,4.16,0,0,0-1.88,3.26c0,1.2.84,1.69,1.88,1.09A4.16,4.16,0,0,0,132,364.8C132,363.6,131.19,363.11,130.15,363.71Z" transform="translate(-3.8 0.59)"/><path class="cls-15" d="M130.15,363.71a4.16,4.16,0,0,0-1.88,3.26c0,1.2.84,1.69,1.88,1.09A4.16,4.16,0,0,0,132,364.8C132,363.6,131.19,363.11,130.15,363.71Z" transform="translate(-3.8 0.59)"/><polygon class="cls-3" points="182.27 296.42 117.28 333.94 52.29 296.42 117.28 258.89 182.27 296.42"/><polygon class="cls-12" points="182.27 296.42 117.28 333.94 52.29 296.42 117.28 258.89 182.27 296.42"/><polygon class="cls-12" points="117.28 333.94 117.28 329.25 56.35 294.07 52.29 296.42 117.28 333.94"/><polygon class="cls-3" points="182.27 315.18 117.28 352.7 117.28 333.94 182.27 296.42 182.27 315.18"/><polygon class="cls-13" points="182.27 315.18 117.28 352.7 117.28 333.94 182.27 296.42 182.27 315.18"/><path class="cls-3" d="M179.85,304.13l-32.23,18.61a4.78,4.78,0,0,0-2.17,3.75v4.38c0,1.38,1,1.94,2.17,1.25l32.23-18.61a4.8,4.8,0,0,0,2.16-3.75v-4.38C182,304,181,303.44,179.85,304.13Z" transform="translate(-3.8 0.59)"/><path class="cls-10" d="M179.73,307.84V310a1,1,0,0,1-.43.75l-.49.29c-.24.13-.43,0-.43-.25v-2.13a1,1,0,0,1,.43-.75l.49-.28C179.53,307.45,179.73,307.56,179.73,307.84Z" transform="translate(-3.8 0.59)"/><path class="cls-9" d="M177.54,309.1v2.13a1,1,0,0,1-.43.75l-.49.28c-.24.14-.43,0-.43-.25v-2.13a1,1,0,0,1,.43-.75l.49-.28C177.35,308.71,177.54,308.82,177.54,309.1Z" transform="translate(-3.8 0.59)"/><path class="cls-10" d="M175.35,310.36v2.13a1,1,0,0,1-.43.75l-.49.28c-.24.14-.43,0-.43-.25v-2.13a1,1,0,0,1,.43-.75l.49-.28C175.16,310,175.35,310.09,175.35,310.36Z" transform="translate(-3.8 0.59)"/><path class="cls-9" d="M173.16,311.62v2.13a1,1,0,0,1-.43.75l-.49.28c-.24.14-.43,0-.43-.25v-2.12a.93.93,0,0,1,.43-.75l.49-.29C173,311.24,173.16,311.35,173.16,311.62Z" transform="translate(-3.8 0.59)"/><path class="cls-9" d="M171,312.89V315a1,1,0,0,1-.44.75l-.48.28c-.24.14-.44,0-.44-.25v-2.12a1,1,0,0,1,.44-.75l.48-.28C170.78,312.5,171,312.61,171,312.89Z" transform="translate(-3.8 0.59)"/><path class="cls-10" d="M168.79,314.15v2.12a1,1,0,0,1-.44.75l-.48.28c-.24.14-.44,0-.44-.25v-2.12a1,1,0,0,1,.44-.75l.48-.28C168.59,313.76,168.79,313.87,168.79,314.15Z" transform="translate(-3.8 0.59)"/><path class="cls-10" d="M166.6,315.41v2.12a1,1,0,0,1-.43.75l-.49.29c-.24.13-.43,0-.43-.25v-2.13a1,1,0,0,1,.43-.75l.49-.28C166.4,315,166.6,315.13,166.6,315.41Z" transform="translate(-3.8 0.59)"/><path class="cls-10" d="M164.41,316.67v2.13a1,1,0,0,1-.43.75l-.49.28c-.24.13-.43,0-.43-.25v-2.13a1,1,0,0,1,.43-.75l.49-.28C164.22,316.28,164.41,316.39,164.41,316.67Z" transform="translate(-3.8 0.59)"/><path class="cls-9" d="M162.22,317.93v2.13a1,1,0,0,1-.43.75l-.49.28c-.24.14-.43,0-.43-.25v-2.13a1,1,0,0,1,.43-.75l.49-.28C162,317.54,162.22,317.66,162.22,317.93Z" transform="translate(-3.8 0.59)"/><path class="cls-10" d="M160,319.19v2.13a1,1,0,0,1-.43.75l-.49.28c-.24.14-.43,0-.43-.25V320a1,1,0,0,1,.43-.75l.49-.28C159.84,318.81,160,318.92,160,319.19Z" transform="translate(-3.8 0.59)"/><path class="cls-9" d="M157.85,320.45v2.13a1,1,0,0,1-.44.75l-.49.28c-.23.14-.43,0-.43-.25v-2.12a1,1,0,0,1,.43-.75l.49-.29C157.65,320.07,157.85,320.18,157.85,320.45Z" transform="translate(-3.8 0.59)"/><path class="cls-10" d="M155.66,321.72v2.12a1,1,0,0,1-.44.75l-.48.28c-.24.14-.44,0-.44-.25V322.5a1,1,0,0,1,.44-.75l.48-.28C155.46,321.33,155.66,321.44,155.66,321.72Z" transform="translate(-3.8 0.59)"/><path class="cls-9" d="M153.47,323v2.12a1,1,0,0,1-.43.75l-.49.28c-.24.14-.43,0-.43-.25v-2.12a1,1,0,0,1,.43-.75l.49-.28C153.27,322.59,153.47,322.7,153.47,323Z" transform="translate(-3.8 0.59)"/><path class="cls-10" d="M151.28,324.24v2.12a.93.93,0,0,1-.43.75l-.49.29c-.24.13-.43,0-.43-.25V325a1,1,0,0,1,.43-.75l.49-.28C151.09,323.85,151.28,324,151.28,324.24Z" transform="translate(-3.8 0.59)"/><path class="cls-10" d="M149.09,325.5v2.13a1,1,0,0,1-.43.75l-.49.28c-.24.14-.43,0-.43-.25v-2.13a1,1,0,0,1,.43-.75l.49-.28C148.9,325.11,149.09,325.22,149.09,325.5Z" transform="translate(-3.8 0.59)"/><polygon class="cls-3" points="117.28 352.7 52.29 315.18 52.29 296.42 117.28 333.94 117.28 352.7"/><polygon class="cls-14" points="117.28 352.7 52.29 315.18 52.29 296.42 117.28 333.94 117.28 352.7"/><g class="cls-11"><path class="cls-5" d="M66.37,306.47l16,9.22a4.78,4.78,0,0,1,2.17,3.75v4.38c0,1.38-1,1.94-2.17,1.25l-16-9.22a4.8,4.8,0,0,1-2.16-3.75v-4.38C64.21,306.33,65.18,305.78,66.37,306.47Z" transform="translate(-3.8 0.59)"/></g><path class="cls-3" d="M68.43,311.41l1-.58h0a1.36,1.36,0,0,1,1.33.13,4.18,4.18,0,0,1,1.88,3.26,1.33,1.33,0,0,1-.55,1.22h0l-.93.53-.16-.28a1.82,1.82,0,0,1-.54-.21,4.17,4.17,0,0,1-1.89-3.26,2.42,2.42,0,0,1,.06-.48Z" transform="translate(-3.8 0.59)"/><path class="cls-15" d="M68.43,311.41l1-.58h0a1.36,1.36,0,0,1,1.33.13,4.18,4.18,0,0,1,1.88,3.26,1.33,1.33,0,0,1-.55,1.22h0l-.93.53-.16-.28a1.82,1.82,0,0,1-.54-.21,4.17,4.17,0,0,1-1.89-3.26,2.42,2.42,0,0,1,.06-.48Z" transform="translate(-3.8 0.59)"/><path class="cls-3" d="M69.8,311.51a4.16,4.16,0,0,1,1.88,3.26c0,1.2-.84,1.69-1.88,1.09a4.16,4.16,0,0,1-1.88-3.26C67.92,311.4,68.76,310.91,69.8,311.51Z" transform="translate(-3.8 0.59)"/><path class="cls-3" d="M76.6,316.12l1-.57h0a1.32,1.32,0,0,1,1.32.14,4.17,4.17,0,0,1,1.89,3.26,1.33,1.33,0,0,1-.55,1.22h0l-.93.53-.17-.28a1.77,1.77,0,0,1-.53-.21,4.17,4.17,0,0,1-1.89-3.26,2.25,2.25,0,0,1,.06-.48Z" transform="translate(-3.8 0.59)"/><path class="cls-15" d="M76.6,316.12l1-.57h0a1.32,1.32,0,0,1,1.32.14,4.17,4.17,0,0,1,1.89,3.26,1.33,1.33,0,0,1-.55,1.22h0l-.93.53-.17-.28a1.77,1.77,0,0,1-.53-.21,4.17,4.17,0,0,1-1.89-3.26,2.25,2.25,0,0,1,.06-.48Z" transform="translate(-3.8 0.59)"/><path class="cls-3" d="M78,316.23a4.16,4.16,0,0,1,1.88,3.26c0,1.2-.84,1.68-1.88,1.08a4.16,4.16,0,0,1-1.88-3.26C76.09,316.11,76.93,315.63,78,316.23Z" transform="translate(-3.8 0.59)"/><polygon class="cls-9" points="174.15 324.56 174.15 319.87 117.28 352.7 117.28 357.39 174.15 324.56"/><polygon class="cls-3" points="56.35 317.52 56.35 322.21 117.28 357.39 117.28 352.7 56.35 317.52"/><polygon class="cls-7" points="56.35 317.52 56.35 322.21 117.28 357.39 117.28 352.7 56.35 317.52"/><path class="cls-3" d="M139.69,330.75l-1-.57h0a1.32,1.32,0,0,0-1.32.14,4.16,4.16,0,0,0-1.88,3.26,1.32,1.32,0,0,0,.54,1.21h0l.92.53.17-.27a2.3,2.3,0,0,0,.54-.21,4.16,4.16,0,0,0,1.88-3.26,2.25,2.25,0,0,0-.06-.48Z" transform="translate(-3.8 0.59)"/><path class="cls-16" d="M139.69,330.75l-1-.57h0a1.32,1.32,0,0,0-1.32.14,4.16,4.16,0,0,0-1.88,3.26,1.32,1.32,0,0,0,.54,1.21h0l.92.53.17-.27a2.3,2.3,0,0,0,.54-.21,4.16,4.16,0,0,0,1.88-3.26,2.25,2.25,0,0,0-.06-.48Z" transform="translate(-3.8 0.59)"/><path class="cls-3" d="M138.32,330.86a4.14,4.14,0,0,0-1.88,3.25c0,1.21.84,1.69,1.88,1.09a4.16,4.16,0,0,0,1.88-3.26C140.2,330.74,139.36,330.26,138.32,330.86Z" transform="translate(-3.8 0.59)"/><path class="cls-15" d="M138.32,330.86a4.14,4.14,0,0,0-1.88,3.25c0,1.21.84,1.69,1.88,1.09a4.16,4.16,0,0,0,1.88-3.26C140.2,330.74,139.36,330.26,138.32,330.86Z" transform="translate(-3.8 0.59)"/><path class="cls-3" d="M131.52,335.46l-1-.57h0a1.29,1.29,0,0,0-1.32.13,4.16,4.16,0,0,0-1.88,3.26,1.33,1.33,0,0,0,.55,1.22h0l.92.53.17-.28a1.93,1.93,0,0,0,.54-.21,4.16,4.16,0,0,0,1.88-3.26,1.8,1.8,0,0,0-.06-.48Z" transform="translate(-3.8 0.59)"/><path class="cls-16" d="M131.52,335.46l-1-.57h0a1.29,1.29,0,0,0-1.32.13,4.16,4.16,0,0,0-1.88,3.26,1.33,1.33,0,0,0,.55,1.22h0l.92.53.17-.28a1.93,1.93,0,0,0,.54-.21,4.16,4.16,0,0,0,1.88-3.26,1.8,1.8,0,0,0-.06-.48Z" transform="translate(-3.8 0.59)"/><path class="cls-3" d="M130.15,335.57a4.16,4.16,0,0,0-1.88,3.26c0,1.2.84,1.69,1.88,1.09a4.16,4.16,0,0,0,1.88-3.26C132,335.46,131.19,335,130.15,335.57Z" transform="translate(-3.8 0.59)"/><path class="cls-15" d="M130.15,335.57a4.16,4.16,0,0,0-1.88,3.26c0,1.2.84,1.69,1.88,1.09a4.16,4.16,0,0,0,1.88-3.26C132,335.46,131.19,335,130.15,335.57Z" transform="translate(-3.8 0.59)"/><polygon class="cls-3" points="182.27 268.27 117.28 305.8 52.29 268.27 117.28 230.75 182.27 268.27"/><polygon class="cls-12" points="182.27 268.27 117.28 305.8 52.29 268.27 117.28 230.75 182.27 268.27"/><polygon class="cls-12" points="117.28 305.8 117.28 301.11 56.35 265.93 52.29 268.27 117.28 305.8"/><polygon class="cls-3" points="182.27 287.04 117.28 324.56 117.28 305.8 182.27 268.27 182.27 287.04"/><polygon class="cls-13" points="182.27 287.04 117.28 324.56 117.28 305.8 182.27 268.27 182.27 287.04"/><path class="cls-3" d="M179.85,276l-32.23,18.61a4.78,4.78,0,0,0-2.17,3.75v4.38c0,1.38,1,1.94,2.17,1.25l32.23-18.61a4.8,4.8,0,0,0,2.16-3.75v-4.38C182,275.83,181,275.27,179.85,276Z" transform="translate(-3.8 0.59)"/><path class="cls-10" d="M179.73,279.67v2.13a1,1,0,0,1-.43.75l-.49.28c-.24.13-.43,0-.43-.25v-2.13a1,1,0,0,1,.43-.75l.49-.28C179.53,279.28,179.73,279.39,179.73,279.67Z" transform="translate(-3.8 0.59)"/><path class="cls-10" d="M177.54,280.93v2.13a1,1,0,0,1-.43.75l-.49.28c-.24.14-.43,0-.43-.25v-2.13a1,1,0,0,1,.43-.75l.49-.28C177.35,280.54,177.54,280.66,177.54,280.93Z" transform="translate(-3.8 0.59)"/><path class="cls-10" d="M175.35,282.19v2.13a1,1,0,0,1-.43.75l-.49.28c-.24.14-.43,0-.43-.25V283a1,1,0,0,1,.43-.75l.49-.28C175.16,281.81,175.35,281.92,175.35,282.19Z" transform="translate(-3.8 0.59)"/><path class="cls-10" d="M173.16,283.45v2.13a1,1,0,0,1-.43.75l-.49.28c-.24.14-.43,0-.43-.25v-2.12a.93.93,0,0,1,.43-.75l.49-.29C173,283.07,173.16,283.18,173.16,283.45Z" transform="translate(-3.8 0.59)"/><path class="cls-9" d="M171,284.72v2.12a1,1,0,0,1-.44.75l-.48.28c-.24.14-.44,0-.44-.25V285.5a1,1,0,0,1,.44-.75l.48-.28C170.78,284.33,171,284.44,171,284.72Z" transform="translate(-3.8 0.59)"/><path class="cls-9" d="M168.79,286v2.12a.94.94,0,0,1-.44.75l-.48.28c-.24.14-.44,0-.44-.25v-2.12a1,1,0,0,1,.44-.75l.48-.28C168.59,285.59,168.79,285.7,168.79,286Z" transform="translate(-3.8 0.59)"/><path class="cls-10" d="M166.6,287.24v2.12a1,1,0,0,1-.43.75l-.49.29c-.24.13-.43,0-.43-.25V288a1,1,0,0,1,.43-.75l.49-.28C166.4,286.85,166.6,287,166.6,287.24Z" transform="translate(-3.8 0.59)"/><path class="cls-10" d="M164.41,288.5v2.13a1,1,0,0,1-.43.75l-.49.28c-.24.14-.43,0-.43-.25v-2.13a1,1,0,0,1,.43-.75l.49-.28C164.22,288.11,164.41,288.22,164.41,288.5Z" transform="translate(-3.8 0.59)"/><path class="cls-10" d="M162.22,289.76v2.13a1,1,0,0,1-.43.75l-.49.28c-.24.14-.43,0-.43-.25v-2.13a1,1,0,0,1,.43-.75l.49-.28C162,289.37,162.22,289.49,162.22,289.76Z" transform="translate(-3.8 0.59)"/><path class="cls-9" d="M160,291v2.13a1,1,0,0,1-.43.75l-.49.28c-.24.14-.43,0-.43-.25v-2.12a.93.93,0,0,1,.43-.75l.49-.29C159.84,290.64,160,290.75,160,291Z" transform="translate(-3.8 0.59)"/><path class="cls-10" d="M157.85,292.29v2.12a1,1,0,0,1-.44.75l-.49.28c-.23.14-.43,0-.43-.25v-2.12a1,1,0,0,1,.43-.75l.49-.28C157.65,291.9,157.85,292,157.85,292.29Z" transform="translate(-3.8 0.59)"/><path class="cls-10" d="M155.66,293.55v2.12a1,1,0,0,1-.44.75l-.48.28c-.24.14-.44,0-.44-.25v-2.12a1,1,0,0,1,.44-.75l.48-.28C155.46,293.16,155.66,293.27,155.66,293.55Z" transform="translate(-3.8 0.59)"/><path class="cls-9" d="M153.47,294.81v2.12a1,1,0,0,1-.43.75l-.49.29c-.24.13-.43,0-.43-.25v-2.13a1,1,0,0,1,.43-.75l.49-.28C153.27,294.42,153.47,294.53,153.47,294.81Z" transform="translate(-3.8 0.59)"/><path class="cls-10" d="M151.28,296.07v2.13a1,1,0,0,1-.43.75l-.49.28c-.24.13-.43,0-.43-.25v-2.13a1,1,0,0,1,.43-.75l.49-.28C151.09,295.68,151.28,295.79,151.28,296.07Z" transform="translate(-3.8 0.59)"/><path class="cls-9" d="M149.09,297.33v2.13a1,1,0,0,1-.43.75l-.49.28c-.24.14-.43,0-.43-.25v-2.13a1,1,0,0,1,.43-.75l.49-.28C148.9,296.94,149.09,297.06,149.09,297.33Z" transform="translate(-3.8 0.59)"/><polygon class="cls-3" points="117.28 324.56 52.29 287.04 52.29 268.27 117.28 305.8 117.28 324.56"/><polygon class="cls-14" points="117.28 324.56 52.29 287.04 52.29 268.27 117.28 305.8 117.28 324.56"/><g class="cls-11"><path class="cls-5" d="M66.37,278.32l16,9.23a4.76,4.76,0,0,1,2.17,3.75v4.38c0,1.38-1,1.94-2.17,1.25l-16-9.23A4.8,4.8,0,0,1,64.21,284v-4.38C64.21,278.19,65.18,277.63,66.37,278.32Z" transform="translate(-3.8 0.59)"/></g><path class="cls-3" d="M68.43,283.26l1-.57h0a1.34,1.34,0,0,1,1.33.14,4.18,4.18,0,0,1,1.88,3.26,1.3,1.3,0,0,1-.55,1.21h0l-.93.52-.16-.27a1.82,1.82,0,0,1-.54-.21,4.17,4.17,0,0,1-1.89-3.26,2.25,2.25,0,0,1,.06-.48Z" transform="translate(-3.8 0.59)"/><path class="cls-15" d="M68.43,283.26l1-.57h0a1.34,1.34,0,0,1,1.33.14,4.18,4.18,0,0,1,1.88,3.26,1.3,1.3,0,0,1-.55,1.21h0l-.93.52-.16-.27a1.82,1.82,0,0,1-.54-.21,4.17,4.17,0,0,1-1.89-3.26,2.25,2.25,0,0,1,.06-.48Z" transform="translate(-3.8 0.59)"/><path class="cls-3" d="M69.8,283.37a4.16,4.16,0,0,1,1.88,3.26c0,1.2-.84,1.68-1.88,1.08a4.16,4.16,0,0,1-1.88-3.26C67.92,283.25,68.76,282.77,69.8,283.37Z" transform="translate(-3.8 0.59)"/><path class="cls-3" d="M76.6,288l1-.57h0a1.32,1.32,0,0,1,1.32.13,4.17,4.17,0,0,1,1.89,3.26,1.33,1.33,0,0,1-.55,1.22h0l-.93.53-.17-.28a1.77,1.77,0,0,1-.53-.21,4.17,4.17,0,0,1-1.89-3.26,2.33,2.33,0,0,1,.06-.48Z" transform="translate(-3.8 0.59)"/><path class="cls-15" d="M76.6,288l1-.57h0a1.32,1.32,0,0,1,1.32.13,4.17,4.17,0,0,1,1.89,3.26,1.33,1.33,0,0,1-.55,1.22h0l-.93.53-.17-.28a1.77,1.77,0,0,1-.53-.21,4.17,4.17,0,0,1-1.89-3.26,2.33,2.33,0,0,1,.06-.48Z" transform="translate(-3.8 0.59)"/><path class="cls-3" d="M78,288.08a4.16,4.16,0,0,1,1.88,3.26c0,1.2-.84,1.69-1.88,1.09a4.16,4.16,0,0,1-1.88-3.26C76.09,288,76.93,287.48,78,288.08Z" transform="translate(-3.8 0.59)"/><polygon class="cls-9" points="174.15 296.42 174.15 291.73 117.28 324.56 117.28 329.25 174.15 296.42"/><polygon class="cls-7" points="56.35 289.38 56.35 294.07 117.28 329.25 117.28 324.56 56.35 289.38"/><path class="cls-3" d="M139.69,302.61l-1-.58h0a1.34,1.34,0,0,0-1.32.13,4.16,4.16,0,0,0-1.88,3.26,1.35,1.35,0,0,0,.54,1.22h0l.92.53.17-.28a1.93,1.93,0,0,0,.54-.21,4.16,4.16,0,0,0,1.88-3.26,2.33,2.33,0,0,0-.06-.48Z" transform="translate(-3.8 0.59)"/><path class="cls-16" d="M139.69,302.61l-1-.58h0a1.34,1.34,0,0,0-1.32.13,4.16,4.16,0,0,0-1.88,3.26,1.35,1.35,0,0,0,.54,1.22h0l.92.53.17-.28a1.93,1.93,0,0,0,.54-.21,4.16,4.16,0,0,0,1.88-3.26,2.33,2.33,0,0,0-.06-.48Z" transform="translate(-3.8 0.59)"/><path class="cls-3" d="M138.32,302.71a4.16,4.16,0,0,0-1.88,3.26c0,1.2.84,1.69,1.88,1.09a4.16,4.16,0,0,0,1.88-3.26C140.2,302.6,139.36,302.11,138.32,302.71Z" transform="translate(-3.8 0.59)"/><path class="cls-15" d="M138.32,302.71a4.16,4.16,0,0,0-1.88,3.26c0,1.2.84,1.69,1.88,1.09a4.16,4.16,0,0,0,1.88-3.26C140.2,302.6,139.36,302.11,138.32,302.71Z" transform="translate(-3.8 0.59)"/><path class="cls-3" d="M131.52,307.32l-1-.57h0a1.32,1.32,0,0,0-1.32.14,4.16,4.16,0,0,0-1.88,3.26,1.33,1.33,0,0,0,.55,1.22h0l.92.53.17-.28a1.93,1.93,0,0,0,.54-.21,4.16,4.16,0,0,0,1.88-3.26,1.75,1.75,0,0,0-.06-.48Z" transform="translate(-3.8 0.59)"/><path class="cls-16" d="M131.52,307.32l-1-.57h0a1.32,1.32,0,0,0-1.32.14,4.16,4.16,0,0,0-1.88,3.26,1.33,1.33,0,0,0,.55,1.22h0l.92.53.17-.28a1.93,1.93,0,0,0,.54-.21,4.16,4.16,0,0,0,1.88-3.26,1.75,1.75,0,0,0-.06-.48Z" transform="translate(-3.8 0.59)"/><path class="cls-3" d="M130.15,307.43a4.16,4.16,0,0,0-1.88,3.26c0,1.2.84,1.68,1.88,1.08a4.16,4.16,0,0,0,1.88-3.26C132,307.31,131.19,306.83,130.15,307.43Z" transform="translate(-3.8 0.59)"/><path class="cls-15" d="M130.15,307.43a4.16,4.16,0,0,0-1.88,3.26c0,1.2.84,1.68,1.88,1.08a4.16,4.16,0,0,0,1.88-3.26C132,307.31,131.19,306.83,130.15,307.43Z" transform="translate(-3.8 0.59)"/><polygon class="cls-3" points="182.27 240.13 117.28 277.66 52.29 240.13 117.28 202.61 182.27 240.13"/><polygon class="cls-17" points="182.27 240.13 117.28 277.66 52.29 240.13 117.28 202.61 182.27 240.13"/><polygon class="cls-12" points="182.27 240.13 117.28 277.66 52.29 240.13 117.28 202.61 182.27 240.13"/><polygon class="cls-12" points="117.28 272.97 117.28 277.66 52.29 240.13 56.35 237.79 117.28 272.97"/><polygon class="cls-3" points="182.27 258.89 117.28 296.42 117.28 277.66 182.27 240.13 182.27 258.89"/><polygon class="cls-13" points="182.27 258.89 117.28 296.42 117.28 277.66 182.27 240.13 182.27 258.89"/><path class="cls-3" d="M179.85,247.84l-32.23,18.61a4.78,4.78,0,0,0-2.17,3.75v4.38c0,1.38,1,1.94,2.17,1.25l32.23-18.61a4.8,4.8,0,0,0,2.16-3.75v-4.38C182,247.71,181,247.15,179.85,247.84Z" transform="translate(-3.8 0.59)"/><path class="cls-10" d="M179.73,251.55v2.12a1,1,0,0,1-.43.75l-.49.29c-.24.13-.43,0-.43-.25v-2.13a1,1,0,0,1,.43-.75l.49-.28C179.53,251.16,179.73,251.27,179.73,251.55Z" transform="translate(-3.8 0.59)"/><path class="cls-9" d="M177.54,252.81v2.13a1,1,0,0,1-.43.75l-.49.28c-.24.14-.43,0-.43-.25v-2.13a1,1,0,0,1,.43-.75l.49-.28C177.35,252.42,177.54,252.53,177.54,252.81Z" transform="translate(-3.8 0.59)"/><path class="cls-10" d="M175.35,254.07v2.13a1,1,0,0,1-.43.75l-.49.28c-.24.14-.43,0-.43-.25v-2.13a1,1,0,0,1,.43-.75l.49-.28C175.16,253.68,175.35,253.8,175.35,254.07Z" transform="translate(-3.8 0.59)"/><path class="cls-10" d="M173.16,255.33v2.13a1,1,0,0,1-.43.75l-.49.28c-.24.14-.43,0-.43-.25v-2.12a.93.93,0,0,1,.43-.75l.49-.29C173,255,173.16,255.06,173.16,255.33Z" transform="translate(-3.8 0.59)"/><path class="cls-10" d="M171,256.6v2.12a1,1,0,0,1-.44.75l-.48.28c-.24.14-.44,0-.44-.25v-2.12a.94.94,0,0,1,.44-.75l.48-.28C170.78,256.21,171,256.32,171,256.6Z" transform="translate(-3.8 0.59)"/><path class="cls-9" d="M168.79,257.86V260a1,1,0,0,1-.44.75l-.48.28c-.24.14-.44,0-.44-.25v-2.12a1,1,0,0,1,.44-.75l.48-.28C168.59,257.47,168.79,257.58,168.79,257.86Z" transform="translate(-3.8 0.59)"/><path class="cls-9" d="M166.6,259.12v2.12a1,1,0,0,1-.43.75l-.49.28c-.24.14-.43,0-.43-.25V259.9a1,1,0,0,1,.43-.75l.49-.28C166.4,258.73,166.6,258.84,166.6,259.12Z" transform="translate(-3.8 0.59)"/><path class="cls-10" d="M164.41,260.38v2.13a1,1,0,0,1-.43.75l-.49.28c-.24.13-.43,0-.43-.25v-2.13a1,1,0,0,1,.43-.75l.49-.28C164.22,260,164.41,260.1,164.41,260.38Z" transform="translate(-3.8 0.59)"/><path class="cls-9" d="M162.22,261.64v2.13a1,1,0,0,1-.43.75l-.49.28c-.24.14-.43,0-.43-.25v-2.13a1,1,0,0,1,.43-.75l.49-.28C162,261.25,162.22,261.37,162.22,261.64Z" transform="translate(-3.8 0.59)"/><path class="cls-10" d="M160,262.9V265a1,1,0,0,1-.43.75l-.49.28c-.24.14-.43,0-.43-.25v-2.13a1,1,0,0,1,.43-.75l.49-.28C159.84,262.52,160,262.63,160,262.9Z" transform="translate(-3.8 0.59)"/><path class="cls-10" d="M157.85,264.16v2.13a1,1,0,0,1-.44.75l-.49.28c-.23.14-.43,0-.43-.25V265a1,1,0,0,1,.43-.75l.49-.29C157.65,263.78,157.85,263.89,157.85,264.16Z" transform="translate(-3.8 0.59)"/><path class="cls-10" d="M155.66,265.43v2.12a1,1,0,0,1-.44.75l-.48.28c-.24.14-.44,0-.44-.25v-2.12a1,1,0,0,1,.44-.75l.48-.28C155.46,265,155.66,265.15,155.66,265.43Z" transform="translate(-3.8 0.59)"/><path class="cls-9" d="M153.47,266.69v2.12a1,1,0,0,1-.43.75l-.49.28c-.24.14-.43,0-.43-.25v-2.12a1,1,0,0,1,.43-.75l.49-.28C153.27,266.3,153.47,266.41,153.47,266.69Z" transform="translate(-3.8 0.59)"/><path class="cls-10" d="M151.28,268v2.12a.93.93,0,0,1-.43.75l-.49.29c-.24.13-.43,0-.43-.25v-2.13a1,1,0,0,1,.43-.75l.49-.28C151.09,267.56,151.28,267.67,151.28,268Z" transform="translate(-3.8 0.59)"/><path class="cls-10" d="M149.09,269.21v2.13a1,1,0,0,1-.43.75l-.49.28c-.24.14-.43,0-.43-.25V270a1,1,0,0,1,.43-.75l.49-.28C148.9,268.82,149.09,268.93,149.09,269.21Z" transform="translate(-3.8 0.59)"/><polygon class="cls-3" points="117.28 296.42 52.29 258.89 52.29 240.13 117.28 277.66 117.28 296.42"/><polygon class="cls-14" points="117.28 296.42 52.29 258.89 52.29 240.13 117.28 277.66 117.28 296.42"/><g class="cls-11"><path class="cls-5" d="M66.37,250.21l16,9.22a4.78,4.78,0,0,1,2.17,3.75v4.39c0,1.38-1,1.94-2.17,1.25l-16-9.23a4.8,4.8,0,0,1-2.16-3.75v-4.38C64.21,250.08,65.18,249.52,66.37,250.21Z" transform="translate(-3.8 0.59)"/></g><path class="cls-3" d="M68.43,255.15l1-.57h0a1.34,1.34,0,0,1,1.33.14A4.18,4.18,0,0,1,72.64,258a1.3,1.3,0,0,1-.55,1.21h0l-.93.53-.16-.27a2.15,2.15,0,0,1-.54-.21A4.17,4.17,0,0,1,68.57,256a2.43,2.43,0,0,1,.06-.49Z" transform="translate(-3.8 0.59)"/><path class="cls-15" d="M68.43,255.15l1-.57h0a1.34,1.34,0,0,1,1.33.14A4.18,4.18,0,0,1,72.64,258a1.3,1.3,0,0,1-.55,1.21h0l-.93.53-.16-.27a2.15,2.15,0,0,1-.54-.21A4.17,4.17,0,0,1,68.57,256a2.43,2.43,0,0,1,.06-.49Z" transform="translate(-3.8 0.59)"/><path class="cls-3" d="M69.8,255.26a4.14,4.14,0,0,1,1.88,3.25c0,1.2-.84,1.69-1.88,1.09a4.16,4.16,0,0,1-1.88-3.26C67.92,255.14,68.76,254.66,69.8,255.26Z" transform="translate(-3.8 0.59)"/><path class="cls-3" d="M76.6,259.86l1-.57h0a1.29,1.29,0,0,1,1.32.13,4.17,4.17,0,0,1,1.89,3.26,1.33,1.33,0,0,1-.55,1.22h0l-.93.53-.17-.28a1.77,1.77,0,0,1-.53-.21,4.17,4.17,0,0,1-1.89-3.26,2.25,2.25,0,0,1,.06-.48Z" transform="translate(-3.8 0.59)"/><path class="cls-15" d="M76.6,259.86l1-.57h0a1.29,1.29,0,0,1,1.32.13,4.17,4.17,0,0,1,1.89,3.26,1.33,1.33,0,0,1-.55,1.22h0l-.93.53-.17-.28a1.77,1.77,0,0,1-.53-.21,4.17,4.17,0,0,1-1.89-3.26,2.25,2.25,0,0,1,.06-.48Z" transform="translate(-3.8 0.59)"/><path class="cls-3" d="M78,260a4.16,4.16,0,0,1,1.88,3.26c0,1.2-.84,1.69-1.88,1.09a4.16,4.16,0,0,1-1.88-3.26C76.09,259.86,76.93,259.37,78,260Z" transform="translate(-3.8 0.59)"/><polygon class="cls-9" points="174.15 268.27 174.15 263.58 117.28 296.42 117.28 301.11 174.15 268.27"/><polygon class="cls-7" points="56.35 261.24 56.35 265.93 117.28 301.11 117.28 296.42 56.35 261.24"/><path class="cls-3" d="M139.69,274.46l-1-.57h0a1.29,1.29,0,0,0-1.32.13,4.16,4.16,0,0,0-1.88,3.26,1.35,1.35,0,0,0,.54,1.22h0l.92.53.17-.28a1.93,1.93,0,0,0,.54-.21,4.16,4.16,0,0,0,1.88-3.26,2.33,2.33,0,0,0-.06-.48Z" transform="translate(-3.8 0.59)"/><path class="cls-16" d="M139.69,274.46l-1-.57h0a1.29,1.29,0,0,0-1.32.13,4.16,4.16,0,0,0-1.88,3.26,1.35,1.35,0,0,0,.54,1.22h0l.92.53.17-.28a1.93,1.93,0,0,0,.54-.21,4.16,4.16,0,0,0,1.88-3.26,2.33,2.33,0,0,0-.06-.48Z" transform="translate(-3.8 0.59)"/><path class="cls-3" d="M138.32,274.57a4.16,4.16,0,0,0-1.88,3.26c0,1.2.84,1.69,1.88,1.09a4.16,4.16,0,0,0,1.88-3.26C140.2,274.46,139.36,274,138.32,274.57Z" transform="translate(-3.8 0.59)"/><path class="cls-15" d="M138.32,274.57a4.16,4.16,0,0,0-1.88,3.26c0,1.2.84,1.69,1.88,1.09a4.16,4.16,0,0,0,1.88-3.26C140.2,274.46,139.36,274,138.32,274.57Z" transform="translate(-3.8 0.59)"/><path class="cls-3" d="M131.52,279.18l-1-.58h0a1.32,1.32,0,0,0-1.32.14,4.16,4.16,0,0,0-1.88,3.26,1.31,1.31,0,0,0,.55,1.21h0l.92.53.17-.28a1.93,1.93,0,0,0,.54-.21,4.14,4.14,0,0,0,1.88-3.26,1.86,1.86,0,0,0-.06-.48Z" transform="translate(-3.8 0.59)"/><path class="cls-16" d="M131.52,279.18l-1-.58h0a1.32,1.32,0,0,0-1.32.14,4.16,4.16,0,0,0-1.88,3.26,1.31,1.31,0,0,0,.55,1.21h0l.92.53.17-.28a1.93,1.93,0,0,0,.54-.21,4.14,4.14,0,0,0,1.88-3.26,1.86,1.86,0,0,0-.06-.48Z" transform="translate(-3.8 0.59)"/><path class="cls-3" d="M130.15,279.28a4.16,4.16,0,0,0-1.88,3.26c0,1.2.84,1.69,1.88,1.09a4.16,4.16,0,0,0,1.88-3.26C132,279.17,131.19,278.68,130.15,279.28Z" transform="translate(-3.8 0.59)"/><path class="cls-15" d="M130.15,279.28a4.16,4.16,0,0,0-1.88,3.26c0,1.2.84,1.69,1.88,1.09a4.16,4.16,0,0,0,1.88-3.26C132,279.17,131.19,278.68,130.15,279.28Z" transform="translate(-3.8 0.59)"/><path class="cls-3" d="M58.69,209.91l59.83-34.52a5.74,5.74,0,0,1,5.2,0l59.76,34.52a5.76,5.76,0,0,1,2.6,4.5v15.76L121,267.7h0L56.09,230.17V214.41A5.77,5.77,0,0,1,58.69,209.91Z" transform="translate(-3.8 0.59)"/><path class="cls-14" d="M58.69,209.91l59.83-34.52a5.74,5.74,0,0,1,5.2,0l59.76,34.52a5.76,5.76,0,0,1,2.6,4.5v15.76L121,267.7h0L56.09,230.17V214.41A5.77,5.77,0,0,1,58.69,209.91Z" transform="translate(-3.8 0.59)"/><g class="cls-11"><path class="cls-5" d="M66.37,222l16,9.23A4.78,4.78,0,0,1,84.52,235v4.38c0,1.38-1,1.94-2.17,1.25l-16-9.23a4.8,4.8,0,0,1-2.16-3.75v-4.38C64.21,221.91,65.18,221.35,66.37,222Z" transform="translate(-3.8 0.59)"/></g><path class="cls-3" d="M68.43,227l1-.57h0a1.34,1.34,0,0,1,1.33.14,4.18,4.18,0,0,1,1.88,3.26,1.33,1.33,0,0,1-.55,1.22h0l-.93.53-.16-.28a1.82,1.82,0,0,1-.54-.21,4.17,4.17,0,0,1-1.89-3.26,2.25,2.25,0,0,1,.06-.48Z" transform="translate(-3.8 0.59)"/><path class="cls-15" d="M68.43,227l1-.57h0a1.34,1.34,0,0,1,1.33.14,4.18,4.18,0,0,1,1.88,3.26,1.33,1.33,0,0,1-.55,1.22h0l-.93.53-.16-.28a1.82,1.82,0,0,1-.54-.21,4.17,4.17,0,0,1-1.89-3.26,2.25,2.25,0,0,1,.06-.48Z" transform="translate(-3.8 0.59)"/><path class="cls-3" d="M69.8,227.09a4.16,4.16,0,0,1,1.88,3.26c0,1.2-.84,1.68-1.88,1.08a4.16,4.16,0,0,1-1.88-3.26C67.92,227,68.76,226.49,69.8,227.09Z" transform="translate(-3.8 0.59)"/><path class="cls-3" d="M76.6,231.7l1-.58h0a1.34,1.34,0,0,1,1.32.13,4.17,4.17,0,0,1,1.89,3.26,1.33,1.33,0,0,1-.55,1.22h0l-.93.53-.17-.28a1.77,1.77,0,0,1-.53-.21,4.17,4.17,0,0,1-1.89-3.26,2.42,2.42,0,0,1,.06-.48Z" transform="translate(-3.8 0.59)"/><path class="cls-15" d="M76.6,231.7l1-.58h0a1.34,1.34,0,0,1,1.32.13,4.17,4.17,0,0,1,1.89,3.26,1.33,1.33,0,0,1-.55,1.22h0l-.93.53-.17-.28a1.77,1.77,0,0,1-.53-.21,4.17,4.17,0,0,1-1.89-3.26,2.42,2.42,0,0,1,.06-.48Z" transform="translate(-3.8 0.59)"/><path class="cls-3" d="M78,231.8a4.16,4.16,0,0,1,1.88,3.26c0,1.2-.84,1.69-1.88,1.09a4.16,4.16,0,0,1-1.88-3.26C76.09,231.69,76.93,231.2,78,231.8Z" transform="translate(-3.8 0.59)"/><path class="cls-3" d="M121.05,248.05v19.64l65-37.52V214.41a5.81,5.81,0,0,0-2.13-4.17c.95.83.79,1.94-.47,2.67l-59.83,34.52A5.31,5.31,0,0,1,121.05,248.05Z" transform="translate(-3.8 0.59)"/><path class="cls-13" d="M121.05,248.05v19.64l65-37.52V214.41a5.81,5.81,0,0,0-2.13-4.17c.95.83.79,1.94-.47,2.67l-59.83,34.52A5.31,5.31,0,0,1,121.05,248.05Z" transform="translate(-3.8 0.59)"/><path class="cls-3" d="M179.85,219.69,147.62,238.3a4.78,4.78,0,0,0-2.17,3.75v4.38c0,1.38,1,1.94,2.17,1.25l32.23-18.6a4.8,4.8,0,0,0,2.16-3.75v-4.39C182,219.56,181,219,179.85,219.69Z" transform="translate(-3.8 0.59)"/><path class="cls-9" d="M179.73,223.4v2.13a1,1,0,0,1-.43.75l-.49.28c-.24.14-.43,0-.43-.25v-2.12a.93.93,0,0,1,.43-.75l.49-.29A.27.27,0,0,1,179.73,223.4Z" transform="translate(-3.8 0.59)"/><path class="cls-10" d="M177.54,224.67v2.12a1,1,0,0,1-.43.75l-.49.28c-.24.14-.43,0-.43-.25v-2.12a1,1,0,0,1,.43-.75l.49-.28C177.35,224.28,177.54,224.39,177.54,224.67Z" transform="translate(-3.8 0.59)"/><path class="cls-9" d="M175.35,225.93v2.12a1,1,0,0,1-.43.75l-.49.28c-.24.14-.43,0-.43-.25v-2.12a1,1,0,0,1,.43-.75l.49-.28C175.16,225.54,175.35,225.65,175.35,225.93Z" transform="translate(-3.8 0.59)"/><path class="cls-9" d="M173.16,227.19v2.12a.93.93,0,0,1-.43.75l-.49.29c-.24.13-.43,0-.43-.25V228a1,1,0,0,1,.43-.75l.49-.28C173,226.8,173.16,226.91,173.16,227.19Z" transform="translate(-3.8 0.59)"/><path class="cls-9" d="M171,228.45v2.13a1,1,0,0,1-.44.75l-.48.28a.27.27,0,0,1-.44-.25v-2.13a1,1,0,0,1,.44-.75l.48-.28C170.78,228.06,171,228.17,171,228.45Z" transform="translate(-3.8 0.59)"/><path class="cls-10" d="M168.79,229.71v2.13a1,1,0,0,1-.44.75l-.48.28a.27.27,0,0,1-.44-.25v-2.13a1,1,0,0,1,.44-.75l.48-.28A.27.27,0,0,1,168.79,229.71Z" transform="translate(-3.8 0.59)"/><path class="cls-10" d="M166.6,231v2.13a1,1,0,0,1-.43.75l-.49.28c-.24.14-.43,0-.43-.25v-2.12a.93.93,0,0,1,.43-.75l.49-.29A.27.27,0,0,1,166.6,231Z" transform="translate(-3.8 0.59)"/><path class="cls-9" d="M164.41,232.24v2.12a1,1,0,0,1-.43.75l-.49.28c-.24.14-.43,0-.43-.25V233a.93.93,0,0,1,.43-.75L164,232C164.22,231.85,164.41,232,164.41,232.24Z" transform="translate(-3.8 0.59)"/><path class="cls-10" d="M162.22,233.5v2.12a1,1,0,0,1-.43.75l-.49.28c-.24.14-.43,0-.43-.25v-2.12a1,1,0,0,1,.43-.75l.49-.28C162,233.11,162.22,233.22,162.22,233.5Z" transform="translate(-3.8 0.59)"/><path class="cls-9" d="M160,234.76v2.12a.93.93,0,0,1-.43.75l-.49.28c-.24.14-.43,0-.43-.25v-2.12a1,1,0,0,1,.43-.75l.49-.28C159.84,234.37,160,234.48,160,234.76Z" transform="translate(-3.8 0.59)"/><path class="cls-9" d="M157.85,236v2.13a1,1,0,0,1-.44.75l-.49.28a.27.27,0,0,1-.43-.25V236.8a1,1,0,0,1,.43-.75l.49-.28C157.65,235.63,157.85,235.74,157.85,236Z" transform="translate(-3.8 0.59)"/><path class="cls-9" d="M155.66,237.28v2.13a1,1,0,0,1-.44.75l-.48.28a.27.27,0,0,1-.44-.25v-2.13a1,1,0,0,1,.44-.75l.48-.28A.27.27,0,0,1,155.66,237.28Z" transform="translate(-3.8 0.59)"/><path class="cls-10" d="M153.47,238.54v2.13a1,1,0,0,1-.43.75l-.49.28c-.24.14-.43,0-.43-.25v-2.13a1,1,0,0,1,.43-.75l.49-.28C153.27,238.15,153.47,238.27,153.47,238.54Z" transform="translate(-3.8 0.59)"/><path class="cls-9" d="M151.28,239.8v2.13a1,1,0,0,1-.43.75l-.49.28c-.24.14-.43,0-.43-.25v-2.12a.93.93,0,0,1,.43-.75l.49-.29C151.09,239.42,151.28,239.53,151.28,239.8Z" transform="translate(-3.8 0.59)"/><path class="cls-9" d="M149.09,241.07v2.12a1,1,0,0,1-.43.75l-.49.28c-.24.14-.43,0-.43-.25v-2.12a1,1,0,0,1,.43-.75l.49-.28C148.9,240.68,149.09,240.79,149.09,241.07Z" transform="translate(-3.8 0.59)"/><path class="cls-3" d="M183.48,212.91l-59.84,34.52a5.72,5.72,0,0,1-5.19,0L58.69,212.91c-1.44-.83-1.44-2.17,0-3l59.83-34.52a5.74,5.74,0,0,1,5.2,0l59.76,34.52C184.91,210.74,184.91,212.08,183.48,212.91Z" transform="translate(-3.8 0.59)"/><path class="cls-18" d="M183.48,212.91l-59.84,34.52a5.72,5.72,0,0,1-5.19,0L58.69,212.91c-1.44-.83-1.44-2.17,0-3l59.83-34.52a5.74,5.74,0,0,1,5.2,0l59.76,34.52C184.91,210.74,184.91,212.08,183.48,212.91Z" transform="translate(-3.8 0.59)"/><polygon class="cls-9" points="174.15 240.14 174.15 235.45 117.28 268.28 117.28 272.97 174.15 240.14"/><polygon class="cls-7" points="56.35 233.1 56.35 237.79 117.28 272.97 117.28 268.28 56.35 233.1"/><path class="cls-3" d="M139.69,246.33l-1-.57h0a1.32,1.32,0,0,0-1.32.14,4.16,4.16,0,0,0-1.88,3.26,1.32,1.32,0,0,0,.54,1.21h0l.92.53.17-.27a2.3,2.3,0,0,0,.54-.21,4.16,4.16,0,0,0,1.88-3.26,2.25,2.25,0,0,0-.06-.48Z" transform="translate(-3.8 0.59)"/><path class="cls-16" d="M139.69,246.33l-1-.57h0a1.32,1.32,0,0,0-1.32.14,4.16,4.16,0,0,0-1.88,3.26,1.32,1.32,0,0,0,.54,1.21h0l.92.53.17-.27a2.3,2.3,0,0,0,.54-.21,4.16,4.16,0,0,0,1.88-3.26,2.25,2.25,0,0,0-.06-.48Z" transform="translate(-3.8 0.59)"/><path class="cls-3" d="M138.32,246.44a4.14,4.14,0,0,0-1.88,3.25c0,1.21.84,1.69,1.88,1.09a4.16,4.16,0,0,0,1.88-3.26C140.2,246.32,139.36,245.84,138.32,246.44Z" transform="translate(-3.8 0.59)"/><path class="cls-15" d="M138.32,246.44a4.14,4.14,0,0,0-1.88,3.25c0,1.21.84,1.69,1.88,1.09a4.16,4.16,0,0,0,1.88-3.26C140.2,246.32,139.36,245.84,138.32,246.44Z" transform="translate(-3.8 0.59)"/><path class="cls-3" d="M131.52,251l-1-.57h0a1.29,1.29,0,0,0-1.32.13,4.16,4.16,0,0,0-1.88,3.26,1.33,1.33,0,0,0,.55,1.22h0l.92.53.17-.28a1.93,1.93,0,0,0,.54-.21,4.16,4.16,0,0,0,1.88-3.26,1.8,1.8,0,0,0-.06-.48Z" transform="translate(-3.8 0.59)"/><path class="cls-16" d="M131.52,251l-1-.57h0a1.29,1.29,0,0,0-1.32.13,4.16,4.16,0,0,0-1.88,3.26,1.33,1.33,0,0,0,.55,1.22h0l.92.53.17-.28a1.93,1.93,0,0,0,.54-.21,4.16,4.16,0,0,0,1.88-3.26,1.8,1.8,0,0,0-.06-.48Z" transform="translate(-3.8 0.59)"/><path class="cls-3" d="M130.15,251.15a4.16,4.16,0,0,0-1.88,3.26c0,1.2.84,1.69,1.88,1.09a4.16,4.16,0,0,0,1.88-3.26C132,251,131.19,250.55,130.15,251.15Z" transform="translate(-3.8 0.59)"/><path class="cls-15" d="M130.15,251.15a4.16,4.16,0,0,0-1.88,3.26c0,1.2.84,1.69,1.88,1.09a4.16,4.16,0,0,0,1.88-3.26C132,251,131.19,250.55,130.15,251.15Z" transform="translate(-3.8 0.59)"/></g><path class="cls-3" d="M296,121.78l-4.64-8.72,3.73-10.78V95.69l-11.42,6.59v6.6l4.91,8.5a.66.66,0,0,0,.34.3h0Z" transform="translate(-3.8 0.59)"/><path class="cls-15" d="M296,121.78l-4.64-8.72,3.73-10.78V95.69l-11.42,6.59v6.6l4.91,8.5a.66.66,0,0,0,.34.3h0Z" transform="translate(-3.8 0.59)"/><path class="cls-3" d="M323.27,43.27a7.57,7.57,0,0,0-3.42-5.93l-2.79-1.61a7.58,7.58,0,0,0-6.85,0L267.45,60.46A7.57,7.57,0,0,0,264,66.39v47.05a7.58,7.58,0,0,0,3.42,5.93l2.79,1.61a7.58,7.58,0,0,0,6.85,0l13.75-8,4.9,8.49a.74.74,0,0,0,1.33-.13l5.18-15,17.6-10.19a7.58,7.58,0,0,0,3.42-5.93Z" transform="translate(-3.8 0.59)"/><path class="cls-15" d="M264,113.44a7.58,7.58,0,0,0,3.42,5.93l2.79,1.61a7.68,7.68,0,0,0,6.27.27c-1.62.61-2.84-.3-2.84-2.25V72a7,7,0,0,1,1-3.37L265,63a7,7,0,0,0-1,3.37Z" transform="translate(-3.8 0.59)"/><path class="cls-14" d="M323.16,42.3c-.4-1.46-1.73-1.92-3.31-1L277.09,66a6.75,6.75,0,0,0-2.41,2.55L265,63a6.93,6.93,0,0,1,2.42-2.55L310.2,35.73a7.67,7.67,0,0,1,6.86,0l2.79,1.62A7.53,7.53,0,0,1,323.16,42.3Z" transform="translate(-3.8 0.59)"/><polygon class="cls-5" points="309.71 75.16 294.72 62.17 279.72 92.48 287.48 88 287.48 103.84 301.95 95.48 301.95 79.64 309.71 75.16"/><path class="cls-3" d="M121.64,142.61a.27.27,0,0,0-.16-.23.91.91,0,0,0-.79,0,.29.29,0,0,0-.17.23h0v6.71h0a.27.27,0,0,0,.17.23.85.85,0,0,0,.79,0,.26.26,0,0,0,.16-.23h0v-6.71Z" transform="translate(-3.8 0.59)"/><path class="cls-3" d="M121.64,151.43a.26.26,0,0,0-.16-.23.85.85,0,0,0-.79,0,.27.27,0,0,0-.17.23h0v3.19h0a.29.29,0,0,0,.17.23.85.85,0,0,0,.79,0,.27.27,0,0,0,.16-.23h0v-3.19Z" transform="translate(-3.8 0.59)"/><path class="cls-3" d="M121.64,156.72a.29.29,0,0,0-.16-.23.91.91,0,0,0-.79,0,.3.3,0,0,0-.17.23h0v3.2h0a.3.3,0,0,0,.17.23.91.91,0,0,0,.79,0,.29.29,0,0,0,.16-.23h0v-3.2Z" transform="translate(-3.8 0.59)"/><path class="cls-3" d="M121.64,162a.29.29,0,0,0-.16-.23.91.91,0,0,0-.79,0,.3.3,0,0,0-.17.23h0v3.2h0a.27.27,0,0,0,.17.22.85.85,0,0,0,.79,0,.26.26,0,0,0,.16-.22h0V162Z" transform="translate(-3.8 0.59)"/><path class="cls-3" d="M121.64,167.32a.27.27,0,0,0-.16-.23.85.85,0,0,0-.79,0,.29.29,0,0,0-.17.23h0v3.19h0a.27.27,0,0,0,.17.23.85.85,0,0,0,.79,0,.26.26,0,0,0,.16-.23h0v-3.19Z" transform="translate(-3.8 0.59)"/><path class="cls-3" d="M121.64,172.62a.26.26,0,0,0-.16-.23.85.85,0,0,0-.79,0,.27.27,0,0,0-.17.23h0v3.19h0a.29.29,0,0,0,.17.23.91.91,0,0,0,.79,0,.27.27,0,0,0,.16-.23h0v-3.19Z" transform="translate(-3.8 0.59)"/><path class="cls-3" d="M121.64,177.91a.29.29,0,0,0-.16-.23.91.91,0,0,0-.79,0,.3.3,0,0,0-.17.23h0v3.2h0a.3.3,0,0,0,.17.23.91.91,0,0,0,.79,0,.29.29,0,0,0,.16-.23h0v-3.2Z" transform="translate(-3.8 0.59)"/><path class="cls-3" d="M121.64,183.21a.29.29,0,0,0-.16-.23.91.91,0,0,0-.79,0,.3.3,0,0,0-.17.23h0v3.19h0a.27.27,0,0,0,.17.23.85.85,0,0,0,.79,0,.26.26,0,0,0,.16-.23h0v-3.19Z" transform="translate(-3.8 0.59)"/><path class="cls-3" d="M121.64,188.51a.27.27,0,0,0-.16-.23.85.85,0,0,0-.79,0,.29.29,0,0,0-.17.23h0v3.19h0a.27.27,0,0,0,.17.23.85.85,0,0,0,.79,0,.26.26,0,0,0,.16-.23h0v-3.19Z" transform="translate(-3.8 0.59)"/><path class="cls-3" d="M121.64,193.81a.26.26,0,0,0-.16-.23.85.85,0,0,0-.79,0,.27.27,0,0,0-.17.23h0V197h0a.29.29,0,0,0,.17.23.91.91,0,0,0,.79,0,.27.27,0,0,0,.16-.23h0v-3.19Z" transform="translate(-3.8 0.59)"/><path class="cls-3" d="M121.64,199.1a.29.29,0,0,0-.16-.23.91.91,0,0,0-.79,0,.3.3,0,0,0-.17.23h0v3.2h0a.3.3,0,0,0,.17.23.91.91,0,0,0,.79,0,.29.29,0,0,0,.16-.23h0v-3.2Z" transform="translate(-3.8 0.59)"/><path class="cls-3" d="M121.64,204.4a.27.27,0,0,0-.16-.23.91.91,0,0,0-.79,0,.29.29,0,0,0-.17.23h0v3.19h0a.27.27,0,0,0,.17.23.85.85,0,0,0,.79,0,.26.26,0,0,0,.16-.23h0V204.4Z" transform="translate(-3.8 0.59)"/><path class="cls-3" d="M121.64,209.7a.27.27,0,0,0-.16-.23.85.85,0,0,0-.79,0,.29.29,0,0,0-.17.23h0v3.19h0a.27.27,0,0,0,.17.23.85.85,0,0,0,.79,0,.26.26,0,0,0,.16-.23h0V209.7Z" transform="translate(-3.8 0.59)"/><path class="cls-9" d="M124.65,135.41A1.77,1.77,0,0,0,123.6,134a5.53,5.53,0,0,0-5,0,1.76,1.76,0,0,0-1,1.45h0v9.38h0a1.76,1.76,0,0,0,1,1.46,5.59,5.59,0,0,0,5,0,1.77,1.77,0,0,0,1.05-1.46h0v-9.38Z" transform="translate(-3.8 0.59)"/><path class="cls-7" d="M126.83,126a2.83,2.83,0,0,0-1.69-2.34,8.94,8.94,0,0,0-8.12,0,2.84,2.84,0,0,0-1.68,2.34h0v9.22h0a2.77,2.77,0,0,0,1.66,2.51,9,9,0,0,0,8.12,0,2.74,2.74,0,0,0,1.66-2.51h0V126Z" transform="translate(-3.8 0.59)"/><path class="cls-3" d="M142,130.8a.3.3,0,0,0-.17-.23.91.91,0,0,0-.79,0,.29.29,0,0,0-.16.23h0v6.71h0a.26.26,0,0,0,.16.23.85.85,0,0,0,.79,0,.27.27,0,0,0,.17-.23h0V130.8Z" transform="translate(-3.8 0.59)"/><path class="cls-3" d="M142,139.62a.27.27,0,0,0-.17-.23.85.85,0,0,0-.79,0,.26.26,0,0,0-.16.23h0v3.19h0a.26.26,0,0,0,.16.23.85.85,0,0,0,.79,0,.27.27,0,0,0,.17-.23h0v-3.19Z" transform="translate(-3.8 0.59)"/><path class="cls-3" d="M142,144.92a.27.27,0,0,0-.17-.23.85.85,0,0,0-.79,0,.26.26,0,0,0-.16.23h0v3.19h0a.27.27,0,0,0,.16.23.91.91,0,0,0,.79,0,.29.29,0,0,0,.17-.23h0v-3.19Z" transform="translate(-3.8 0.59)"/><path class="cls-3" d="M142,150.21a.3.3,0,0,0-.17-.23.91.91,0,0,0-.79,0,.29.29,0,0,0-.16.23h0v3.2h0a.29.29,0,0,0,.16.23.91.91,0,0,0,.79,0,.3.3,0,0,0,.17-.23h0v-3.2Z" transform="translate(-3.8 0.59)"/><path class="cls-3" d="M142,155.51a.29.29,0,0,0-.17-.23.91.91,0,0,0-.79,0,.27.27,0,0,0-.16.23h0v3.19h0a.26.26,0,0,0,.16.23.85.85,0,0,0,.79,0,.27.27,0,0,0,.17-.23h0v-3.19Z" transform="translate(-3.8 0.59)"/><path class="cls-3" d="M142,160.81a.27.27,0,0,0-.17-.23.85.85,0,0,0-.79,0,.26.26,0,0,0-.16.23h0V164h0a.27.27,0,0,0,.16.23.85.85,0,0,0,.79,0A.29.29,0,0,0,142,164h0v-3.19Z" transform="translate(-3.8 0.59)"/><path class="cls-3" d="M142,166.1a.27.27,0,0,0-.17-.22.85.85,0,0,0-.79,0,.26.26,0,0,0-.16.22h0v3.2h0a.27.27,0,0,0,.16.23.91.91,0,0,0,.79,0,.29.29,0,0,0,.17-.23h0v-3.2Z" transform="translate(-3.8 0.59)"/><path class="cls-3" d="M142,171.4a.3.3,0,0,0-.17-.23.91.91,0,0,0-.79,0,.29.29,0,0,0-.16.23h0v3.2h0a.29.29,0,0,0,.16.23.91.91,0,0,0,.79,0,.3.3,0,0,0,.17-.23h0v-3.2Z" transform="translate(-3.8 0.59)"/><path class="cls-3" d="M142,176.7a.29.29,0,0,0-.17-.23.91.91,0,0,0-.79,0,.27.27,0,0,0-.16.23h0v3.19h0a.26.26,0,0,0,.16.23.85.85,0,0,0,.79,0,.27.27,0,0,0,.17-.23h0V176.7Z" transform="translate(-3.8 0.59)"/><path class="cls-3" d="M142,182a.27.27,0,0,0-.17-.23.85.85,0,0,0-.79,0,.26.26,0,0,0-.16.23h0v3.19h0a.27.27,0,0,0,.16.23.85.85,0,0,0,.79,0,.29.29,0,0,0,.17-.23h0V182Z" transform="translate(-3.8 0.59)"/><path class="cls-3" d="M142,187.29a.27.27,0,0,0-.17-.22.85.85,0,0,0-.79,0,.26.26,0,0,0-.16.22h0v3.2h0a.29.29,0,0,0,.16.23.91.91,0,0,0,.79,0,.3.3,0,0,0,.17-.23h0v-3.2Z" transform="translate(-3.8 0.59)"/><path class="cls-3" d="M142,192.59a.3.3,0,0,0-.17-.23.91.91,0,0,0-.79,0,.29.29,0,0,0-.16.23h0v3.2h0a.29.29,0,0,0,.16.23.91.91,0,0,0,.79,0,.3.3,0,0,0,.17-.23h0v-3.2Z" transform="translate(-3.8 0.59)"/><path class="cls-3" d="M142,197.89a.29.29,0,0,0-.17-.23.85.85,0,0,0-.79,0,.27.27,0,0,0-.16.23h0v3.19h0a.26.26,0,0,0,.16.23.85.85,0,0,0,.79,0,.27.27,0,0,0,.17-.23h0v-3.19Z" transform="translate(-3.8 0.59)"/><path class="cls-9" d="M145,123.6a1.78,1.78,0,0,0-1-1.45,5.59,5.59,0,0,0-5,0,1.77,1.77,0,0,0-1.05,1.45h0V133h0a1.77,1.77,0,0,0,1.05,1.45,5.59,5.59,0,0,0,5,0,1.78,1.78,0,0,0,1-1.45h0V123.6Z" transform="translate(-3.8 0.59)"/><path class="cls-7" d="M147.13,114.22a2.86,2.86,0,0,0-1.68-2.34,9,9,0,0,0-8.13,0,2.86,2.86,0,0,0-1.68,2.34h0v9.22h0a2.73,2.73,0,0,0,1.65,2.51,9,9,0,0,0,8.13,0,2.73,2.73,0,0,0,1.65-2.51h0v-9.22Z" transform="translate(-3.8 0.59)"/><path class="cls-3" d="M101.33,154.16a.27.27,0,0,0-.17-.23.85.85,0,0,0-.79,0,.26.26,0,0,0-.16.23h0v6.71h0a.29.29,0,0,0,.16.23.91.91,0,0,0,.79,0,.3.3,0,0,0,.17-.23h0v-6.71Z" transform="translate(-3.8 0.59)"/><path class="cls-3" d="M100.21,166.16h0a.26.26,0,0,0,.16.23.85.85,0,0,0,.79,0,.27.27,0,0,0,.17-.23h0V163h0a.29.29,0,0,0-.17-.23.91.91,0,0,0-.79,0,.27.27,0,0,0-.16.23h0" transform="translate(-3.8 0.59)"/><path class="cls-3" d="M101.33,168.27a.29.29,0,0,0-.17-.23.85.85,0,0,0-.79,0,.27.27,0,0,0-.16.23h0v3.19h0a.26.26,0,0,0,.16.23.85.85,0,0,0,.79,0,.27.27,0,0,0,.17-.23h0v-3.19Z" transform="translate(-3.8 0.59)"/><path class="cls-3" d="M101.33,173.57h0a.27.27,0,0,0-.17-.23.85.85,0,0,0-.79,0,.26.26,0,0,0-.16.23h0v3.19h0a.27.27,0,0,0,.16.23.91.91,0,0,0,.79,0,.29.29,0,0,0,.17-.23h0" transform="translate(-3.8 0.59)"/><path class="cls-3" d="M101.33,178.86a.3.3,0,0,0-.17-.23.91.91,0,0,0-.79,0,.29.29,0,0,0-.16.23h0v3.2h0a.29.29,0,0,0,.16.23.91.91,0,0,0,.79,0,.3.3,0,0,0,.17-.23h0v-3.2Z" transform="translate(-3.8 0.59)"/><path class="cls-3" d="M101.33,184.16h0a.29.29,0,0,0-.17-.23.91.91,0,0,0-.79,0,.27.27,0,0,0-.16.23h0v3.19h0a.26.26,0,0,0,.16.23.85.85,0,0,0,.79,0,.27.27,0,0,0,.17-.23h0" transform="translate(-3.8 0.59)"/><path class="cls-3" d="M101.33,189.46a.29.29,0,0,0-.17-.23.85.85,0,0,0-.79,0,.27.27,0,0,0-.16.23h0v3.19h0a.27.27,0,0,0,.16.23.85.85,0,0,0,.79,0,.29.29,0,0,0,.17-.23h0v-3.19Z" transform="translate(-3.8 0.59)"/><path class="cls-3" d="M101.33,194.76h0a.27.27,0,0,0-.17-.23.85.85,0,0,0-.79,0,.26.26,0,0,0-.16.23h0V198h0a.27.27,0,0,0,.16.23.91.91,0,0,0,.79,0,.29.29,0,0,0,.17-.23h0" transform="translate(-3.8 0.59)"/><path class="cls-3" d="M101.33,200.05a.3.3,0,0,0-.17-.23.91.91,0,0,0-.79,0,.29.29,0,0,0-.16.23h0v3.2h0a.29.29,0,0,0,.16.23.91.91,0,0,0,.79,0,.3.3,0,0,0,.17-.23h0v-3.2Z" transform="translate(-3.8 0.59)"/><path class="cls-3" d="M101.33,205.35h0a.29.29,0,0,0-.17-.23.91.91,0,0,0-.79,0,.27.27,0,0,0-.16.23h0v3.19h0a.26.26,0,0,0,.16.23.85.85,0,0,0,.79,0,.27.27,0,0,0,.17-.23h0" transform="translate(-3.8 0.59)"/><path class="cls-3" d="M101.33,210.65a.27.27,0,0,0-.17-.23.85.85,0,0,0-.79,0,.26.26,0,0,0-.16.23h0v3.19h0a.27.27,0,0,0,.16.23.85.85,0,0,0,.79,0,.29.29,0,0,0,.17-.23h0v-3.19Z" transform="translate(-3.8 0.59)"/><path class="cls-3" d="M101.33,216h0a.27.27,0,0,0-.17-.23.85.85,0,0,0-.79,0,.26.26,0,0,0-.16.23h0v3.19h0a.27.27,0,0,0,.16.23.91.91,0,0,0,.79,0,.29.29,0,0,0,.17-.23h0" transform="translate(-3.8 0.59)"/><path class="cls-3" d="M101.33,221.24a.3.3,0,0,0-.17-.23.91.91,0,0,0-.79,0,.29.29,0,0,0-.16.23h0v3.2h0a.29.29,0,0,0,.16.23.91.91,0,0,0,.79,0,.3.3,0,0,0,.17-.23h0v-3.2Z" transform="translate(-3.8 0.59)"/><path class="cls-9" d="M104.33,147a1.78,1.78,0,0,0-1-1.46,5.59,5.59,0,0,0-5,0,1.77,1.77,0,0,0-1,1.46h0v9.38h0a1.76,1.76,0,0,0,1,1.45,5.53,5.53,0,0,0,5,0,1.76,1.76,0,0,0,1-1.45h0V147Z" transform="translate(-3.8 0.59)"/><path class="cls-7" d="M106.51,137.58a2.86,2.86,0,0,0-1.68-2.35,9,9,0,0,0-8.13,0A2.86,2.86,0,0,0,95,137.58h0v9.22h0a2.73,2.73,0,0,0,1.65,2.5,9,9,0,0,0,8.13,0,2.73,2.73,0,0,0,1.65-2.5h0v-9.22Z" transform="translate(-3.8 0.59)"/><g id="Cloud-2" data-name="Cloud"><path class="cls-19" d="M199.38,50.3v0l-.46-.26-.28-.16L188.59,44c0-.23,0-.47,0-.7,0-12.37-4.16-21-10.72-24.67h0L158.54,7.48v0c-5.32-3.06-12.26-2.78-19.85,1.6a45.51,45.51,0,0,0-9.57,7.6,19.94,19.94,0,0,0-4.19-3.32h0L106.23,2.61v0c-6.85-4.54-16-4.45-26.1,1.38C59,16.24,41.77,49.06,41.77,77.31a59.7,59.7,0,0,0,.71,9.35l-2.64,1.53C26.36,96,15.43,116.85,15.43,134.82h0c0,9.92,3.34,17,8.59,20h0L43.6,166.17h0c4.25,2.43,9.75,2.24,15.77-1.23l35.49-20.49,94.55-54.59c8.09-4.67,14.65-17.2,14.65-28h0C204.06,56.23,202.25,52.21,199.38,50.3Z" transform="translate(-3.8 0.59)"/><path class="cls-20" d="M199.38,50.3v0l-.46-.26-.28-.16L188.59,44c0-.23,0-.47,0-.7,0-12.37-4.16-21-10.72-24.67h0L158.54,7.48v0c-5.32-3.06-12.26-2.78-19.85,1.6a45.51,45.51,0,0,0-9.57,7.6,19.94,19.94,0,0,0-4.19-3.32h0L106.23,2.61v0c-6.85-4.54-16-4.45-26.1,1.38C59,16.24,41.77,49.06,41.77,77.31a59.7,59.7,0,0,0,.71,9.35l-2.64,1.53C26.36,96,15.43,116.85,15.43,134.82h0c0,9.92,3.34,17,8.59,20h0L43.6,166.17h0c4.25,2.43,9.75,2.24,15.77-1.23l35.49-20.49,94.55-54.59c8.09-4.67,14.65-17.2,14.65-28h0C204.06,56.23,202.25,52.21,199.38,50.3Z" transform="translate(-3.8 0.59)"/><path class="cls-21" d="M177.9,18.66h0c-5.29-2.95-12.16-2.61-19.65,1.72a46.11,46.11,0,0,0-10,8.07L130.44,18.14l-1.74-1,.43-.44A45.78,45.78,0,0,1,138.7,9.1c7.59-4.38,14.53-4.66,19.85-1.6v0Z" transform="translate(-3.8 0.59)"/><path class="cls-22" d="M129.13,16.69c.46.46.89.94,1.31,1.45l-1.74-1Z" transform="translate(-3.8 0.59)"/><path class="cls-21" d="M124.47,13.1h0c-6.68-3.72-15.34-3.29-24.8,2.17s-18.4,15.34-25.13,27L55,31C61.74,19.35,70.52,9.56,80.13,4c10.09-5.82,19.26-5.91,26.11-1.37v0Z" transform="translate(-3.8 0.59)"/><path class="cls-21" d="M62,97.94l-2.65,1.52c-9.13,5.27-17.1,16.57-21.27,28.9L18.56,117.08c3.33-9.83,9.07-19,15.89-25l8-5.44Z" transform="translate(-3.8 0.59)"/><path class="cls-3" d="M189.41,50.81l-1.4.81a61.47,61.47,0,0,0,.59-8.28c0-22.36-13.6-32.64-30.37-23-7.77,4.49-14.87,12.49-20.24,22-.76-26.92-17.62-39.06-38.32-27.1C78.48,27.52,61.3,60.33,61.3,88.58A59.73,59.73,0,0,0,62,97.94l-2.64,1.52C45.89,107.25,35,128.12,35,146.1h0c0,18,10.93,26.62,24.41,18.84l35.49-20.49h0l94.55-54.59c8.09-4.67,14.65-17.2,14.65-28h0C204.06,51.1,197.5,46.14,189.41,50.81Z" transform="translate(-3.8 0.59)"/><path class="cls-23" d="M189.41,50.81l-1.4.81a61.47,61.47,0,0,0,.59-8.28c0-22.36-13.6-32.64-30.37-23-7.77,4.49-14.87,12.49-20.24,22-.76-26.92-17.62-39.06-38.32-27.1C78.48,27.52,61.3,60.33,61.3,88.58A59.73,59.73,0,0,0,62,97.94l-2.64,1.52C45.89,107.25,35,128.12,35,146.1h0c0,18,10.93,26.62,24.41,18.84l35.49-20.49h0l94.55-54.59c8.09-4.67,14.65-17.2,14.65-28h0C204.06,51.1,197.5,46.14,189.41,50.81Z" transform="translate(-3.8 0.59)"/><path class="cls-23" d="M49.86,162.81c-6,0-9.9-6.56-9.9-16.71,0-16.08,10-35.45,21.91-42.31l2.64-1.52A5,5,0,0,0,67,97.16h0a54.82,54.82,0,0,1-.65-8.58c0-26.61,16.09-57.55,35.86-69,4.52-2.61,8.81-3.94,12.73-3.94,10.7,0,17.64,10.29,18.1,26.85h0a5,5,0,0,0,9.35,2.32h0c5.15-9.11,11.68-16.26,18.39-20.14a19.48,19.48,0,0,1,9.56-3c8.08,0,13.31,8.48,13.31,21.6a56,56,0,0,1-.54,7.6h0a5,5,0,0,0,7.45,5l1.4-.81a7,7,0,0,1,3.32-1.09c2.64,0,3.83,3.93,3.83,7.83,0,9-5.57,19.85-12.15,23.65l-130,75.08a14.31,14.31,0,0,1-7,2.2Z" transform="translate(-3.8 0.59)"/></g></g></svg>