<?xml version="1.0" encoding="utf-8"?>
<!-- Generator: Adobe Illustrator 24.0.1, SVG Export Plug-In . SVG Version: 6.00 Build 0)  -->
<svg version="1.1" id="Layer_1" xmlns="http://www.w3.org/2000/svg" xmlns:xlink="http://www.w3.org/1999/xlink" x="0px" y="0px"
	 viewBox="0 0 506.5 230.4" style="enable-background:new 0 0 506.5 230.4;" xml:space="preserve">
<style type="text/css">
	.st0{fill:#5A62AA;}
	.st1{fill:#5F328A;}
	.st2{clip-path:url(#SVGID_2_);fill:#E52521;}
	.st3{clip-path:url(#SVGID_4_);fill:#F07E46;}
	.st4{clip-path:url(#SVGID_6_);fill:#F4E600;}
	.st5{clip-path:url(#SVGID_8_);fill:#67B32E;}
	.st6{clip-path:url(#SVGID_10_);fill:#6FC7DA;}
	.st7{clip-path:url(#SVGID_12_);fill:#2B4B9B;}
	.st8{clip-path:url(#SVGID_14_);fill:#A6539B;}
	.st9{fill:#2B4B9B;}
</style>
<g>
	<g>
		<path class="st0" d="M2.1,215c0,0.4,0.1,0.9,0.3,1.5s0.4,1.2,0.8,1.7c0.4,0.6,1,1,1.8,1.4c0.8,0.4,1.8,0.6,3.2,0.6
			c1.6,0,3-0.4,4-1.1s1.5-1.9,1.5-3.4c0-1.3-0.3-2.3-0.9-3c-0.6-0.8-1.4-1.4-2.4-1.9c-0.9-0.5-2-1-3.1-1.4s-2.1-0.9-3.1-1.5
			s-1.7-1.3-2.4-2.2c-0.6-0.9-0.9-2-0.9-3.4c0-1.1,0.2-2,0.6-2.9c0.4-0.8,0.9-1.5,1.6-2.1s1.4-1,2.3-1.3s1.8-0.4,2.7-0.4
			c0.9,0,1.8,0.1,2.7,0.4s1.6,0.6,2.3,1.1c0.7,0.5,1.2,1.1,1.7,1.8s0.7,1.5,0.9,2.4h-2.1c-0.2-1.4-0.7-2.5-1.7-3.1s-2.1-1-3.5-1
			c-0.8,0-1.5,0.1-2.2,0.3s-1.2,0.5-1.6,0.9s-0.8,0.8-1,1.3s-0.3,1.1-0.3,1.6c0,1,0.3,1.9,1,2.5s1.5,1.2,2.4,1.7
			c1,0.5,2,0.9,3.2,1.4s2.2,1,3.2,1.6s1.8,1.4,2.4,2.4c0.6,0.9,1,2.2,1,3.7c0,1.1-0.2,2.1-0.6,3c-0.4,0.9-0.9,1.6-1.6,2.3
			c-0.7,0.6-1.5,1.1-2.5,1.4c-1,0.3-2.1,0.5-3.3,0.5c-1.2,0-2.3-0.2-3.3-0.5s-1.9-0.8-2.6-1.4c-0.7-0.6-1.3-1.3-1.8-2.1
			C0.3,217,0.1,216,0,215L2.1,215L2.1,215z"/>
		<path class="st0" d="M21.7,203.4h2.7v2.9h0.1c0.8-2.2,2.4-3.3,4.9-3.3c1,0,2,0.2,2.9,0.7s1.6,1.1,2.3,1.9s1.1,1.8,1.5,3
			c0.3,1.1,0.5,2.4,0.5,3.9c0,1.4-0.2,2.7-0.5,3.9s-0.8,2.2-1.5,3c-0.6,0.8-1.4,1.4-2.3,1.9c-0.9,0.4-1.8,0.7-2.9,0.7
			c-0.5,0-1-0.1-1.5-0.2s-1-0.3-1.4-0.6c-0.4-0.3-0.8-0.6-1.2-1.1c-0.3-0.4-0.6-1-0.8-1.6h-0.1v12h-2.7
			C21.7,230.4,21.7,203.4,21.7,203.4z M24.3,213.7c0,1,0.1,1.9,0.4,2.6s0.6,1.4,1,2c0.4,0.5,0.9,0.9,1.4,1.2
			c0.5,0.3,1.1,0.4,1.7,0.4c0.6,0,1.3-0.1,1.8-0.4s1.1-0.7,1.5-1.3c0.4-0.6,0.8-1.4,1.1-2.4c0.3-1,0.4-2.1,0.4-3.5
			c0-1.4-0.1-2.5-0.4-3.5s-0.6-1.7-1-2.3c-0.4-0.6-1-1-1.5-1.3s-1.2-0.4-1.9-0.4c-0.6,0-1.2,0.1-1.7,0.4s-1,0.7-1.4,1.2
			c-0.4,0.5-0.7,1.1-0.9,1.8c-0.2,0.7-0.3,1.5-0.3,2.3C24.3,210.6,24.3,213.7,24.3,213.7z"/>
		<path class="st0" d="M43.4,213.2c0,1.5,0.2,2.7,0.6,3.6c0.4,0.9,0.8,1.7,1.4,2.2s1.2,0.9,1.8,1.1s1.3,0.3,1.9,0.3
			c0.5,0,1-0.1,1.4-0.2c0.4-0.1,0.8-0.3,1.2-0.6c0.4-0.2,0.8-0.5,1.2-0.9c0.4-0.4,0.8-0.8,1.2-1.2l1,1.1c-0.8,1-1.8,1.8-2.9,2.3
			c-1.1,0.5-2.4,0.8-3.7,0.8c-1.4,0-2.6-0.3-3.6-0.8c-1-0.5-1.8-1.3-2.5-2.2s-1.2-1.9-1.5-3.1c-0.3-1.1-0.5-2.3-0.5-3.5
			c0-1.4,0.2-2.7,0.6-3.9c0.4-1.1,0.9-2.1,1.6-2.9c0.7-0.8,1.5-1.4,2.3-1.8c0.9-0.4,1.9-0.6,2.9-0.6c1,0,2,0.2,2.8,0.6
			c0.9,0.4,1.7,1,2.4,1.7c0.7,0.8,1.2,1.7,1.6,2.9s0.6,2.6,0.6,4.2v0.8L43.4,213.2L43.4,213.2z M52.5,211.7c0-2.3-0.4-4.2-1.2-5.5
			s-2-2-3.4-2c-0.8,0-1.4,0.2-2,0.6s-1,1-1.4,1.7s-0.6,1.5-0.8,2.4s-0.3,1.8-0.3,2.8L52.5,211.7L52.5,211.7z"/>
		<path class="st0" d="M70.3,219.4c0.7-0.3,1.4-0.8,2.2-1.5l0.9,1.4c-0.7,0.6-1.6,1.2-2.6,1.7s-2.2,0.8-3.6,0.8
			c-1.2,0-2.3-0.3-3.3-0.7s-1.8-1.2-2.5-2s-1.2-1.9-1.6-3c-0.4-1.2-0.6-2.4-0.6-3.8c0-1.3,0.2-2.5,0.5-3.6c0.3-1.1,0.9-2.1,1.5-3
			s1.5-1.5,2.5-2c1-0.5,2.2-0.7,3.5-0.7c0.6,0,1.3,0.1,1.9,0.2c0.7,0.1,1.3,0.4,1.9,0.7c0.6,0.4,1.1,0.8,1.6,1.4
			c0.5,0.6,0.8,1.3,1,2.1h-2.2c-0.2-0.8-0.7-1.6-1.4-2.1c-0.7-0.6-1.5-0.9-2.5-0.9c-0.6,0-1.2,0.1-1.8,0.4c-0.7,0.3-1.2,0.7-1.8,1.3
			c-0.5,0.6-1,1.4-1.3,2.4c-0.3,1-0.5,2.3-0.5,3.7c0,1.4,0.2,2.6,0.5,3.6s0.8,1.8,1.3,2.3c0.5,0.6,1.2,1,1.9,1.3
			c0.7,0.3,1.4,0.4,2.2,0.4C68.8,219.9,69.6,219.8,70.3,219.4z"/>
		<path class="st0" d="M76.3,204.8v-1.4H79v-5.6h2.7v5.6h3.8v1.4h-3.8v12c0,0.3,0,0.6,0,1c0,0.4,0.1,0.7,0.2,1.1
			c0.1,0.3,0.3,0.6,0.5,0.8c0.2,0.2,0.5,0.3,0.9,0.3c0.5,0,0.9-0.2,1.3-0.6s0.6-0.9,0.8-1.4l1.5,1.7c-1,1.2-2.2,1.8-3.5,1.8
			c-0.5,0-1.1-0.1-1.6-0.3c-0.5-0.2-1-0.6-1.4-1c-0.4-0.4-0.7-1-1-1.7c-0.3-0.7-0.4-1.5-0.4-2.4v-11.1L76.3,204.8L76.3,204.8z"/>
		<path class="st0" d="M93,203.4v2.9h0.2c0.4-1.1,0.8-1.9,1.4-2.4c0.6-0.6,1.3-0.8,2.2-0.8c0.1,0,0.3,0,0.5,0.1
			c0.2,0,0.5,0.1,0.7,0.2s0.5,0.3,0.8,0.4s0.5,0.4,0.7,0.7l-1.1,2.2c-0.2-0.3-0.5-0.6-0.9-1c-0.4-0.4-0.8-0.5-1.3-0.5
			c-0.3,0-0.7,0.1-1.1,0.3c-0.4,0.2-0.7,0.5-1,0.9c-0.3,0.4-0.6,1-0.8,1.7s-0.3,1.5-0.3,2.5v10.9h-2.7v-18L93,203.4L93,203.4z"/>
		<path class="st0" d="M105.8,203.4v11.9c0,0.2,0,0.6,0.1,1.1s0.2,1,0.4,1.6c0.2,0.5,0.6,1,1.1,1.4s1.2,0.6,2.1,0.6
			c0.5,0,1.1-0.1,1.6-0.3s0.9-0.6,1.3-1c0.4-0.4,0.7-1,0.9-1.7c0.2-0.7,0.3-1.5,0.3-2.4v-11.2h2.7v18h-2.7v-2.3h-0.1l-0.5,0.6
			c-0.7,0.8-1.4,1.4-2.2,1.7s-1.4,0.4-2,0.4c-1.4,0-2.4-0.3-3.2-0.8c-0.8-0.5-1.3-1.2-1.7-1.9s-0.6-1.5-0.6-2.2
			c-0.1-0.8-0.1-1.4-0.1-1.8v-11.7H105.8z"/>
		<path class="st0" d="M122.1,221.4v-18h2.7v2.9h0.1c0.3-0.7,0.6-1.3,0.9-1.7c0.4-0.4,0.8-0.8,1.2-1c0.4-0.2,0.9-0.4,1.3-0.5
			c0.4-0.1,0.8-0.1,1.1-0.1c0.7,0,1.3,0.1,1.8,0.3c0.5,0.2,0.9,0.5,1.3,0.8c0.4,0.3,0.6,0.7,0.9,1.1c0.2,0.4,0.4,0.8,0.5,1.2h0.2
			c0.3-0.8,0.7-1.4,1.1-1.8s0.9-0.8,1.3-1.1s0.9-0.4,1.3-0.5c0.4-0.1,0.8-0.1,1.1-0.1c1.1,0,1.9,0.2,2.6,0.6
			c0.7,0.4,1.2,0.9,1.5,1.5s0.6,1.2,0.7,1.9c0.1,0.7,0.2,1.3,0.2,1.9v12.6h-2.7v-11.5c0-0.8,0-1.5-0.1-2.2c-0.1-0.6-0.2-1.1-0.4-1.6
			c-0.2-0.4-0.5-0.8-0.9-1c-0.4-0.2-0.9-0.3-1.6-0.3c-0.9,0-1.6,0.2-2.1,0.7s-0.9,1-1.2,1.7c-0.3,0.6-0.4,1.3-0.5,2.1
			c-0.1,0.7-0.1,1.4-0.1,1.9v10.3h-2.7v-11.5c0-0.4,0-0.9-0.1-1.5s-0.1-1.1-0.3-1.7s-0.5-1-0.9-1.3s-0.9-0.5-1.6-0.5
			c-1,0-1.7,0.3-2.3,0.7s-0.9,1.1-1.2,1.8c-0.3,0.7-0.4,1.4-0.5,2.1c-0.1,0.7-0.1,1.3-0.1,1.7v10.3L122.1,221.4L122.1,221.4z"/>
		<path class="st1" d="M163,221.4v-25.3h7.2c1.7,0,3.3,0.3,4.8,1s2.7,1.5,3.7,2.6c1,1.1,1.8,2.4,2.4,4c0.6,1.5,0.9,3.2,0.9,5
			c0,1.9-0.3,3.6-0.9,5.1s-1.4,2.9-2.4,4s-2.2,2-3.6,2.6c-1.4,0.6-2.9,0.9-4.4,0.9L163,221.4L163,221.4z M165.8,219.8h3.4
			c1.7,0,3.2-0.3,4.4-1c1.2-0.7,2.2-1.5,2.9-2.6s1.3-2.2,1.7-3.6c0.4-1.3,0.5-2.6,0.5-3.9c0-1.4-0.2-2.8-0.6-4.2
			c-0.4-1.3-1-2.5-1.8-3.5c-0.8-1-1.8-1.8-3-2.4c-1.2-0.6-2.6-0.9-4.1-0.9h-3.4L165.8,219.8L165.8,219.8z"/>
		<path class="st1" d="M187.3,196.3c0.3-0.4,0.7-0.6,1.2-0.6s0.9,0.2,1.2,0.6s0.5,0.8,0.5,1.4s-0.2,1-0.5,1.4s-0.7,0.6-1.2,0.6
			s-0.9-0.2-1.2-0.6c-0.3-0.4-0.5-0.8-0.5-1.4S186.9,196.7,187.3,196.3z M189.8,203.4v18h-2.7v-18H189.8z"/>
		<path class="st1" d="M202.3,202.9c1.5,0,2.7,0.3,3.5,0.7s1.4,1.1,1.8,1.9c0.4,0.8,0.6,1.7,0.7,2.7s0.1,2.1,0.1,3.2v9.9h-2.5v-1.8
			c-0.6,0.7-1.4,1.2-2.3,1.6s-1.9,0.6-2.8,0.6c-0.9,0-1.7-0.2-2.4-0.5s-1.3-0.8-1.7-1.4s-0.8-1.2-1-1.9s-0.3-1.4-0.3-2.2
			c0-0.8,0.1-1.5,0.4-2.3s0.6-1.5,1.1-2.1s1.1-1.1,1.8-1.5c0.7-0.4,1.6-0.6,2.5-0.6s1.8,0.2,2.7,0.6s1.5,1,2.1,1.8v-1.6
			c0-2-0.3-3.4-0.8-4.4c-0.5-1-1.4-1.4-2.8-1.4c-0.6,0-1.1,0.1-1.5,0.3c-0.4,0.2-0.8,0.4-1.2,0.7c-0.4,0.3-0.7,0.7-1,1.1
			c-0.3,0.4-0.6,0.9-0.9,1.5l-1.6-1.9c0.3-0.4,0.6-0.7,0.9-1.1c0.3-0.4,0.7-0.7,1.2-1c0.5-0.3,1-0.5,1.7-0.7
			C200.6,203,201.4,202.9,202.3,202.9z M205.9,214.2c-0.1-0.3-0.3-0.6-0.5-1c-0.2-0.4-0.5-0.8-0.8-1.1s-0.7-0.7-1.1-0.9
			s-1-0.4-1.6-0.4s-1.2,0.1-1.7,0.4s-0.9,0.6-1.3,1.1c-0.4,0.4-0.6,1-0.8,1.6s-0.3,1.2-0.3,1.9c0,0.8,0.1,1.4,0.4,2
			c0.2,0.6,0.6,1.1,0.9,1.4c0.4,0.4,0.8,0.7,1.3,0.9c0.5,0.2,0.9,0.3,1.3,0.3c0.4,0,0.8-0.1,1.2-0.3s0.8-0.4,1.2-0.7
			c0.4-0.3,0.7-0.7,1-1.1c0.3-0.4,0.5-0.9,0.7-1.3L205.9,214.2L205.9,214.2z"/>
		<path class="st1" d="M225.4,218.5h-0.1c-0.4,1.1-1,2-1.8,2.5s-1.9,0.8-3.1,0.8c-1.1,0-2-0.2-2.9-0.7c-0.9-0.4-1.6-1.1-2.2-1.9
			s-1.1-1.8-1.4-3c-0.3-1.2-0.5-2.5-0.5-3.9c0-1.4,0.2-2.7,0.5-3.9c0.3-1.1,0.8-2.1,1.4-3s1.4-1.4,2.3-1.9s1.8-0.7,2.9-0.7
			c1.3,0,2.4,0.3,3.2,0.9c0.8,0.6,1.4,1.4,1.6,2.4h0.1v-2.8h2.7v17.7c0,1.2-0.1,2.4-0.3,3.5s-0.6,2.1-1.1,3s-1.3,1.6-2.3,2.1
			c-1,0.5-2.3,0.8-3.9,0.8c-0.9,0-1.6-0.1-2.3-0.4s-1.2-0.6-1.7-0.9c-0.5-0.4-0.9-0.7-1.2-1.1s-0.5-0.6-0.7-0.9l1.7-1.8
			c0.6,1.1,1.2,1.9,1.9,2.6c0.7,0.6,1.6,1,2.7,1c0.6,0,1.2-0.1,1.8-0.3c0.6-0.2,1-0.6,1.4-1.1c0.4-0.5,0.7-1.1,1-1.9
			s0.4-1.7,0.4-2.8L225.4,218.5L225.4,218.5z M225.4,211c0-0.8-0.1-1.6-0.3-2.4s-0.5-1.4-0.8-2c-0.4-0.6-0.8-1.1-1.4-1.4
			s-1.2-0.5-1.9-0.5c-0.3,0-0.8,0.1-1.3,0.2c-0.6,0.2-1.1,0.5-1.6,1s-1,1.3-1.4,2.3s-0.6,2.3-0.6,4c0,1.6,0.2,2.9,0.5,3.9
			c0.3,1,0.7,1.8,1.2,2.3s1,0.9,1.6,1.1s1.1,0.3,1.6,0.3c0.6,0,1.1-0.1,1.6-0.4s1-0.7,1.4-1.2c0.4-0.5,0.7-1.2,1-1.9
			s0.4-1.7,0.4-2.7L225.4,211L225.4,211z"/>
		<path class="st1" d="M244.2,221.4v-11.9c0-0.2,0-0.6-0.1-1.1c0-0.5-0.2-1.1-0.4-1.6s-0.6-1-1.1-1.4s-1.2-0.6-2-0.6
			c-0.5,0-1.1,0.1-1.6,0.3s-1,0.6-1.4,1c-0.4,0.5-0.7,1-0.9,1.7c-0.2,0.7-0.3,1.5-0.3,2.4v11.1h-2.7v-18h2.7v2.3h0.1l0.5-0.6
			c0.7-0.8,1.5-1.4,2.2-1.7s1.4-0.4,2-0.4c1.4,0,2.4,0.3,3.2,0.8s1.3,1.2,1.6,1.9s0.6,1.5,0.6,2.2s0.1,1.4,0.1,1.8v11.7L244.2,221.4
			L244.2,221.4z"/>
		<path class="st1" d="M268,212.4c0,1.3-0.2,2.4-0.6,3.6c-0.4,1.1-0.9,2.1-1.6,3c-0.7,0.9-1.5,1.6-2.5,2.1c-1,0.5-2.1,0.8-3.3,0.8
			c-1.3,0-2.4-0.3-3.4-0.8s-1.9-1.2-2.6-2.1c-0.7-0.9-1.2-1.9-1.6-3s-0.6-2.3-0.6-3.6c0-1.3,0.2-2.4,0.6-3.6s0.9-2.1,1.6-3
			c0.7-0.9,1.6-1.6,2.6-2.1c1-0.5,2.1-0.8,3.4-0.8c1.2,0,2.3,0.3,3.3,0.8s1.8,1.2,2.5,2.1c0.7,0.9,1.2,1.9,1.6,3
			C267.8,209.9,268,211.1,268,212.4z M265,212.4c0-1.7-0.2-3.1-0.5-4.1c-0.3-1.1-0.7-1.9-1.2-2.4c-0.5-0.6-1-1-1.7-1.2
			c-0.6-0.2-1.2-0.3-1.8-0.3s-1.1,0.1-1.8,0.3s-1.2,0.6-1.7,1.2s-0.9,1.4-1.3,2.4s-0.5,2.4-0.5,4.1c0,1.7,0.2,3,0.5,4.1
			c0.3,1.1,0.7,1.9,1.3,2.4s1.1,1,1.7,1.2s1.2,0.3,1.8,0.3s1.1-0.1,1.8-0.3c0.6-0.2,1.2-0.6,1.7-1.2c0.5-0.6,0.9-1.4,1.2-2.4
			C264.9,215.4,265,214.1,265,212.4z"/>
		<path class="st1" d="M281.1,207.5c0-0.3-0.1-0.6-0.2-1s-0.4-0.7-0.7-1c-0.3-0.3-0.7-0.6-1.1-0.8s-1-0.3-1.6-0.3s-1.1,0.1-1.6,0.3
			s-0.8,0.5-1,0.8c-0.3,0.3-0.4,0.6-0.5,1s-0.2,0.7-0.2,1c0,0.8,0.2,1.3,0.7,1.7c0.5,0.4,1,0.8,1.8,1.1c0.7,0.3,1.5,0.6,2.3,0.8
			s1.6,0.6,2.3,1c0.7,0.4,1.3,1,1.8,1.7s0.7,1.6,0.7,2.8c0,1.6-0.5,2.9-1.5,3.8s-2.4,1.5-4.3,1.5c-1.1,0-2-0.1-2.8-0.4
			s-1.5-0.7-2-1.2c-0.5-0.5-1-1.1-1.2-1.7c-0.3-0.6-0.4-1.3-0.4-2h2c0,0.3,0.1,0.6,0.2,1.1s0.4,0.9,0.8,1.3s0.8,0.8,1.4,1.1
			c0.6,0.3,1.3,0.4,2.1,0.4c0.7,0,1.2-0.1,1.7-0.3c0.4-0.2,0.8-0.5,1-0.8c0.3-0.3,0.4-0.6,0.5-1c0.1-0.4,0.1-0.7,0.1-1.1
			c0-0.8-0.2-1.4-0.7-1.9s-1-0.8-1.7-1.1c-0.7-0.3-1.4-0.6-2.2-0.8s-1.5-0.6-2.2-1s-1.3-0.9-1.7-1.6c-0.5-0.7-0.7-1.6-0.7-2.7
			c0-0.8,0.1-1.6,0.4-2.2s0.6-1.2,1.1-1.6c0.5-0.4,1-0.8,1.6-1c0.6-0.2,1.3-0.3,2-0.3c0.8,0,1.5,0.1,2.2,0.3
			c0.7,0.2,1.3,0.5,1.8,0.9c0.5,0.4,0.9,0.9,1.2,1.4s0.4,1.1,0.4,1.8L281.1,207.5L281.1,207.5z"/>
		<path class="st1" d="M287.1,204.8v-1.4h2.7v-5.6h2.7v5.6h3.8v1.4h-3.8v12c0,0.3,0,0.6,0,1c0,0.4,0.1,0.7,0.2,1.1
			c0.1,0.3,0.3,0.6,0.5,0.8c0.2,0.2,0.5,0.3,0.9,0.3c0.5,0,0.9-0.2,1.3-0.6s0.6-0.9,0.8-1.4l1.5,1.7c-1,1.2-2.2,1.8-3.5,1.8
			c-0.5,0-1.1-0.1-1.6-0.3c-0.5-0.2-1-0.6-1.4-1s-0.7-1-1-1.7s-0.4-1.5-0.4-2.4v-11.1L287.1,204.8L287.1,204.8z"/>
		<path class="st1" d="M302.3,196.3c0.3-0.4,0.7-0.6,1.2-0.6s0.9,0.2,1.2,0.6c0.3,0.4,0.5,0.8,0.5,1.4s-0.2,1-0.5,1.4
			c-0.3,0.4-0.7,0.6-1.2,0.6s-0.9-0.2-1.2-0.6c-0.3-0.4-0.5-0.8-0.5-1.4S302,196.7,302.3,196.3z M304.9,203.4v18h-2.7v-18H304.9z"/>
		<path class="st1" d="M321.8,219.4c0.7-0.3,1.4-0.8,2.2-1.5l0.9,1.4c-0.7,0.6-1.6,1.2-2.6,1.7s-2.2,0.8-3.6,0.8
			c-1.2,0-2.3-0.3-3.3-0.7s-1.8-1.2-2.5-2c-0.7-0.9-1.2-1.9-1.6-3c-0.4-1.2-0.6-2.4-0.6-3.8c0-1.3,0.2-2.5,0.5-3.6
			c0.3-1.1,0.9-2.1,1.5-3c0.7-0.8,1.5-1.5,2.5-2s2.2-0.7,3.5-0.7c0.6,0,1.3,0.1,2,0.2c0.7,0.1,1.3,0.4,1.9,0.7
			c0.6,0.4,1.1,0.8,1.6,1.4c0.5,0.6,0.8,1.3,1,2.1H323c-0.2-0.8-0.7-1.6-1.4-2.1s-1.5-0.9-2.5-0.9c-0.6,0-1.2,0.1-1.9,0.4
			s-1.2,0.7-1.8,1.3c-0.5,0.6-1,1.4-1.3,2.4s-0.5,2.3-0.5,3.7c0,1.4,0.2,2.6,0.5,3.6s0.8,1.8,1.3,2.3c0.5,0.6,1.2,1,1.9,1.3
			c0.7,0.3,1.4,0.4,2.2,0.4C320.3,219.9,321.1,219.8,321.8,219.4z"/>
		<path class="st0" d="M342.4,221.4v-25.3h2.8v23.3h11.3v2L342.4,221.4L342.4,221.4z"/>
		<path class="st0" d="M366.5,202.9c1.5,0,2.7,0.3,3.5,0.7c0.8,0.5,1.5,1.1,1.8,1.9c0.4,0.8,0.6,1.7,0.7,2.7s0.1,2.1,0.1,3.2v9.9
			h-2.5v-1.8c-0.6,0.7-1.4,1.2-2.3,1.6c-0.9,0.4-1.9,0.6-2.8,0.6c-0.9,0-1.7-0.2-2.4-0.5s-1.3-0.8-1.7-1.4s-0.8-1.2-1-1.9
			s-0.3-1.4-0.3-2.2c0-0.8,0.1-1.5,0.4-2.3s0.6-1.5,1.1-2.1s1.1-1.1,1.8-1.5s1.6-0.6,2.5-0.6s1.8,0.2,2.7,0.6c0.8,0.4,1.5,1,2.1,1.8
			v-1.6c0-2-0.3-3.4-0.8-4.4c-0.5-1-1.5-1.4-2.8-1.4c-0.6,0-1.1,0.1-1.5,0.3s-0.8,0.4-1.2,0.7s-0.7,0.7-1,1.1s-0.6,0.9-0.9,1.5
			l-1.6-1.9c0.3-0.4,0.6-0.7,0.9-1.1s0.7-0.7,1.2-1c0.5-0.3,1-0.5,1.7-0.7C364.8,203,365.5,202.9,366.5,202.9z M370,214.2
			c-0.1-0.3-0.3-0.6-0.5-1c-0.2-0.4-0.5-0.8-0.8-1.1s-0.7-0.7-1.1-0.9s-1-0.4-1.6-0.4c-0.6,0-1.2,0.1-1.7,0.4s-0.9,0.6-1.3,1.1
			c-0.4,0.4-0.6,1-0.8,1.6s-0.3,1.2-0.3,1.9c0,0.8,0.1,1.4,0.4,2c0.2,0.6,0.5,1.1,0.9,1.4c0.4,0.4,0.8,0.7,1.3,0.9
			c0.5,0.2,0.9,0.3,1.3,0.3c0.4,0,0.8-0.1,1.2-0.3s0.8-0.4,1.2-0.7s0.7-0.7,1-1.1c0.3-0.4,0.5-0.9,0.7-1.3L370,214.2L370,214.2z"/>
		<path class="st0" d="M378.4,196.1h2.7v10.2h0.1c0.2-0.6,0.5-1.1,0.8-1.6s0.7-0.8,1.2-1s0.9-0.5,1.4-0.6c0.5-0.1,1-0.2,1.5-0.2
			c1,0,2,0.2,2.9,0.7s1.6,1.1,2.3,1.9s1.1,1.8,1.5,3c0.4,1.1,0.5,2.4,0.5,3.9c0,1.4-0.2,2.8-0.5,3.9s-0.9,2.2-1.5,3
			c-0.6,0.8-1.4,1.5-2.3,1.9c-0.9,0.4-1.8,0.7-2.9,0.7c-2.5,0-4.1-1.1-4.9-3.4H381v2.9h-2.7V196.1z M381,214.2
			c0,0.8,0.1,1.6,0.3,2.3s0.5,1.3,0.9,1.8c0.4,0.5,0.9,0.9,1.4,1.2c0.5,0.3,1.1,0.4,1.7,0.4c0.6,0,1.3-0.1,1.9-0.4s1.1-0.7,1.5-1.3
			c0.4-0.6,0.8-1.4,1-2.3c0.3-1,0.4-2.1,0.4-3.5c0-1.4-0.1-2.5-0.4-3.5s-0.6-1.8-1.1-2.4c-0.5-0.6-1-1.1-1.5-1.3
			c-0.6-0.3-1.2-0.4-1.9-0.4c-0.6,0-1.1,0.1-1.7,0.4s-1,0.7-1.4,1.2s-0.7,1.2-1,2c-0.2,0.8-0.4,1.6-0.4,2.6L381,214.2L381,214.2z"/>
		<path class="st0" d="M413.3,212.4c0,1.3-0.2,2.4-0.6,3.6c-0.4,1.1-0.9,2.1-1.6,3c-0.7,0.9-1.5,1.6-2.5,2.1c-1,0.5-2.1,0.8-3.3,0.8
			c-1.3,0-2.4-0.3-3.4-0.8s-1.9-1.2-2.6-2.1c-0.7-0.9-1.2-1.9-1.6-3s-0.6-2.3-0.6-3.6c0-1.3,0.2-2.4,0.6-3.6c0.4-1.1,0.9-2.1,1.6-3
			c0.7-0.9,1.5-1.6,2.6-2.1c1-0.5,2.1-0.8,3.4-0.8c1.2,0,2.3,0.3,3.3,0.8s1.8,1.2,2.5,2.1c0.7,0.9,1.2,1.9,1.6,3
			C413.1,209.9,413.3,211.1,413.3,212.4z M410.3,212.4c0-1.7-0.2-3.1-0.5-4.1c-0.3-1.1-0.7-1.9-1.2-2.4c-0.5-0.6-1-1-1.7-1.2
			c-0.6-0.2-1.2-0.3-1.8-0.3s-1.1,0.1-1.8,0.3s-1.2,0.6-1.7,1.2s-0.9,1.4-1.3,2.4s-0.5,2.4-0.5,4.1c0,1.7,0.2,3,0.5,4.1
			s0.7,1.9,1.3,2.4s1.1,1,1.7,1.2s1.2,0.3,1.8,0.3s1.1-0.1,1.8-0.3c0.6-0.2,1.2-0.6,1.7-1.2c0.5-0.6,0.9-1.4,1.2-2.4
			C410.2,215.4,410.3,214.1,410.3,212.4z"/>
		<path class="st0" d="M420.8,203.4v2.9h0.2c0.4-1.1,0.9-1.9,1.4-2.4c0.6-0.6,1.3-0.8,2.2-0.8c0.1,0,0.3,0,0.5,0.1
			c0.2,0,0.5,0.1,0.7,0.2s0.5,0.3,0.8,0.4s0.5,0.4,0.7,0.7l-1.1,2.2c-0.2-0.3-0.5-0.6-0.9-1s-0.9-0.5-1.3-0.5
			c-0.4,0-0.7,0.1-1.1,0.3s-0.7,0.5-1,0.9c-0.3,0.4-0.6,1-0.8,1.7c-0.2,0.7-0.3,1.5-0.3,2.5v10.9h-2.7v-18L420.8,203.4L420.8,203.4z
			"/>
		<path class="st0" d="M436.6,202.9c1.5,0,2.7,0.3,3.5,0.7c0.8,0.5,1.5,1.1,1.8,1.9c0.4,0.8,0.6,1.7,0.7,2.7s0.1,2.1,0.1,3.2v9.9
			h-2.5v-1.8c-0.6,0.7-1.4,1.2-2.3,1.6c-0.9,0.4-1.9,0.6-2.8,0.6c-0.9,0-1.7-0.2-2.4-0.5s-1.3-0.8-1.7-1.4s-0.8-1.2-1-1.9
			s-0.3-1.4-0.3-2.2c0-0.8,0.1-1.5,0.4-2.3s0.6-1.5,1.1-2.1s1.1-1.1,1.8-1.5s1.6-0.6,2.5-0.6s1.8,0.2,2.7,0.6c0.8,0.4,1.5,1,2.1,1.8
			v-1.6c0-2-0.3-3.4-0.8-4.4c-0.5-1-1.5-1.4-2.8-1.4c-0.6,0-1.1,0.1-1.5,0.3s-0.8,0.4-1.2,0.7s-0.7,0.7-1,1.1s-0.6,0.9-0.9,1.5
			l-1.6-1.9c0.3-0.4,0.6-0.7,0.9-1.1s0.7-0.7,1.2-1c0.5-0.3,1-0.5,1.7-0.7C434.9,203,435.7,202.9,436.6,202.9z M440.2,214.2
			c-0.1-0.3-0.3-0.6-0.5-1c-0.2-0.4-0.5-0.8-0.8-1.1s-0.7-0.7-1.1-0.9s-1-0.4-1.6-0.4c-0.6,0-1.2,0.1-1.7,0.4s-0.9,0.6-1.3,1.1
			c-0.4,0.4-0.6,1-0.8,1.6s-0.3,1.2-0.3,1.9c0,0.8,0.1,1.4,0.4,2c0.2,0.6,0.5,1.1,0.9,1.4c0.4,0.4,0.8,0.7,1.3,0.9
			c0.5,0.2,0.9,0.3,1.3,0.3c0.4,0,0.8-0.1,1.2-0.3s0.8-0.4,1.2-0.7s0.7-0.7,1-1.1c0.3-0.4,0.5-0.9,0.7-1.3L440.2,214.2L440.2,214.2z
			"/>
		<path class="st0" d="M447,204.8v-1.4h2.7v-5.6h2.7v5.6h3.8v1.4h-3.8v12c0,0.3,0,0.6,0,1c0,0.4,0.1,0.7,0.2,1.1
			c0.1,0.3,0.3,0.6,0.5,0.8c0.2,0.2,0.5,0.3,0.9,0.3c0.5,0,0.9-0.2,1.3-0.6s0.6-0.9,0.8-1.4l1.5,1.7c-1,1.2-2.2,1.8-3.5,1.8
			c-0.5,0-1.1-0.1-1.6-0.3c-0.5-0.2-1-0.6-1.4-1s-0.7-1-1-1.7s-0.4-1.5-0.4-2.4v-11.1L447,204.8L447,204.8z"/>
		<path class="st0" d="M476.3,212.4c0,1.3-0.2,2.4-0.6,3.6c-0.4,1.1-0.9,2.1-1.6,3c-0.7,0.9-1.5,1.6-2.5,2.1c-1,0.5-2.1,0.8-3.3,0.8
			c-1.3,0-2.4-0.3-3.4-0.8s-1.9-1.2-2.6-2.1c-0.7-0.9-1.2-1.9-1.6-3s-0.6-2.3-0.6-3.6c0-1.3,0.2-2.4,0.6-3.6c0.4-1.1,0.9-2.1,1.6-3
			c0.7-0.9,1.5-1.6,2.6-2.1c1-0.5,2.1-0.8,3.4-0.8c1.2,0,2.3,0.3,3.3,0.8s1.8,1.2,2.5,2.1c0.7,0.9,1.2,1.9,1.6,3
			C476.1,209.9,476.3,211.1,476.3,212.4z M473.3,212.4c0-1.7-0.2-3.1-0.5-4.1c-0.3-1.1-0.7-1.9-1.2-2.4c-0.5-0.6-1-1-1.7-1.2
			c-0.6-0.2-1.2-0.3-1.8-0.3s-1.1,0.1-1.8,0.3s-1.2,0.6-1.7,1.2s-0.9,1.4-1.3,2.4s-0.5,2.4-0.5,4.1c0,1.7,0.2,3,0.5,4.1
			s0.7,1.9,1.3,2.4s1.1,1,1.7,1.2s1.2,0.3,1.8,0.3s1.1-0.1,1.8-0.3c0.6-0.2,1.2-0.6,1.7-1.2c0.5-0.6,0.9-1.4,1.2-2.4
			C473.2,215.4,473.3,214.1,473.3,212.4z"/>
		<path class="st0" d="M483.8,203.4v2.9h0.2c0.4-1.1,0.9-1.9,1.4-2.4c0.6-0.6,1.3-0.8,2.2-0.8c0.1,0,0.3,0,0.5,0.1
			c0.2,0,0.5,0.1,0.7,0.2s0.5,0.3,0.8,0.4s0.5,0.4,0.7,0.7l-1.1,2.2c-0.2-0.3-0.5-0.6-0.9-1s-0.9-0.5-1.3-0.5
			c-0.4,0-0.7,0.1-1.1,0.3s-0.7,0.5-1,0.9c-0.3,0.4-0.6,1-0.8,1.7c-0.2,0.7-0.3,1.5-0.3,2.5v10.9h-2.7v-18L483.8,203.4L483.8,203.4z
			"/>
		<path class="st0" d="M500.1,217.2l4.9-13.8h1.5l-7.6,21.5c-0.2,0.6-0.5,1.3-0.7,2c-0.3,0.7-0.5,1.3-0.9,1.8
			c-0.3,0.5-0.7,1-1.2,1.3c-0.4,0.3-1,0.5-1.5,0.5c-0.4,0-0.9-0.1-1.3-0.3s-0.9-0.5-1.3-0.9l1.4-3c0.2,0.5,0.5,0.9,0.8,1.1
			c0.3,0.3,0.7,0.4,1.1,0.4c0.4,0,0.8-0.2,1-0.5s0.5-0.8,0.7-1.3l1.7-4.7l-7-17.8h2.9l5.4,13.8L500.1,217.2L500.1,217.2z"/>
	</g>
	<g>
		<g>
			<g>
				<defs>
					<rect id="SVGID_1_" x="156.2" y="11.2" width="14.1" height="167.5"/>
				</defs>
				<clipPath id="SVGID_2_">
					<use xlink:href="#SVGID_1_"  style="overflow:visible;"/>
				</clipPath>
				<polygon class="st2" points="145.5,34 145.5,0 191,14.5 191,48.5 				"/>
			</g>
			<g>
				<defs>
					<rect id="SVGID_3_" x="156.2" y="11.2" width="14.1" height="167.5"/>
				</defs>
				<clipPath id="SVGID_4_">
					<use xlink:href="#SVGID_3_"  style="overflow:visible;"/>
				</clipPath>
				<polygon class="st3" points="145.5,56.6 145.5,33.9 191,43.6 191,66.2 				"/>
			</g>
			<g>
				<defs>
					<rect id="SVGID_5_" x="156.2" y="11.2" width="14.1" height="167.5"/>
				</defs>
				<clipPath id="SVGID_6_">
					<use xlink:href="#SVGID_5_"  style="overflow:visible;"/>
				</clipPath>
				<polygon class="st4" points="145.5,79.3 145.5,56.6 191,66.3 191,89 				"/>
			</g>
			<g>
				<defs>
					<rect id="SVGID_7_" x="156.2" y="11.2" width="14.1" height="167.5"/>
				</defs>
				<clipPath id="SVGID_8_">
					<use xlink:href="#SVGID_7_"  style="overflow:visible;"/>
				</clipPath>
				<polygon class="st5" points="145.5,102 145.5,79.4 191,89 191,111.7 				"/>
			</g>
			<g>
				<defs>
					<rect id="SVGID_9_" x="156.2" y="11.2" width="14.1" height="167.5"/>
				</defs>
				<clipPath id="SVGID_10_">
					<use xlink:href="#SVGID_9_"  style="overflow:visible;"/>
				</clipPath>
				<polygon class="st6" points="145.5,124.8 145.5,102.1 191,111.8 191,134.4 				"/>
			</g>
			<g>
				<defs>
					<rect id="SVGID_11_" x="156.2" y="11.2" width="14.1" height="167.5"/>
				</defs>
				<clipPath id="SVGID_12_">
					<use xlink:href="#SVGID_11_"  style="overflow:visible;"/>
				</clipPath>
				<polygon class="st7" points="145.5,147.5 145.5,124.8 191,134.5 191,157.2 				"/>
			</g>
			<g>
				<defs>
					<rect id="SVGID_13_" x="156.2" y="11.2" width="14.1" height="167.5"/>
				</defs>
				<clipPath id="SVGID_14_">
					<use xlink:href="#SVGID_13_"  style="overflow:visible;"/>
				</clipPath>
				<polygon class="st8" points="145.5,178.9 145.5,143.5 191,158.6 191,194.1 				"/>
			</g>
		</g>
		<g>
			<g>
				<path class="st1" d="M208.1,114.3c0.1,1.8,0.5,4,1.3,6.6c0.7,2.6,2.2,5.1,4.3,7.5c2.1,2.4,5.2,4.5,9.2,6.2c4,1.7,9.3,2.6,16,2.6
					c8.3,0,15-1.6,20-4.7c5-3.2,7.5-8.2,7.5-15c0-5.5-1.6-9.8-4.7-13.1c-3.2-3.3-7.1-6-11.9-8.3c-4.8-2.3-10-4.3-15.6-6.1
					c-5.6-1.8-10.8-3.9-15.6-6.5c-4.8-2.5-8.8-5.7-11.9-9.5c-3.2-3.8-4.7-8.8-4.7-15c0-4.7,1-9,2.9-12.6s4.6-6.7,7.9-9.2
					c3.3-2.4,7.2-4.3,11.6-5.5s9-1.9,13.9-1.9c4.6,0,9.1,0.5,13.4,1.7c4.3,1.1,8.1,2.7,11.5,4.9s6.2,4.8,8.4,7.9
					c2.2,3.1,3.6,6.6,4.3,10.5h-10.8c-0.9-6.2-3.7-10.8-8.5-13.7c-4.8-2.9-10.6-4.3-17.5-4.3c-4.1,0-7.8,0.5-10.9,1.5s-5.8,2.3-8,4
					c-2.2,1.6-3.8,3.6-4.9,5.8s-1.7,4.6-1.7,7.1c0,4.5,1.6,8.2,4.9,10.9c3.3,2.7,7.4,5.2,12.3,7.3c4.9,2.1,10.3,4.1,16,6
					s11.1,4.2,16,7c4.9,2.8,9,6.3,12.3,10.4c3.3,4.2,4.9,9.5,4.9,16.1c0,4.7-1,9.1-2.9,13c-1.9,3.9-4.6,7.2-8.1,10
					c-3.5,2.7-7.7,4.9-12.6,6.3c-4.9,1.5-10.4,2.2-16.6,2.2c-6,0-11.6-0.7-16.6-2.1s-9.5-3.4-13.2-6c-3.8-2.6-6.7-5.7-8.9-9.4
					c-2.2-3.7-3.4-7.8-3.6-12.3L208.1,114.3L208.1,114.3z"/>
				<path class="st1" d="M310.8,142.3V31.7h36.4c8.8,0,16.8,1.4,24,4.2s13.5,6.6,18.7,11.5s9.3,10.7,12.2,17.5
					c2.9,6.8,4.4,14,4.4,21.8c0,8.1-1.5,15.6-4.5,22.4c-3,6.8-7.1,12.7-12.3,17.6c-5.2,5-11.3,8.8-18.3,11.5
					c-7,2.7-14.4,4.1-22.3,4.1L310.8,142.3L310.8,142.3z M325.2,135.4h17.4c8.6,0,16-1.4,22-4.4c6-2.9,11-6.7,14.9-11.3
					c3.9-4.6,6.7-9.8,8.5-15.6c1.8-5.7,2.7-11.5,2.7-17.2c0-6.3-1-12.4-3.2-18.3c-2.1-5.8-5.2-11-9.2-15.5c-4-4.5-9.1-8-15.1-10.7
					c-6-2.6-12.9-4-20.7-4h-17.4L325.2,135.4L325.2,135.4z"/>
				<path class="st1" d="M430.2,142.3V31.7h14.4v102h57.1v8.7L430.2,142.3L430.2,142.3z"/>
			</g>
		</g>
		<g>
			<path class="st9" d="M132.1,156.3c-0.5-4.2-2.3-7.7-4.3-11.2c-12-21.5-24-42.9-36-64.4c-0.5-0.9-0.8-2.2-0.8-3.2
				c-0.1-14.8-0.1-29.5-0.1-44.3V25c1.4-0.3,2.6-0.3,3.8-0.6c3.1-1.1,4.9-4.4,4.3-7.8c-0.5-2.9-3.4-5.4-6.5-5.4
				c-9.4-0.1-18.8-0.1-28.3-0.1c-8.2,0-16.4,0-24.5,0.1c-3.4,0-6.1,2.8-6.3,6.3c-0.3,3.4,2,6.5,5.2,7.2c0.9,0.2,1.8,0.1,2.8,0.3
				c0.1,0.5,0.1,0.9,0.1,1.3V78c0,0.8-0.3,1.6-0.6,2.3c-4.5,8.2-9.1,16.3-13.7,24.5c-8.1,14.5-16.2,28.9-24.2,43.4
				c-7.7,13.8,1.8,30.5,17.2,30.5h66.9c5,0,10.1,0.1,15.1,0c4.7-0.1,9.6,0.2,14.2-0.6C126.1,176.6,133.2,166.3,132.1,156.3z
				 M112.4,167.6c-30.8-0.1-61.6,0-92.4-0.1c-7-0.1-11.2-7.5-7.7-13.9c3.9-7.3,8.1-14.5,12.1-21.8c9-16.1,18-32.1,26.9-48.2
				c0.6-1.2,0.9-2.6,0.9-4c0.1-16.9,0-33.7,0-50.5c0-0.3,0.1-0.7,0.1-1.2h28v2.3c0,16.4-0.1,32.7,0.1,49.1c0,1.7,0.4,3.5,1.2,4.9
				c12.8,23.1,25.5,46.1,38.6,69C123.7,159.5,119.5,167.6,112.4,167.6z"/>
			<path class="st1" d="M42.1,113.3c2.5,1.1,4.9,2.1,7.3,3.2c8.2,3.8,15.7,1.8,23.2-2.3c4.1-2.2,8.5-3.8,12.7-5.7
				c1.4-0.6,2.2-0.4,3,1.1c8.5,15.3,17.1,30.6,25.7,45.9c0.5,0.9,0.8,1.8,1.4,2.6c0.9,1.3,0.8,2.6,0.1,3.9c-0.7,1.4-1.8,1.9-3.3,1.9
				c-30.3,0-60.7,0.1-91,0.1c-4.5,0-6.1-2.7-3.8-6.7c7.9-14.2,15.8-28.3,23.7-42.5C41.4,114.4,41.8,113.9,42.1,113.3z"/>
			<path class="st1" d="M77.9,103.8c0,3.6-2.8,6.5-6.3,6.4c-3.5-0.1-6.2-3-6.2-6.5s2.9-6.5,6.3-6.4C75.3,97.4,77.9,100.2,77.9,103.8
				z"/>
			<path class="st1" d="M64.6,73.4c3.5,0,6.2,2.8,6.2,6.4s-2.7,6.4-6.2,6.5c-3.5,0-6.2-2.8-6.2-6.4C58.4,76.3,61.1,73.5,64.6,73.4z"
				/>
			<path class="st1" d="M53.5,108.7c-2.6,0-4.7-2.2-4.6-4.9c0-2.7,2.2-5,4.8-4.9c2.5,0.1,4.7,2.3,4.7,4.9
				C58.3,106.5,56.1,108.7,53.5,108.7z"/>
			<path class="st1" d="M66.9,63.9c-2.7,0-4.6-2-4.7-4.8c0-2.8,2-5,4.7-5c2.6,0,4.8,2.2,4.6,4.8C71.3,61.8,69.9,63.8,66.9,63.9z"/>
		</g>
	</g>
</g>
</svg>
