<svg id="Layer_1" data-name="Layer 1" xmlns="http://www.w3.org/2000/svg" xmlns:xlink="http://www.w3.org/1999/xlink" viewBox="0 0 1940.33 1957.36"><defs><style>.cls-1{fill:#f4f7fa;}.cls-2{fill:url(#linear-gradient);}.cls-3{fill:url(#linear-gradient-2);}.cls-4,.cls-6{fill:#fff;}.cls-5{fill:#de8bdf;}.cls-6,.cls-7{opacity:0.64;}.cls-15,.cls-16,.cls-18,.cls-19,.cls-23,.cls-24,.cls-30,.cls-6,.cls-8{isolation:isolate;}.cls-10,.cls-15,.cls-16,.cls-18,.cls-19,.cls-23,.cls-24,.cls-30,.cls-8{opacity:0.3;}.cls-8{fill:url(#linear-gradient-3);}.cls-9{fill:url(#linear-gradient-4);}.cls-11{fill:url(#linear-gradient-5);}.cls-12{fill:url(#linear-gradient-6);}.cls-13{fill:url(#linear-gradient-7);}.cls-14{fill:url(#linear-gradient-8);}.cls-15{fill:url(#linear-gradient-9);}.cls-16{fill:url(#linear-gradient-10);}.cls-17{fill:url(#linear-gradient-11);}.cls-18{fill:url(#linear-gradient-12);}.cls-19{fill:url(#linear-gradient-13);}.cls-20{fill:url(#linear-gradient-14);}.cls-21{fill:url(#linear-gradient-15);}.cls-22{fill:url(#linear-gradient-16);}.cls-23{fill:#2a17ba;}.cls-24{fill:#4e36c1;}.cls-25{fill:url(#linear-gradient-17);}.cls-26{fill:url(#linear-gradient-18);}.cls-27{fill:url(#linear-gradient-19);}.cls-28{fill:url(#linear-gradient-20);}.cls-29{fill:url(#linear-gradient-21);}.cls-30{fill:url(#linear-gradient-22);}.cls-31{fill:url(#linear-gradient-23);}.cls-32{fill:#1a2e35;}.cls-33{fill:url(#linear-gradient-24);}.cls-34{fill:url(#linear-gradient-25);}.cls-35{fill:url(#linear-gradient-26);}.cls-36{fill:#26264f;}.cls-37{fill:url(#linear-gradient-27);}</style><linearGradient id="linear-gradient" x1="1471.46" y1="1004.81" x2="669.37" y2="1689.03" gradientTransform="matrix(1, 0, 0, -1, 0, 2545.61)" gradientUnits="userSpaceOnUse"><stop offset="0" stop-color="#444b8c"/><stop offset="1" stop-color="#26264f"/></linearGradient><linearGradient id="linear-gradient-2" x1="4636.61" y1="3689.78" x2="7624.99" y2="3578.62" gradientTransform="matrix(0, -1, -1, 0, 4499.13, 6431.93)" xlink:href="#linear-gradient"/><linearGradient id="linear-gradient-3" x1="420.4" y1="2129.03" x2="2802.28" y2="-71.49" gradientTransform="matrix(1, 0, 0, -1, 0, 2545.61)" gradientUnits="userSpaceOnUse"><stop offset="0" stop-color="#ffc444"/><stop offset="1" stop-color="#f36f56"/></linearGradient><linearGradient id="linear-gradient-4" x1="1657.68" y1="507.31" x2="1583.05" y2="1676.39" xlink:href="#linear-gradient-3"/><linearGradient id="linear-gradient-5" x1="-92.25" y1="1374.66" x2="2329.91" y2="-863.07" gradientTransform="matrix(1, 0, 0, -1, 0, 2545.61)" gradientUnits="userSpaceOnUse"><stop offset="0" stop-color="#aa80f9"/><stop offset="1" stop-color="#6165d7"/></linearGradient><linearGradient id="linear-gradient-6" x1="279.5" y1="1652.32" x2="2402.77" y2="-309.28" xlink:href="#linear-gradient-5"/><linearGradient id="linear-gradient-7" x1="-6.65" y1="1361.35" x2="2404.47" y2="-866.17" xlink:href="#linear-gradient-5"/><linearGradient id="linear-gradient-8" x1="339.54" y1="1621.34" x2="2473.55" y2="-350.18" xlink:href="#linear-gradient-5"/><linearGradient id="linear-gradient-9" x1="851.03" y1="1446.76" x2="2729.18" y2="-288.38" xlink:href="#linear-gradient-3"/><linearGradient id="linear-gradient-10" x1="-281.88" y1="1484.71" x2="1770.98" y2="-411.83" xlink:href="#linear-gradient-5"/><linearGradient id="linear-gradient-11" x1="-31.94" y1="1755.27" x2="2020.92" y2="-141.28" xlink:href="#linear-gradient-5"/><linearGradient id="linear-gradient-12" x1="204.95" y1="1475.65" x2="2338.95" y2="-495.87" xlink:href="#linear-gradient-5"/><linearGradient id="linear-gradient-13" x1="1161.28" y1="2183.62" x2="2428.67" y2="1012.73" gradientTransform="matrix(1, 0, 0, -1, 0, 2545.61)" gradientUnits="userSpaceOnUse"><stop offset="0" stop-color="#ff9085"/><stop offset="1" stop-color="#fb6fbb"/></linearGradient><linearGradient id="linear-gradient-14" x1="1780.52" y1="1771.28" x2="1866.01" y2="1104.48" xlink:href="#linear-gradient-13"/><linearGradient id="linear-gradient-15" x1="482.28" y1="2075.2" x2="1337.67" y2="2075.2" xlink:href="#linear-gradient-13"/><linearGradient id="linear-gradient-16" x1="482.3" y1="2322.32" x2="1337.71" y2="2322.32" xlink:href="#linear-gradient"/><linearGradient id="linear-gradient-17" x1="6384.91" y1="1341.22" x2="6444.9" y2="1341.22" gradientTransform="translate(7605.52 2545.61) rotate(180)" gradientUnits="userSpaceOnUse"><stop offset="0" stop-color="#40447e"/><stop offset="1" stop-color="#3c3b6b"/></linearGradient><linearGradient id="linear-gradient-18" x1="6592.48" y1="1444.29" x2="6632.11" y2="1444.29" xlink:href="#linear-gradient-17"/><linearGradient id="linear-gradient-19" x1="6414.17" y1="1344.12" x2="6435.92" y2="1299.07" gradientTransform="translate(7605.52 2545.61) rotate(180)" gradientUnits="userSpaceOnUse"><stop offset="0" stop-color="#311944"/><stop offset="1" stop-color="#a03976"/></linearGradient><linearGradient id="linear-gradient-20" x1="6623.55" y1="1522.47" x2="6590.28" y2="1374.31" xlink:href="#linear-gradient-19"/><linearGradient id="linear-gradient-21" x1="6615.01" y1="1409.15" x2="6461.35" y2="1562.8" gradientTransform="translate(7605.52 2545.61) rotate(180)" gradientUnits="userSpaceOnUse"><stop offset="0" stop-color="#ab316d"/><stop offset="1" stop-color="#792d3d"/></linearGradient><linearGradient id="linear-gradient-22" x1="6615.01" y1="1409.15" x2="6461.35" y2="1562.8" xlink:href="#linear-gradient-21"/><linearGradient id="linear-gradient-23" x1="6716.74" y1="1510.88" x2="6563.08" y2="1664.53" xlink:href="#linear-gradient-21"/><linearGradient id="linear-gradient-24" x1="6792.6" y1="1816.24" x2="6766.26" y2="1842.58" xlink:href="#linear-gradient-19"/><linearGradient id="linear-gradient-25" x1="6404.02" y1="1925.67" x2="6472.31" y2="2038.35" xlink:href="#linear-gradient-19"/><linearGradient id="linear-gradient-26" x1="6399.19" y1="1928.59" x2="6467.48" y2="2041.27" xlink:href="#linear-gradient-19"/><linearGradient id="linear-gradient-27" x1="6400.42" y1="1927.85" x2="6468.71" y2="2040.53" xlink:href="#linear-gradient-19"/></defs><g id="Illustration"><path class="cls-1" d="M1904.42,1333C1766,1490,1535,1474.54,1535.49,1548.58c.57,81.75,282.22,95.54,287.48,172.49,7.12,104.26-494.54,304.79-1018.27,222.68-180.43-28.28-351.26-55.61-498.63-188.76C-97.8,1390.12,198,617.72,246.18,489.86,341.46,237.19,459.44,155.73,496,130.33c190-132.12,408.53-110.41,603.71-91C1247.45,54,1468.77,79,1670.81,245.57c34.45,28.41,110.45,95.92,178.94,203C2016.14,708.8,2089.68,1122.75,1904.42,1333Z" transform="translate(-72.89 -24.75)"/><path class="cls-2" d="M1290.15,111.86V1775c0,24.87-21.27,31-45.41,32.72l-842.69,75.18-13,.92c-26.7,1.88-48.59-18-48.59-44.3V83.86c0-26.26,21.89-47,48.59-46.18l17.64.57,845.55,64.5C1276.38,103.53,1290.15,87,1290.15,111.86Z" transform="translate(-72.89 -24.75)"/><path class="cls-3" d="M1315.89,111.79V1774c0,24.86-19.68,46.59-43.79,48.29l-856.31,60.47c-26.66,1.88-48.54-18-48.54-44.28V83.86c0-26.24,21.88-47,48.54-46.15L1272.1,65.2C1296.19,66,1315.89,86.93,1315.89,111.79Z" transform="translate(-72.89 -24.75)"/><path class="cls-4" d="M1288.69,203.26V1744c0,23.22-18.41,43.48-41,45l-805.17,55.21c-24.79,1.7-45.13-16.89-45.13-41.33v-1621c0-24.43,20.34-43.88,45.13-43.23L1247.69,160C1270.28,160.56,1288.69,180,1288.69,203.26Z" transform="translate(-72.89 -24.75)"/><path class="cls-5" d="M870.27,103.79A15.41,15.41,0,0,1,855,119.35c-.21,0-.41,0-.62,0a16.55,16.55,0,0,1-15.92-16.49,15.42,15.42,0,0,1,15.27-15.57h.65A16.54,16.54,0,0,1,870.27,103.79Z" transform="translate(-72.89 -24.75)"/><polygon class="cls-6" points="747.77 1318.19 394.81 1332.53 394.81 1016.37 747.77 1007.54 747.77 1318.19"/><polygon class="cls-6" points="1151.34 1301.78 812.69 1315.55 812.69 1005.92 1151.34 997.44 1151.34 1301.78"/><polygon class="cls-6" points="747.77 1700.01 394.81 1721.13 394.81 1404.97 747.77 1389.37 747.77 1700.01"/><polygon class="cls-6" points="1151.34 1675.86 812.69 1696.13 812.69 1386.49 1151.34 1371.52 1151.34 1675.86"/><g class="cls-7"><path class="cls-4" d="M696.38,869.41c0,60.54-50.74,110.67-113.69,112-63.34,1.31-115-47.26-115-108.5s51.65-111.38,115-112C645.64,760.28,696.38,808.86,696.38,869.41Z" transform="translate(-72.89 -24.75)"/><path class="cls-4" d="M963.89,865.34c0,59.74-49.4,109.18-110.67,110.45-61.65,1.28-111.91-46.65-111.91-107.06s50.21-109.87,111.86-110.47C914.44,757.66,963.89,805.61,963.89,865.34Z" transform="translate(-72.89 -24.75)"/><path class="cls-4" d="M1224.23,861.38c0,59-48.09,107.73-107.75,109-60,1.24-109-46.06-109-105.66s48.93-108.4,109-109C1176.14,755.12,1224.23,802.43,1224.23,861.38Z" transform="translate(-72.89 -24.75)"/></g><path class="cls-8" d="M1823.75,1656.33l12.69-27.95c4.75-10.47,1.93-23.05-6.32-28.12l-32.85-20.18a361.75,361.75,0,0,0,18.26-79.46l36.67-2.58c9.46-.66,17.09-10.54,17.09-22.07v-30.65c0-11.53-7.63-20.44-17.09-19.9l-35.7,2a335.89,335.89,0,0,0-16.58-79l30.2-22.4a18.51,18.51,0,0,0,2.66-2.42l3.86,10,49.6-61-64.75-5.52a16,16,0,0,0-10.71-6.37,15.12,15.12,0,0,0-10.78,3l-29.83,21.67a273.14,273.14,0,0,0-49.23-59l2.25-4.7,45.59,9.32,5.79-75.48-69.24-11.42c-8-3.07-17,.81-21.34,9.85l-17.21,35.49c-22.11-11-3.79-22.57-28.92-25.92l26.29-38.71c0-12.06-77-20.1-87.4-20.1h-27.86c-10.54,0-19.1,9.91-19.1,22.14v41.45a246.73,246.73,0,0,0-74.66,24.23l47.56-34.94s-83.76-15.86-93.29-9.57l-25.51,16.84c-9.64,6.37-13,20.31-7.37,31.1l19.27,37.31c-21.1,18.79-30.08,29.63-46,54.44L1305,1277.6c-9.89-6.08-22.59-2-28.34,9.24l-15.34,29.89C1255.54,1328,1259,1342,1269,1348l36.1,21.65a362.13,362.13,0,0,0-19.71,88.11l-43.32,2.48c-11.66.67-21.15,11.64-21.15,24.5V1519c0,11.67,7.81,20.75,18,21.74h0l49.23,7.87a328,328,0,0,0,20.14,72.47L1269,1649.59c-10,7.28-13.45,21.75-7.66,32.29l15.34,27.93c5.75,10.47,97,16.84,97,16.84l-29-40.63a263.06,263.06,0,0,0,54.74,54.8L1376.6,1788c-5.58,11.5-2.27,25,7.37,30.16l25.49,13.6a17.08,17.08,0,0,0,5,1.69l-.1.48,79.52,9.8,7.77-60a227.63,227.63,0,0,0,28.19,2.54v51.34c0,9.13,4.77,16.35,11.58,18.87l-.35,1.5,78.78,9.84,1.58-97.34a261.06,261.06,0,0,0,41.59-20.24l21,40.64a15.88,15.88,0,0,0,11.55,8.79h0l76.13,10.3-26.07-71.76-10.53,3.23-17.35-34a325.61,325.61,0,0,0,48.3-61.44l34,20.37C1808.34,1671.39,1819,1666.86,1823.75,1656.33ZM1562.89,1630c-74.54,6.64-136.37-58.76-136.37-146.23s61.83-160.64,136.37-163.37c72.7-2.66,130.33,63,130.33,146.61S1635.57,1623.56,1562.89,1630Zm318.35-168,51.58-24.42-51.58-6.26Zm-63.35,208.42,59,8,8.61-20.12-48.88-29.71Z" transform="translate(-72.89 -24.75)"/><path class="cls-9" d="M1928.23,1436.76l-35.5,2a336.49,336.49,0,0,0-16.48-78.82l30-22.34c8.2-6.11,11-19,6.28-28.85l-12.62-26.25c-4.76-9.9-15.33-13-23.62-7l-29.65,21.63a272.07,272.07,0,0,0-49-58.8l17.06-35.75c4.9-10.25,2-23.24-6.5-29l-22.71-15.49c-8.59-5.85-19.61-2.26-24.6,8.06l-17,35.41a224.54,224.54,0,0,0-70.81-21.75v-40.87c0-12.06-8.36-21.83-18.7-21.83H1626.7c-10.48,0-19,9.89-19,22.08v41.33a245.16,245.16,0,0,0-74.22,24.2L1515,1168.36c-5.43-10.69-17.51-14.29-27-8l-25.34,16.8c-9.59,6.36-12.88,20.26-7.33,31l19.16,37.19a318.54,318.54,0,0,0-55.62,65.6l-34.69-21.36c-9.83-6-22.46-1.93-28.17,9.24l-15.26,29.8c-5.75,11.25-2.33,25.24,7.62,31.22l35.9,21.57a362.16,362.16,0,0,0-19.61,87.87l-43.06,2.48c-11.6.67-21,11.62-21,24.44v34.12c0,12.82,9.43,22.55,21,21.73l44.21-3.12a330.24,330.24,0,0,0,21.57,83.15l-39,28.46c-10,7.25-13.37,21.68-7.62,32.19l15.26,27.85c5.71,10.44,18.34,12.93,28.17,5.61l39.46-29.36a261.83,261.83,0,0,0,54.42,54.61l-22.73,47c-5.55,11.47-2.26,25,7.33,30.07l25.34,13.55c9.47,5.06,21.55-.09,27-11.47l22.54-47.22a223.58,223.58,0,0,0,70.17,13.28v51.19c0,12.19,8.52,21,19,19.64l27.68-3.54c10.34-1.33,18.7-12.17,18.7-24.23V1789.1a253.58,253.58,0,0,0,67-28.42L1761,1801.2c5,9.68,16,11.85,24.6,4.89l22.71-18.4c8.49-6.88,11.4-20.24,6.5-29.87L1794.52,1718a324.47,324.47,0,0,0,48-61.28L1876.3,1677c8.29,5,18.86.47,23.62-10l12.62-27.87c4.73-10.45,1.92-23-6.28-28L1873.59,1591a361,361,0,0,0,18.16-79.25l36.46-2.57c9.4-.67,17-10.53,17-22v-30.57C1945.23,1445.1,1937.63,1436.22,1928.23,1436.76Zm-287.69,204.15c-74.11,6.65-135.58-58.54-135.58-145.76s61.47-160.21,135.58-163c72.29-2.68,129.6,62.77,129.6,146.14s-57.31,156.13-129.6,162.62Z" transform="translate(-72.89 -24.75)"/><g class="cls-10"><path class="cls-11" d="M509.69,1756q0-42.06-30.33-62.2c-20.37-13.52-57.33-26.73-111.43-39.72-55-13.19-99.08-27.13-131.94-41.74-91.1-40.67-137.57-101.1-137.57-180.49q0-61.89,37.41-111.3c24.72-32.65,59.94-58.25,105.33-76.78q67.23-27.45,148.72-28.12,80.64-.75,141.88,26.57,60.65,26.91,93.46,76.37c21.82,32.77-31.81,88.21-31.81,130.6l-83.22-11.94q0-49.48-31.84-76c-21.4-17.8-51.68-26.22-91.08-25.18-38.45,1-68.63,9.7-90.31,26.11S264.18,1400,264.18,1426q0,36.4,38.39,59.19c25.37,15.07,62.38,28.39,110.67,39.95,87.21,20.76,149.39,48.45,187.81,83.18q57,51.53,56.85,133.69c0,61-23,111.28-69.61,151.2-47.21,40.47-111.81,65.69-194.77,75.41q-88.17,10.32-163-12.59c-50.51-15.57-89.5-40.58-116.61-75.06q-40.95-52.08-41-126.44l167.45-13.84,84.68,12s-18.25,105.27,68.5,96.59c36.93-3.69,65.47-13.78,85.84-30.21S509.69,1781.75,509.69,1756Z" transform="translate(-72.89 -24.75)"/><path class="cls-12" d="M1219.33,1495.07,891.76,1606v182.28l289.79-28.49,79.29,11.43L835.32,1927l-81-25.17V1221.86l426.43-4.54,78.64,11.42L891.79,1334v162.18l248.53-13.28Z" transform="translate(-72.89 -24.75)"/></g><path class="cls-13" d="M592.33,1766.86q0-41.94-30.15-62c-20.24-13.47-57-26.63-110.77-39.56-54.62-13.13-98.48-27-131.14-41.56-90.59-40.52-136.74-100.74-136.74-179.9q0-61.71,37.18-111c24.57-32.56,59.57-58.1,104.69-76.6q66.84-27.39,147.83-28.1,80.16-.78,141,26.43,60.3,26.79,92.9,76.1,32.55,49,32.49,112.16L592.79,1449q0-49.35-31.66-75.75c-21.27-17.74-51.37-26.12-90.53-25.07-38.22,1-68.22,9.7-89.77,26.08s-32.59,37.71-32.59,63.6q0,36.3,38.17,59c25.21,15,62,28.27,110,39.78,86.69,20.66,148.5,48.24,186.7,82.85,37.78,34.23,56.51,78.56,56.51,133.27,0,60.84-22.91,111-69.19,150.77-46.9,40.42-111.11,65.59-193.54,75.3q-87.64,10.32-162-12.49c-50.19-15.51-89-40.43-115.9-74.8q-40.74-51.91-40.8-126l166.44-13.87c0,82.4,51.49,118.41,152.26,108.26q55.08-5.55,85.33-30.16Q592.39,1805.35,592.33,1766.86Z" transform="translate(-72.89 -24.75)"/><path class="cls-14" d="M1219.25,1599.63l-247.11,17.49v181.74l288.09-28.52v107.29l-424.76,49.45V1234.2l424-4.72v108.19l-287.28,8.24v161.7l247.11-13.29Z" transform="translate(-72.89 -24.75)"/><path class="cls-15" d="M1466.4,1615.43a301.81,301.81,0,0,0-81.23,9.32c.88,2.31,1.75,4.62,2.68,6.89l-38.43,28c-9.8,7.14-13.16,21.35-7.49,31.7l15,27.43c5.63,10.27,18.06,12.73,27.75,5.52l38.85-28.92a257.37,257.37,0,0,0,53.6,53.79l-22.39,46.32c-5.46,11.3-2.22,24.57,7.22,29.62l25,13.34c9.33,5,21.21-.09,26.57-11.3l22.19-46.5a220.38,220.38,0,0,0,69.11,13.08v50.41c0,12,8.39,20.67,18.71,19.35l27.26-3.49c10.19-1.31,18.42-12,18.42-23.86v-49.86a249.6,249.6,0,0,0,66-28l20.56,39.9c4.91,9.52,15.73,11.67,24.18,4.85C1653.89,1654.8,1546.69,1617.53,1466.4,1615.43Z" transform="translate(-72.89 -24.75)"/><path class="cls-16" d="M325.4,1256.28c-45.12,18.5-80.12,44-104.69,76.6q-37.11,49.17-37.18,111c0,79.16,46.15,139.38,136.74,179.9,32.66,14.55,76.52,28.43,131.14,41.56,53.78,12.93,90.53,26.09,110.77,39.56s30.15,34,30.15,62q0,38.49-30.15,62.9-30.36,24.59-85.33,30.16c-100.77,10.15-152.26-25.86-152.26-108.26l-166.44,13.85q0,74,40.8,126c26.94,34.37,65.71,59.29,115.9,74.8q74.25,22.92,162,12.49c82.47-9.72,146.68-34.89,193.62-75.27,46.28-39.81,69.19-89.93,69.19-150.77,0-54.71-18.73-99-56.51-133.27-38.2-34.61-100-62.19-186.7-82.85-48-11.51-84.79-24.78-110-39.78q-38.1-22.68-38.17-59,0-38.85,32.59-63.6a105.54,105.54,0,0,1,18.94-11.39c-22.61-24.36-43.45-60-55.91-113.61Q334.54,1252.54,325.4,1256.28Z" transform="translate(-72.89 -24.75)"/><path class="cls-17" d="M590.17,1422.54a126.43,126.43,0,0,1,2.66,26.53l146.83-6.2q0-11.31-1-22.13C687.71,1416,637.65,1420.92,590.17,1422.54Z" transform="translate(-72.89 -24.75)"/><path class="cls-18" d="M886.5,1473.39a287.59,287.59,0,0,0-51-28.71v482.4l424.76-49.45V1770.34l-288.12,28.52V1617.12l24.85-1.76C969.26,1574.24,955.89,1522.1,886.5,1473.39Z" transform="translate(-72.89 -24.75)"/><path class="cls-19" d="M1908,1021.63l6.75-14.87c2.53-5.58,1-12.27-3.36-15L1893.94,981a193,193,0,0,0,9.72-42.28l19.51-1.36c5-.36,9.09-5.61,9.09-11.75V909.32c0-6.13-4.06-10.87-9.09-10.59l-19,1.09a178.79,178.79,0,0,0-8.82-42.06l16.07-11.92a10.79,10.79,0,0,0,1.41-1.29l2.06,5.34,26.39-32.45-34.46-2.94a8.45,8.45,0,0,0-5.69-3.39,8,8,0,0,0-5.74,1.59l-15.87,11.53a145,145,0,0,0-26.2-31.39l1.2-2.5,24.26,5,3.08-40.16L1845,749.1c-4.24-1.64-9,.43-11.36,5.24l-9.16,18.88c-11.76-5.85-2-12-15.38-13.79l14-20.59c0-6.42-41-10.7-46.5-10.7h-14.83c-5.61,0-10.17,5.27-10.17,11.78V762a131.05,131.05,0,0,0-39.73,12.88l25.3-18.59s-44.57-8.44-49.64-5.09l-13.56,9c-5.13,3.39-6.89,10.8-3.92,16.54l10.25,19.85c-11.22,10-16,15.77-24.5,29L1632,820.19c-5.26-3.23-12-1-15.08,4.92L1608.75,841c-3.08,6-1.25,13.46,4.07,16.66L1632,869.19a192.79,192.79,0,0,0-10.5,46.89l-23,1.32c-6.2.35-11.25,6.19-11.25,13v18.21c0,6.21,4.16,11,9.56,11.57h0l26.2,4.2a174.3,174.3,0,0,0,10.71,38.55l-20.88,15.18c-5.32,3.87-7.15,11.57-4.07,17.18l8.16,14.86c3.06,5.57,51.61,9,51.61,9l-15.41-21.62a140,140,0,0,0,29.12,29.16l-12.16,25.1c-3,6.11-1.21,13.31,3.92,16l13.56,7.24a9.35,9.35,0,0,0,2.67.9v.25l42.31,5.22,4.14-31.94a119.78,119.78,0,0,0,15,1.36v27.32c0,4.85,2.54,8.7,6.16,10l-.18.8,41.92,5.23.84-51.79a139.52,139.52,0,0,0,22.12-10.77l11.18,21.62a8.46,8.46,0,0,0,6.15,4.68h0l40.52,5.48-13.88-38.18-5.6,1.72-9.23-18.11a172.84,172.84,0,0,0,25.7-32.69l18.08,10.84C1899.82,1029.64,1905.48,1027.24,1908,1021.63Zm-138.82-14c-39.66,3.53-72.56-31.27-72.56-77.81s32.9-85.48,72.56-86.93c38.69-1.42,69.35,33.52,69.35,78s-30.67,83.3-69.35,86.75Zm169.4-89.37,27.44-13-27.44-3.33Zm-33.72,110.88,31.39,4.24,4.59-10.71-26-15.81Z" transform="translate(-72.89 -24.75)"/><path class="cls-20" d="M1963.62,904.8l-18.89,1.09A178.44,178.44,0,0,0,1936,864l16-11.89c4.36-3.25,5.86-10.11,3.34-15.35l-6.71-14c-2.53-5.27-8.16-6.94-12.57-3.73l-15.78,11.51a144.87,144.87,0,0,0-26-31.29l9.07-19c2.61-5.45,1.06-12.36-3.46-15.44l-12.08-8.25c-4.57-3.11-10.43-1.2-13.09,4.29l-9.1,18.84a119.48,119.48,0,0,0-37.68-11.58V746.32c0-6.42-4.45-11.62-10-11.62h-14.73c-5.57,0-10.11,5.26-10.11,11.75v22a130.09,130.09,0,0,0-39.49,12.88L1743.73,762c-2.89-5.69-9.31-7.6-14.36-4.26l-13.48,8.94c-5.1,3.39-6.85,10.78-3.9,16.51l10.2,19.78a169.31,169.31,0,0,0-29.6,34.91l-18.46-11.36c-5.23-3.23-12-1-15,4.91L1651,847.27c-3.07,6-1.25,13.43,4,16.61l19.1,11.47a192.22,192.22,0,0,0-10.43,46.76l-22.92,1.32c-6.17.36-11.18,6.18-11.18,13v18.15c0,6.82,5,12,11.18,11.56l23.53-1.66a175.45,175.45,0,0,0,11.48,44.25l-20.71,15.13c-5.3,3.86-7.12,11.54-4,17.13l8.11,14.82c3,5.55,9.76,6.88,15,3l21-15.62a139.18,139.18,0,0,0,29,29.06l-12.1,25c-2.95,6.1-1.2,13.27,3.9,16l13.48,7.21c5,2.69,11.47,0,14.36-6.11l12-25.12a119.33,119.33,0,0,0,37.34,7.06v27.24c0,6.49,4.54,11.17,10.11,10.45l14.73-1.88c5.5-.71,10-6.48,10-12.89v-26.94a134.91,134.91,0,0,0,35.67-15.12l11.11,21.56c2.66,5.15,8.52,6.31,13.09,2.61l12.08-9.8a13.48,13.48,0,0,0,3.46-15.89l-10.78-21.2a172.18,172.18,0,0,0,25.55-32.61l18,10.8c4.41,2.65,10,.25,12.57-5.34l6.71-14.83c2.52-5.56,1-12.24-3.34-14.92l-17.56-10.67a193,193,0,0,0,9.66-42.16l19.4-1.37c5-.36,9-5.6,9-11.72V915.35C1972.66,909.23,1968.62,904.51,1963.62,904.8Zm-153.08,108.62c-39.43,3.54-72.14-31.15-72.14-77.56s32.71-85.24,72.14-86.7c38.47-1.43,69,33.4,69,77.76s-30.53,83.05-69,86.5Z" transform="translate(-72.89 -24.75)"/><path class="cls-21" d="M482.28,232.28V682.06c0,14.93,11.58,26.79,25.82,26.48l808-17.46c11.93-.26,21.57-11.5,21.57-25.12V256Z" transform="translate(-72.89 -24.75)"/><path class="cls-22" d="M1316.12,203.17,508.12,176c-14.24-.47-25.82,11.24-25.82,26.18V248.3l855.41,22.25v-42C1337.69,214.93,1328.05,203.57,1316.12,203.17Z" transform="translate(-72.89 -24.75)"/><path class="cls-4" d="M541.42,213c0,6.6-5.1,11.81-11.39,11.63s-11.41-5.69-11.41-12.31,5.11-11.81,11.41-11.62S541.42,206.41,541.42,213Z" transform="translate(-72.89 -24.75)"/><polygon class="cls-4" points="586 622.51 521.76 623.5 521.76 289.84 586 291.09 586 622.51"/><polygon class="cls-23" points="586 622.51 521.76 623.5 521.76 465.09 586 465.16 586 622.51"/><polygon class="cls-4" points="673.96 621.14 610.91 622.12 610.91 291.57 673.96 292.79 673.96 621.14"/><polygon class="cls-24" points="673.96 621.14 610.91 622.12 610.91 543.65 673.96 543.2 673.96 621.14"/><polygon class="cls-4" points="760.3 619.8 698.41 620.76 698.41 293.27 760.3 294.47 760.3 619.8"/><polygon class="cls-24" points="760.3 619.8 698.41 620.76 698.41 579.95 760.3 579.26 760.3 619.8"/><polygon class="cls-4" points="845.08 618.49 784.3 619.43 784.3 294.93 845.08 296.11 845.08 618.49"/><polygon class="cls-24" points="845.08 618.49 784.3 619.43 784.3 365.22 845.08 365.94 845.08 618.49"/><polygon class="cls-4" points="928.32 617.2 868.64 618.12 868.64 296.57 928.32 297.72 928.32 617.2"/><polygon class="cls-24" points="928.32 617.2 868.64 618.12 868.64 394.85 928.32 395.37 928.32 617.2"/><polygon class="cls-4" points="1010.08 615.93 951.46 616.84 951.46 298.17 1010.08 299.31 1010.08 615.93"/><polygon class="cls-24" points="1010.08 615.93 951.46 616.84 951.46 344.51 1010.08 345.35 1010.08 615.93"/><polygon class="cls-4" points="1090.39 614.69 1032.81 615.58 1032.81 299.75 1090.39 300.86 1090.39 614.69"/><polygon class="cls-24" points="1090.39 614.69 1032.81 615.58 1032.81 421.58 1090.39 421.92 1090.39 614.69"/><polygon class="cls-4" points="1169.3 613.46 1112.72 614.34 1112.72 301.3 1169.3 302.39 1169.3 613.46"/><polygon class="cls-24" points="1169.3 613.46 1112.72 614.34 1112.72 505.66 1169.3 505.47 1169.3 613.46"/><path class="cls-25" d="M1212.44,1192.23c7,7,9.77,14.56,7.25,19-1.75,3-5.61,3.85-9.84,4.66-6.68,1.28-13.65.94-28-3.11-13.37-3.77-21.22-6-21.23-9.2,0-3,6.87-5.34,12.9-7.39a75.51,75.51,0,0,1,21.15-3.94Z" transform="translate(-72.89 -24.75)"/><path class="cls-26" d="M1004.56,1078.38c3.13,1.35,7.15,3.74,8.22,7.68,1.69,6.23-5,12.66-15.6,22.68-8,7.52-18.77,17.68-22.53,15.12-2.3-1.57-.94-7.21.33-12.47a70.26,70.26,0,0,1,13.22-26.83Z" transform="translate(-72.89 -24.75)"/><path class="cls-27" d="M1197.17,1176.77l15,16.6a3.1,3.1,0,0,1-.22,4.38,3.16,3.16,0,0,1-1.23.68c-3.28.92-7.85,1.66-12,.47a5.8,5.8,0,0,1-2.42-1.49l-15-14.55Z" transform="translate(-72.89 -24.75)"/><path class="cls-28" d="M996.26,1068.35l8.08,11.64a3.35,3.35,0,0,1-.87,4.68,2.2,2.2,0,0,1-.3.19,30.23,30.23,0,0,1-4,1.85,6.1,6.1,0,0,1-6.63-1.65l-8.75-9.86Z" transform="translate(-72.89 -24.75)"/><path class="cls-29" d="M1141.24,824.7a282.89,282.89,0,0,0-22.53,68.12c-2.36,12.17-13.4,73.48,10.33,147.35,22.09,68.76,62.78,112.52,84.42,132.81a56.93,56.93,0,0,1-12.8,8.2,57.78,57.78,0,0,1-22,5.3c-66.11-47.19-98.17-100.66-112.73-129.76-49.1-98.17-36.78-194.55-15.32-235.31,7-13.39,15-20.63,24-23.86C1103.6,787.2,1137.16,820.54,1141.24,824.7Z" transform="translate(-72.89 -24.75)"/><path class="cls-30" d="M1050.63,821.41c7-13.39,15-20.63,24-23.86,28.94-10.35,62.5,23,66.58,27.15a283.56,283.56,0,0,0-22.28,66.93c-20.21,4.75-48.46,16-62.23,42.68-22.27,43.11,9.75,94.78,16.39,105.51,14.63,23.6,23.48,21.38,45.08,55.31,16.31,25.63,17.55,36.79,31.75,49.17,16.69,14.57,37.54,18.83,54.37,19.76,3.3,3.36,6.38,6.34,9.14,8.92a56.93,56.93,0,0,1-12.8,8.2,57.78,57.78,0,0,1-22,5.3c-66.11-47.19-98.17-100.66-112.73-129.76C1016.89,958.55,1029.17,862.17,1050.63,821.41Z" transform="translate(-72.89 -24.75)"/><path class="cls-31" d="M1103.89,821.11a113.86,113.86,0,0,1-20,28.68c-26,27.06-50.21,24.5-77.7,46.79-3.39,2.75-27.74,22.94-36.73,52.4-17.31,56.71,33,112.62,38.56,118.64a60.5,60.5,0,0,1-30.68,15.24C905.22,1017,870,937.11,894,885.22c13.09-28.31,44.08-48.89,67-64.09a298.74,298.74,0,0,1,96.41-41.65Z" transform="translate(-72.89 -24.75)"/><path class="cls-32" d="M1060.83,670.7c-1.08,31.89,6.31,48.42-4,74.45-7.44,18.7-19.76,31.55-29.12,39.54a124.13,124.13,0,0,0,111.71,67c24.2-12.45,60.9-35.92,90.36-77.7,20-28.33,41.9-59.43,36.1-99.08-7.37-50.37-54-77.28-67.28-84.91-8.71-5-68.86-39.7-105.62-14.21C1063.37,596.27,1061.64,646.86,1060.83,670.7Z" transform="translate(-72.89 -24.75)"/><path class="cls-33" d="M859.8,706.86c-1-5.15-4.65-8.89-6.76-11-2.44-2.47-2.94-2.08-4.53-4.1-4-5.07-3-10.32-4.59-10.5-1.34-.15-3.7,3.63-3.54,7.54.18,4.36,3.37,5.67,2.77,8.09-.84,3.4-8.41,5.87-15.11,4.61-7.77-1.47-11.56-7.74-14.6-6.15-2.2,1.15-2.06,5.27-2,5.63.33,7.73,10.66,15.85,20.74,16.91,5.8.61,8-1.5,14.85.25,4.57,1.16,6.16,2.73,8.45,1.79C859.2,718.42,860.72,711.86,859.8,706.86Z" transform="translate(-72.89 -24.75)"/><path class="cls-32" d="M858.69,704.16c62.1,4.3,99.2-11.85,121.56-27.31C1031,641.77,1040.93,586,1099.76,571c10.73-2.73,29.41-7.5,39.61,2,21.18,19.84-3.8,92.57-47.81,137.27-9.71,9.87-44.73,44.4-102.52,52.19-74.06,10-127.19-31.8-136.35-39.26a11.71,11.71,0,0,1-2.28-11.87C852.53,705.72,858.22,704.27,858.69,704.16Z" transform="translate(-72.89 -24.75)"/><path class="cls-32" d="M1166,801.86c17.49-16.57,9.21-26.83,30.73-60.1,21.93-33.89,37.7-34.52,47.81-57.36,5.22-11.82,8.44-28.8,2.69-53.18,8.85,11.94,16.07,26.41,18.6,43.71,5.8,39.65-16.13,70.75-36.1,99.08-29.46,41.78-66.16,65.25-90.36,77.7a125.84,125.84,0,0,1-69.77-20.44,123.4,123.4,0,0,1-25.85-22.79,115.52,115.52,0,0,0,31.42,11.82C1081,821.52,1134,832.18,1166,801.86Z" transform="translate(-72.89 -24.75)"/><path class="cls-34" d="M1182,555.49l5.06,17.09a27.44,27.44,0,0,0,9.39,13.81l13.43,10.52s-41-6.88-60.53-26l12-3.77a3,3,0,0,0,2.11-2.88V551.69Z" transform="translate(-72.89 -24.75)"/><path class="cls-35" d="M1167.32,564.13c-2-.44-16.08,1.88-20.1-4.92-5.46-9.22,0-24,.52-26.23,2.29-9.53,3.15-11,4.92-13l2.5-2.64s.15-.12.32-.23c1.74-1.2,8.23-3.14,9.63-3.21,4.48-.23,13.6,15.83,18.82,40.59l1.26,2.67C1186.27,559.51,1167.45,565,1167.32,564.13Z" transform="translate(-72.89 -24.75)"/><path class="cls-36" d="M1144.53,512.75c2,7.55,7.75,14.68,9.91,15.49a13.17,13.17,0,0,1,3.54,2.26,3.84,3.84,0,0,1,.67.78c2.93,4.32-3.16,12-1.12,13.7,1.47,1.26,6.07-2.18,7-1s-2.68,4.85-1.62,6.18c.8,1,3.15-.73,5.28.57,1.06.64,1,1.4,2.58,3.82a25.7,25.7,0,0,0,2.81,3.59c3.8,3.74,11.63,3.39,12.58,1.24.27-.61-.18-.93-.22-2.7a13.66,13.66,0,0,1,.56-3.71c.85-3,4.06-5.75,7.08-9.43,5.58-6.82,6.33-11.56,6.51-13.14.06-.56.08-1,.1-1.28.31-6.06-1.87-14.24-5.71-18.61-6.45-7.32-14.85-.79-24.83-7.08-11.51-7.26-9.7-21.85-14.94-22C1149,481.22,1140.75,498.78,1144.53,512.75Z" transform="translate(-72.89 -24.75)"/><path class="cls-37" d="M1159.77,542.48c1.18-3,5.07-1.52,6,1.77s-1.38,7.57-4.66,7.74S1158.19,546.57,1159.77,542.48Z" transform="translate(-72.89 -24.75)"/></g></svg>