<svg xmlns="http://www.w3.org/2000/svg" xmlns:xlink="http://www.w3.org/1999/xlink" viewBox="0 0 6754.04 3710"><defs><style>.cls-1{isolation:isolate;}.cls-2,.cls-7{fill:#fff;}.cls-3{fill:#f4f7fa;}.cls-4{fill:url(#linear-gradient);}.cls-5{fill:url(#linear-gradient-2);}.cls-6{fill:#de8bdf;}.cls-7,.cls-8{opacity:0.64;}.cls-11,.cls-16,.cls-17,.cls-19,.cls-20,.cls-24,.cls-25,.cls-31,.cls-35,.cls-9{opacity:0.3;mix-blend-mode:multiply;}.cls-9{fill:url(#linear-gradient-3);}.cls-10{fill:url(#linear-gradient-4);}.cls-12{fill:url(#linear-gradient-5);}.cls-13{fill:url(#linear-gradient-6);}.cls-14{fill:url(#linear-gradient-7);}.cls-15{fill:url(#linear-gradient-8);}.cls-16{fill:url(#linear-gradient-9);}.cls-17{fill:url(#linear-gradient-10);}.cls-18{fill:url(#linear-gradient-11);}.cls-19{fill:url(#linear-gradient-12);}.cls-20{fill:url(#linear-gradient-13);}.cls-21{fill:url(#linear-gradient-14);}.cls-22{fill:url(#linear-gradient-15);}.cls-23{fill:url(#linear-gradient-16);}.cls-24{fill:#2a17ba;}.cls-25{fill:#4e36c1;}.cls-26{fill:url(#linear-gradient-17);}.cls-27{fill:url(#linear-gradient-18);}.cls-28{fill:url(#linear-gradient-19);}.cls-29{fill:url(#linear-gradient-20);}.cls-30,.cls-31{fill:url(#linear-gradient-21);}.cls-32{fill:url(#linear-gradient-23);}.cls-33{fill:#1a2e35;}.cls-34{fill:url(#linear-gradient-24);}.cls-35{fill:url(#linear-gradient-25);}.cls-36{fill:url(#linear-gradient-26);}.cls-37{fill:url(#linear-gradient-27);}.cls-38{fill:#26264f;}.cls-39{fill:url(#linear-gradient-28);}</style><linearGradient id="linear-gradient" x1="1398.57" y1="2190.94" x2="596.48" y2="1506.72" gradientUnits="userSpaceOnUse"><stop offset="0" stop-color="#444b8c"/><stop offset="1" stop-color="#26264f"/></linearGradient><linearGradient id="linear-gradient-2" x1="2332.9" y1="-918.57" x2="5321.28" y2="-807.41" gradientTransform="translate(1655.01 4778.36) rotate(-90)" xlink:href="#linear-gradient"/><linearGradient id="linear-gradient-3" x1="347.48" y1="1066.75" x2="2729.36" y2="3267.27" gradientUnits="userSpaceOnUse"><stop offset="0" stop-color="#ffc444"/><stop offset="1" stop-color="#f36f56"/></linearGradient><linearGradient id="linear-gradient-4" x1="1584.78" y1="2688.44" x2="1510.15" y2="1519.36" xlink:href="#linear-gradient-3"/><linearGradient id="linear-gradient-5" x1="-165.14" y1="1821.09" x2="2257.02" y2="4058.82" gradientUnits="userSpaceOnUse"><stop offset="0" stop-color="#aa80f9"/><stop offset="1" stop-color="#6165d7"/></linearGradient><linearGradient id="linear-gradient-6" x1="206.6" y1="1543.44" x2="2329.87" y2="3505.04" xlink:href="#linear-gradient-5"/><linearGradient id="linear-gradient-7" x1="-79.56" y1="1834.42" x2="2331.56" y2="4061.94" xlink:href="#linear-gradient-5"/><linearGradient id="linear-gradient-8" x1="266.65" y1="1574.41" x2="2400.66" y2="3545.93" xlink:href="#linear-gradient-5"/><linearGradient id="linear-gradient-9" x1="778.13" y1="1749" x2="2656.28" y2="3484.14" xlink:href="#linear-gradient-3"/><linearGradient id="linear-gradient-10" x1="-354.79" y1="1711.06" x2="1698.07" y2="3607.6" xlink:href="#linear-gradient-5"/><linearGradient id="linear-gradient-11" x1="-104.84" y1="1440.5" x2="1948.02" y2="3337.05" xlink:href="#linear-gradient-5"/><linearGradient id="linear-gradient-12" x1="132.05" y1="1720.11" x2="2266.05" y2="3691.63" xlink:href="#linear-gradient-5"/><linearGradient id="linear-gradient-13" x1="1088.4" y1="1012.12" x2="2355.79" y2="2183.01" gradientUnits="userSpaceOnUse"><stop offset="0" stop-color="#ff9085"/><stop offset="1" stop-color="#fb6fbb"/></linearGradient><linearGradient id="linear-gradient-14" x1="1707.66" y1="1424.47" x2="1793.15" y2="2091.27" xlink:href="#linear-gradient-13"/><linearGradient id="linear-gradient-15" x1="409.39" y1="1120.55" x2="1264.8" y2="1120.55" xlink:href="#linear-gradient-13"/><linearGradient id="linear-gradient-16" x1="409.39" y1="873.43" x2="1264.8" y2="873.43" xlink:href="#linear-gradient"/><linearGradient id="linear-gradient-17" x1="4505.74" y1="1854.52" x2="4565.68" y2="1854.52" gradientTransform="matrix(-1, 0, 0, 1, 5653.44, 0)" gradientUnits="userSpaceOnUse"><stop offset="0" stop-color="#40447e"/><stop offset="1" stop-color="#3c3b6b"/></linearGradient><linearGradient id="linear-gradient-18" x1="4713.29" y1="1751.46" x2="4752.93" y2="1751.46" xlink:href="#linear-gradient-17"/><linearGradient id="linear-gradient-19" x1="4535" y1="1851.62" x2="4556.75" y2="1896.67" gradientTransform="matrix(-1, 0, 0, 1, 5653.44, 0)" gradientUnits="userSpaceOnUse"><stop offset="0" stop-color="#311944"/><stop offset="1" stop-color="#a03976"/></linearGradient><linearGradient id="linear-gradient-20" x1="4744.37" y1="1673.28" x2="4711.1" y2="1821.44" xlink:href="#linear-gradient-19"/><linearGradient id="linear-gradient-21" x1="4735.81" y1="1786.62" x2="4582.15" y2="1632.97" gradientTransform="matrix(-1, 0, 0, 1, 5653.44, 0)" gradientUnits="userSpaceOnUse"><stop offset="0" stop-color="#ab316d"/><stop offset="1" stop-color="#792d3d"/></linearGradient><linearGradient id="linear-gradient-23" x1="4837.56" y1="1684.87" x2="4683.9" y2="1531.22" xlink:href="#linear-gradient-21"/><linearGradient id="linear-gradient-24" x1="4913.42" y1="1379.51" x2="4887.08" y2="1353.17" xlink:href="#linear-gradient-19"/><linearGradient id="linear-gradient-25" x1="4632.17" y1="1202.73" x2="4547.15" y2="1464.97" gradientTransform="matrix(-1, 0, 0, 1, 5653.44, 0)" xlink:href="#linear-gradient-5"/><linearGradient id="linear-gradient-26" x1="4524.85" y1="1270.09" x2="4593.14" y2="1157.41" xlink:href="#linear-gradient-19"/><linearGradient id="linear-gradient-27" x1="4520.01" y1="1267.16" x2="4588.3" y2="1154.48" xlink:href="#linear-gradient-19"/><linearGradient id="linear-gradient-28" x1="4521.25" y1="1267.91" x2="4589.54" y2="1155.23" xlink:href="#linear-gradient-19"/></defs><g class="cls-1"><g id="Background"><rect class="cls-2" x="3044.04" width="3710" height="3710"/></g><g id="Illustration"><path class="cls-3" d="M1831.53,1983.11c-138.41,157.06-369.44,141.57-368.93,215.61.57,81.75,282.22,95.54,287.48,172.49,7.12,104.26-494.54,304.79-1018.27,222.68-180.43-28.28-351.26-55.61-498.63-188.76C-170.69,2040.26,125.09,1267.86,173.29,1140c95.28-252.67,213.26-334.13,249.77-359.53,190-132.12,408.53-110.41,603.71-91,147.79,14.68,369.11,39.65,571.15,206.24,34.45,28.41,110.45,95.92,178.94,203C1943.25,1358.94,2016.79,1772.89,1831.53,1983.11Z"/><path class="cls-4" d="M1217.26,762V2425.1c0,24.87-21.27,31-45.41,32.72L329.16,2533l-13,.92c-26.7,1.88-48.59-18.05-48.59-44.3V734c0-26.26,21.89-47,48.59-46.18l17.64.57,845.55,64.5C1203.49,753.67,1217.26,737.1,1217.26,762Z"/><path class="cls-5" d="M1243,761.93V2424.15c0,24.86-19.68,46.59-43.79,48.29l-856.31,60.47c-26.66,1.88-48.54-18-48.54-44.28V734c0-26.24,21.88-47,48.54-46.15l856.31,27.49C1223.3,716.1,1243,737.07,1243,761.93Z"/><path class="cls-2" d="M1215.8,853.4V2394.15c0,23.22-18.41,43.48-41,45l-805.17,55.21c-24.79,1.7-45.13-16.89-45.13-41.33V832c0-24.43,20.34-43.88,45.13-43.23l805.17,21.36C1197.39,810.7,1215.8,830.18,1215.8,853.4Z"/><path class="cls-6" d="M797.38,753.93a15.42,15.42,0,0,1-15.89,15.56A16.54,16.54,0,0,1,765.57,753a15.42,15.42,0,0,1,15.92-15.56A16.54,16.54,0,0,1,797.38,753.93Z"/><polygon class="cls-7" points="747.77 1993.08 394.81 2007.42 394.81 1691.26 747.77 1682.43 747.77 1993.08"/><polygon class="cls-7" points="1151.34 1976.67 812.69 1990.44 812.69 1680.81 1151.34 1672.33 1151.34 1976.67"/><polygon class="cls-7" points="747.77 2374.9 394.81 2396.02 394.81 2079.86 747.77 2064.26 747.77 2374.9"/><polygon class="cls-7" points="1151.34 2350.75 812.69 2371.02 812.69 2061.38 1151.34 2046.41 1151.34 2350.75"/><g class="cls-8"><path class="cls-2" d="M623.49,1519.55c0,60.54-50.74,110.67-113.69,112-63.34,1.31-115-47.26-115-108.5s51.65-111.38,115-112C572.75,1410.42,623.49,1459,623.49,1519.55Z"/><path class="cls-2" d="M891,1515.48c0,59.74-49.4,109.18-110.67,110.45-61.65,1.28-111.91-46.65-111.91-107.06S718.63,1409,780.28,1408.4C841.55,1407.8,891,1455.75,891,1515.48Z"/><path class="cls-2" d="M1151.34,1511.52c0,59-48.09,107.73-107.75,109-60,1.24-109-46.06-109-105.66s48.93-108.4,109-109C1103.25,1405.26,1151.34,1452.57,1151.34,1511.52Z"/></g><path class="cls-9" d="M1750.86,2306.47l12.69-27.95c4.75-10.47,1.93-23.05-6.32-28.12l-32.85-20.18a361.86,361.86,0,0,0,18.26-79.46l36.67-2.58c9.46-.66,17.09-10.54,17.09-22.07v-30.65c0-11.53-7.63-20.44-17.09-19.9l-35.7,2a336.48,336.48,0,0,0-16.58-79l30.2-22.4a18.51,18.51,0,0,0,2.66-2.42l3.86,10,49.6-61-64.75-5.52a16,16,0,0,0-10.71-6.37,15.14,15.14,0,0,0-10.78,3l-29.83,21.67a273.13,273.13,0,0,0-49.23-59l2.25-4.7,45.59,9.32,5.79-75.48-69.24-11.42c-8-3.07-17,.81-21.34,9.85l-17.21,35.49c-22.11-11-3.79-22.57-28.92-25.92l26.29-38.71c0-12.06-77-20.1-87.4-20.1H1476c-10.54,0-19.1,9.91-19.1,22.14v41.45a247,247,0,0,0-74.66,24.23l47.56-34.94s-83.76-15.86-93.29-9.57L1311,1815c-9.64,6.37-13,20.31-7.37,31.1l19.27,37.31c-21.1,18.79-30.08,29.63-46,54.44l-44.78-10.11c-9.89-6.08-22.59-2-28.34,9.24l-15.34,29.89c-5.79,11.28-2.35,25.31,7.66,31.31l36.1,21.65a362.11,362.11,0,0,0-19.71,88.11l-43.32,2.48c-11.66.67-21.15,11.64-21.15,24.5v34.21c0,11.67,7.81,20.75,18,21.74v0l49.23,7.87a328,328,0,0,0,20.14,72.47l-39.24,28.52c-10,7.28-13.45,21.75-7.66,32.29l15.34,27.93c5.75,10.47,97,16.84,97,16.84l-29-40.63a263.05,263.05,0,0,0,54.74,54.8l-22.86,47.16c-5.58,11.5-2.27,25,7.37,30.16l25.49,13.6a16.67,16.67,0,0,0,5,1.69l-.1.48,79.52,9.8,7.77-60a226.61,226.61,0,0,0,28.19,2.54v51.34c0,9.13,4.77,16.35,11.58,18.87l-.35,1.5,78.78,9.84,1.58-97.34a261,261,0,0,0,41.59-20.24l21,40.64a15.85,15.85,0,0,0,11.55,8.79v0l76.13,10.3-26.07-71.76-10.53,3.23-17.35-34a325.55,325.55,0,0,0,48.3-61.44l34,20.37C1735.45,2321.53,1746.07,2317,1750.86,2306.47ZM1490,2280.17c-74.54,6.64-136.37-58.76-136.37-146.23s61.83-160.64,136.37-163.37c72.7-2.66,130.33,63,130.33,146.61S1562.68,2273.7,1490,2280.17Zm318.35-168,51.58-24.42-51.58-6.26ZM1745,2320.59l59,8,8.61-20.12-48.88-29.71Z"/><path class="cls-10" d="M1855.34,2086.9l-35.5,2a336.71,336.71,0,0,0-16.48-78.82l30-22.34c8.2-6.11,11-19,6.28-28.85l-12.62-26.25c-4.76-9.9-15.33-13-23.62-7l-29.65,21.63a272.5,272.5,0,0,0-49-58.8l17.06-35.75c4.9-10.25,2-23.24-6.5-29l-22.71-15.49c-8.59-5.85-19.61-2.26-24.6,8.06L1671,1851.7a224.81,224.81,0,0,0-70.81-21.75v-40.87c0-12.06-8.36-21.83-18.7-21.83l-27.68,0c-10.48,0-19,9.89-19,22.08v41.33a245,245,0,0,0-74.22,24.2l-18.49-36.36c-5.43-10.69-17.51-14.29-27-8l-25.34,16.8c-9.59,6.36-12.88,20.26-7.33,31l19.16,37.19a318.79,318.79,0,0,0-55.62,65.6l-34.69-21.36c-9.83-6-22.46-1.93-28.17,9.24l-15.26,29.8c-5.75,11.25-2.33,25.24,7.62,31.22l35.9,21.57a362,362,0,0,0-19.61,87.87l-43.06,2.48c-11.6.67-21,11.62-21,24.44v34.12c0,12.82,9.43,22.55,21,21.73l44.21-3.12a329.78,329.78,0,0,0,21.57,83.15l-39,28.46c-10,7.25-13.37,21.68-7.62,32.19l15.26,27.85c5.71,10.44,18.34,12.93,28.17,5.61l39.46-29.36a261.62,261.62,0,0,0,54.42,54.61l-22.73,47c-5.55,11.47-2.26,25,7.33,30.07l25.34,13.55c9.47,5.06,21.55-.09,27-11.47l22.54-47.22a223.5,223.5,0,0,0,70.17,13.28v51.19c0,12.19,8.52,21,19,19.64l27.68-3.54c10.34-1.33,18.7-12.17,18.7-24.23v-50.62a253.46,253.46,0,0,0,67-28.42l20.88,40.52c5,9.68,16,11.85,24.6,4.89l22.71-18.4c8.49-6.88,11.4-20.24,6.5-29.87l-20.26-39.84a324.67,324.67,0,0,0,48-61.28l33.78,20.29c8.29,5,18.86.47,23.62-10l12.62-27.87c4.73-10.45,1.92-23-6.28-28l-32.67-20.11a361.6,361.6,0,0,0,18.16-79.25l36.46-2.57c9.4-.67,17-10.53,17-22v-30.57C1872.34,2095.24,1864.74,2086.36,1855.34,2086.9Zm-287.69,204.15c-74.11,6.65-135.58-58.54-135.58-145.76s61.47-160.21,135.58-163c72.29-2.68,129.6,62.77,129.6,146.14S1639.94,2284.56,1567.65,2291.05Z"/><g class="cls-11"><path class="cls-12" d="M436.8,2406.15q0-42.06-30.33-62.2c-20.37-13.52-57.33-26.73-111.43-39.72-55-13.19-99.08-27.13-131.94-41.74C72,2221.82,25.53,2161.39,25.53,2082q0-61.89,37.41-111.3c24.72-32.65,59.94-58.25,105.33-76.78q67.23-27.45,148.72-28.12,80.64-.74,141.88,26.57,60.64,26.91,93.46,76.37c21.82,32.77-31.81,88.21-31.81,130.6l-83.22-11.94q0-49.48-31.84-76c-21.4-17.8-51.68-26.22-91.08-25.18-38.45,1-68.63,9.7-90.31,26.11s-32.78,37.81-32.78,63.78q0,36.41,38.39,59.19c25.37,15.07,62.38,28.39,110.67,39.95,87.21,20.76,149.39,48.45,187.81,83.18,38,34.35,56.85,78.81,56.85,133.69,0,61-23,111.28-69.61,151.2-47.21,40.47-111.81,65.69-194.77,75.41q-88.17,10.32-163-12.59c-50.51-15.57-89.5-40.58-116.61-75.06Q.07,2479,0,2404.64l167.45-13.84,84.68,12s-18.25,105.27,68.5,96.59c36.93-3.69,65.47-13.78,85.84-30.21S436.8,2431.89,436.8,2406.15Z"/><path class="cls-13" d="M1146.44,2145.21,818.87,2256.1v182.28l289.79-28.49,79.29,11.43L762.43,2577.1l-81-25.17V1872l426.43-4.54,78.64,11.42-367.6,105.22v162.18L1067.43,2133Z"/></g><path class="cls-14" d="M519.44,2417q0-41.94-30.15-62c-20.24-13.47-57-26.63-110.77-39.56-54.62-13.13-98.48-27-131.14-41.56-90.59-40.52-136.74-100.74-136.74-179.9q0-61.71,37.18-111c24.57-32.56,59.57-58.1,104.69-76.6q66.83-27.39,147.83-28.1,80.16-.77,141,26.43,60.29,26.8,92.9,76.1,32.54,49,32.49,112.16l-146.83,6.2q0-49.34-31.66-75.75c-21.27-17.74-51.37-26.12-90.53-25.07-38.22,1-68.22,9.7-89.77,26.08s-32.59,37.71-32.59,63.6q0,36.3,38.17,59c25.21,15,62,28.27,110,39.78,86.69,20.66,148.5,48.24,186.7,82.85,37.78,34.23,56.51,78.56,56.51,133.27,0,60.84-22.91,111-69.19,150.77C550.64,2594.12,486.43,2619.29,404,2629q-87.65,10.32-162-12.49c-50.19-15.51-89-40.43-115.9-74.8q-40.74-51.91-40.8-126l166.44-13.87c0,82.4,51.49,118.41,152.26,108.26q55.07-5.55,85.33-30.16Q519.49,2455.49,519.44,2417Z"/><path class="cls-15" d="M1146.36,2249.77l-247.11,17.49V2449l288.09-28.52v107.29l-424.76,49.45V1884.34l423.95-4.72v108.19l-287.28,8.24v161.7l247.11-13.29Z"/><path class="cls-16" d="M1393.51,2265.57a302,302,0,0,0-81.23,9.32c.88,2.31,1.75,4.62,2.68,6.89l-38.43,28c-9.8,7.14-13.16,21.35-7.49,31.7l15,27.43c5.63,10.27,18.06,12.73,27.75,5.52l38.85-28.92a257.16,257.16,0,0,0,53.6,53.79l-22.39,46.32c-5.46,11.3-2.22,24.57,7.22,29.62l25,13.34c9.33,5,21.21-.09,26.57-11.3l22.19-46.5a220.12,220.12,0,0,0,69.11,13.08v50.41c0,12,8.39,20.67,18.71,19.35l27.26-3.49c10.19-1.31,18.42-12,18.42-23.86v-49.86a249.43,249.43,0,0,0,66-28l20.56,39.9c4.91,9.52,15.73,11.67,24.18,4.85C1581,2304.94,1473.8,2267.67,1393.51,2265.57Z"/><path class="cls-17" d="M252.51,1906.42c-45.12,18.5-80.12,44-104.69,76.6q-37.12,49.18-37.18,111c0,79.16,46.15,139.38,136.74,179.9,32.66,14.55,76.52,28.43,131.14,41.56,53.78,12.93,90.53,26.09,110.77,39.56s30.15,34,30.15,62q0,38.49-30.15,62.9-30.36,24.59-85.33,30.16c-100.77,10.15-152.26-25.86-152.26-108.26L85.26,2415.69q0,74,40.8,126c26.94,34.37,65.71,59.29,115.9,74.8q74.25,22.93,162,12.49c82.47-9.72,146.68-34.89,193.62-75.27,46.28-39.81,69.19-89.93,69.19-150.77,0-54.71-18.73-99-56.51-133.27-38.2-34.61-100-62.19-186.7-82.85-48-11.51-84.79-24.78-110-39.78q-38.1-22.67-38.17-59,0-38.84,32.59-63.6a106.07,106.07,0,0,1,18.94-11.39c-22.61-24.36-43.45-60-55.91-113.61Q261.64,1902.69,252.51,1906.42Z"/><path class="cls-18" d="M517.28,2072.68a126.42,126.42,0,0,1,2.66,26.53l146.83-6.2q0-11.3-1-22.13C614.82,2066.1,564.76,2071.06,517.28,2072.68Z"/><path class="cls-19" d="M813.61,2123.53a288.17,288.17,0,0,0-51-28.71v482.4l424.76-49.45V2420.48L899.25,2449V2267.26l24.85-1.76C896.37,2224.38,883,2172.24,813.61,2123.53Z"/><path class="cls-20" d="M1835.14,1671.77l6.75-14.87c2.53-5.58,1-12.27-3.36-15l-17.48-10.74a193.21,193.21,0,0,0,9.72-42.28l19.51-1.36c5-.36,9.09-5.61,9.09-11.75v-16.31c0-6.13-4.06-10.87-9.09-10.59l-19,1.09a179.2,179.2,0,0,0-8.82-42.06l16.07-11.92a10.13,10.13,0,0,0,1.41-1.29l2.06,5.34,26.39-32.45-34.46-2.94a8.5,8.5,0,0,0-5.69-3.39,8,8,0,0,0-5.74,1.59l-15.87,11.53a145.29,145.29,0,0,0-26.2-31.39l1.2-2.5,24.26,5,3.08-40.16-36.84-6.08c-4.24-1.64-9,.43-11.36,5.24l-9.16,18.88c-11.76-5.85-2-12-15.38-13.79l14-20.59c0-6.42-41-10.7-46.5-10.7H1688.9c-5.61,0-10.17,5.27-10.17,11.78v22.06A131.09,131.09,0,0,0,1639,1425l25.3-18.59s-44.57-8.44-49.64-5.09l-13.56,9c-5.13,3.39-6.89,10.8-3.92,16.54l10.25,19.85c-11.22,10-16,15.77-24.5,29l-23.83-5.38c-5.26-3.23-12-1-15.08,4.92l-8.16,15.91c-3.08,6-1.25,13.46,4.07,16.66l19.22,11.51a192.87,192.87,0,0,0-10.5,46.89l-23.05,1.32c-6.2.35-11.25,6.19-11.25,13v18.21c0,6.21,4.16,11,9.56,11.57h0l26.2,4.2a174.44,174.44,0,0,0,10.71,38.55l-20.88,15.18c-5.32,3.87-7.15,11.57-4.07,17.18l8.16,14.86c3.06,5.57,51.61,9,51.61,9l-15.41-21.62a139.75,139.75,0,0,0,29.12,29.16l-12.16,25.1c-3,6.11-1.21,13.31,3.92,16l13.56,7.24a9.15,9.15,0,0,0,2.67.9l0,.25,42.31,5.22,4.14-31.94a119.79,119.79,0,0,0,15,1.36v27.32c0,4.85,2.54,8.7,6.16,10l-.18.8,41.92,5.23.84-51.79a139.05,139.05,0,0,0,22.12-10.77l11.18,21.62a8.43,8.43,0,0,0,6.15,4.68h0l40.52,5.48-13.88-38.18-5.6,1.72-9.23-18.11a172.62,172.62,0,0,0,25.7-32.69l18.08,10.84C1826.93,1679.78,1832.59,1677.38,1835.14,1671.77Zm-138.82-14c-39.66,3.53-72.56-31.27-72.56-77.81s32.9-85.48,72.56-86.93c38.69-1.42,69.35,33.52,69.35,78S1735,1654.33,1696.32,1657.78Zm169.4-89.37,27.44-13-27.44-3.33ZM1832,1679.28l31.39,4.24,4.59-10.71L1842,1657Z"/><path class="cls-21" d="M1890.73,1554.94l-18.89,1.09a178.67,178.67,0,0,0-8.77-41.94l16-11.89c4.36-3.25,5.86-10.11,3.34-15.35l-6.71-14c-2.53-5.27-8.16-6.94-12.57-3.73l-15.78,11.51a145.1,145.1,0,0,0-26-31.29l9.07-19c2.61-5.45,1.06-12.36-3.46-15.44l-12.08-8.25c-4.57-3.11-10.43-1.2-13.09,4.29l-9.1,18.84a119.8,119.8,0,0,0-37.68-11.58v-21.74c0-6.42-4.45-11.62-10-11.62h-14.73c-5.57,0-10.11,5.26-10.11,11.75v22a130.44,130.44,0,0,0-39.49,12.88l-9.84-19.35c-2.89-5.69-9.31-7.6-14.36-4.26l-13.48,8.94c-5.1,3.39-6.85,10.78-3.9,16.51l10.2,19.78a169.52,169.52,0,0,0-29.6,34.91l-18.46-11.36c-5.23-3.23-12-1-15,4.91l-8.11,15.86c-3.07,6-1.25,13.43,4,16.61l19.1,11.47a192.22,192.22,0,0,0-10.43,46.76l-22.92,1.32c-6.17.36-11.18,6.18-11.18,13v18.15c0,6.82,5,12,11.18,11.56l23.53-1.66a175,175,0,0,0,11.48,44.25L1582.18,1674c-5.3,3.86-7.12,11.54-4,17.13l8.11,14.82c3,5.55,9.76,6.88,15,3l21-15.62a139,139,0,0,0,29,29.06l-12.1,25c-2.95,6.1-1.2,13.27,3.9,16l13.48,7.21c5,2.69,11.47-.05,14.36-6.11l12-25.12a119.09,119.09,0,0,0,37.34,7.06v27.24c0,6.49,4.54,11.17,10.11,10.45l14.73-1.88c5.5-.71,10-6.48,10-12.89v-26.94a134.72,134.72,0,0,0,35.67-15.12l11.11,21.56c2.66,5.15,8.52,6.31,13.09,2.61l12.08-9.8a13.48,13.48,0,0,0,3.46-15.89l-10.78-21.2a172.41,172.41,0,0,0,25.55-32.61l18,10.8c4.41,2.65,10,.25,12.57-5.34l6.71-14.83c2.52-5.56,1-12.24-3.34-14.92L1861.67,1637a192.78,192.78,0,0,0,9.66-42.16l19.4-1.37c5-.36,9-5.6,9-11.72v-16.26C1899.77,1559.37,1895.73,1554.65,1890.73,1554.94Zm-153.08,108.62c-39.43,3.54-72.14-31.15-72.14-77.56s32.71-85.24,72.14-86.7c38.47-1.43,69,33.4,69,77.76S1776.12,1660.11,1737.65,1663.56Z"/><path class="cls-22" d="M409.39,882.42V1332.2c0,14.93,11.58,26.79,25.82,26.48l808-17.46c11.93-.26,21.57-11.5,21.57-25.12v-410Z"/><path class="cls-23" d="M1243.23,853.31l-808-27.13c-14.24-.47-25.82,11.24-25.82,26.18v46.08l855.41,22.25v-42C1264.8,865.07,1255.16,853.71,1243.23,853.31Z"/><path class="cls-2" d="M468.53,863.14c0,6.6-5.1,11.81-11.39,11.63s-11.41-5.69-11.41-12.31,5.11-11.81,11.41-11.62S468.53,856.55,468.53,863.14Z"/><polygon class="cls-2" points="586 1297.4 521.76 1298.39 521.76 964.73 586 965.98 586 1297.4"/><polygon class="cls-24" points="586 1297.4 521.76 1298.39 521.76 1139.98 586 1140.05 586 1297.4"/><polygon class="cls-2" points="673.96 1296.03 610.91 1297.01 610.91 966.46 673.96 967.68 673.96 1296.03"/><polygon class="cls-25" points="673.96 1296.03 610.91 1297.01 610.91 1218.54 673.96 1218.09 673.96 1296.03"/><polygon class="cls-2" points="760.3 1294.69 698.41 1295.65 698.41 968.16 760.3 969.36 760.3 1294.69"/><polygon class="cls-25" points="760.3 1294.69 698.41 1295.65 698.41 1254.84 760.3 1254.15 760.3 1294.69"/><polygon class="cls-2" points="845.08 1293.38 784.3 1294.32 784.3 969.82 845.08 971 845.08 1293.38"/><polygon class="cls-25" points="845.08 1293.38 784.3 1294.32 784.3 1040.11 845.08 1040.83 845.08 1293.38"/><polygon class="cls-2" points="928.32 1292.09 868.64 1293.01 868.64 971.46 928.32 972.61 928.32 1292.09"/><polygon class="cls-25" points="928.32 1292.09 868.64 1293.01 868.64 1069.74 928.32 1070.26 928.32 1292.09"/><polygon class="cls-2" points="1010.08 1290.82 951.46 1291.73 951.46 973.06 1010.08 974.2 1010.08 1290.82"/><polygon class="cls-25" points="1010.08 1290.82 951.46 1291.73 951.46 1019.4 1010.08 1020.24 1010.08 1290.82"/><polygon class="cls-2" points="1090.39 1289.58 1032.81 1290.47 1032.81 974.64 1090.39 975.75 1090.39 1289.58"/><polygon class="cls-25" points="1090.39 1289.58 1032.81 1290.47 1032.81 1096.47 1090.39 1096.81 1090.39 1289.58"/><polygon class="cls-2" points="1169.3 1288.35 1112.72 1289.23 1112.72 976.19 1169.3 977.28 1169.3 1288.35"/><polygon class="cls-25" points="1169.3 1288.35 1112.72 1289.23 1112.72 1180.55 1169.3 1180.36 1169.3 1288.35"/><path class="cls-26" d="M1139.55,1842.37c7,7,9.77,14.56,7.25,19-1.75,3.05-5.61,3.85-9.84,4.66-6.68,1.28-13.65.94-28-3.11-13.37-3.77-21.22-6-21.23-9.2,0-3,6.87-5.34,12.9-7.39a75.64,75.64,0,0,1,21.15-3.94Z"/><path class="cls-27" d="M931.67,1728.52c3.13,1.35,7.15,3.74,8.22,7.68,1.69,6.23-5,12.66-15.6,22.68-8,7.52-18.77,17.68-22.53,15.12-2.3-1.57-.94-7.21.33-12.47a70.12,70.12,0,0,1,13.22-26.83Z"/><path class="cls-28" d="M1124.28,1826.91l15,16.6a3.1,3.1,0,0,1-1.45,5.06c-3.28.92-7.85,1.66-12,.47a5.82,5.82,0,0,1-2.42-1.49L1108.4,1833Z"/><path class="cls-29" d="M923.37,1718.49l8.08,11.64a3.37,3.37,0,0,1-1.17,4.87,29.07,29.07,0,0,1-4,1.85,6.09,6.09,0,0,1-6.63-1.65l-8.75-9.86Z"/><path class="cls-30" d="M1068.35,1474.84a282.49,282.49,0,0,0-22.53,68.12c-2.36,12.17-13.4,73.48,10.33,147.35,22.09,68.76,62.78,112.52,84.42,132.81a57,57,0,0,1-12.8,8.2,57.76,57.76,0,0,1-22,5.3c-66.11-47.19-98.17-100.66-112.73-129.76-49.1-98.17-36.78-194.55-15.32-235.31,7-13.39,15-20.63,24-23.86C1030.71,1437.34,1064.27,1470.68,1068.35,1474.84Z"/><path class="cls-31" d="M977.74,1471.55c7-13.39,15-20.63,24-23.86,28.94-10.35,62.5,23,66.58,27.15a283.35,283.35,0,0,0-22.28,66.93c-20.21,4.75-48.46,16-62.23,42.68-22.27,43.11,9.75,94.78,16.39,105.51,14.63,23.6,23.48,21.38,45.08,55.31,16.31,25.63,17.55,36.79,31.75,49.17,16.69,14.57,37.54,18.83,54.37,19.76,3.3,3.36,6.38,6.34,9.14,8.92a57,57,0,0,1-12.8,8.2,57.76,57.76,0,0,1-22,5.3c-66.11-47.19-98.17-100.66-112.73-129.76C944,1608.69,956.28,1512.31,977.74,1471.55Z"/><path class="cls-32" d="M1031,1471.25a113.85,113.85,0,0,1-20,28.68c-26,27.06-50.21,24.5-77.7,46.79-3.39,2.75-27.74,22.94-36.73,52.4-17.31,56.71,33,112.62,38.56,118.64A60.42,60.42,0,0,1,904.45,1733c-72.12-65.9-107.36-145.75-83.36-197.64,13.09-28.31,44.08-48.89,67-64.09a298.75,298.75,0,0,1,96.41-41.65Z"/><path class="cls-33" d="M987.94,1320.84c-1.08,31.89,6.31,48.42-4.05,74.45-7.44,18.7-19.76,31.55-29.12,39.54a124.12,124.12,0,0,0,111.71,67c24.2-12.45,60.9-35.92,90.36-77.7,20-28.33,41.9-59.43,36.1-99.08-7.37-50.37-54-77.28-67.28-84.91-8.71-5-68.86-39.7-105.62-14.21C990.48,1246.41,988.75,1297,987.94,1320.84Z"/><path class="cls-34" d="M786.91,1357c-1-5.15-4.65-8.89-6.76-11-2.44-2.47-2.94-2.08-4.53-4.1-4-5.07-3-10.32-4.59-10.5-1.34-.15-3.7,3.63-3.54,7.54.18,4.36,3.37,5.67,2.77,8.09-.84,3.4-8.41,5.87-15.11,4.61-7.77-1.47-11.56-7.74-14.6-6.15-2.2,1.15-2.06,5.27-2,5.63.33,7.73,10.66,15.85,20.74,16.91,5.8.61,8-1.5,14.85.25,4.57,1.16,6.16,2.73,8.45,1.79C786.31,1368.56,787.83,1362,786.91,1357Z"/><path class="cls-33" d="M785.8,1354.3c62.1,4.3,99.2-11.85,121.56-27.31,50.72-35.08,60.68-90.86,119.51-105.86,10.73-2.73,29.41-7.5,39.61,2,21.18,19.84-3.8,92.57-47.81,137.27-9.71,9.87-44.73,44.4-102.52,52.19-74.06,10-127.19-31.8-136.35-39.26a11.71,11.71,0,0,1-2.28-11.87C779.64,1355.86,785.33,1354.41,785.8,1354.3Z"/><path class="cls-35" d="M1093.11,1452c17.49-16.57,9.21-26.83,30.73-60.1,21.93-33.89,37.7-34.52,47.81-57.36,5.22-11.82,8.44-28.8,2.69-53.18,8.85,11.94,16.07,26.41,18.6,43.71,5.8,39.65-16.13,70.75-36.1,99.08-29.46,41.78-66.16,65.25-90.36,77.7a125.76,125.76,0,0,1-69.77-20.44,123.17,123.17,0,0,1-25.85-22.79,115.36,115.36,0,0,0,31.42,11.82C1008.12,1471.66,1061.06,1482.32,1093.11,1452Z"/><path class="cls-36" d="M1109.15,1205.63l5.06,17.09a27.4,27.4,0,0,0,9.39,13.81l13.43,10.52s-41-6.88-60.53-26l12-3.77a3,3,0,0,0,2.11-2.88v-12.57Z"/><path class="cls-37" d="M1094.43,1214.27c-2-.44-16.08,1.88-20.1-4.92-5.46-9.22,0-24,.52-26.23,2.29-9.53,3.15-11,4.92-13l2.5-2.64s.15-.12.32-.23c1.74-1.2,8.23-3.14,9.63-3.21,4.48-.23,13.6,15.83,18.82,40.59q.63,1.32,1.26,2.67C1113.38,1209.65,1094.56,1215.17,1094.43,1214.27Z"/><path class="cls-38" d="M1071.64,1162.89c2,7.55,7.75,14.68,9.91,15.49a13.27,13.27,0,0,1,3.54,2.26,4.16,4.16,0,0,1,.67.78c2.93,4.32-3.16,11.95-1.12,13.7,1.47,1.26,6.07-2.18,7-1s-2.68,4.85-1.62,6.18c.8,1,3.15-.73,5.28.57,1.06.64,1,1.4,2.58,3.82a25.59,25.59,0,0,0,2.81,3.59c3.8,3.74,11.63,3.39,12.58,1.24.27-.61-.18-.93-.22-2.7a13.57,13.57,0,0,1,.56-3.71c.85-2.95,4.06-5.75,7.08-9.43,5.58-6.82,6.33-11.56,6.51-13.14.06-.56.08-1,.1-1.28.31-6.06-1.87-14.24-5.71-18.61-6.45-7.32-14.85-.79-24.83-7.08-11.51-7.26-9.7-21.85-14.94-22C1076.08,1131.36,1067.86,1148.92,1071.64,1162.89Z"/><path class="cls-39" d="M1086.88,1192.62c1.18-3,5.07-1.52,6,1.77s-1.38,7.57-4.66,7.74S1085.3,1196.71,1086.88,1192.62Z"/></g></g></svg>