<svg xmlns="http://www.w3.org/2000/svg" viewBox="0 0 360.91 342.95"><defs><style>.cls-1{fill:#f5f5f5;}.cls-2{fill:#e6e6e6;}.cls-3{fill:#37474f;}.cls-4{fill:#455a64;}.cls-5{fill:#ba68c8;}.cls-24,.cls-6{opacity:0.6;}.cls-11,.cls-14,.cls-24,.cls-31,.cls-7{fill:#fff;}.cls-8{fill:#e0e0e0;}.cls-9{fill:#ebebeb;}.cls-10{opacity:0.15;}.cls-11,.cls-13,.cls-27{opacity:0.2;}.cls-12{fill:#f0f0f0;}.cls-14,.cls-15,.cls-18{opacity:0.3;}.cls-16{opacity:0.39;}.cls-17{isolation:isolate;}.cls-19{opacity:0.5;}.cls-20{fill:#263238;}.cls-21{fill:none;}.cls-22,.cls-26{opacity:0.4;}.cls-23{fill:#ffc3c2;}.cls-25{fill:#ffa8a7;}.cls-28{fill:#ff9192;}.cls-29{fill:#f28f8f;}.cls-30{fill:#9c5756;}.cls-31{opacity:0.1;}.cls-32{fill:#803837;}</style></defs><g id="Floor"><path class="cls-1" d="M391,280.26c-66.77-38.54-174.66-38.54-241,0s-66,101.05.78,139.59,174.66,38.55,241,0S457.73,318.81,391,280.26Z" transform="translate(-91.08 -105.82)"/></g><g id="Shadows"><path class="cls-2" d="M418.57,355.29c6-3.46,15.65-3.45,21.59,0s5.91,9-.07,12.5-15.64,3.46-21.59,0S412.59,358.74,418.57,355.29Z" transform="translate(-91.08 -105.82)"/><path class="cls-2" d="M123.81,404.39c15.89-9.18,41.58-9.18,57.36,0s15.71,24.05-.18,33.23-41.58,9.17-57.37,0S107.92,413.56,123.81,404.39Z" transform="translate(-91.08 -105.82)"/><path class="cls-2" d="M193,326.64c-15-8.65-39.19-8.65-54.07,0s-14.8,22.67.18,31.32,39.18,8.65,54.07,0S208,335.29,193,326.64Z" transform="translate(-91.08 -105.82)"/><path class="cls-2" d="M221,391.2c16.82-9.71,44-9.71,60.7,0s16.62,25.45-.19,35.16-44,9.71-60.71,0S204.15,400.91,221,391.2Z" transform="translate(-91.08 -105.82)"/><polygon class="cls-2" points="124.12 187.36 310.37 294.14 319.93 288.58 133.63 181.81 124.12 187.36"/></g><g id="Lamp"><g id="freepik--light-bulb--inject-77"><g id="freepik--Idea--inject-77"><g id="freepik--light--inject-77"><path class="cls-3" d="M161.45,155.42a2.27,2.27,0,1,1-3-1.19,2.27,2.27,0,0,1,3,1.19Z" transform="translate(-91.08 -105.82)"/><path class="cls-4" d="M156.9,157.53c-1.72-.21-2.27-1.51-1.23-2.9a6,6,0,0,1,5-2.12c1.72.22,2.27,1.51,1.23,2.89A6,6,0,0,1,156.9,157.53Z" transform="translate(-91.08 -105.82)"/><path class="cls-3" d="M156.5,156.81c-1.77-.22-2.34-1.55-1.27-3a6.25,6.25,0,0,1,5.17-2.2c1.77.23,2.34,1.56,1.26,3A6.18,6.18,0,0,1,156.5,156.81Z" transform="translate(-91.08 -105.82)"/><path class="cls-4" d="M156.1,156.08c-1.82-.23-2.41-1.6-1.27-3.05a6.39,6.39,0,0,1,5.3-2.25c1.83.23,2.42,1.6,1.31,3.07A6.4,6.4,0,0,1,156.1,156.08Z" transform="translate(-91.08 -105.82)"/><path class="cls-3" d="M155.67,155.3c-1.88-.23-2.48-1.65-1.34-3.16a6.59,6.59,0,0,1,5.48-2.34c1.88.24,2.49,1.65,1.34,3.17A6.61,6.61,0,0,1,155.67,155.3Z" transform="translate(-91.08 -105.82)"/><path class="cls-4" d="M155.24,154.5c-2-.27-2.54-1.68-1.37-3.24a6.7,6.7,0,0,1,5.6-2.37c1.92.23,2.54,1.68,1.37,3.23A6.74,6.74,0,0,1,155.24,154.5Z" transform="translate(-91.08 -105.82)"/><path class="cls-5" d="M147.71,129A10.78,10.78,0,0,0,142,143.08l0,0c3.35,7.89,10.41,6.44,11.77,9.61a1.88,1.88,0,0,0,1.6,1,5.85,5.85,0,0,0,4.85-2.06,1.85,1.85,0,0,0,.4-1.81h0c-1.35-3.18,4.6-7.26,1.25-15.16A10.79,10.79,0,0,0,147.74,129Z" transform="translate(-91.08 -105.82)"/><g class="cls-6"><path class="cls-7" d="M147.71,129A10.78,10.78,0,0,0,142,143.08l0,0c3.35,7.89,10.41,6.44,11.77,9.61a1.88,1.88,0,0,0,1.6,1,5.85,5.85,0,0,0,4.85-2.06,1.85,1.85,0,0,0,.4-1.81h0c-1.35-3.18,4.6-7.26,1.25-15.16A10.79,10.79,0,0,0,147.74,129Z" transform="translate(-91.08 -105.82)"/></g><path class="cls-5" d="M155.8,153.05c-1.23-.17-1.66-1.09-.92-2.08a4.4,4.4,0,0,1,3.65-1.55c1.23.18,1.65,1.1.9,2.11A4.38,4.38,0,0,1,155.8,153.05Z" transform="translate(-91.08 -105.82)"/><path class="cls-7" d="M158.4,150.42a.38.38,0,0,1-.48-.19,26.83,26.83,0,0,1-1.71-6,11.92,11.92,0,0,1-.17-1.79,4.63,4.63,0,0,1-1-.06,6.36,6.36,0,0,1-1.81-.57,6.75,6.75,0,0,1-.85,1.67,5.07,5.07,0,0,1-.69.78,14,14,0,0,1,1.18,1.37,26.26,26.26,0,0,1,3.1,5.39.36.36,0,0,1-.2.47.37.37,0,0,1-.48-.2,25.88,25.88,0,0,0-3-5.22,12.44,12.44,0,0,0-1.16-1.36,2.29,2.29,0,0,1-2.12.25,1.18,1.18,0,0,1-.74-1.33,1,1,0,0,1,.76-.78,2.83,2.83,0,0,1,2.15.91,4.21,4.21,0,0,0,.62-.71,5.7,5.7,0,0,0,.8-1.62,2.75,2.75,0,0,1-1.3-1.68,1,1,0,0,1,.63-1.06A1,1,0,0,1,153,139a2.63,2.63,0,0,1,.32,2.1,5.49,5.49,0,0,0,1.72.55,4.21,4.21,0,0,0,.94,0,2.8,2.8,0,0,1,.84-2.17,1,1,0,0,1,1.09,0,1.17,1.17,0,0,1,.44,1.45,2.33,2.33,0,0,1-1.64,1.36,11.89,11.89,0,0,0,.16,1.78,26,26,0,0,0,1.67,5.8.37.37,0,0,1-.19.48Zm-9.33-6.79a.26.26,0,0,0-.14.2c-.07.3.23.46.32.5a1.44,1.44,0,0,0,1.23-.11,2.17,2.17,0,0,0-1.36-.62Zm7.73-2.06a1.48,1.48,0,0,0,.93-.82c0-.09.12-.41-.13-.57s-.24-.06-.3,0A2,2,0,0,0,156.8,141.57Zm-4.63-2.15a.25.25,0,0,0-.18.3h0a1.69,1.69,0,0,0,.73,1,1.81,1.81,0,0,0-.21-1.21.24.24,0,0,0-.34-.08Z" transform="translate(-91.08 -105.82)"/></g><path class="cls-8" d="M146.18,125.17l-.16.1a.72.72,0,0,1-.93-.37l-1.46-3.38a.71.71,0,0,1,.36-.92h0a.71.71,0,0,1,.93.37l1.46,3.38A.71.71,0,0,1,146.18,125.17Z" transform="translate(-91.08 -105.82)"/><path class="cls-8" d="M139.81,130.21a.71.71,0,0,1-.86,0L136,128a.71.71,0,0,1,.84-1.14l2.95,2.19a.71.71,0,0,1,.15,1A.53.53,0,0,1,139.81,130.21Z" transform="translate(-91.08 -105.82)"/><path class="cls-8" d="M136.82,137.77a.7.7,0,0,1-.52.15l-3.66-.42a.71.71,0,1,1,.16-1.41l3.65.42a.7.7,0,0,1,.62.78A.65.65,0,0,1,136.82,137.77Z" transform="translate(-91.08 -105.82)"/><path class="cls-8" d="M138,145.81a.49.49,0,0,1-.13.12l-3.38,1.46a.7.7,0,0,1-.92-.35v0a.7.7,0,0,1,.35-.92h0l3.36-1.5a.71.71,0,0,1,.72,1.2Z" transform="translate(-91.08 -105.82)"/><path class="cls-8" d="M170.19,131.89a.53.53,0,0,1-.13.13l-3.4,1.43a.71.71,0,0,1-.56-1.3l3.38-1.46a.71.71,0,0,1,.91.4.71.71,0,0,1-.2.8Z" transform="translate(-91.08 -105.82)"/><path class="cls-8" d="M161.78,127a.72.72,0,0,1-1-.13.7.7,0,0,1,0-.84l2.2-3a.7.7,0,0,1,1-.16h0a.7.7,0,0,1,.15,1h0l-2.2,3A.74.74,0,0,1,161.78,127Z" transform="translate(-91.08 -105.82)"/><path class="cls-8" d="M154.22,124a.7.7,0,0,1-1.14-.63l.45-3.62a.71.71,0,0,1,.84-.55.7.7,0,0,1,.56.71l-.42,3.65A.71.71,0,0,1,154.22,124Z" transform="translate(-91.08 -105.82)"/></g></g><g id="freepik--light-bulb--inject-77-2" data-name="freepik--light-bulb--inject-77"><g id="freepik--Idea--inject-77-2" data-name="freepik--Idea--inject-77"><g id="freepik--light--inject-77-2" data-name="freepik--light--inject-77"><path class="cls-3" d="M127.68,247.26a2.26,2.26,0,1,1-3.16.53,2.27,2.27,0,0,1,3.16-.54Z" transform="translate(-91.08 -105.82)"/><path class="cls-4" d="M124.9,251.43c-1.57.72-2.72-.1-2.56-1.83a6,6,0,0,1,3.17-4.43c1.57-.71,2.72.11,2.55,1.83A6,6,0,0,1,124.9,251.43Z" transform="translate(-91.08 -105.82)"/><path class="cls-3" d="M124.19,251c-1.63.74-2.81-.1-2.64-1.88a6.24,6.24,0,0,1,3.26-4.57c1.63-.73,2.81.1,2.63,1.89A6.17,6.17,0,0,1,124.19,251Z" transform="translate(-91.08 -105.82)"/><path class="cls-4" d="M123.46,250.61c-1.67.75-2.88-.11-2.67-1.93a6.36,6.36,0,0,1,3.35-4.69c1.67-.77,2.89.1,2.72,1.93A6.42,6.42,0,0,1,123.46,250.61Z" transform="translate(-91.08 -105.82)"/><path class="cls-3" d="M122.69,250.17c-1.72.78-3-.11-2.79-2a6.55,6.55,0,0,1,3.45-4.85c1.73-.78,3,.11,2.8,2A6.59,6.59,0,0,1,122.69,250.17Z" transform="translate(-91.08 -105.82)"/><path class="cls-4" d="M121.91,249.71c-1.8.79-3-.11-2.86-2a6.69,6.69,0,0,1,3.54-4.95c1.75-.81,3,.1,2.85,2A6.73,6.73,0,0,1,121.91,249.71Z" transform="translate(-91.08 -105.82)"/><path class="cls-5" d="M102.15,231.86a10.77,10.77,0,0,0,2.48,15l0,0c7,5,12.24.07,15.06,2.06a1.87,1.87,0,0,0,1.87,0,5.85,5.85,0,0,0,3.07-4.28,1.87,1.87,0,0,0-.61-1.76h0c-2.82-2,.13-8.59-6.85-13.57a10.79,10.79,0,0,0-15,2.47Z" transform="translate(-91.08 -105.82)"/><g class="cls-6"><path class="cls-7" d="M102.15,231.86a10.77,10.77,0,0,0,2.48,15l0,0c7,5,12.24.07,15.06,2.06a1.87,1.87,0,0,0,1.87,0,5.85,5.85,0,0,0,3.07-4.28,1.87,1.87,0,0,0-.61-1.76h0c-2.82-2,.13-8.59-6.85-13.57a10.79,10.79,0,0,0-15,2.47Z" transform="translate(-91.08 -105.82)"/></g><path class="cls-5" d="M121.63,248.18c-1.14.5-2-.06-1.87-1.29a4.41,4.41,0,0,1,2.3-3.23c1.15-.49,2,.07,1.87,1.33A4.37,4.37,0,0,1,121.63,248.18Z" transform="translate(-91.08 -105.82)"/><path class="cls-7" d="M122.46,244.58a.36.36,0,0,1-.5.09,26,26,0,0,1-4.57-4.2,12.46,12.46,0,0,1-1.08-1.43,5.91,5.91,0,0,1-.93.49,6.2,6.2,0,0,1-1.85.46,6.14,6.14,0,0,1,.16,1.86,5.84,5.84,0,0,1-.18,1,14.24,14.24,0,0,1,1.71.56,26.32,26.32,0,0,1,5.47,3,.37.37,0,0,1-.44.59,26.15,26.15,0,0,0-5.3-2.88,12.58,12.58,0,0,0-1.71-.54,2.3,2.3,0,0,1-1.67,1.31,1.18,1.18,0,0,1-1.33-.75,1,1,0,0,1,.24-1.06,2.81,2.81,0,0,1,2.31-.34,4.11,4.11,0,0,0,.16-.93,5.73,5.73,0,0,0-.16-1.8,2.72,2.72,0,0,1-2-.76,1,1,0,0,1,0-1.22,1,1,0,0,1,1.16-.38,2.64,2.64,0,0,1,1.37,1.63,5.55,5.55,0,0,0,1.75-.43,4.49,4.49,0,0,0,.83-.46,2.78,2.78,0,0,1-.42-2.29,1,1,0,0,1,.94-.55,1.17,1.17,0,0,1,1.14,1,2.31,2.31,0,0,1-.7,2,13.42,13.42,0,0,0,1.07,1.44,26.05,26.05,0,0,0,4.45,4.07.37.37,0,0,1,.09.51ZM111,243.67a.23.23,0,0,0,0,.24c.09.29.43.27.53.26a1.48,1.48,0,0,0,1-.73,2.05,2.05,0,0,0-1.48.18Zm5.52-5.8a1.49,1.49,0,0,0,.36-1.18c0-.1-.11-.42-.42-.42a.25.25,0,0,0-.26.14A2,2,0,0,0,116.49,237.87Zm-5.07.59a.24.24,0,0,0,0,.34h0a1.81,1.81,0,0,0,1.15.46,1.86,1.86,0,0,0-.82-.93.25.25,0,0,0-.33.11h0Z" transform="translate(-91.08 -105.82)"/></g><path class="cls-8" d="M98.86,229.43a.89.89,0,0,1-.08.17.72.72,0,0,1-1,.17l-3-2.12a.71.71,0,0,1-.17-1h0a.71.71,0,0,1,1-.17l3,2.12A.72.72,0,0,1,98.86,229.43Z" transform="translate(-91.08 -105.82)"/><path class="cls-8" d="M96.06,237.06a.69.69,0,0,1-.72.46l-3.66-.33a.7.7,0,0,1,.13-1.4l3.65.32a.71.71,0,0,1,.64.77A.39.39,0,0,1,96.06,237.06Z" transform="translate(-91.08 -105.82)"/><path class="cls-8" d="M97.46,245.06a.68.68,0,0,1-.37.41L93.75,247a.72.72,0,0,1-.94-.34.71.71,0,0,1,.35-.94l3.33-1.56a.71.71,0,0,1,.94.35A.7.7,0,0,1,97.46,245.06Z" transform="translate(-91.08 -105.82)"/><path class="cls-8" d="M102.66,251.3a.58.58,0,0,1,0,.18l-2.12,3a.71.71,0,0,1-1,.18h0a.71.71,0,0,1-.18-1h0l2.09-3a.7.7,0,0,1,1-.14.71.71,0,0,1,.25.78Z" transform="translate(-91.08 -105.82)"/><path class="cls-8" d="M122.85,222.62a.41.41,0,0,1,0,.18l-2.15,3a.7.7,0,1,1-1.15-.81l2.11-3a.71.71,0,0,1,1-.13.7.7,0,0,1,.24.78Z" transform="translate(-91.08 -105.82)"/><path class="cls-8" d="M113.11,222.83a.71.71,0,0,1-1.37-.31l.34-3.66a.69.69,0,0,1,.74-.64h0a.7.7,0,0,1,.65.75h0l-.33,3.66A1.16,1.16,0,0,1,113.11,222.83Z" transform="translate(-91.08 -105.82)"/><path class="cls-8" d="M105.1,224.22a.7.7,0,0,1-.91.42.69.69,0,0,1-.39-.36L102.29,221a.71.71,0,0,1,1.28-.59l1.54,3.34A.67.67,0,0,1,105.1,224.22Z" transform="translate(-91.08 -105.82)"/></g></g></g><g id="Plant"><path class="cls-7" d="M414.85,335.42l14.48.42,14.48-.42c.63,9.78-1.28,19.74-3.92,24.61h0A6.57,6.57,0,0,1,437,363c-4.27,2.46-11.18,2.46-15.42,0a6.43,6.43,0,0,1-2.87-3C416.12,355.06,414.23,345.15,414.85,335.42Z" transform="translate(-91.08 -105.82)"/><path class="cls-9" d="M419.13,329.49c-5.68,3.27-5.71,8.58-.07,11.86s14.8,3.28,20.48,0,5.7-8.59.06-11.86S424.8,326.21,419.13,329.49Z" transform="translate(-91.08 -105.82)"/><path class="cls-8" d="M421.37,330.79c-4.43,2.56-4.45,6.7-.05,9.26s11.55,2.55,16,0,4.45-6.7.06-9.26S425.8,328.24,421.37,330.79Z" transform="translate(-91.08 -105.82)"/><g class="cls-10"><path d="M421.37,330.79c-4.43,2.56-4.45,6.7-.05,9.26s11.55,2.55,16,0,4.45-6.7.06-9.26S425.8,328.24,421.37,330.79Z" transform="translate(-91.08 -105.82)"/></g><path class="cls-4" d="M436.72,305.79c2.35-2.93,5.09-5.55,7.25-8.63,1.47-2.1,2.7-4.66,2.08-7.15a6.37,6.37,0,0,0-5.07-4.46,9.74,9.74,0,0,0-6.8,1.51A21,21,0,0,0,429,292a51.07,51.07,0,0,0-10.76,36.49,7.56,7.56,0,0,0,1.34,4.19A4.19,4.19,0,0,0,424,334c3.94-1.17,3.42-6.5,4.06-9.63a44.17,44.17,0,0,1,4.53-12.3A43,43,0,0,1,436.72,305.79Z" transform="translate(-91.08 -105.82)"/><path class="cls-11" d="M436.72,305.79c2.35-2.93,5.09-5.55,7.25-8.63,1.47-2.1,2.7-4.66,2.08-7.15a6.37,6.37,0,0,0-5.07-4.46,9.74,9.74,0,0,0-6.8,1.51A21,21,0,0,0,429,292a51.07,51.07,0,0,0-10.76,36.49,7.56,7.56,0,0,0,1.34,4.19A4.19,4.19,0,0,0,424,334c3.94-1.17,3.42-6.5,4.06-9.63a44.17,44.17,0,0,1,4.53-12.3A43,43,0,0,1,436.72,305.79Z" transform="translate(-91.08 -105.82)"/><path class="cls-12" d="M423.7,330a.35.35,0,0,0,.28-.32c.28-6.33,2.33-27.95,17.23-40.21a.35.35,0,0,0,.05-.49.36.36,0,0,0-.49,0c-15.11,12.44-17.2,34.3-17.48,40.71a.35.35,0,0,0,.33.36Z" transform="translate(-91.08 -105.82)"/><path class="cls-4" d="M421.53,330.68a10.56,10.56,0,0,0,4.83,6.7,13.6,13.6,0,0,0,7.32,1.23,32.41,32.41,0,0,0,7.43-1.76c1.19-.4,2.52-1,2.65-2.43a2.6,2.6,0,0,0-.85-2.08,7.19,7.19,0,0,0-.77-.66.76.76,0,0,1,.41-1.37,16.83,16.83,0,0,0,2.12-.27,9.2,9.2,0,0,0,4.44-2,7.38,7.38,0,0,0,2.06-3,2.84,2.84,0,0,0-.3-3,3.22,3.22,0,0,0-1.64-.72c-.53-.11-1.06-.21-1.6-.29a.71.71,0,0,1-.16-1.35l2.25-.94a4.23,4.23,0,0,0,1.7-1.06,3.69,3.69,0,0,0,.43-3.09c-.27-1.41-.76-2.77-1.09-4.16a9,9,0,0,1-.15-4.25A35.51,35.51,0,0,0,438,307a9,9,0,0,0-3.43,1.5,5,5,0,0,0-1.62,4.63.33.33,0,0,1-.61.17l-1.44-2.65a1.69,1.69,0,0,0-2.23-.71,10.28,10.28,0,0,0-3.28,2.58,5.71,5.71,0,0,0-1.41,4.2,36.84,36.84,0,0,0,1.05,6.17.57.57,0,0,1-.89.6l-.07-.05a2,2,0,0,0-1.36-.39c-1.26.16-1.59,1.44-1.67,2.54A21.29,21.29,0,0,0,421.53,330.68Z" transform="translate(-91.08 -105.82)"/><path class="cls-13" d="M421.53,330.68a10.56,10.56,0,0,0,4.83,6.7,13.6,13.6,0,0,0,7.32,1.23,32.41,32.41,0,0,0,7.43-1.76c1.19-.4,2.52-1,2.65-2.43a2.6,2.6,0,0,0-.85-2.08,7.19,7.19,0,0,0-.77-.66.76.76,0,0,1,.41-1.37,16.83,16.83,0,0,0,2.12-.27,9.2,9.2,0,0,0,4.44-2,7.38,7.38,0,0,0,2.06-3,2.84,2.84,0,0,0-.3-3,3.22,3.22,0,0,0-1.64-.72c-.53-.11-1.06-.21-1.6-.29a.71.71,0,0,1-.16-1.35l2.25-.94a4.23,4.23,0,0,0,1.7-1.06,3.69,3.69,0,0,0,.43-3.09c-.27-1.41-.76-2.77-1.09-4.16a9,9,0,0,1-.15-4.25A35.51,35.51,0,0,0,438,307a9,9,0,0,0-3.43,1.5,5,5,0,0,0-1.62,4.63.33.33,0,0,1-.61.17l-1.44-2.65a1.69,1.69,0,0,0-2.23-.71,10.28,10.28,0,0,0-3.28,2.58,5.71,5.71,0,0,0-1.41,4.2,36.84,36.84,0,0,0,1.05,6.17.57.57,0,0,1-.89.6l-.07-.05a2,2,0,0,0-1.36-.39c-1.26.16-1.59,1.44-1.67,2.54A21.29,21.29,0,0,0,421.53,330.68Z" transform="translate(-91.08 -105.82)"/><path class="cls-11" d="M421.53,330.68a10.56,10.56,0,0,0,4.83,6.7,13.6,13.6,0,0,0,7.32,1.23,32.41,32.41,0,0,0,7.43-1.76c1.19-.4,2.52-1,2.65-2.43a2.6,2.6,0,0,0-.85-2.08,7.19,7.19,0,0,0-.77-.66.76.76,0,0,1,.41-1.37,16.83,16.83,0,0,0,2.12-.27,9.2,9.2,0,0,0,4.44-2,7.38,7.38,0,0,0,2.06-3,2.84,2.84,0,0,0-.3-3,3.22,3.22,0,0,0-1.64-.72c-.53-.11-1.06-.21-1.6-.29a.71.71,0,0,1-.16-1.35l2.25-.94a4.23,4.23,0,0,0,1.7-1.06,3.69,3.69,0,0,0,.43-3.09c-.27-1.41-.76-2.77-1.09-4.16a9,9,0,0,1-.15-4.25A35.51,35.51,0,0,0,438,307a9,9,0,0,0-3.43,1.5,5,5,0,0,0-1.62,4.63.33.33,0,0,1-.61.17l-1.44-2.65a1.69,1.69,0,0,0-2.23-.71,10.28,10.28,0,0,0-3.28,2.58,5.71,5.71,0,0,0-1.41,4.2,36.84,36.84,0,0,0,1.05,6.17.57.57,0,0,1-.89.6l-.07-.05a2,2,0,0,0-1.36-.39c-1.26.16-1.59,1.44-1.67,2.54A21.29,21.29,0,0,0,421.53,330.68Z" transform="translate(-91.08 -105.82)"/><path class="cls-12" d="M428.2,337a50.73,50.73,0,0,1,3.38-9.81.34.34,0,0,1,.12-.26l.24-.51a32,32,0,0,0-3.35-11.23.34.34,0,1,1,.59-.34,31.94,31.94,0,0,1,3.31,10.43A45.9,45.9,0,0,1,447,308a.35.35,0,0,1,.39.57c-7.27,5.06-11.87,12.08-14.66,17.91a21.17,21.17,0,0,1,12-1.63.34.34,0,0,1,.27.41.33.33,0,0,1-.27.27h-.13c-.07,0-6.65-1.21-12.35,2a50.13,50.13,0,0,0-3.35,9.71.34.34,0,0,1-.28.27h-.13A.33.33,0,0,1,428.2,337Z" transform="translate(-91.08 -105.82)"/></g><g id="Screen"><path class="cls-5" d="M399.89,358.14l.24-139.91a10.77,10.77,0,0,0-4.89-8.47l-173.49-99.9a3.46,3.46,0,0,0-3.45-.36l5.13-3h0a3.39,3.39,0,0,1,3.56.29l173.49,99.9a10.77,10.77,0,0,1,4.89,8.47l-.24,139.91a3.53,3.53,0,0,1-1.31,3h0l-.28.16-5.06,2.94A3.43,3.43,0,0,0,399.89,358.14Z" transform="translate(-91.08 -105.82)"/><path class="cls-14" d="M223.43,106.53h0a3.39,3.39,0,0,1,3.56.29l173.49,99.9a10.31,10.31,0,0,1,3.75,4.17l-5.24,3a10.25,10.25,0,0,0-3.75-4.17l-173.49-99.9a3.46,3.46,0,0,0-3.45-.36Z" transform="translate(-91.08 -105.82)"/><path class="cls-11" d="M405.37,215.19l-.24,139.91a3.53,3.53,0,0,1-1.31,3h0l-.28.16-5.06,2.94a3.43,3.43,0,0,0,1.41-3.12l.24-139.91a9.6,9.6,0,0,0-1.14-4.3l5.24-3A9.67,9.67,0,0,1,405.37,215.19Z" transform="translate(-91.08 -105.82)"/><path class="cls-5" d="M400.12,224.59l-.23,133.55a3.43,3.43,0,0,1-1.41,3.12l-.08.05,0,0a3.55,3.55,0,0,1-3.41-.39L221.48,261a10.81,10.81,0,0,1-4.9-8.47l.24-133.72Z" transform="translate(-91.08 -105.82)"/><path class="cls-13" d="M400.12,224.59l-.23,133.55a3.43,3.43,0,0,1-1.41,3.12l-.08.05,0,0a3.55,3.55,0,0,1-3.41-.39L221.48,261a10.81,10.81,0,0,1-4.9-8.47l.24-133.72Z" transform="translate(-91.08 -105.82)"/><polygon class="cls-7" points="147.32 151.07 147.51 40.08 296.73 125.86 296.53 236.69 147.32 151.07"/><polygon class="cls-4" points="209.1 141.68 209.19 84.31 275.34 122.34 275.25 179.64 209.1 141.68"/><path class="cls-5" d="M216.83,112.66a3.43,3.43,0,0,1,1.41-3.12l0,0,0,0a3.46,3.46,0,0,1,3.45.36l173.49,99.9a10.77,10.77,0,0,1,4.89,8.47v6.36L216.82,118.85Z" transform="translate(-91.08 -105.82)"/><path class="cls-15" d="M216.83,112.66a3.43,3.43,0,0,1,1.41-3.12l0,0,0,0a3.46,3.46,0,0,1,3.45.36l173.49,99.9a10.77,10.77,0,0,1,4.89,8.47v6.36L216.82,118.85Z" transform="translate(-91.08 -105.82)"/><g class="cls-16"><path class="cls-7" d="M229.82,119.42c-.74-.43-1.34-.08-1.34.77a3,3,0,0,0,1.33,2.31c.74.42,1.34.08,1.35-.77A3,3,0,0,0,229.82,119.42Z" transform="translate(-91.08 -105.82)"/><path class="cls-7" d="M226.17,117.31c-.74-.43-1.34-.08-1.34.77a2.93,2.93,0,0,0,1.33,2.31c.74.42,1.34.08,1.34-.77A2.94,2.94,0,0,0,226.17,117.31Z" transform="translate(-91.08 -105.82)"/><path class="cls-7" d="M222.51,115.2c-.74-.43-1.34-.08-1.34.76a3,3,0,0,0,1.33,2.32c.74.42,1.34.08,1.35-.77A3,3,0,0,0,222.51,115.2Z" transform="translate(-91.08 -105.82)"/></g><polygon class="cls-7" points="138.2 59.22 138.18 66.18 138.2 59.22 138.2 59.22"/><polygon class="cls-7" points="138.17 68.86 132.1 65.36 132.1 65.36 138.17 68.86 138.15 75.83 138.15 75.83 138.17 68.86"/><polygon class="cls-7" points="132.08 75 138.14 78.5 138.14 78.5 132.08 75 132.08 75"/><polygon class="cls-7" points="138.04 113.58 131.98 110.08 131.98 110.08 138.04 113.58 138.04 113.58"/><polygon class="cls-7" points="132.17 43.39 138.23 46.9 132.17 43.39 132.17 43.39"/><polygon class="cls-7" points="134.72 47.55 138.22 49.57 138.21 56.54 138.22 49.57 134.72 47.55"/><polygon class="cls-7" points="132.14 53.04 138.21 56.54 132.14 53.04 132.14 53.04"/><polygon class="cls-7" points="132.11 62.68 138.18 66.18 132.11 62.68 132.11 62.68"/><polygon class="cls-7" points="134.51 121.21 138.02 123.23 138 130.2 138 130.2 138.02 123.23 134.51 121.21"/><polygon class="cls-7" points="132.03 90.79 138.1 94.29 138.1 94.29 132.03 90.79 132.03 90.79"/><polygon class="cls-7" points="132.01 100.44 138.07 103.94 138.07 103.94 132.01 100.44 132.01 100.44"/><polygon class="cls-7" points="132.13 55.71 138.2 59.22 138.18 66.18 132.11 62.68 132.13 55.71"/><polygon class="cls-7" points="138.15 75.83 132.09 72.33 132.1 65.36 138.17 68.86 138.15 75.83"/><polygon class="cls-7" points="132.01 100.44 138.07 103.94 138.05 110.91 131.99 107.41 132.01 100.44"/><polygon class="cls-7" points="138.02 120.55 131.96 117.05 131.98 110.08 138.04 113.58 138.02 120.55"/><polygon class="cls-7" points="132.03 90.79 138.1 94.29 138.08 101.26 132.01 97.76 132.03 90.79"/><path class="cls-5" d="M221,243.28,231,249l.14-50-10-5.76Zm2-27.38,6.06,3.5h0l0,7-6.06-3.5,0-7Zm6.1-8.82-6.07-3.5,0-7h0l6.07,3.5h0Zm0,9.65-6.07-3.5,0-7h0l6.07,3.5h0ZM229.07,236h0l-6.06-3.5,0-7,2.56,1.48,3.5,2,0,7ZM223,242.16l0-7,6.07,3.5,0,7Z" transform="translate(-91.08 -105.82)"/><path class="cls-5" d="M221.18,188.91l10,5.76.14-50-10-5.76Zm8.13-36.2-6.06-3.5h0v-7l6.07,3.5Zm0,9.65-6.06-3.51h0l0-7,2.56,1.48,3.5,2Zm0,9.64-6.07-3.5h0l0-7,6.06,3.5h0Zm0,9.65h0l-6.07-3.5,0-7h0l6.07,3.5Zm0,9.64-6.06-3.5,0-7h0l6.06,3.5h0Z" transform="translate(-91.08 -105.82)"/><path class="cls-4" d="M221,243.28,231,249l.14-50-10-5.76Zm2-27.38,6.06,3.5h0l0,7-6.06-3.5,0-7Zm6.1-8.82-6.07-3.5,0-7h0l6.07,3.5h0Zm0,9.65-6.07-3.5,0-7h0l6.07,3.5h0ZM229.07,236h0l-6.06-3.5,0-7,2.56,1.48,3.5,2,0,7ZM223,242.16l0-7,6.07,3.5,0,7Z" transform="translate(-91.08 -105.82)"/><path class="cls-4" d="M221.18,188.91l10,5.76.14-50-10-5.76Zm8.13-36.2-6.06-3.5h0v-7l6.07,3.5Zm0,9.65-6.06-3.51h0l0-7,2.56,1.48,3.5,2Zm0,9.64-6.07-3.5h0l0-7,6.06,3.5h0Zm0,9.65h0l-6.07-3.5,0-7h0l6.07,3.5Zm0,9.64-6.06-3.5,0-7h0l6.06,3.5h0Z" transform="translate(-91.08 -105.82)"/><polygon class="cls-7" points="132.14 53.04 132.16 46.07 134.72 47.55 138.22 49.57 138.21 56.54 132.14 53.04 132.14 53.04"/><polygon class="cls-7" points="130.24 33.05 130.25 29.16 140.23 34.92 140.22 38.81 130.24 33.05 130.24 33.05"/><polygon class="cls-7" points="132.17 43.39 132.19 36.42 138.25 39.93 138.23 46.9 132.17 43.39 132.17 43.39"/><polygon class="cls-7" points="132.08 75 132.08 75 138.14 78.5 138.14 78.5 138.12 85.47 132.06 81.97 132.08 75"/><polygon class="cls-7" points="131.93 126.7 131.95 119.73 134.51 121.21 138.02 123.23 138 130.2 138 130.2 131.93 126.7"/><polygon class="cls-7" points="137.99 132.87 137.97 139.84 131.9 136.34 131.92 129.37 137.99 132.87"/><polygon class="cls-3" points="259.99 181.71 259.99 184.89 208.91 154.97 208.92 151.79 259.99 181.71"/><g class="cls-17"><polygon class="cls-3" points="244.58 193.13 244.57 196.32 208.85 175.26 208.86 172.08 244.58 193.13"/><polygon class="cls-3" points="235.59 177.34 235.58 180.53 208.88 164.68 208.89 161.49 235.59 177.34"/><polygon class="cls-3" points="259.95 197.15 259.94 200.33 208.86 170.41 208.87 167.23 259.95 197.15"/><polygon class="cls-3" points="259.98 186.56 259.97 189.74 208.89 159.82 208.9 156.64 259.98 186.56"/></g><path class="cls-8" d="M254.8,242.53a13.42,13.42,0,0,1,6.1,10.55c0,3.88-2.76,5.45-6.14,3.5A13.46,13.46,0,0,1,248.67,246C248.68,242.14,251.43,240.58,254.8,242.53Z" transform="translate(-91.08 -105.82)"/><path class="cls-8" d="M254.85,224.72a13.44,13.44,0,0,1,6.1,10.56c0,3.88-2.76,5.44-6.14,3.49a13.44,13.44,0,0,1-6.09-10.55C248.73,224.34,251.48,222.77,254.85,224.72Z" transform="translate(-91.08 -105.82)"/><path class="cls-8" d="M271.47,234.31a13.46,13.46,0,0,1,6.09,10.56c0,3.88-2.76,5.44-6.13,3.49a13.42,13.42,0,0,1-6.1-10.55C265.34,233.93,268.09,232.36,271.47,234.31Z" transform="translate(-91.08 -105.82)"/><path class="cls-8" d="M288,261.71a13.42,13.42,0,0,1,6.1,10.55c0,3.88-2.76,5.45-6.14,3.5a13.46,13.46,0,0,1-6.09-10.56C281.9,261.32,284.65,259.76,288,261.71Z" transform="translate(-91.08 -105.82)"/><ellipse class="cls-8" cx="288.05" cy="250.93" rx="4.99" ry="8.62" transform="translate(-178.15 72.89) rotate(-30.16)"/><path class="cls-8" d="M271.42,252.12a13.44,13.44,0,0,1,6.09,10.55c0,3.88-2.76,5.45-6.13,3.5a13.44,13.44,0,0,1-6.1-10.56C265.29,251.73,268,250.17,271.42,252.12Z" transform="translate(-91.08 -105.82)"/><path class="cls-5" d="M417.73,185.88l-65.46-37.8a1.36,1.36,0,0,0-1.33-.13h0l-4.9,3.51h0a1.31,1.31,0,0,1,1.31.14l65.46,37.79a4.14,4.14,0,0,1,1.86,3.23l-.25,58.45a1.33,1.33,0,0,1-.52,1.18h0l5-3.55h0a1.34,1.34,0,0,0,.47-1.14l.26-58.44A4.11,4.11,0,0,0,417.73,185.88Z" transform="translate(-91.08 -105.82)"/><path class="cls-4" d="M414.43,251.07l.25-58.45a4.14,4.14,0,0,0-1.86-3.23L347.36,151.6a1.14,1.14,0,0,0-1.87,1.07l-.26,58.45a4.14,4.14,0,0,0,1.86,3.23l65.46,37.79a1.31,1.31,0,0,0,1.36.11A1.33,1.33,0,0,0,414.43,251.07Z" transform="translate(-91.08 -105.82)"/><g class="cls-18"><polygon points="264.36 88.6 264.34 95.53 258.31 92.05 258.33 85.12 264.36 88.6"/></g><g class="cls-18"><polygon points="264.36 101.57 264.34 108.5 258.31 105.01 258.33 98.08 264.36 101.57"/></g><polygon class="cls-7" points="270.39 105.05 270.37 111.98 264.34 108.49 264.36 101.56 270.39 105.05"/><g class="cls-19"><polygon class="cls-7" points="303.8 113.49 303.79 116.19 267.91 95.47 267.92 92.77 303.8 113.49"/></g><g class="cls-18"><polygon points="264.39 77.97 264.37 84.9 258.34 81.42 258.36 74.49 264.39 77.97"/></g><g class="cls-19"><polygon class="cls-7" points="303.86 92.22 303.86 94.94 267.97 74.22 267.98 71.51 303.86 92.22"/></g><g class="cls-19"><polygon class="cls-7" points="303.83 102.86 303.82 105.56 267.94 84.85 267.95 82.14 303.83 102.86"/></g><g class="cls-18"><polygon points="264.42 67.33 264.4 74.27 258.37 70.79 258.39 63.85 264.42 67.33"/></g><polygon class="cls-7" points="319.45 99.11 319.43 106.04 307.04 98.89 307.06 91.96 319.45 99.11"/><polygon class="cls-7" points="319.39 120.37 319.37 127.3 306.98 120.15 307 113.22 319.39 120.37"/><polygon class="cls-7" points="319.42 109.74 319.4 116.67 307.01 109.52 307.03 102.59 319.42 109.74"/><g class="cls-18"><path d="M412.82,189.39a4.11,4.11,0,0,1,1.86,3.23v5.59L374.41,175l0-7.74Z" transform="translate(-91.08 -105.82)"/></g><polygon class="cls-7" points="279.73 62.77 257.28 49.81 257.27 52.38 279.72 65.33 279.73 62.77"/><polygon class="cls-7" points="316.2 82.31 316.2 83.03 320.72 85.64 320.72 84.92 316.2 82.31"/><polygon class="cls-7" points="316.19 86.74 320.71 89.35 320.71 88.63 316.19 86.02 316.19 86.74"/><polygon class="cls-7" points="316.19 84.27 320.71 86.88 320.72 86.16 316.19 83.55 316.19 84.27"/><polygon class="cls-7" points="316.19 85.5 320.71 88.11 320.71 87.39 316.19 84.78 316.19 85.5"/><path class="cls-3" d="M417.73,185.88l-65.46-37.8a1.36,1.36,0,0,0-1.33-.13h0l-4.9,3.51h0a1.31,1.31,0,0,1,1.31.14l65.46,37.79a3.87,3.87,0,0,1,1.42,1.61l5.15-3A4.1,4.1,0,0,0,417.73,185.88Z" transform="translate(-91.08 -105.82)"/><path class="cls-20" d="M414.24,191a3.69,3.69,0,0,1,.44,1.62l-.25,58.45a1.33,1.33,0,0,1-.52,1.18h0l5-3.55h0a1.34,1.34,0,0,0,.47-1.14l.26-58.44a3.47,3.47,0,0,0-.2-1.07Z" transform="translate(-91.08 -105.82)"/><path class="cls-5" d="M316.63,143.87l-65.46-37.8a1.34,1.34,0,0,0-1.32-.13h0l-4.9,3.51h0a1.32,1.32,0,0,1,1.32.14l65.46,37.79a4.14,4.14,0,0,1,1.86,3.23l-.25,26.73a1.37,1.37,0,0,1-.52,1.18h0l4.95-3.55h0a1.36,1.36,0,0,0,.47-1.14l.26-26.73A4.09,4.09,0,0,0,316.63,143.87Z" transform="translate(-91.08 -105.82)"/><path class="cls-4" d="M313.34,177.34l.25-26.73a4.14,4.14,0,0,0-1.86-3.23l-65.46-37.79a1.14,1.14,0,0,0-1.88,1.07l-.25,26.73a4.11,4.11,0,0,0,1.86,3.23l65.46,37.8a1.31,1.31,0,0,0,1.36.1A1.37,1.37,0,0,0,313.34,177.34Z" transform="translate(-91.08 -105.82)"/><g class="cls-19"><polygon class="cls-7" points="165.68 25.23 165.65 34.79 157.34 29.99 157.37 20.43 165.68 25.23"/></g><g class="cls-19"><polygon class="cls-7" points="178.63 32.41 178.61 41.96 170.3 37.17 170.32 27.61 178.63 32.41"/></g><g class="cls-19"><polygon class="cls-7" points="191.59 39.58 191.56 49.14 183.25 44.34 183.28 34.79 191.59 39.58"/></g><g class="cls-19"><polygon class="cls-7" points="204.55 46.76 204.52 56.32 196.21 51.52 196.24 41.96 204.55 46.76"/></g><g class="cls-19"><polygon class="cls-7" points="217.5 53.94 217.48 63.49 209.17 58.7 209.2 49.14 217.5 53.94"/></g><g class="cls-18"><path d="M311.73,147.38a4.11,4.11,0,0,1,1.86,3.23l0,5.59L273.32,133l0-7.74Z" transform="translate(-91.08 -105.82)"/></g><polygon class="cls-7" points="178.63 20.76 156.19 7.8 156.18 10.37 178.63 23.32 178.63 20.76"/><polygon class="cls-7" points="215.11 40.3 215.1 41.02 219.63 43.63 219.63 42.91 215.11 40.3"/><polygon class="cls-7" points="215.09 44.73 219.62 47.34 219.62 46.62 215.1 44.01 215.09 44.73"/><polygon class="cls-7" points="215.1 42.26 219.62 44.87 219.63 44.15 215.1 41.53 215.1 42.26"/><polygon class="cls-7" points="215.1 43.49 219.62 46.1 219.62 45.38 215.1 42.77 215.1 43.49"/><path class="cls-3" d="M316.63,143.87l-65.46-37.8a1.34,1.34,0,0,0-1.32-.13h0l-4.9,3.51h0a1.32,1.32,0,0,1,1.32.14l65.46,37.79a3.94,3.94,0,0,1,1.42,1.61l5.15-3A4.11,4.11,0,0,0,316.63,143.87Z" transform="translate(-91.08 -105.82)"/><path class="cls-20" d="M313.15,149a3.69,3.69,0,0,1,.44,1.62l-.25,26.73a1.37,1.37,0,0,1-.52,1.18h0l4.95-3.55h0a1.36,1.36,0,0,0,.47-1.14l.26-26.73a3.47,3.47,0,0,0-.2-1.07Z" transform="translate(-91.08 -105.82)"/><path class="cls-5" d="M417.73,261.66l-65.46-37.79a1.31,1.31,0,0,0-1.33-.13h0l-4.9,3.51h0a1.31,1.31,0,0,1,1.31.14l65.46,37.79a4.11,4.11,0,0,1,1.86,3.23l-.25,89.43a1.32,1.32,0,0,1-.52,1.18h0l5-3.55h0a1.33,1.33,0,0,0,.47-1.14l.26-89.42A4.14,4.14,0,0,0,417.73,261.66Z" transform="translate(-91.08 -105.82)"/><path class="cls-5" d="M414.43,357.84l.25-89.43a4.11,4.11,0,0,0-1.86-3.23l-65.46-37.79a1.31,1.31,0,0,0-1.31-.14,1.28,1.28,0,0,0-.56,1.21l-.26,89.43a4.14,4.14,0,0,0,1.86,3.23l65.46,37.79a1.29,1.29,0,0,0,1.36.11A1.32,1.32,0,0,0,414.43,357.84Z" transform="translate(-91.08 -105.82)"/><g class="cls-18"><path d="M412.82,265.17a4.14,4.14,0,0,1,1.86,3.24V274l-40.26-23.24,0-7.75Z" transform="translate(-91.08 -105.82)"/></g><polygon class="cls-21" points="318.74 220.12 318.74 220.12 318.3 219.35 317.47 219.83 318.3 219.35 318.74 220.12"/><polygon class="cls-21" points="318.8 200.58 318.8 200.58 318.36 199.81 317.53 200.28 318.36 199.81 318.8 200.58"/><polygon class="cls-21" points="316.73 190.96 316.28 191.21 316.73 190.96 316.73 190.96"/><polygon class="cls-21" points="281.93 192.41 280.67 190.22 281.11 189.98 280.67 190.22 281.93 192.41 281.93 192.41"/><polygon class="cls-21" points="316.88 242.31 316.58 241.79 316.14 242.04 316.58 241.79 316.88 242.31"/><polygon class="cls-21" points="317.47 219.83 316.65 218.4 316.2 218.65 316.65 218.4 317.47 219.83"/><polygon class="cls-21" points="281.09 197.87 281.91 199.3 282.74 198.82 283.18 199.59 283.18 199.59 282.74 198.82 281.91 199.3 281.09 197.87 280.64 198.12 280.64 198.12 281.09 197.87"/><polygon class="cls-21" points="281.14 178.33 281.14 178.33 280.7 178.58 280.7 178.58 281.14 178.33"/><polygon class="cls-21" points="283.12 222.98 283.12 222.98 282.67 222.21 281.85 222.69 282.67 222.21 283.12 222.98"/><polygon class="cls-21" points="280.58 221.51 281.02 221.26 281.02 221.26 280.58 221.51 281.38 222.9 280.58 221.51"/><polygon class="cls-21" points="318.23 242.74 318.68 243.51 318.23 242.74 317.41 243.22 317.41 243.22 318.23 242.74"/><polygon class="cls-21" points="316.26 199.11 316.26 199.11 316.7 198.86 316.26 199.11"/><polygon class="cls-21" points="318.41 181.68 317.58 182.15 318.41 181.68 318.41 181.68"/><polygon class="cls-7" points="261.72 184.75 257.13 182.1 257.11 187.68 261.71 190.33 261.72 184.75"/><polygon class="cls-7" points="261.74 176.85 257.15 174.2 257.13 179.78 261.73 182.44 261.74 176.85"/><polygon class="cls-7" points="279.73 138.55 257.28 125.6 257.27 128.16 279.72 141.12 279.73 138.55"/><polygon class="cls-7" points="318.85 182.44 318.41 181.68 317.58 182.15 316.76 180.73 316.31 180.98 317.58 183.16 318.85 182.44"/><polygon class="cls-7" points="261.78 165.21 257.18 162.56 257.17 168.14 261.76 170.79 261.78 165.21"/><polygon class="cls-7" points="261.8 157.31 257.2 154.66 257.19 160.24 261.78 162.89 261.8 157.31"/><polygon class="cls-5" points="257.23 144.42 257.22 150 314.49 183.07 314.51 177.49 257.23 144.42"/><path class="cls-5" d="M405.57,288.89l6.16,3.56v-5.59l-6.16-3.55Zm2.26-2.34.83,1.42.82-.47h0l.45.76-1.28.72-1.26-2.18Z" transform="translate(-91.08 -105.82)"/><polygon class="cls-5" points="257.26 136.1 257.24 141.69 314.51 174.75 314.53 169.17 257.26 136.1"/><polygon class="cls-7" points="318.87 174.12 318.43 173.36 317.6 173.83 316.78 172.41 316.34 172.66 317.6 174.84 318.87 174.12"/><path class="cls-5" d="M405.59,280.57l6.16,3.56,0-5.58L405.61,275Zm2.27-2.34.82,1.42.83-.47.44.76-1.27.72-1.27-2.18Z" transform="translate(-91.08 -105.82)"/><polygon class="cls-7" points="283.26 172.15 282.82 171.38 281.99 171.86 281.17 170.43 280.72 170.68 281.99 172.87 283.26 172.15"/><path class="cls-5" d="M376.14,282.15l0-5.58L370,273l0,5.59Zm-3.89-5.9.82,1.43.82-.48.45.77-1.28.72-1.26-2.19Z" transform="translate(-91.08 -105.82)"/><polygon class="cls-5" points="264.1 172.14 278.88 180.68 278.88 180.68 278.88 180.68 278.89 175.09 264.12 166.56 264.1 172.14"/><polygon class="cls-5" points="278.92 167.19 264.14 158.66 264.12 164.25 278.9 172.78 278.92 167.19"/><polygon class="cls-7" points="281.96 180.77 283.24 180.04 282.8 179.28 281.97 179.75 281.14 178.33 280.7 178.58 281.96 180.77"/><path class="cls-5" d="M370,286.49l6.16,3.56v-5.58L370,280.91h0v5.58Zm2.26-2.34h0l.82,1.42.83-.47.44.76-1.27.73-1.26-2.19h0Z" transform="translate(-91.08 -105.82)"/><path class="cls-5" d="M405.52,307l6.16,3.56V305l-6.16-3.56Zm1.82-2.09.44-.25.83,1.42.82-.47.44.77h0l-1.27.72-1.26-2.19Z" transform="translate(-91.08 -105.82)"/><path class="cls-5" d="M405.48,318.67l6.16,3.55,0-5.58-6.16-3.56Zm2.27-2.34.82,1.42.83-.47.44.76-1.27.72-1.26-2.19Z" transform="translate(-91.08 -105.82)"/><path class="cls-5" d="M405.46,326.57l6.16,3.55,0-5.58L405.48,321Zm2.27-2.35.82,1.43.83-.48.44.77h0l-1.27.72-1.27-2.19Z" transform="translate(-91.08 -105.82)"/><polygon class="cls-5" points="299.62 206.63 299.61 212.21 314.38 220.75 314.38 220.75 314.4 215.16 299.62 206.63"/><polygon class="cls-5" points="299.64 198.73 299.63 204.32 314.41 212.85 314.42 207.26 299.64 198.73"/><polygon class="cls-5" points="299.68 187.09 299.66 192.67 314.44 201.21 314.45 195.62 299.68 187.09"/><polygon class="cls-5" points="299.7 179.19 299.68 184.78 314.46 193.31 314.48 187.72 299.7 179.19"/><polygon class="cls-7" points="318.82 192.68 318.38 191.91 317.55 192.39 316.73 190.96 316.28 191.21 317.55 193.4 318.82 192.68"/><path class="cls-5" d="M405.56,293.54l0,5.59,6.16,3.55,0-5.58-6.16-3.56Zm2.25,3.24h0l.82,1.43.82-.48.45.77-1.28.72L407.36,297Z" transform="translate(-91.08 -105.82)"/><polygon class="cls-7" points="292.73 188.67 297.32 191.32 297.34 185.74 292.74 183.09 292.73 188.67"/><polygon class="cls-7" points="297.36 177.84 292.76 175.19 292.75 180.77 297.34 183.43 297.36 177.84"/><polygon class="cls-7" points="317.52 201.3 318.8 200.58 318.8 200.58 318.36 199.81 317.53 200.28 316.7 198.86 316.26 199.11 316.26 199.11 317.52 201.3"/><polygon class="cls-5" points="264.07 183.79 278.85 192.32 278.85 192.32 278.85 192.32 278.86 186.74 264.08 178.2 264.07 183.79"/><path class="cls-5" d="M369.92,298.14l6.16,3.55,0-5.58-6.16-3.56,0,5.59Zm2.27-2.34.82,1.42.83-.47.44.76-1.27.72h0L371.74,296Z" transform="translate(-91.08 -105.82)"/><polygon class="cls-7" points="281.93 192.41 281.93 192.41 283.2 191.69 282.76 190.93 281.93 191.4 281.11 189.98 280.67 190.22 281.93 192.41"/><polygon class="cls-7" points="281.91 199.3 281.09 197.87 280.64 198.12 281.91 200.31 283.18 199.59 282.74 198.82 281.91 199.3"/><path class="cls-5" d="M369.9,306h0l6.16,3.56,0-5.58-6.16-3.56h0Zm2.27-2.34.82,1.43.83-.48.44.77h0l-1.27.72-1.27-2.19h0Z" transform="translate(-91.08 -105.82)"/><polygon class="cls-7" points="269.7 206.07 269.72 200.49 265.12 197.83 265.11 203.42 269.7 206.07"/><polygon class="cls-5" points="264.05 191.68 278.82 200.22 278.82 200.22 278.84 194.63 278.84 194.63 264.06 186.1 264.05 191.68"/><polygon class="cls-5" points="278.77 218.02 278.77 218.02 257.06 205.49 257.04 211.07 278.76 223.61 278.77 218.02 278.77 218.02"/><polygon class="cls-7" points="281.38 222.9 281.84 223.7 283.12 222.98 282.67 222.21 281.85 222.69 281.02 221.26 280.58 221.51 281.38 222.9"/><path class="cls-5" d="M369.85,323.84v5.58h0L376,333V327.4l-6.16-3.56Zm2.25,3.24h0l.82,1.43.83-.48.44.77h0l-1.27.72-.46-.8-.8-1.39Z" transform="translate(-91.08 -105.82)"/><polygon class="cls-5" points="314.33 238.55 292.62 226.02 292.61 231.6 314.32 244.14 314.32 244.14 314.32 244.14 314.33 238.55"/><polygon class="cls-15" points="257.23 144.42 257.22 150 314.49 183.07 314.51 177.49 257.23 144.42"/><polygon class="cls-15" points="257.26 136.1 257.24 141.69 314.51 174.75 314.53 169.17 257.26 136.1"/><polygon class="cls-15" points="264.1 172.14 278.88 180.68 278.88 180.68 278.88 180.68 278.89 175.09 264.12 166.56 264.1 172.14"/><polygon class="cls-15" points="278.92 167.19 264.14 158.66 264.12 164.25 278.9 172.78 278.92 167.19"/><polygon class="cls-15" points="299.62 206.63 299.61 212.21 314.38 220.75 314.38 220.75 314.4 215.16 299.62 206.63"/><polygon class="cls-15" points="299.64 198.73 299.63 204.32 314.41 212.85 314.42 207.26 299.64 198.73"/><polygon class="cls-15" points="299.68 187.09 299.66 192.67 314.44 201.21 314.45 195.62 299.68 187.09"/><polygon class="cls-15" points="299.7 179.19 299.68 184.78 314.46 193.31 314.48 187.72 299.7 179.19"/><polygon class="cls-15" points="264.07 183.79 278.85 192.32 278.85 192.32 278.85 192.32 278.86 186.74 264.08 178.2 264.07 183.79"/><polygon class="cls-15" points="264.05 191.68 278.82 200.22 278.82 200.22 278.84 194.63 278.84 194.63 264.06 186.1 264.05 191.68"/><polygon class="cls-15" points="278.77 218.02 278.77 218.02 257.06 205.49 257.04 211.07 278.76 223.61 278.77 218.02 278.77 218.02"/><polygon class="cls-15" points="314.33 238.55 292.62 226.02 292.61 231.6 314.32 244.14 314.32 244.14 314.32 244.14 314.33 238.55"/><path class="cls-5" d="M405.41,344.37V350h0l6.16,3.55v-5.58l-6.16-3.56Zm2.25,3.24.3.52.52.91.83-.48.44.77-1.27.72-1.26-2.19Z" transform="translate(-91.08 -105.82)"/><path class="cls-22" d="M405.57,288.89l6.16,3.56v-5.59l-6.16-3.55Zm2.26-2.34.83,1.42.82-.47h0l.45.76-1.28.72-1.26-2.18Z" transform="translate(-91.08 -105.82)"/><path class="cls-22" d="M405.59,280.57l6.16,3.56,0-5.58L405.61,275Zm2.27-2.34.82,1.42.83-.47.44.76-1.27.72-1.27-2.18Z" transform="translate(-91.08 -105.82)"/><path class="cls-22" d="M376.14,282.15l0-5.58L370,273l0,5.59Zm-3.89-5.9.82,1.43.82-.48.45.77-1.28.72-1.26-2.19Z" transform="translate(-91.08 -105.82)"/><path class="cls-22" d="M370,286.49l6.16,3.56v-5.58L370,280.91h0v5.58Zm2.26-2.34h0l.82,1.42.83-.47.44.76-1.27.73-1.26-2.19h0Z" transform="translate(-91.08 -105.82)"/><path class="cls-22" d="M405.52,307l6.16,3.56V305l-6.16-3.56Zm1.82-2.09.44-.25.83,1.42.82-.47.44.77h0l-1.27.72-1.26-2.19Z" transform="translate(-91.08 -105.82)"/><path class="cls-22" d="M405.48,318.67l6.16,3.55,0-5.58-6.16-3.56Zm2.27-2.34.82,1.42.83-.47.44.76-1.27.72-1.26-2.19Z" transform="translate(-91.08 -105.82)"/><path class="cls-22" d="M405.46,326.57l6.16,3.55,0-5.58L405.48,321Zm2.27-2.35.82,1.43.83-.48.44.77h0l-1.27.72-1.27-2.19Z" transform="translate(-91.08 -105.82)"/><path class="cls-22" d="M405.56,293.54l0,5.59,6.16,3.55,0-5.58-6.16-3.56Zm2.25,3.24h0l.82,1.43.82-.48.45.77-1.28.72L407.36,297Z" transform="translate(-91.08 -105.82)"/><path class="cls-22" d="M369.92,298.14l6.16,3.55,0-5.58-6.16-3.56,0,5.59Zm2.27-2.34.82,1.42.83-.47.44.76-1.27.72h0L371.74,296Z" transform="translate(-91.08 -105.82)"/><path class="cls-22" d="M369.9,306h0l6.16,3.56,0-5.58-6.16-3.56h0Zm2.27-2.34.82,1.43.83-.48.44.77h0l-1.27.72-1.27-2.19h0Z" transform="translate(-91.08 -105.82)"/><path class="cls-22" d="M369.85,323.84v5.58h0L376,333V327.4l-6.16-3.56Zm2.25,3.24h0l.82,1.43.83-.48.44.77h0l-1.27.72-.46-.8-.8-1.39Z" transform="translate(-91.08 -105.82)"/><path class="cls-22" d="M405.41,344.37V350h0l6.16,3.55v-5.58l-6.16-3.56Zm2.25,3.24.3.52.52.91.83-.48.44.77-1.27.72-1.26-2.19Z" transform="translate(-91.08 -105.82)"/><polygon class="cls-7" points="318.68 243.51 318.23 242.74 317.41 243.22 317.41 243.22 316.88 242.31 316.58 241.79 316.14 242.04 317.4 244.23 318.68 243.51"/><polygon class="cls-7" points="292.67 208.21 297.27 210.86 297.28 205.28 292.69 202.63 292.67 208.21"/><polygon class="cls-7" points="292.69 200.31 297.29 202.97 297.3 197.38 292.71 194.73 292.69 200.31"/><polygon class="cls-7" points="318.76 212.22 318.32 211.46 317.49 211.93 316.67 210.51 316.23 210.75 317.49 212.94 318.76 212.22"/><polygon class="cls-7" points="318.74 220.12 318.74 220.12 318.3 219.35 317.47 219.83 316.65 218.4 316.2 218.65 317.47 220.84 318.74 220.12"/><polygon class="cls-7" points="261.69 195.85 257.1 193.2 257.08 198.78 261.67 201.43 261.69 195.85"/><polygon class="cls-7" points="283.19 213.85 287.78 216.51 287.8 210.92 283.2 208.27 283.19 213.85"/><polygon class="cls-7" points="291.21 218.49 295.81 221.14 295.82 215.56 291.22 212.9 291.21 218.49"/><polygon class="cls-7" points="307.9 222.53 307.89 228.12 312.48 230.77 312.5 225.19 307.9 222.53"/><polygon class="cls-7" points="315.91 232.75 320.51 235.41 320.53 229.82 315.93 227.17 315.91 232.75"/><polygon class="cls-7" points="316.2 158.09 316.2 158.81 320.72 161.43 320.72 160.7 316.2 158.09"/><polygon class="cls-7" points="316.19 162.52 320.71 165.13 320.71 164.42 316.19 161.81 316.19 162.52"/><polygon class="cls-7" points="316.19 160.05 320.71 162.66 320.72 161.94 316.19 159.33 316.19 160.05"/><polygon class="cls-7" points="316.19 161.28 320.71 163.9 320.71 163.18 316.19 160.57 316.19 161.28"/><path class="cls-14" d="M417.73,261.66l-65.46-37.79a1.31,1.31,0,0,0-1.33-.13h0l-4.9,3.51h0a1.31,1.31,0,0,1,1.31.14l65.46,37.79a3.84,3.84,0,0,1,1.42,1.6l5.15-2.95A4.12,4.12,0,0,0,417.73,261.66Z" transform="translate(-91.08 -105.82)"/><path class="cls-11" d="M414.24,266.78a3.73,3.73,0,0,1,.44,1.63l-.25,89.43a1.32,1.32,0,0,1-.52,1.18h0l5-3.55h0a1.33,1.33,0,0,0,.47-1.14l.26-89.42a3.42,3.42,0,0,0-.2-1.07Z" transform="translate(-91.08 -105.82)"/></g><g id="Character_1" data-name="Character 1"><path class="cls-23" d="M221.78,188.84s.54-2.29-.89-2.59c0,0,1.24-2.59-.32-3.11s-3.52,4.68-5.8,6.81c-.41.46-3.08,2.87-3.44,2.09h0l-3.67,1.41a7,7,0,0,1-1,2.93c-3.93,6-8.41,8.87-11.75,13.13l-3.25-3.15L185.45,215l6.06,4.53a6.77,6.77,0,0,0,9.67-1.64l11.17-16.59a5.84,5.84,0,0,1,1.85-1.75c1.77-1,5.19-3.18,6.45-4.73C222.39,192.63,222.63,190.33,221.78,188.84Z" transform="translate(-91.08 -105.82)"/><path class="cls-5" d="M172.73,191.72c6.19-.27,14.58,9.76,19.31,14.49-.37,5.78-6.59,9.58-6.59,9.58a136.26,136.26,0,0,1-12.72-9.94Z" transform="translate(-91.08 -105.82)"/><path class="cls-14" d="M172.73,191.72c6.19-.27,14.58,9.76,19.31,14.49-.37,5.78-6.59,9.58-6.59,9.58a136.26,136.26,0,0,1-12.72-9.94Z" transform="translate(-91.08 -105.82)"/><polygon class="cls-5" points="137.73 42.44 156.96 83.63 123.28 92.75 104.05 51.56 137.73 42.44"/><g class="cls-18"><polygon class="cls-7" points="137.73 42.44 156.96 83.63 123.28 92.75 104.05 51.56 137.73 42.44"/></g><path class="cls-7" d="M238.94,179l.49,1a1.57,1.57,0,0,1-.47,1.15,2.32,2.32,0,0,1-2.9.42,4.51,4.51,0,0,1-.9-.74,3.46,3.46,0,0,1-.65,1.4,2.47,2.47,0,0,1-1.34.86,4,4,0,0,1-3.14-.67,7.68,7.68,0,0,1-2.57-3.19,6,6,0,0,1-.7-3.7,2.6,2.6,0,0,1,2.09-2,4.89,4.89,0,0,1,1.36-.15,4.26,4.26,0,0,1,1.31.23l-2-4.31a4.25,4.25,0,0,0-1.28-1.76l-.12-.07a1.58,1.58,0,0,0-1.26-.19,1.14,1.14,0,0,0-.87.82,1.57,1.57,0,0,1,.48.18,2,2,0,0,1,.42.33,3.63,3.63,0,0,1,.69,1,2.91,2.91,0,0,1,.31,1.82,1.2,1.2,0,0,1-.9,1,1.71,1.71,0,0,1-1.34-.22,1.32,1.32,0,0,1-.25-.16,4.34,4.34,0,0,1-1.34-1.72,5,5,0,0,1-.5-2.27,3.22,3.22,0,0,1,.76-2,4.27,4.27,0,0,1,2.24-1.3,4.54,4.54,0,0,1,3.59.4l.12.07a8.05,8.05,0,0,1,2.85,3.57l4,8.6a3.12,3.12,0,0,0,1.14,1.41A1.46,1.46,0,0,0,238.94,179Zm-5.12.82a1.24,1.24,0,0,0,.34-.51l-1.47-3.15a3,3,0,0,0-.73-.24,1.77,1.77,0,0,0-.69,0,.94.94,0,0,0-.68.83,3.18,3.18,0,0,0,.39,1.74,3.38,3.38,0,0,0,1.05,1.34l.2.14a1.33,1.33,0,0,0,1.05.16,1.13,1.13,0,0,0,.54-.31" transform="translate(-91.08 -105.82)"/><path class="cls-7" d="M229.19,182.89a3,3,0,0,1,.09,1l-5.59,1.52a4.36,4.36,0,0,1-.79-.85,6.82,6.82,0,0,1-.66-1.1c.79-.21.94-.83.45-1.88a13,13,0,0,0-.85-1.48l-.45-.65-4.62,1.26.2.71a8.8,8.8,0,0,0,.48,1.48,2.46,2.46,0,0,0,1,1.17,1.43,1.43,0,0,0,1.14.13,5.91,5.91,0,0,1,.4,1.16,3,3,0,0,1,.09,1l-4.6,1.25a4.36,4.36,0,0,1-.79-.85,6.41,6.41,0,0,1-.66-1.1,1.17,1.17,0,0,0,.81-.82,3.3,3.3,0,0,0,0-1.76l-3.95-16.63a5,5,0,0,0-2.27.14,5.23,5.23,0,0,1-.6-2.47l5.66-1.54L226,180a4.77,4.77,0,0,0,1.45,1.43,1.78,1.78,0,0,0,1.33.3A5.4,5.4,0,0,1,229.19,182.89ZM216,178.08l3.72-1-5.23-7.65a10.38,10.38,0,0,0-1.25-1.53L216,178.08" transform="translate(-91.08 -105.82)"/><path class="cls-23" d="M176,323.33c-.11,2.63,0,5.72,0,5.72l-1.52.09a3.7,3.7,0,0,0-3.28,2.43l0,.1a1.45,1.45,0,0,1-1.79.88h0a1.41,1.41,0,0,1-.87-.75l-.78-6.6Z" transform="translate(-91.08 -105.82)"/><path class="cls-3" d="M178.19,346.23c4,1.71,10.13,2,12.68-2.05v1.11c-2.55,4.08-8.67,3.75-12.68,2s-3.12-4.5-6.71-6a9.8,9.8,0,0,1-3.5-2.21c0-.33-.07-.73-.12-1.21a12,12,0,0,0,3.62,2.31C175.07,341.72,174.19,344.52,178.19,346.23Z" transform="translate(-91.08 -105.82)"/><path class="cls-5" d="M167.86,334.29a6,6,0,0,0,0-2.37,1.25,1.25,0,0,1,.18-1l.3-.3.14,1.22a1.41,1.41,0,0,0,.87.75,1.45,1.45,0,0,0,1.79-.88l0-.1a3.7,3.7,0,0,1,3.28-2.43l1.55-.09a1.12,1.12,0,0,1,1.09.69,25.49,25.49,0,0,0,8.71,10.09c2.27-.05,5.09,1.83,5.09,4.13v.22c-2.55,4.09-8.67,3.76-12.68,2.05s-3.12-4.51-6.71-6a12,12,0,0,1-3.62-2.31A12.4,12.4,0,0,1,167.86,334.29Z" transform="translate(-91.08 -105.82)"/><path class="cls-7" d="M175.6,337.44a.51.51,0,0,1-.79-.63,5.8,5.8,0,0,1,5.23-2.3c.21.27.43.53.65.78A5.63,5.63,0,0,0,175.6,337.44Z" transform="translate(-91.08 -105.82)"/><path class="cls-7" d="M174,335.68a.51.51,0,0,1-.79-.64,6.09,6.09,0,0,1,5.46-2.35c.19.28.39.57.6.85A5.64,5.64,0,0,0,174,335.68Z" transform="translate(-91.08 -105.82)"/><path class="cls-7" d="M177.24,339.17a.51.51,0,0,1-.79-.63,5.78,5.78,0,0,1,5.09-2.31l.78.79A5.61,5.61,0,0,0,177.24,339.17Z" transform="translate(-91.08 -105.82)"/><path class="cls-7" d="M185.78,339.83c2.27-.05,5.09,1.83,5.09,4.13v.22c-2.51,4-8.49,3.76-12.49,2.12C178.69,340.8,184,339.81,185.78,339.83Z" transform="translate(-91.08 -105.82)"/><path class="cls-7" d="M178.93,340.82a.51.51,0,0,1-.79-.64,5.79,5.79,0,0,1,5.1-2.3c.32.28.64.55.95.8A5.67,5.67,0,0,0,178.93,340.82Z" transform="translate(-91.08 -105.82)"/><path class="cls-23" d="M154.68,328.2c-.11,2.63,0,5.72,0,5.72l-1.53.08a3.7,3.7,0,0,0-3.27,2.44l0,.1a1.44,1.44,0,0,1-1.78.88h0a1.44,1.44,0,0,1-.87-.75l-.78-6.6Z" transform="translate(-91.08 -105.82)"/><path class="cls-3" d="M156.92,351.09c4,1.71,10.13,2.05,12.67-2v1.11c-2.54,4.08-8.67,3.75-12.67,2s-3.13-4.5-6.71-6a9.8,9.8,0,0,1-3.5-2.21c0-.33-.07-.74-.13-1.21a12.36,12.36,0,0,0,3.63,2.31C153.79,346.59,152.92,349.38,156.92,351.09Z" transform="translate(-91.08 -105.82)"/><path class="cls-5" d="M146.58,339.15a5.57,5.57,0,0,0,0-2.36,1.24,1.24,0,0,1,.18-1l.3-.3.15,1.22a1.44,1.44,0,0,0,2.65-.13l0-.1a3.7,3.7,0,0,1,3.27-2.44l1.55-.08a1.11,1.11,0,0,1,1.1.69,25.41,25.41,0,0,0,8.71,10.09c2.27-.06,5.08,1.83,5.08,4.12v.23c-2.54,4.09-8.67,3.75-12.67,2s-3.13-4.5-6.71-6a12.36,12.36,0,0,1-3.63-2.31A13.23,13.23,0,0,1,146.58,339.15Z" transform="translate(-91.08 -105.82)"/><path class="cls-7" d="M154.33,342.31a.51.51,0,0,1-.79-.64,5.8,5.8,0,0,1,5.23-2.29l.65.78A5.59,5.59,0,0,0,154.33,342.31Z" transform="translate(-91.08 -105.82)"/><path class="cls-7" d="M152.75,340.54a.51.51,0,0,1-.79-.63,6.12,6.12,0,0,1,5.45-2.36c.19.29.4.57.6.86A5.64,5.64,0,0,0,152.75,340.54Z" transform="translate(-91.08 -105.82)"/><path class="cls-7" d="M156,344a.51.51,0,0,1-.79-.64,5.77,5.77,0,0,1,5.09-2.3l.78.79A5.58,5.58,0,0,0,156,344Z" transform="translate(-91.08 -105.82)"/><path class="cls-7" d="M164.51,344.7c2.27-.06,5.08,1.83,5.08,4.12v.23c-2.5,4-8.48,3.76-12.49,2.12C157.41,345.67,162.69,344.68,164.51,344.7Z" transform="translate(-91.08 -105.82)"/><path class="cls-7" d="M157.66,345.69a.51.51,0,0,1-.79-.64,5.79,5.79,0,0,1,5.1-2.3c.32.28.64.55.95.8A5.62,5.62,0,0,0,157.66,345.69Z" transform="translate(-91.08 -105.82)"/><path class="cls-3" d="M181.13,240.3l-.75,51.07L178,327.12c-6.1,3.86-12.4.2-12.4.2-2.32-16.93-2.41-27.4-1.15-34.45l-.74-27.27-1.21,28.2-5.74,36.11c-6.25,4-13.06-.13-13.06-.13,0-13-1.33-28.41,2.24-37.77a206.24,206.24,0,0,1,1.73-51.16Z" transform="translate(-91.08 -105.82)"/><path class="cls-15" d="M166.2,255.34l-2.52,10.26.36,13.17,3.78-21.21c5.44-2.13,6.15-5.13,6.15-5.13A16.76,16.76,0,0,1,166.2,255.34Z" transform="translate(-91.08 -105.82)"/><path class="cls-5" d="M150.05,196.68c8.85-4.15,15.48-4.64,22.72-5,10.83,7,6.77,12.78,6.59,22.09a128.34,128.34,0,0,0,3.34,30.42c-14.19,11.34-33,8.67-37.26,5.95C146.45,222.46,145.24,198.66,150.05,196.68Z" transform="translate(-91.08 -105.82)"/><path class="cls-24" d="M150.05,196.68c8.85-4.15,15.48-4.64,22.72-5,10.83,7,6.77,12.78,6.59,22.09a128.34,128.34,0,0,0,3.34,30.42c-14.19,11.34-33,8.67-37.26,5.95C146.45,222.46,145.24,198.66,150.05,196.68Z" transform="translate(-91.08 -105.82)"/><path class="cls-20" d="M176.91,178a7.36,7.36,0,0,0,2.05-9.72,4,4,0,0,0,1.94-1.83,2.14,2.14,0,0,0-2.78-2.85,3,3,0,0,0-1.2-3.52,2.83,2.83,0,0,0-3.53.66,1.93,1.93,0,0,0-1.31-1.89,3.89,3.89,0,0,0-2.45.15c-.79.27-1.53.66-2.33.91a17,17,0,0,1-4.17.53,8.37,8.37,0,0,0-4,1.08c-1.18.76-2.22,2.55-1.58,4.08a2.31,2.31,0,0,0-1.67-.88,2.25,2.25,0,0,0-1.72.73c.88.54,1.73,1.12,2.6,1.67a2.35,2.35,0,0,0-2.67,1.07,5.41,5.41,0,0,0-.48,2.82,38,38,0,0,0,1.94,10.83c.6,1.8,2.27,4.86,4,5.7Z" transform="translate(-91.08 -105.82)"/><path class="cls-23" d="M176.92,168.51a9.32,9.32,0,0,1-6.2,2.61,23.23,23.23,0,0,1-6.4-1.27,4.9,4.9,0,0,1-1.45,2.67,5.58,5.58,0,0,1-3,1.29,19.15,19.15,0,0,1,0,5.95,1.11,1.11,0,0,1-.75.91c-.71.21-1.18-.52-1.52-1.1a4.91,4.91,0,0,0-1.54-1.72,2.41,2.41,0,0,0-2.22-.23,2.32,2.32,0,0,0-1.17,1.43,4.16,4.16,0,0,0-.09,1.89,5.6,5.6,0,0,0,1.22,2.87,3.89,3.89,0,0,0,2.73,1.42,2.86,2.86,0,0,0,2.64-1.3l0,.19c.08.31.18.62.29.92a7.87,7.87,0,0,0,5.75,4.92c1.33.28,2.81.54,4.32.77.74.12,1.49.22,2.23.31a5.39,5.39,0,0,0,5.95-4.4C178.76,180.89,179.1,174.2,176.92,168.51Z" transform="translate(-91.08 -105.82)"/><path class="cls-23" d="M159.5,185v10a11,11,0,0,0,8.06,4.46,3.94,3.94,0,0,0,2.89-.74,2.35,2.35,0,0,0-.29-3.71,1.27,1.27,0,0,1-.59-1.07v-3.26c-1.51-.23-3-.49-4.32-.77A7.87,7.87,0,0,1,159.5,185Z" transform="translate(-91.08 -105.82)"/><path class="cls-25" d="M166.19,192.16a21.36,21.36,0,0,0,3.38.6v-2c-1.51-.23-3-.49-4.32-.77a7.86,7.86,0,0,1-5.56-4.49,8.09,8.09,0,0,0,2,4.19A9.64,9.64,0,0,0,166.19,192.16Z" transform="translate(-91.08 -105.82)"/><polygon class="cls-25" points="80.84 71.25 84.51 75.7 81.14 76.89 80.84 71.25"/><path class="cls-20" d="M166.72,177.63a1,1,0,0,0,1,1,1,1,0,0,0,0-2A1,1,0,0,0,166.72,177.63Z" transform="translate(-91.08 -105.82)"/><path class="cls-20" d="M175.2,177.35a1,1,0,1,0,1-1A1,1,0,0,0,175.2,177.35Z" transform="translate(-91.08 -105.82)"/><path class="cls-20" d="M174.67,172.87l2.7.31a1.45,1.45,0,0,0-1.14-1.19A1.68,1.68,0,0,0,174.67,172.87Z" transform="translate(-91.08 -105.82)"/><path class="cls-20" d="M168.63,172.87l-2.6.78a1.43,1.43,0,0,1,.9-1.37A1.7,1.7,0,0,1,168.63,172.87Z" transform="translate(-91.08 -105.82)"/><path class="cls-25" d="M168,184.17l2.82,1.37a1.85,1.85,0,0,1-2.14.61A1.68,1.68,0,0,1,168,184.17Z" transform="translate(-91.08 -105.82)"/><path class="cls-15" d="M168,184.17l2.82,1.37a1.85,1.85,0,0,1-2.14.61A1.68,1.68,0,0,1,168,184.17Z" transform="translate(-91.08 -105.82)"/><path class="cls-25" d="M169.7,186.24a1.7,1.7,0,0,1-1-.09,1.5,1.5,0,0,1-.75-1.48,1.78,1.78,0,0,1,1.11.38A1.72,1.72,0,0,1,169.7,186.24Z" transform="translate(-91.08 -105.82)"/><path class="cls-23" d="M142.33,254.4l-12.5-21.93a8.85,8.85,0,0,1-.22-7.38l6.95-16.34a21.26,21.26,0,0,1,12.11-11.59l1.75-.66c1,9.8-2,14.53-10.93,31.56,0,0,4.72,15.88,8.42,22.93a26.83,26.83,0,0,1,7.9,5.74,1.43,1.43,0,0,1,.08,1.88l0,0a1.33,1.33,0,0,1-1.65.36c-1.2-.62-2.4-1.26-3.61-1.87a39.59,39.59,0,0,0,4.69,7.76,1.46,1.46,0,0,1-.09,1.9l0,0a1.46,1.46,0,0,1-1.28.45l-3.91-.58a7.08,7.08,0,0,1-5.32-3.89A24.24,24.24,0,0,1,142.33,254.4Z" transform="translate(-91.08 -105.82)"/><path class="cls-5" d="M150.42,196.5c-7.6,2.61-11.91,4.34-17.94,20.72,3,4.67,11.33,4,11.33,4C154.63,204.94,150.42,196.5,150.42,196.5Z" transform="translate(-91.08 -105.82)"/><path class="cls-14" d="M150.42,196.5c-7.6,2.61-11.91,4.34-17.94,20.72,3,4.67,11.33,4,11.33,4C154.63,204.94,150.42,196.5,150.42,196.5Z" transform="translate(-91.08 -105.82)"/><path class="cls-23" d="M211.33,192a1,1,0,0,1,0-.7c.58-2,1.17-4,.05-4.78a.63.63,0,0,0-.93.28c-.44,1-1.49,2.67-2.1,3.81a11.64,11.64,0,0,0-.74,2.81l3.67-1.41Z" transform="translate(-91.08 -105.82)"/></g><g id="Character_3" data-name="Character 3"><path class="cls-25" d="M195.5,283.73c-.18-.63.12-3.54-.58-4s.62-1.55,1.89-.5S195.5,283.73,195.5,283.73Z" transform="translate(-91.08 -105.82)"/><polygon class="cls-12" points="105.27 156.39 105.33 179.26 114.01 174.25 113.94 151.39 105.27 156.39"/><polygon class="cls-5" points="106.17 156.91 106.18 161.34 113.06 157.36 113.05 152.93 106.17 156.91"/><polygon class="cls-5" points="106.18 162.36 106.19 166.79 113.08 162.82 113.06 158.39 106.18 162.36"/><polygon class="cls-5" points="106.2 167.82 106.21 172.25 113.09 168.28 113.08 163.85 106.2 167.82"/><polygon class="cls-5" points="106.21 173.28 106.22 177.71 113.11 173.74 113.09 169.31 106.21 173.28"/><g class="cls-6"><polygon class="cls-7" points="106.17 156.91 106.18 161.34 113.06 157.36 113.05 152.93 106.17 156.91"/></g><g class="cls-26"><polygon class="cls-7" points="106.18 162.36 106.19 166.79 113.08 162.82 113.06 158.39 106.18 162.36"/></g><g class="cls-27"><polygon class="cls-7" points="106.2 167.82 106.21 172.25 113.09 168.28 113.08 163.85 106.2 167.82"/></g><path class="cls-8" d="M141.36,281.37l-12.58,28.52,6.42,7-2.28,9.59-12.67-11a6.83,6.83,0,0,1-1.68-8.13l10.18-21.16a8.69,8.69,0,0,1,8-4.93Z" transform="translate(-91.08 -105.82)"/><path class="cls-15" d="M126.22,313.39a9,9,0,0,0,2.56-3.5l1.11,1.22A5.71,5.71,0,0,1,126.22,313.39Z" transform="translate(-91.08 -105.82)"/><path class="cls-20" d="M150.31,433c.53,1.11,2.21,2.13,4,2.43a18.44,18.44,0,0,0,5.53-.35,36.73,36.73,0,0,1,8.25-.21,44.41,44.41,0,0,0,5.14.37,8.23,8.23,0,0,0,4.83-1.53,4.93,4.93,0,0,0,1.81-3.08,4.63,4.63,0,0,1-1.81,4.15,8.1,8.1,0,0,1-4.83,1.53,42.3,42.3,0,0,1-5.14-.37,36.15,36.15,0,0,0-8.25.22c-1.84.25-3.83.78-5.66.48a5.67,5.67,0,0,1-4-2.43Z" transform="translate(-91.08 -105.82)"/><path class="cls-7" d="M170.36,429.73c-1.55,0-1-2.27-2.44-3.8.59,0,1.19,0,1.79,0C171,427.87,171.4,429.73,170.36,429.73Z" transform="translate(-91.08 -105.82)"/><path class="cls-7" d="M167.16,429.62c-1.55,0-1.15-2.72-2.67-4.31a10.42,10.42,0,0,0,1,.31c.31.07.61.12.92.16C167.82,427.7,168.21,429.62,167.16,429.62Z" transform="translate(-91.08 -105.82)"/><path class="cls-4" d="M151.91,424.41a2.08,2.08,0,0,1,.8-1.26l8.32-.21a7.15,7.15,0,0,0,3.46,2.37c1.52,1.59,1.12,4.31,2.67,4.31,1.05,0,.66-1.92-.7-3.84.48.07,1,.12,1.46.15,1.46,1.53.89,3.8,2.44,3.8,1,0,.67-1.86-.65-3.76h1.17l1.06-.06c3.06,2.42,3.32,5.05,2.93,9.17a12.41,12.41,0,0,1-1.6.17,44.41,44.41,0,0,1-5.14-.37,36.73,36.73,0,0,0-8.25.21,18.44,18.44,0,0,1-5.53.35c-1.83-.3-3.51-1.32-4-2.43Z" transform="translate(-91.08 -105.82)"/><path class="cls-7" d="M171.94,425.9a13.19,13.19,0,0,1,4.16,0,5,5,0,0,1,3.75,3.26,3.83,3.83,0,0,1,.06,1.47,4.93,4.93,0,0,1-1.81,3.08,7.26,7.26,0,0,1-3.23,1.36C175.26,431,175,428.32,171.94,425.9Z" transform="translate(-91.08 -105.82)"/><path class="cls-25" d="M161.27,420.57v4a1.65,1.65,0,0,1-1.65,1.65h-4.19a2.71,2.71,0,0,1-2.71-2.61l-.1-3.05Z" transform="translate(-91.08 -105.82)"/><path class="cls-20" d="M133.53,418.79a3.09,3.09,0,0,0,2.52,1.77,5.37,5.37,0,0,0,3.2-.79c1.45-.92,2-2.36,3-3.66a21.94,21.94,0,0,1,3.48-3.4,11.3,11.3,0,0,0,3.33-3.86,5.19,5.19,0,0,0,.4-1.41,5.06,5.06,0,0,1-.4,2.71,11.3,11.3,0,0,1-3.33,3.86,21.94,21.94,0,0,0-3.48,3.4c-1,1.3-1.54,2.74-3,3.66a5.37,5.37,0,0,1-3.2.79,3.09,3.09,0,0,1-2.52-1.77,7,7,0,0,1-.15-2.24A2.76,2.76,0,0,0,133.53,418.79Z" transform="translate(-91.08 -105.82)"/><path class="cls-7" d="M143,410a1,1,0,0,1,.2.69.72.72,0,0,1-.45.52,1,1,0,0,1-.94-.24,4.89,4.89,0,0,1-.65-.78,4.9,4.9,0,0,0-2.14-1.56,4.73,4.73,0,0,0-1.28-.28l1-.95a5.46,5.46,0,0,1,1.9.46A5.34,5.34,0,0,1,143,410Z" transform="translate(-91.08 -105.82)"/><path class="cls-7" d="M142.77,406.68a5.27,5.27,0,0,1,2.32,2.14,1,1,0,0,1,.2.68.72.72,0,0,1-.45.52,1,1,0,0,1-.94-.24,4.89,4.89,0,0,1-.65-.78,4.85,4.85,0,0,0-4.25-1.84l1-.93A5.17,5.17,0,0,1,142.77,406.68Z" transform="translate(-91.08 -105.82)"/><path class="cls-7" d="M140.69,405.63a10.94,10.94,0,0,1,3.27-2.18,4.32,4.32,0,0,1,4.49.62,3.92,3.92,0,0,1,1,3.37,5.19,5.19,0,0,1-.4,1.41,7.31,7.31,0,0,1-1,1.64C147.62,406.9,144.51,405.23,140.69,405.63Z" transform="translate(-91.08 -105.82)"/><path class="cls-4" d="M133.45,415.27a7.48,7.48,0,0,1,.81-3.5l2-2.13c.49-.43,1-.87,1.45-1.31a4.73,4.73,0,0,1,1.28.28,4.9,4.9,0,0,1,2.14,1.56,4.89,4.89,0,0,0,.65.78,1,1,0,0,0,.94.24.72.72,0,0,0,.45-.52,1,1,0,0,0-.2-.69,5.34,5.34,0,0,0-2.32-2.14,5.46,5.46,0,0,0-1.9-.46,2.39,2.39,0,0,0,.23-.22,4.85,4.85,0,0,1,4.25,1.84,4.89,4.89,0,0,0,.65.78,1,1,0,0,0,.94.24.72.72,0,0,0,.45-.52,1,1,0,0,0-.2-.68,5.27,5.27,0,0,0-2.32-2.14,5.17,5.17,0,0,0-2.74-.45l0,0,.62-.56c3.82-.4,6.93,1.27,7.33,4.86a16.66,16.66,0,0,1-2.3,2.22,21.94,21.94,0,0,0-3.48,3.4c-1,1.3-1.54,2.74-3,3.66a5.37,5.37,0,0,1-3.2.79,3.09,3.09,0,0,1-2.52-1.77,2.76,2.76,0,0,1-.15-.94A22.65,22.65,0,0,1,133.45,415.27Z" transform="translate(-91.08 -105.82)"/><path class="cls-25" d="M140.75,408.93l-.24,4.31c-2.71,1.56-5.57.71-6.52-.28l-.18-4Z" transform="translate(-91.08 -105.82)"/><path class="cls-3" d="M135,316.57a4.23,4.23,0,0,0,.41-.68,39.13,39.13,0,0,0,28,3.19c2,14.76,3.69,39.77,2.64,56.27-.87,19.2-4.4,46.4-4.4,46.4-4.61,1.38-8.07.54-9.37-.46-1.54-19.05-4.92-32.11-2.31-44.71-1.74-8.81-2.87-19.87-2.87-19.87l-1.33,19.46-4.5,34.21a8.1,8.1,0,0,1-8.1-.41c-3.27-19.57-4.5-32.82-1.64-42.53C127.16,335.34,126.94,327.12,135,316.57Z" transform="translate(-91.08 -105.82)"/><path class="cls-15" d="M145.17,352.86l-2.42-10.13c-2.82-.47-7.22-2.31-9.54-6.17a19.45,19.45,0,0,0,11.69,4.12l2.2,16-.47,6.85-.18-2.5A53,53,0,0,0,145.17,352.86Z" transform="translate(-91.08 -105.82)"/><path class="cls-7" d="M152.45,281.78l7.05,1.38c1.55,2.85,3.14,5.53,4.7,8.38,1.17,2.14,2.38,4.43,2.29,6.87a7,7,0,0,1-4.22,6.07l3.66,24.26c-9.51,8.63-34,2.46-37-.1,1.27-6.48,4.07-9,5.54-15.84,1.17-5.44-1.12-11.41-1.51-13.2a41.17,41.17,0,0,1-1.19-7.94,13.91,13.91,0,0,1,1.86-7.7l0-.07a8.6,8.6,0,0,1,8.65-3.71Z" transform="translate(-91.08 -105.82)"/><path class="cls-3" d="M141.36,252.35a11.85,11.85,0,0,0-5.15,10.42c.15,2.33,1,4.63.74,7-.15,1.36-.69,2.75-.33,4.07a4.23,4.23,0,0,0,2.22,2.51c1,.53,3.39.39,4.52.63,3.43,3.12,7.74,1.95,10.49-.84S161,262.85,161,262.85A14.21,14.21,0,0,0,163.2,256a5.77,5.77,0,0,0-1-3.9,2.73,2.73,0,0,0-3.64-.66c1-.79.28-2.62-.78-3.35a4.42,4.42,0,0,0-3.72-.28,34.18,34.18,0,0,1-3.67,1.2c-1.67.3-3.39-.08-5.08.1S141.52,250.66,141.36,252.35Z" transform="translate(-91.08 -105.82)"/><polygon class="cls-28" points="70.67 160.13 72.81 163.85 70.47 164.72 70.67 160.13"/><path class="cls-25" d="M162,264.28c-.35-3.27-1.3-6.35-3.43-7.91a17.67,17.67,0,0,1-2.45,11.7,5.17,5.17,0,0,0-1.59-2.81,3,3,0,0,0-3.05-.65,3,3,0,0,0-1.53,1.67,4,4,0,0,0,5,5.25,7.64,7.64,0,0,1-5.87,5.94,9.79,9.79,0,0,1-5.68-.54l-.89,4.4c3.59,3.83,9.72,1.26,9.72,1.26l.81-4.34c7.05.42,7.71.3,8.49-3.58A38,38,0,0,0,162,264.28Z" transform="translate(-91.08 -105.82)"/><path class="cls-3" d="M154.91,271.53c0,1.33,0,2.6-.07,3.93a10.93,10.93,0,0,0,.41,4.15,3.63,3.63,0,0,0,3.08,2.48,9.42,9.42,0,0,1-8.49,1.54,9.22,9.22,0,0,1-6-6.07,7,7,0,0,0,2,5.73,8.31,8.31,0,0,1-7.48-1.65,8.16,8.16,0,0,1-2.81-7,26.93,26.93,0,0,1,1.62-5.27,7.28,7.28,0,0,0,.06-5.39,49.12,49.12,0,0,0,5.47,5.61,15.11,15.11,0,0,0,6.57,3.59,6.58,6.58,0,0,0,2.79.11A5.33,5.33,0,0,0,154.91,271.53Z" transform="translate(-91.08 -105.82)"/><path class="cls-13" d="M144.68,256.37a6.84,6.84,0,0,1-6.84,6.83,7.1,7.1,0,0,1-1.61-.19,1.94,1.94,0,0,0,0-.24,11.85,11.85,0,0,1,5.15-10.42,2.73,2.73,0,0,1,.63-1.41A6.83,6.83,0,0,1,144.68,256.37Z" transform="translate(-91.08 -105.82)"/><path class="cls-3" d="M131.87,254.06a6.84,6.84,0,1,0,6.84-6.84A6.84,6.84,0,0,0,131.87,254.06Z" transform="translate(-91.08 -105.82)"/><path class="cls-25" d="M199.08,293.89A138.59,138.59,0,0,1,184,313.3a3.73,3.73,0,0,1-4.7.5c-7.67-5.06-14-13.64-14-13.64l8.31-5.71,7.2,9.35,13.62-13.39.9-7.45a1.83,1.83,0,0,1,1.08-1.46l3.84-1.66a1.82,1.82,0,0,1,1.43,0l2.24.94a1,1,0,0,1,.41,1.48h0a1,1,0,0,1-1.07.36l-1.1-.32,2.6,1.93a2.05,2.05,0,0,1,.83,1.65v1.33a2.06,2.06,0,0,1-.92,1.71l-.31.21a1.06,1.06,0,0,1-1.51-.37h0C202.33,291.56,199.08,293.89,199.08,293.89Z" transform="translate(-91.08 -105.82)"/><path class="cls-29" d="M202.13,282.29l-.7-.47a1.13,1.13,0,0,0-.84-.16l-3.17.63,3-1a1.13,1.13,0,0,1,1.26.39Z" transform="translate(-91.08 -105.82)"/><path class="cls-29" d="M202.82,288.75c.29-1,.46-2.44,0-3l1.29.72-.14,1.33Z" transform="translate(-91.08 -105.82)"/><path class="cls-7" d="M186.9,296.27a1.7,1.7,0,0,0-1.58.42l-1.9,1.82a1.64,1.64,0,0,0-.5,1.45l0,.18.55-.52c6.79,2.16,6.06,8.95,6.06,8.95l-1,1.21a1.67,1.67,0,0,0,1.6-.61l2.37-3a1.67,1.67,0,0,0,.36-1.12C192.82,303.15,192.09,297.57,186.9,296.27Z" transform="translate(-91.08 -105.82)"/><path class="cls-12" d="M186.9,296.27a1.7,1.7,0,0,0-1.58.42l-1.9,1.82a1.64,1.64,0,0,0-.5,1.45l0,.18.55-.52c6.79,2.16,6.06,8.95,6.06,8.95l-1,1.21a1.67,1.67,0,0,0,1.6-.61l2.37-3a1.67,1.67,0,0,0,.36-1.12C192.82,303.15,192.09,297.57,186.9,296.27Z" transform="translate(-91.08 -105.82)"/><path class="cls-8" d="M183.49,299.62l-.55.52-2.29,2.16-.8-1.24L170.56,289a15.35,15.35,0,0,0-10.34-5.9l-1.24-.15s-2.49,10.44,2.85,16.24L172,310a40,40,0,0,0,6.81,5.26,4.77,4.77,0,0,0,6.33-1.06l4.39-5.58S190.28,301.78,183.49,299.62Z" transform="translate(-91.08 -105.82)"/></g><g id="Character_2" data-name="Character 2"><polygon class="cls-30" points="145.19 92.25 147.93 94.78 143.23 120.92 140.33 137.97 130.35 139.13 134.43 120.92 142.16 90.79 145.19 92.25"/><path class="cls-5" d="M232.31,241.7c-6.88-2.57-11.38,1-11.38,1l-1.12,29.19,12.27-7Z" transform="translate(-91.08 -105.82)"/><path class="cls-20" d="M232.31,241.7c-6.88-2.57-11.38,1-11.38,1l-1.12,29.19,12.27-7Z" transform="translate(-91.08 -105.82)"/><path class="cls-31" d="M232.31,241.7c-6.88-2.57-11.38,1-11.38,1l-1.12,29.19,12.27-7Z" transform="translate(-91.08 -105.82)"/><path class="cls-5" d="M238.44,157.76c-1.13-.66-2.05-.13-2.06,1.17L236,200.88a4.53,4.53,0,0,0,2,3.55l50.5,29.15c1.13.65,2.05.13,2.06-1.18l.36-42a4.51,4.51,0,0,0-2-3.54Z" transform="translate(-91.08 -105.82)"/><g class="cls-17"><polygon class="cls-7" points="163.34 73.3 149.62 84.1 149.59 94.65 195.22 121 195.25 110.44 186.56 93.17 178.75 99.23 181.51 107.81 177.5 100.19 163.34 73.3"/><path class="cls-7" d="M269.41,184.43c-2.15-1.24-3.9-.24-3.9,2.23a8.53,8.53,0,0,0,3.87,6.71c2.15,1.24,3.9.25,3.9-2.22A8.56,8.56,0,0,0,269.41,184.43Z" transform="translate(-91.08 -105.82)"/></g><path class="cls-30" d="M268.31,258.22l10.84-3.62,7.14-26.95a4.05,4.05,0,0,0-.2-2.36l-.75-1.88a7.73,7.73,0,0,1-.55-3.12l.13-4.12a1.27,1.27,0,0,1,1.26-1.22h0a1.26,1.26,0,0,1,1.24,1l.64,3.57,1.52,1.74,1.22-4.91V210l3.23,4.65a5.65,5.65,0,0,1,.92,4.13l-1.29,7.82-3.47,30.31a12.12,12.12,0,0,1-7.67,9.91l-11.39,4.39Z" transform="translate(-91.08 -105.82)"/><path class="cls-20" d="M245.08,422.23c.59,1.85,2.62,2.9,4.55,3.06a22.59,22.59,0,0,0,5.76-.74c4.27-.77,8.4,0,12.66-.11a17.56,17.56,0,0,0,4.16-.45,6.79,6.79,0,0,0,3.57-2.1,4.65,4.65,0,0,0,1-2.23,4.39,4.39,0,0,1-1,3.48,6.79,6.79,0,0,1-3.57,2.1,18.11,18.11,0,0,1-4.16.46c-4.26.1-8.39-.67-12.66.1a22.59,22.59,0,0,1-5.76.74c-1.93-.16-4-1.21-4.55-3.06a4.86,4.86,0,0,1-.15-2A3.69,3.69,0,0,0,245.08,422.23Z" transform="translate(-91.08 -105.82)"/><path class="cls-3" d="M245.19,418.68c.26-1.29.52-2.59.79-3.88a5.63,5.63,0,0,1,.65-2,2,2,0,0,1,1.73-1c2.35-.31,5.64-1.16,7.58.18a17.45,17.45,0,0,0,10.48,3,36.24,36.24,0,0,1,5.79-.23c1.92.23,3.92,1.3,4.49,3.15a3.72,3.72,0,0,1,.1,1.69,4.65,4.65,0,0,1-1,2.23,6.79,6.79,0,0,1-3.57,2.1,17.56,17.56,0,0,1-4.16.45c-4.26.1-8.39-.66-12.66.11a22.59,22.59,0,0,1-5.76.74c-1.93-.16-4-1.21-4.55-3.06a3.69,3.69,0,0,1-.15-.72A9.07,9.07,0,0,1,245.19,418.68Z" transform="translate(-91.08 -105.82)"/><path class="cls-30" d="M256.51,407.94l.17,5.06a2,2,0,0,1-1.86,2.07,30.94,30.94,0,0,1-5.1-.05,2.88,2.88,0,0,1-2.61-2.71l-.2-3.74Z" transform="translate(-91.08 -105.82)"/><path class="cls-20" d="M223.47,405.25a3.93,3.93,0,0,0,.67,2.09,3.8,3.8,0,0,0,2.39,1.34,6,6,0,0,0,5.93-2.44c.64-.92,1-2,1.6-2.95a13.64,13.64,0,0,1,3.33-3.23,13.78,13.78,0,0,0,3.34-3.21,4.71,4.71,0,0,0,.64-4.28,3.65,3.65,0,0,1,.32.54,4.89,4.89,0,0,1-.6,4.56,14.54,14.54,0,0,1-3.42,3.31,13.58,13.58,0,0,0-3.39,3.33c-.62,1-1,2.09-1.64,3a6.13,6.13,0,0,1-6,2.52,3.91,3.91,0,0,1-2.44-1.39,4.72,4.72,0,0,1-.71-2.91C223.45,405.46,223.46,405.36,223.47,405.25Z" transform="translate(-91.08 -105.82)"/><path class="cls-3" d="M225,398.9c1.54-2.7,4.71-4.66,7.16-6.57a9.19,9.19,0,0,1,4.74-2.16,4.46,4.46,0,0,1,4.42,2.26,1.21,1.21,0,0,1,.05.14,4.71,4.71,0,0,1-.64,4.28,13.78,13.78,0,0,1-3.34,3.21,13.64,13.64,0,0,0-3.33,3.23c-.6.95-1,2-1.6,2.95a6,6,0,0,1-5.93,2.44,3.8,3.8,0,0,1-2.39-1.34,3.93,3.93,0,0,1-.67-2.09c0-.24,0-.49,0-.73A11.91,11.91,0,0,1,225,398.9Z" transform="translate(-91.08 -105.82)"/><path class="cls-30" d="M231.67,396.56v4.6a7.71,7.71,0,0,1-7.15-.32l-.44-4.14Z" transform="translate(-91.08 -105.82)"/><path class="cls-5" d="M222.88,313.1c-1.38,4.14.31,23.81,1.12,42.67-3,7.12-2.19,27.36-.46,41.74,0,0,6,2,11.41.12l3.77-39.79.94-22.43s1.7,19.9,3.66,32.66c-1.84,9.77-2.58,11.14.32,41.89,0,0,7.5,2.5,13-.21,2.56-42.24,1.62-80.73,1.13-94.58Z" transform="translate(-91.08 -105.82)"/><path class="cls-15" d="M222.88,313.1c-1.38,4.14.31,23.81,1.12,42.67-3,7.12-2.19,27.36-.46,41.74,0,0,6,2,11.41.12l3.77-39.79.94-22.43s1.7,19.9,3.66,32.66c-1.84,9.77-2.58,11.14.32,41.89,0,0,7.5,2.5,13-.21,2.56-42.24,1.62-80.73,1.13-94.58Z" transform="translate(-91.08 -105.82)"/><path class="cls-15" d="M239.08,349.07l.77-18.29c-4.72,0-9.11-3.53-12.44-6.88,3.2,5.71,9.41,8.24,9.41,8.24Z" transform="translate(-91.08 -105.82)"/><path class="cls-20" d="M258.51,316.29c-21.08,8.84-34.75.86-36.6-3.29,1-14.58-2.48-31.63-2.21-38.88s1.15-15.41,12.38-13.77L244,261.51l6.06,1.48,7.27,15.09Z" transform="translate(-91.08 -105.82)"/><path class="cls-20" d="M232.08,254.62a3.15,3.15,0,0,1-2.33-.79,2.28,2.28,0,0,1-.55-2,2.2,2.2,0,0,1-1.61-1.3,2.53,2.53,0,0,1,.37-2.19,3.64,3.64,0,0,1-2.37-1.93,3.89,3.89,0,0,1-.11-3.15,3.39,3.39,0,0,1-2.38-2.32,3.69,3.69,0,0,1,.67-3.4,4.6,4.6,0,0,1-.53-4.58,4.85,4.85,0,0,1,3.93-2.65,4.69,4.69,0,0,1,1.54-4.23,4.54,4.54,0,0,1,4.34-.85,4.17,4.17,0,0,1,7-1.2,3.16,3.16,0,0,1,2.81-1,3.29,3.29,0,0,1,2.55,1.67,4.27,4.27,0,0,1,6,4.09,2.52,2.52,0,0,1,1.8,2.49,2.65,2.65,0,0,1-2.08,2.39,59.4,59.4,0,0,1-5.6,16.42c-1.18,2.3-2.63,4.64-4.93,5.83C238.11,257.18,234.21,256.44,232.08,254.62Z" transform="translate(-91.08 -105.82)"/><path class="cls-20" d="M232.08,254.62a3.15,3.15,0,0,1-2.33-.79,2.28,2.28,0,0,1-.55-2,2.2,2.2,0,0,1-1.61-1.3,2.53,2.53,0,0,1,.37-2.19,3.64,3.64,0,0,1-2.37-1.93,3.89,3.89,0,0,1-.11-3.15,3.39,3.39,0,0,1-2.38-2.32,3.69,3.69,0,0,1,.67-3.4,4.6,4.6,0,0,1-.53-4.58,4.85,4.85,0,0,1,3.93-2.65,4.69,4.69,0,0,1,1.54-4.23,4.54,4.54,0,0,1,4.34-.85,4.17,4.17,0,0,1,7-1.2,3.16,3.16,0,0,1,2.81-1,3.29,3.29,0,0,1,2.55,1.67,4.27,4.27,0,0,1,6,4.09,2.52,2.52,0,0,1,1.8,2.49,2.65,2.65,0,0,1-2.08,2.39,59.4,59.4,0,0,1-5.6,16.42c-1.18,2.3-2.63,4.64-4.93,5.83C238.11,257.18,234.21,256.44,232.08,254.62Z" transform="translate(-91.08 -105.82)"/><polygon class="cls-29" points="160.9 135.31 163.37 139.62 160.66 140.62 160.9 135.31"/><polygon class="cls-32" points="160.9 135.31 163.37 139.62 160.66 140.62 160.9 135.31"/><path class="cls-30" d="M251.12,233.64a40.06,40.06,0,0,1,.71,18.28,6.25,6.25,0,0,1-1.13,2.89,4.57,4.57,0,0,1-3.15,1.45,13.48,13.48,0,0,1-3.52-.34v5.59c-4.25,1-8.62,1.4-11.95-1.16v-5.73a15.21,15.21,0,0,0,7.42.47c2.93-1.59,3.52-7,3.11-8.36a2.22,2.22,0,0,1-2.29.81,3.08,3.08,0,0,1-1.91-1.52,6.32,6.32,0,0,1-.71-2.38,4.33,4.33,0,0,1,.44-2.95,3.08,3.08,0,0,1,3.32-1.12,4.79,4.79,0,0,1,2.8,2.34,8,8,0,0,1,.49,1.07.67.67,0,0,0,1.29-.16,8.94,8.94,0,0,0-.85-4.69,3.22,3.22,0,0,0,2.4-1.46,3,3,0,0,0,.46-2.69A9,9,0,0,0,251.12,233.64Z" transform="translate(-91.08 -105.82)"/><path class="cls-30" d="M236,199.05l2.19-5.66,1-4.44a1.13,1.13,0,0,0-.75-1.33h0a1.14,1.14,0,0,0-1.43.71l-.83,2.41v-6.8L233.36,189a4.49,4.49,0,0,0-.54,2.51l-.58,9Z" transform="translate(-91.08 -105.82)"/><path class="cls-20" d="M250.06,263c6.72-2.22,18.69-5.83,18.69-5.83,5.37,5.41,4.91,14.16,4.91,14.16l-16.3,6.78C241.8,283,239.53,266.46,250.06,263Z" transform="translate(-91.08 -105.82)"/><path class="cls-31" d="M250.06,263c6.72-2.22,18.69-5.83,18.69-5.83,5.37,5.41,4.91,14.16,4.91,14.16l-16.3,6.78C241.8,283,239.53,266.46,250.06,263Z" transform="translate(-91.08 -105.82)"/></g></svg>